<svg width="62.253" height="78.901" viewBox="0 0 62.253 78.901" xmlns="http://www.w3.org/2000/svg"><g id="svgGroup" stroke-linecap="round" fill-rule="evenodd" font-size="9pt" fill="white"><path d="M 51.3 63.75 L 51.3 77.85 L 62.25 77.85 L 62.25 31.05 C 62.25 11.644 50.127 0.917 34.33 0.057 A 38.262 38.262 0 0 0 32.25 0 C 15.381 0 4.405 11.161 2.648 20.411 A 13.627 13.627 0 0 0 2.4 22.95 L 12.45 25.2 C 12.716 18.81 19.127 11.238 27.907 9.616 A 18.936 18.936 0 0 1 31.35 9.3 A 18.769 18.769 0 0 1 49.047 19.192 C 50.087 21.316 50.786 23.814 51.042 26.717 A 28.864 28.864 0 0 1 51.15 29.25 L 51.15 31.05 C 5.686 33.195 0.421 46.786 0.027 57.277 A 40.602 40.602 0 0 0 0 58.8 C 0 67.93 6.614 76.178 18.425 78.347 A 35.014 35.014 0 0 0 24.75 78.9 A 37.196 37.196 0 0 0 32.531 78.119 C 43.002 75.884 48.603 69.266 51.3 63.75 Z M 51.3 40.5 L 51.3 45.75 C 51.15 58.95 38.7 69.15 27.9 69 A 26.5 26.5 0 0 1 19.894 67.859 C 14.507 66.137 10.892 62.467 11.1 56.85 A 11.06 11.06 0 0 1 15.051 48.621 C 19.849 44.383 29.861 41.174 49.47 40.55 A 207.042 207.042 0 0 1 51.3 40.5 Z" id="0" vector-effect="non-scaling-stroke"/></g></svg>