<svg width="93.005" height="112.518" viewBox="0 0 93.005 112.518" xmlns="http://www.w3.org/2000/svg"><g id="svgGroup" stroke-linecap="round" fill-rule="evenodd" font-size="9pt" fill="white"><path d="M 79.955 36 L 91.055 33.9 C 90.155 21 75.455 0 49.505 0 C 28.412 0 6.872 16.3 1.355 42.927 A 66.329 66.329 0 0 0 0.005 56.4 A 68.604 68.604 0 0 0 4.596 81.928 A 47.015 47.015 0 0 0 49.955 112.5 A 43.955 43.955 0 0 0 62.723 110.669 C 82.7 104.638 91.869 85.33 92.964 77.424 A 13.991 13.991 0 0 0 93.005 77.1 L 81.905 74.55 A 18.389 18.389 0 0 1 81.322 76.733 C 78.865 84.295 69.628 101.55 50.255 101.55 A 36.567 36.567 0 0 1 15.453 75.815 A 55.237 55.237 0 0 1 12.305 57 A 55.74 55.74 0 0 1 15.386 38.317 C 20.846 22.914 32.772 13.29 44.698 11.325 A 27.721 27.721 0 0 1 49.205 10.95 C 68.105 10.95 78.605 26.7 79.955 36 Z" id="0" vector-effect="non-scaling-stroke"/></g></svg>