<svg width="66.348" height="79.052" viewBox="0 0 66.348 79.052" xmlns="http://www.w3.org/2000/svg"><g id="svgGroup" stroke-linecap="round" fill-rule="evenodd" font-size="9pt" fill="white"><path d="M 54.948 24.9 L 64.848 23.4 A 21.633 21.633 0 0 0 64.309 20.421 C 62.281 12.408 55.6 4.394 45.089 1.317 A 33.677 33.677 0 0 0 35.598 0 A 35.41 35.41 0 0 0 2.136 26.187 A 46.147 46.147 0 0 0 0.048 40.05 A 37.707 37.707 0 0 0 24.197 77.148 A 37.973 37.973 0 0 0 36.348 79.05 A 30.689 30.689 0 0 0 54.571 73.28 A 29.243 29.243 0 0 0 66.348 52.95 L 56.148 51 C 55.455 59.308 49.268 67.615 38.528 68.845 A 24.437 24.437 0 0 1 35.748 69 A 24.722 24.722 0 0 1 24.735 66.619 C 15.573 62.123 11.148 51.763 11.148 39.9 C 11.148 27.925 15.739 18.312 23.064 13.282 A 21.86 21.86 0 0 1 35.598 9.45 A 20.508 20.508 0 0 1 42.224 10.512 C 49.989 13.148 54.23 20.119 54.948 24.9 Z" id="0" vector-effect="non-scaling-stroke"/></g></svg>