<svg width="70.954" height="106.351" viewBox="0 0 70.954 106.351" xmlns="http://www.w3.org/2000/svg"><g id="svgGroup" stroke-linecap="round" fill-rule="evenodd" font-size="9pt" fill="white"><path d="M 59.704 92.55 L 59.704 105 L 70.954 105 L 70.954 0 L 59.704 0 L 59.704 41.85 C 53.854 33 44.704 27 33.754 27 C 16.25 27 1.353 41.685 0.091 63.573 A 52.597 52.597 0 0 0 0.004 66.6 A 50.602 50.602 0 0 0 3.252 85.117 C 8.385 98.177 19.383 106.35 34.654 106.35 A 29.696 29.696 0 0 0 46.1 104.159 A 30.038 30.038 0 0 0 59.704 92.55 Z M 13.799 52.577 A 37.315 37.315 0 0 0 11.404 66.15 A 37.677 37.677 0 0 0 14.379 81.179 A 22.014 22.014 0 0 0 34.804 95.55 A 22.905 22.905 0 0 0 53.703 85.183 A 33.111 33.111 0 0 0 59.404 66.3 A 35.292 35.292 0 0 0 57.162 53.62 A 23.756 23.756 0 0 0 34.504 37.5 C 24.778 37.5 17.384 43.407 13.799 52.577 Z" id="0" vector-effect="non-scaling-stroke"/></g></svg>