<svg width="68.273" height="78.455" viewBox="0 0 68.273 78.455" xmlns="http://www.w3.org/2000/svg"><g id="svgGroup" stroke-linecap="round" fill-rule="evenodd" font-size="9pt" fill="white"><path d="M 67.204 53.105 L 56.854 50.855 A 21.236 21.236 0 0 1 44.281 66.923 A 21.384 21.384 0 0 1 35.704 68.705 C 22.178 68.705 11.964 59.041 11.156 42.23 A 45.312 45.312 0 0 1 11.104 40.055 L 68.254 40.055 C 68.854 15.155 52.804 0.005 35.254 0.005 A 33.502 33.502 0 0 0 13.609 7.46 C 7.584 12.406 3.306 19.552 1.297 28.096 A 50.268 50.268 0 0 0 0.004 39.605 A 43.892 43.892 0 0 0 5.07 60.709 C 10.512 70.674 20.077 77.347 32.489 78.329 A 40.767 40.767 0 0 0 35.704 78.455 C 52.804 78.455 65.404 66.005 67.204 53.105 Z M 56.254 31.055 L 11.854 31.055 A 24.394 24.394 0 0 1 29.417 10.151 A 24.111 24.111 0 0 1 35.254 9.455 C 47.404 9.455 55.204 19.505 56.254 31.055 Z" id="0" vector-effect="non-scaling-stroke"/></g></svg>