<svg width="16.202" height="109.051" viewBox="0 0 16.202 109.051" xmlns="http://www.w3.org/2000/svg"><g id="svgGroup" stroke-linecap="round" fill-rule="evenodd" font-size="9pt" fill="white"><path d="M 2.551 109.051 L 13.801 109.051 L 13.801 32.551 L 2.551 32.551 L 2.551 109.051 Z M 6.571 16.083 A 9.761 9.761 0 0 0 8.101 16.201 C 12.372 16.201 15.455 13.588 16.083 9.631 A 9.761 9.761 0 0 0 16.201 8.101 C 16.201 3.83 13.588 0.747 9.631 0.119 A 9.761 9.761 0 0 0 8.101 0.001 C 3.83 0.001 0.747 2.614 0.119 6.571 A 9.761 9.761 0 0 0 0.001 8.101 C 0.001 12.372 2.614 15.455 6.571 16.083 Z" id="0" vector-effect="non-scaling-stroke"/></g></svg>