<svg width="48" height="48" viewBox="0 0 48 48" fill="none" xmlns="http://www.w3.org/2000/svg">

  <!-- ICONS -->
  <g id="instagram">
    <path d="M16.942 9.00002C15.8985 8.99755 14.8648 9.20123 13.9003 9.59936C12.9357 9.99749 12.0593 10.5822 11.3213 11.32C10.5834 12.0578 9.99843 12.9341 9.60007 13.8985C9.20171 14.863 8.99779 15.8966 9.00002 16.9401V31.058C8.99779 32.1016 9.20177 33.1355 9.60025 34.1C9.99872 35.0646 10.5838 35.941 11.322 36.6788C12.0601 37.4166 12.9368 38.0013 13.9016 38.3993C14.8663 38.7973 15.9002 39.0008 16.9439 38.9981H31.0599C32.1032 39.0003 33.1367 38.7965 34.101 38.3982C35.0654 38 35.9416 37.4152 36.6793 36.6775C37.4171 35.9397 38.0019 35.0635 38.4001 34.0992C38.7983 33.1348 39.0022 32.1013 39 31.058V16.9401C39.0022 15.8966 38.7983 14.863 38.3999 13.8985C38.0016 12.9341 37.4166 12.0578 36.6787 11.32C35.9407 10.5822 35.0643 9.99749 34.0997 9.59936C33.1352 9.20123 32.1015 8.99755 31.058 9.00002H16.9401H16.942ZM32.8223 13.4116C33.0539 13.4116 33.2834 13.4573 33.4974 13.5459C33.7115 13.6346 33.9059 13.7645 34.0698 13.9284C34.2336 14.0922 34.3636 14.2867 34.4522 14.5007C34.5409 14.7148 34.5865 14.9442 34.5865 15.1759C34.5865 15.4076 34.5409 15.637 34.4522 15.851C34.3636 16.0651 34.2336 16.2596 34.0698 16.4234C33.9059 16.5872 33.7115 16.7172 33.4974 16.8058C33.2834 16.8945 33.0539 16.9401 32.8223 16.9401C32.3543 16.9401 31.9056 16.7543 31.5747 16.4234C31.2439 16.0925 31.058 15.6438 31.058 15.1759C31.058 14.708 31.2439 14.2592 31.5747 13.9284C31.9056 13.5975 32.3543 13.4116 32.8223 13.4116ZM23.9991 15.6165C26.2209 15.6204 28.3505 16.5049 29.9214 18.0762C31.4923 19.6474 32.3763 21.7773 32.3798 23.9991C32.3758 26.2206 31.4916 28.3499 29.9207 29.9208C28.3499 31.4916 26.2205 32.3758 23.9991 32.3798C21.7776 32.3758 19.6482 31.4916 18.0774 29.9208C16.5066 28.3499 15.6223 26.2206 15.6183 23.9991C15.6223 21.7776 16.5066 19.6482 18.0774 18.0774C19.6482 16.5066 21.7776 15.6223 23.9991 15.6184V15.6165ZM23.9991 17.3826C23.1295 17.3806 22.2682 17.5504 21.4644 17.8822C20.6607 18.214 19.9304 18.7012 19.3155 19.316C18.7005 19.9308 18.213 20.6609 17.881 21.4646C17.549 22.2682 17.379 23.1295 17.3807 23.9991C17.3788 24.8688 17.5486 25.7303 17.8805 26.5341C18.2124 27.338 18.6998 28.0684 19.3148 28.6833C19.9298 29.2983 20.6601 29.7857 21.464 30.1176C22.2679 30.4495 23.1294 30.6194 23.9991 30.6174C24.8687 30.6194 25.7303 30.4495 26.5341 30.1176C27.338 29.7857 28.0684 29.2983 28.6833 28.6833C29.2983 28.0684 29.7857 27.338 30.1176 26.5341C30.4495 25.7303 30.6194 24.8688 30.6174 23.9991C30.6194 23.1294 30.4495 22.2679 30.1176 21.464C29.7857 20.6601 29.2983 19.9298 28.6833 19.3148C28.0684 18.6998 27.338 18.2124 26.5341 17.8805C25.7303 17.5486 24.8687 17.3788 23.9991 17.3807V17.3826Z"/>
  </g>

  <g id="youtube">
    <path fill-rule="evenodd" clip-rule="evenodd" d="M32.5939 12.0001L33.0391 12.0021C41.6564 12.0791 42 14.4491 42 21.2701V27.7105L41.9979 28.1148C41.9215 35.2885 39.7537 36.9806 32.5939 36.9806H15.4061L14.9645 36.9776C7.28332 36.8683 6 33.8619 6 27.7105L6.00119 20.3106C6.02354 14.4187 6.47029 12 15.4061 12H32.5939V12.0001ZM20.3222 19.2755V29.3856L30.025 24.3142L20.3222 19.2755Z"/>
  </g>

  <g id="twitter">
    <path d="M42 12.4627C40.6613 13.05 39.2347 13.4392 37.7475 13.6282C39.2775 12.7147 40.4453 11.2792 40.9943 9.549C39.5678 10.3995 37.9927 11.0003 36.3142 11.3355C34.9597 9.89325 33.0292 9 30.9232 9C26.8372 9 23.5477 12.3165 23.5477 16.3823C23.5477 16.9673 23.5972 17.5297 23.7188 18.0652C17.583 17.766 12.1537 14.8253 8.5065 10.3455C7.86975 11.4503 7.49625 12.7148 7.49625 14.076C7.49625 16.632 8.8125 18.8977 10.7745 20.2095C9.58875 20.187 8.4255 19.8428 7.44 19.3005C7.44 19.323 7.44 19.3523 7.44 19.3815C7.44 22.968 9.99825 25.947 13.353 26.6332C12.7522 26.7975 12.0975 26.8762 11.418 26.8762C10.9455 26.8762 10.4685 26.8493 10.0208 26.7502C10.977 29.673 13.6905 31.8217 16.917 31.8915C14.406 33.8557 11.2178 35.0392 7.76625 35.0392C7.161 35.0392 6.5805 35.0122 6 34.938C9.26925 37.0462 13.1438 38.25 17.322 38.25C30.903 38.25 38.328 27 38.328 17.2485C38.328 16.9222 38.3167 16.6073 38.301 16.2945C39.7658 15.255 40.9965 13.9567 42 12.4627Z" />
  </g>

  <g id="linkedin">
    <path d="M39.9917 37.9998L39.9997 37.9984V26.2625C39.9997 20.5213 38.7637 16.0986 32.0518 16.0986C28.8252 16.0986 26.6599 17.8693 25.7759 19.5479H25.6825V16.6346H19.3186V37.9984H25.9452V27.4199C25.9452 24.6346 26.4732 21.9412 29.9225 21.9412C33.3211 21.9412 33.3718 25.1199 33.3718 27.5985V37.9998H39.9917Z" />
    <path d="M8.52833 16.6362H15.1629V38H8.52833V16.6362Z"/>
    <path d="M11.8426 6C9.72132 6 8 7.72132 8 9.84263C8 11.9639 9.72132 13.7213 11.8426 13.7213C13.9639 13.7213 15.6853 11.9639 15.6853 9.84263C15.6839 7.72132 13.9626 6 11.8426 6Z"/>
  </g>

  <g id="medium">
    <path d="M26.8452 24.011C26.8452 31.1969 21.0595 37.0224 13.9224 37.0224C6.7852 37.0224 1 31.1986 1 24.011C1 16.8234 6.78564 11 13.9224 11C21.0591 11 26.8452 16.8251 26.8452 24.011ZM41.0216 24.011C41.0216 30.7756 38.1286 36.2589 34.5602 36.2589C30.9919 36.2589 28.0988 30.7739 28.0988 24.011C28.0988 17.2481 30.9919 11.7631 34.5602 11.7631C38.1286 11.7631 41.0216 17.2481 41.0216 24.011ZM46.82 24.011C46.82 30.0718 45.8024 34.9846 44.5474 34.9846C43.2924 34.9846 42.2749 30.07 42.2749 24.011C42.2749 17.952 43.2924 13.0374 44.5479 13.0374C45.8033 13.0374 46.82 17.9507 46.82 24.011Z" />
  </g>

  <g id="github">
    <path d="M8 0c4.42 0 8 3.58 8 8a8.013 8.013 0 0 1-5.45 7.59c-.4.08-.55-.17-.55-.38 0-.27.01-1.13.01-2.2 0-.75-.25-1.23-.54-1.48 1.78-.2 3.65-.88 3.65-3.95 0-.88-.31-1.59-.82-2.15.08-.2.36-1.02-.08-2.12 0 0-.67-.22-2.2.82-.64-.18-1.32-.27-2-.27-.68 0-1.36.09-2 .27-1.53-1.03-2.2-.82-2.2-.82-.44 1.1-.16 1.92-.08 2.12-.51.56-.82 1.28-.82 2.15 0 3.06 1.86 3.75 3.64 3.95-.23.2-.44.55-.51 1.07-.46.21-1.61.55-2.33-.66-.15-.24-.6-.83-1.23-.82-.67.01-.27.38.01.53.34.19.73.9.82 1.13.16.45.68 1.31 2.69.94 0 .67.01 1.3.01 1.49 0 .21-.15.45-.55.38A7.995 7.995 0 0 1 0 8c0-4.42 3.58-8 8-8Z"></path>
  </g>

  <g id="arrow-bent-down">
    <path d="M33 20V39.1716C33 40.9534 35.1543 41.8457 36.4142 40.5858L46.5 30.5L48 32L32 48L16 32L17.5 30.5L27.5858 40.5858C28.8457 41.8457 31 40.9534 31 39.1716V20H33Z" />
    <path d="M0 10H23V12H0V10Z" />
    <path d="M33 20C33 17.3478 31.9464 14.8043 30.0711 12.9289C28.1957 11.0536 25.6522 10 23 10V12C25.1217 12 27.1566 12.8429 28.6569 14.3431C30.1571 15.8434 31 17.8783 31 20H33Z" />
  </g>

  <symbol id="arrow-right" viewBox="0 0 64 48">
    <path d="M0 23H55.1716C56.9534 23 57.8457 20.8457 56.5858 19.5858L46.5 9.5L48 8L64 24L48 40L46.5 38.5L56.5858 28.4142C57.8457 27.1543 56.9534 25 55.1716 25H0V23Z" />
  </symbol>

  <g id="play">
    <path fill-rule="evenodd" clip-rule="evenodd" d="M42 24L10 3L10 45L42 24ZM33.2321 26.5081C35.0375 25.3234 35.0374 22.6766 33.2321 21.4919L16.0064 10.1875C14.6764 9.31469 12.9091 10.2688 12.9091 11.8596L12.9091 36.1404C12.9091 37.7312 14.6764 38.6853 16.0064 37.8125L33.2321 26.5081Z" />
  </g>

  <g id="plus">
    <path d="M0 23H17C20.3137 23 23 20.3137 23 17V0H25V17C25 20.3137 27.6863 23 31 23H48V25H31C27.6863 25 25 27.6863 25 31V48H23V31C23 27.6863 20.3137 25 17 25H0V23Z" />
  </g>

  <g id="arrow-bent-up">
    <path d="M33 38V18.8284C33 17.0466 35.1543 16.1543 36.4142 17.4142L46.5 27.5L48 26L32 10L16 26L17.5 27.5L27.5858 17.4142C28.8457 16.1543 31 17.0466 31 18.8284V38H33Z" />
    <path d="M0 48H23V46H0V48Z" />
    <path d="M33 38C33 40.6522 31.9464 43.1957 30.0711 45.0711C28.1957 46.9464 25.6522 48 23 48V46C25.1217 46 27.1566 45.1571 28.6569 43.6569C30.1571 42.1566 31 40.1217 31 38H33Z" />
  </g>

  <g id="arrow-bent-back">ş
    <path d="M38 17H8.82843C7.04662 17 6.15428 19.1543 7.41421 20.4142L17.5 30.5L16 32L0 16L16 0L17.5 1.5L7.41422 11.5858C6.15429 12.8457 7.04662 15 8.82843 15H38V17Z" />
    <path d="M38 15C40.1012 15 42.1817 15.4139 44.1229 16.2179C46.0641 17.022 47.828 18.2006 49.3137 19.6863C50.7994 21.172 51.978 22.9359 52.7821 24.8771C53.5862 26.8183 54 28.8988 54 31C54 33.1012 53.5862 35.1817 52.7821 37.1229C51.978 39.0641 50.7994 40.828 49.3137 42.3137C47.828 43.7994 46.0641 44.978 44.1229 45.7821C42.1817 46.5861 40.1012 47 38 47V45C39.8385 45 41.659 44.6379 43.3576 43.9343C45.0561 43.2307 46.5995 42.1995 47.8995 40.8995C49.1995 39.5995 50.2307 38.0561 50.9343 36.3576C51.6379 34.659 52 32.8385 52 31C52 29.1615 51.6379 27.341 50.9343 25.6424C50.2307 23.9439 49.1995 22.4005 47.8995 21.1005C46.5995 19.8005 45.0561 18.7693 43.3576 18.0657C41.659 17.3621 39.8385 17 38 17V15Z" />
  </g>

  <g id="chevron">
    <path d="M12 20L13.4142 18.5858L18.364 23.5355C21.4882 26.6597 26.5535 26.6597 29.6777 23.5355L34.6274 18.5858L36.0416 20L24.0208 32.0208L12 20Z" />
  </g>

  <!-- AWARDS -->

  <g id="fwa">
    <path fill-rule="evenodd" clip-rule="evenodd" d="M62.4943 13H48.2726C47.2398 13 46.2321 13.3435 45.4147 13.9704C44.8584 14.3658 44.3895 14.8828 44.0526 15.475L44.0345 15.5067L44.0173 15.5388L42.0505 19.188C42.0505 19.188 39.767 14.7178 39.1045 14.1728C38.251 13.4364 37.1663 13.0322 36.0366 13.0322C35.3384 13.0322 34.6356 13.1927 34.0045 13.4962C32.7811 14.0845 32.1043 15.1628 31.5272 16.4326L30.0423 19.1877L28.2401 15.6502C27.7674 14.6918 26.9785 13.9212 26.0087 13.4706C25.3727 13.1625 24.6672 13 23.9629 13H12.4735C11.6929 13 10.9186 13.1965 10.2341 13.5683C8.72002 14.3907 7.77971 15.9715 7.77971 17.6938V18.92H6.69376C4.1055 18.92 2 21.0255 2 23.6138C2 26.2019 4.1055 28.3074 6.69376 28.3074H7.77971V29.3934C7.77971 31.9817 9.88521 34.0873 12.4735 34.0873C15.0615 34.0873 17.1672 31.9817 17.1672 29.3934V28.3074H21.3358C22.2378 28.3074 23.0815 28.0517 23.7975 27.6087L25.6355 31.2158C25.7273 31.4222 25.8347 31.6226 25.956 31.8142C26.8034 33.2075 28.3322 34.0694 29.9669 34.0694C30.6653 34.0694 31.3679 33.9087 31.999 33.6052C33.144 33.0546 34.1386 32.1256 34.6466 30.9346L35.9814 27.9533L37.6442 31.2172C37.7357 31.4223 37.8424 31.6215 37.9631 31.8123C38.8103 33.2068 40.3393 34.0694 41.9748 34.0694C42.6732 34.0694 43.3758 33.9087 44.007 33.6054C45.0803 33.0895 45.9143 32.1764 46.3436 31.0793C47.0448 32.7907 48.7289 33.9991 50.6896 33.9991L62.4943 34.0024C65.0823 34.0024 67.188 31.9817 67.188 29.3934V28.3074H68.274C70.862 28.3074 72.9677 26.2019 72.9677 23.6138C72.9677 21.0255 70.862 18.92 68.274 18.92H67.188V17.6938C67.188 15.9717 66.2475 14.3907 64.7336 13.5683C64.0489 13.1965 63.2748 13 62.4943 13ZM52.1608 27.7643H60.9531V25.155H52.1608V27.7643ZM62.4943 16.1527C62.7603 16.1527 63.0105 16.22 63.2288 16.3386C63.7093 16.5996 64.0355 17.1087 64.0355 17.6938V22.0725H68.274C69.1252 22.0725 69.8152 22.7626 69.8152 23.6138C69.8152 24.465 69.1252 25.155 68.274 25.155H64.0355V29.3099C64.0355 30.1611 63.3455 30.8513 62.4943 30.8513C62.3152 30.8513 50.6896 30.8466 50.6896 30.8466C49.8382 30.8466 49.1482 30.1565 49.1482 29.3053V23.5438H49.1518C49.1885 22.7252 49.8619 22.0725 50.6896 22.0725H60.9531V19.2353H49.1068L43.4845 29.6675C43.3947 30.1293 43.0973 30.5447 42.6406 30.7641C42.4256 30.8675 42.1986 30.9168 41.9748 30.9168C41.4403 30.9168 40.9258 30.6366 40.6434 30.152C40.5864 30.0652 40.5381 29.9733 40.5 29.8779L36.06 21.1625L31.568 29.6835C31.3736 30.14 31.0892 30.5445 30.6325 30.7641C30.4175 30.8675 30.1905 30.9168 29.9669 30.9168C29.4322 30.9168 28.9179 30.6368 28.6352 30.1522C28.5781 30.0651 28.5297 29.973 28.4915 29.8772L23.0699 19.2353H14.0147V22.0725H21.3358C22.187 22.0725 22.877 22.7626 22.877 23.6138C22.877 24.465 22.187 25.155 21.3358 25.155H14.0147V29.3934C14.0147 30.2446 13.3247 30.9346 12.4735 30.9346C11.6223 30.9346 10.9323 30.2446 10.9323 29.3934V25.155H6.69376C5.84257 25.155 5.15257 24.465 5.15257 23.6138C5.15257 22.7626 5.84257 22.0725 6.69376 22.0725H10.9323V17.6938C10.9323 17.1087 11.2583 16.5996 11.7387 16.3386C11.9571 16.22 12.2074 16.1527 12.4735 16.1527H23.9629C24.2128 16.1527 24.4482 16.2137 24.6569 16.3192C24.9793 16.4625 25.2546 16.7156 25.4196 17.0586L29.9637 25.9788L34.5223 17.4596C34.7516 16.9934 34.8786 16.574 35.371 16.3372C35.586 16.2338 35.813 16.1849 36.0366 16.1849C36.4179 16.1849 36.7888 16.3273 37.0732 16.5846C37.354 16.8042 37.4839 16.9527 37.6766 17.326L41.9719 25.9788L46.7924 17.0346C46.9178 16.8141 47.09 16.6375 47.2884 16.5078C47.5555 16.2861 47.8985 16.1527 48.2726 16.1527H62.4943Z"/>
  </g>

  <g id="awwwards">
    <path d="M0.469388 23.1361C0.860545 21.1412 2.62075 19.7331 5.12415 19.7331C8.01871 19.7331 10.2483 20.9456 10.2483 24.8572V32.1327H7.78402L7.47109 30.5681C6.61055 31.6242 5.47619 32.3283 3.71599 32.3283C1.64286 32.3283 0 31.0375 0 28.6123C0 26.1871 2.15136 24.6225 5.20238 24.6225H7.2364V24.0749C7.2364 22.7059 6.21939 22.2756 5.08504 22.2756C4.22449 22.2756 3.36395 22.5494 2.97279 23.6837L0.469388 23.1361ZM4.42007 29.7858C5.78912 29.7858 7.2364 28.847 7.2364 27.2824V27.0477H5.2415C3.95068 27.0086 3.16837 27.5171 3.16837 28.5732C3.16837 29.1599 3.59864 29.7858 4.42007 29.7858Z" />
    <path d="M59.0647 23.1361C59.4559 21.1412 61.2161 19.7331 63.7195 19.7331C66.614 19.7331 68.8436 20.9456 68.8436 24.8572V32.1327H66.3793L66.0664 30.5681C65.2059 31.6242 64.0715 32.3283 62.3113 32.3283C60.2382 32.3283 58.5953 31.0375 58.5953 28.6123C58.5953 26.1871 60.7467 24.6225 63.7977 24.6225H65.8317V24.0749C65.8317 22.7059 64.8147 22.2756 63.6804 22.2756C62.8198 22.2756 61.9593 22.5494 61.5681 23.6837L59.0647 23.1361ZM63.0154 29.7858C64.3844 29.7858 65.8317 28.847 65.8317 27.2824V27.0477H63.8368C62.546 27.0477 61.7637 27.5171 61.7637 28.6123C61.7637 29.1599 62.194 29.7858 63.0154 29.7858Z" />
    <path d="M71.5817 32.1718V19.9286H74.5936V21.9235C75.4542 20.4763 76.8232 19.7331 78.1923 19.7331C78.7399 19.7331 79.1702 19.8113 79.6787 19.9678L79.1311 22.745C78.779 22.5103 78.3879 22.3929 77.8794 22.3929C76.1192 22.3929 74.5936 23.8402 74.5936 27.7909V32.1327L71.5817 32.1718Z" />
    <path d="M86.0936 19.733C87.3453 19.733 88.5188 20.3588 89.0664 21.0238V15H92.0783V32.1718H89.0664V30.9201C88.7144 31.5459 87.6192 32.3674 86.0936 32.3674C82.4168 32.3674 80.5392 29.8248 80.5392 26.0697C80.5392 22.3146 82.4168 19.733 86.0936 19.733ZM86.5239 29.7857C88.0885 29.7857 89.3402 28.4949 89.3402 26.0697C89.3402 23.6446 88.0885 22.3537 86.5239 22.3537C84.9593 22.3537 83.7076 23.6446 83.7076 26.0697C83.7076 28.4949 84.9593 29.7857 86.5239 29.7857Z" />
    <path d="M102.952 21.6887L101.153 23.3316C100.606 22.5884 99.7841 22.2754 99.1191 22.2754C98.5324 22.2754 97.9848 22.6275 97.9848 23.2925C97.9848 23.8401 98.415 24.2312 99.1582 24.4659C100.84 25.0918 103.578 25.6003 103.578 28.221C103.578 30.4506 101.896 32.2891 99.2365 32.2891C96.6939 32.2891 94.9729 30.4897 94.3861 29.0033L96.7722 27.7125C97.2025 28.886 98.0239 29.7465 99.2365 29.7465C100.175 29.7465 100.762 29.3163 100.762 28.4166C100.762 27.3996 99.1974 27.1649 97.711 26.5391C96.381 25.9914 95.2467 25.1309 95.2467 23.2533C95.2467 21.3758 96.7722 19.6938 99.1582 19.6938C100.762 19.6938 102.209 20.5152 102.952 21.6887Z" />
    <path d="M40.2892 19.9286L38.1379 28.3385L36.0647 19.9286H33.2484L31.2144 28.3385L29.4933 23.449L29.2977 24.0358L28.3198 27.165L29.8845 32.1718H32.5443L34.6566 24.2705L36.7688 32.1718H39.4287L43.3402 19.9286H40.2892Z" />
    <path d="M54.8402 19.9286L52.6497 28.3385L50.5766 19.9286H47.7602L45.7262 28.3385L44.0051 23.449L43.8096 24.0358L42.8317 27.165L44.3963 32.1718H47.0562L49.1684 24.2705L51.2807 32.1718H53.9405L57.8521 19.9286H54.8402Z" />
    <path d="M28.8283 19.9286L24.9168 32.1327H22.2569L20.1447 24.2314L18.0324 32.1718H15.3725L11.461 19.9678H14.512L16.7025 28.3385L18.7756 19.9678H21.5528L23.6259 28.3385L25.8164 19.9678L28.8283 19.9286Z" />
    <path d="M107.49 28.2211C108.663 28.2211 109.524 29.0816 109.524 30.2551C109.524 31.4286 108.663 32.2891 107.49 32.2891C106.316 32.2891 105.456 31.4286 105.456 30.2551C105.456 29.0816 106.356 28.2211 107.49 28.2211Z" />
  </g>

  <g id="w3">
    <path d="M38.9781 8L27.0623 11.5518L26.2376 16.2908L33.4786 14.0727L32.5232 19.7968L36.5259 18.5044C36.5259 18.5044 37.6105 18.1856 38.4164 18.1856C38.4164 18.1856 40.9232 18.5727 40.8261 21.0281C40.7886 21.9772 39.9389 23.7607 38.4164 23.927C37.1474 24.0656 36.3576 23.927 35.3158 22.3632C35.3158 22.3632 31.0121 23.7579 31.0121 23.5887C32.5232 28.3711 38.0136 28.3711 38.0136 28.3711C38.0136 28.3711 44.8146 28.3711 45.2993 21.0281C45.2993 13.6908 38.0136 13.6851 38.0136 13.6851L38.9781 8Z"/>
    <path d="M13.856 29.8947L4 19.1624V26.0139L16.759 39.9998L19.0848 26.9874L28.1726 36.8331L30.8839 16.8816L26.1236 18.2882L24.645 26.0139L16.1144 16.8816L13.856 29.8947Z"/>
  </g>

  <g id="communicator">
    <path d="M25 40C16.1776 40 9 32.8224 9 24C9 15.1776 16.1776 8 25 8C27.03 8 29.0072 8.3748 30.8768 9.1148C30.9884 9.1588 31.0736 9.2516 31.108 9.3668C31.142 9.4816 31.122 9.606 31.0528 9.704L28.8284 12.864C28.7308 13.0028 28.5552 13.0628 28.3928 13.0128C27.298 12.6748 26.1564 12.5036 25 12.5036C18.6608 12.5036 13.5036 17.6608 13.5036 24C13.5036 30.3392 18.6608 35.4968 25 35.4968C26.1468 35.4968 27.2796 35.3276 28.3672 34.9948C28.5296 34.9452 28.7044 35.0052 28.802 35.1436L31.028 38.306C31.0968 38.404 31.1172 38.5284 31.0828 38.6436C31.0484 38.7584 30.9628 38.852 30.8508 38.8956C28.9892 39.6284 27.0204 40 25 40Z"/>
    <path d="M40.6084 8.71228H36.8872C36.6712 8.71228 36.4956 8.88748 36.4956 9.10388V12.8707C36.0668 12.4291 35.6112 12.0091 35.1276 11.6135C35.0436 11.5447 34.9344 11.5139 34.8268 11.5287C34.7192 11.5435 34.6224 11.6023 34.5596 11.6911L32.4108 14.7443C32.2944 14.9095 32.3232 15.1359 32.476 15.2671C35.0264 17.4503 36.4908 20.6263 36.4956 23.9827V24.0163C36.4908 27.3827 35.0196 30.5647 32.4568 32.7487C32.3028 32.8795 32.2744 33.1067 32.3908 33.2723L34.5392 36.3247C34.6016 36.4135 34.6984 36.4723 34.806 36.4875C34.824 36.4899 34.8416 36.4911 34.8592 36.4911C34.9488 36.4911 35.0364 36.4603 35.1068 36.4027C35.598 36.0027 36.0608 35.5767 36.4956 35.1283V38.8775C36.4956 39.0939 36.6712 39.2691 36.8872 39.2691H40.6084C40.8248 39.2691 41 39.0939 41 38.8775V9.10388C41 8.88748 40.8252 8.71228 40.6084 8.71228Z"/>
  </g>

  <g id="webrazzi">
    <path fill-rule="evenodd" clip-rule="evenodd" d="M50.9378 20.2238C52.7013 20.2238 53.9745 20.6912 54.7821 21.4983C55.6322 22.3482 56.0129 23.6009 56.0129 25.13V30.3121C56.0129 31.1823 55.3132 31.8618 54.4422 31.8618C53.5084 31.8618 52.8913 31.2038 52.8913 30.5242V30.5034C52.1063 31.3735 50.3984 31.9471 48.8266 31.9471C46.6816 31.9471 44.9187 30.7153 44.9187 28.4646V28.4215C44.9187 25.9368 46.809 24.7903 49.5064 24.7903C50.6529 24.7903 52.1063 24.9812 52.9134 25.2572V25.0657C52.9134 23.729 52.0843 22.9852 50.4704 22.9852C49.5779 22.9852 48.8565 23.112 48.2405 23.3036C48.0498 23.367 47.9224 23.3878 47.7731 23.3878C47.0299 23.3878 46.4347 22.8146 46.4347 22.0713C46.4347 21.4983 46.7966 21.0101 47.3067 20.818C48.3256 20.4364 49.4306 20.2238 50.9378 20.2238ZM44.53 20.2238C45.528 20.2238 46.1022 20.8821 46.1022 21.7951C46.1022 22.6448 45.5496 23.1545 44.8905 23.3042C43.2551 23.6854 42.3414 24.9382 42.3414 27.233V30.2482C42.3414 31.1399 41.6212 31.8619 40.7287 31.8619C39.837 31.8619 39.1145 31.1399 39.1145 30.2482V21.8382C39.1145 20.9463 39.837 20.2238 40.7287 20.2238C41.6212 20.2238 42.3414 20.9463 42.3414 21.8382V22.3482C42.8101 21.243 43.5744 20.2238 44.53 20.2238ZM78.0166 20.2238C78.9088 20.2238 79.6302 20.9463 79.6302 21.8382V30.2482C79.6302 31.1399 78.9088 31.8618 78.0166 31.8618C77.1244 31.8618 76.4025 31.1399 76.4025 30.2482V21.8382C76.4025 20.9463 77.1244 20.2238 78.0166 20.2238ZM74.1441 20.3512C75.0575 20.3512 75.7162 20.8821 75.7162 21.6471V21.7102C75.7162 22.3258 75.4487 22.6403 74.9931 23.2822L70.6242 29.1227H74.7997C75.5225 29.1227 76.1164 29.7175 76.1164 30.4391C76.1164 31.1614 75.5225 31.7348 74.7997 31.7348H68.1459C67.2339 31.7348 66.5758 31.2038 66.5758 30.4391V30.3758C66.5758 29.7597 66.7483 29.4107 67.2264 28.8043L71.5749 22.9637H67.4077C66.6859 22.9637 66.0909 22.3902 66.0909 21.6672C66.0909 20.9449 66.6859 20.3512 67.4077 20.3512H74.1441ZM64.1311 20.3512C65.0443 20.3512 65.7029 20.8821 65.7029 21.6471V21.7102C65.7029 22.3258 65.4356 22.6403 64.9801 23.2822L60.6115 29.1227H64.7868C65.5087 29.1227 66.1025 29.7175 66.1025 30.4392C66.1025 31.1628 65.5087 31.7339 64.7868 31.7339H58.1344C57.2218 31.7339 56.5626 31.2038 56.5626 30.4392V30.3758C56.5626 29.7603 56.7368 29.4107 57.2139 28.8044L61.5617 22.9638H57.3948C56.6723 22.9638 56.0784 22.3903 56.0784 21.6672C56.0784 20.9463 56.6723 20.3512 57.3948 20.3512H64.1311ZM50.2711 26.7226C48.8911 26.7226 48.041 27.2751 48.041 28.2948V28.3374C48.041 29.2076 48.7635 29.7175 49.8045 29.7175C51.3124 29.7175 52.9559 28.8884 52.9559 27.7201V27.1477C52.4037 26.892 51.057 26.7226 50.2711 26.7226Z"/>
    <path fill-rule="evenodd" clip-rule="evenodd" d="M15.3023 20.2847C15.6473 20.2847 15.9469 20.4046 16.1995 20.643C16.4532 20.8827 16.5791 21.1641 16.5791 21.4875C16.5791 21.7843 16.4705 22.2305 16.2526 22.8287L13.8991 29.7292C13.6954 30.3136 13.5366 30.7359 13.4238 30.9962C13.3114 31.256 13.1336 31.4883 12.8917 31.6925C12.6483 31.8965 12.3159 31.9988 11.8937 31.9988C11.4575 31.9988 11.1142 31.8893 10.865 31.6721C10.6158 31.4532 10.4316 31.1865 10.3099 30.8695C10.1916 30.553 10.061 30.1411 9.92033 29.6346L8.27378 24.0206L6.68137 29.6346C6.46924 30.4165 6.2407 31.0058 5.99512 31.403C5.74787 31.8006 5.31611 31.9988 4.69683 31.9988C4.3801 31.9988 4.11079 31.9369 3.88978 31.8138C3.66793 31.6914 3.48314 31.5158 3.33499 31.2864C3.18676 31.0581 3.05728 30.7867 2.94457 30.4746C2.83237 30.1601 2.74414 29.9136 2.68135 29.7292L0.34886 22.8287C0.116141 22.1807 0 21.7344 0 21.4875C0 21.1782 0.123387 20.9014 0.369524 20.6541C0.615382 20.408 0.918176 20.2847 1.27735 20.2847C1.75597 20.2847 2.07914 20.4197 2.24828 20.6912C2.41765 20.962 2.59654 21.4239 2.78658 22.0783L4.66502 28.5162L6.37412 22.5323C6.55719 21.9064 6.69252 21.4786 6.78127 21.2505C6.86834 21.0217 7.03469 20.8035 7.27665 20.5964C7.51948 20.3876 7.85182 20.2847 8.27378 20.2847C8.70298 20.2847 9.03898 20.3876 9.28261 20.5964C9.52485 20.8035 9.69617 21.0292 9.7942 21.2724C9.8927 21.5142 10.0294 21.9344 10.205 22.5323L11.9154 28.5162L13.8148 22.0783C13.9416 21.6141 14.0439 21.2781 14.1204 21.0705C14.1983 20.8637 14.3275 20.6802 14.5109 20.5226C14.6939 20.3633 14.9579 20.2847 15.3023 20.2847ZM21.6577 20.264C22.7824 20.264 23.7488 20.5015 24.5542 20.9766C25.3599 21.4513 25.9627 22.065 26.3643 22.8178C26.7656 23.5705 26.9663 24.3374 26.9663 25.1177C26.9663 25.8424 26.7578 26.3127 26.3423 26.5273C25.9281 26.7415 25.344 26.8482 24.5916 26.8482H18.9554C18.9629 27.5031 19.0947 28.0805 19.3519 28.5786C19.6076 29.079 19.9495 29.4552 20.3754 29.7092C20.8007 29.9618 21.2701 30.0881 21.7844 30.0881C22.1291 30.0881 22.4436 30.0485 22.7288 29.967C23.0137 29.8869 23.2895 29.7597 23.5568 29.5877C23.8244 29.4153 24.0712 29.2302 24.2961 29.0339C24.521 28.8362 24.8132 28.5692 25.1721 28.2308C25.3198 28.1051 25.531 28.0411 25.8045 28.0411C26.1006 28.0411 26.3392 28.1218 26.5226 28.284C26.7057 28.4459 26.7969 28.6747 26.7969 28.9709C26.7969 29.2302 26.6953 29.5348 26.4907 29.883C26.2868 30.2318 25.9784 30.5644 25.5678 30.8856C25.1556 31.2057 24.6396 31.4707 24.0165 31.6819C23.3933 31.8932 22.678 31.9988 21.8679 31.9988C20.0179 31.9988 18.5792 31.4707 17.5519 30.4165C16.5247 29.3606 16.0111 27.9289 16.0111 26.1209C16.0111 25.2701 16.1376 24.4807 16.3915 23.7511C16.6452 23.0238 17.0142 22.3992 17.4992 21.8781C17.9848 21.358 18.5831 20.9586 19.2937 20.6802C20.0044 20.4022 20.7917 20.264 21.6577 20.264ZM28.657 16C29.099 16 29.44 16.1423 29.68 16.427C29.9192 16.7126 30.0383 17.1188 30.0383 17.6465V22.047C30.5803 21.4844 31.1318 21.0529 31.6955 20.7543C32.2573 20.455 32.9542 20.3063 33.7858 20.3063C34.7411 20.3063 35.5802 20.5328 36.3022 20.9865C37.0228 21.4412 37.5821 22.0985 37.9803 22.9603C38.3777 23.8216 38.5759 24.8434 38.5759 26.0255C38.5759 26.8983 38.4654 27.6984 38.2432 28.4266C38.0216 29.1552 37.7001 29.7862 37.2784 30.3212C36.8559 30.8549 36.3441 31.2685 35.743 31.5593C35.141 31.8523 34.4776 31.9988 33.754 31.9988C33.3094 31.9988 32.8928 31.9458 32.5029 31.8398C32.1122 31.7348 31.7792 31.5963 31.506 31.424C31.2308 31.2523 30.997 31.0738 30.8036 30.8905C30.6096 30.7074 30.3549 30.433 30.0383 30.0674V30.3518C30.0383 30.8945 29.908 31.3038 29.648 31.5822C29.3878 31.8597 29.0569 31.9988 28.657 31.9988C28.2484 31.9988 27.9219 31.8597 27.6799 31.5822C27.4371 31.3038 27.3154 30.8945 27.3154 30.3518V17.7724C27.3154 17.1891 27.4329 16.7476 27.669 16.4485C27.9046 16.15 28.2333 16 28.657 16ZM33.025 22.4386C32.4758 22.4386 31.9877 22.5878 31.5585 22.8862C31.1293 23.1851 30.791 23.6176 30.5449 24.1839C30.2985 24.7513 30.1754 25.4241 30.1754 26.2054C30.1754 27.3519 30.4386 28.2345 30.9615 28.8491C31.4857 29.4647 32.1739 29.7719 33.025 29.7719C33.7492 29.7719 34.3744 29.4566 34.8982 28.8276C35.4221 28.198 35.6843 27.2958 35.6843 26.1209C35.6843 25.361 35.5755 24.7068 35.3578 24.1581C35.1391 23.6086 34.8293 23.1851 34.4291 22.8862C34.0272 22.5878 33.5589 22.4386 33.025 22.4386ZM21.5631 22.2686C20.8451 22.2686 20.2548 22.5162 19.7946 23.012C19.3338 23.5085 19.0542 24.2425 18.9554 25.2126H24.18C24.1094 24.228 23.844 23.4915 23.383 23.0023C22.9217 22.5133 22.3155 22.2686 21.5631 22.2686ZM77.9867 16.1253C78.86 16.1253 79.5348 16.6982 79.5348 17.6331V17.6753C79.5348 18.6102 78.86 19.2041 77.9867 19.2041C77.1116 19.2041 76.4379 18.6102 76.4379 17.6753V17.6331C76.4379 17.5307 76.4473 17.4339 76.4619 17.3403L76.5003 17.1657C76.6873 16.5107 77.269 16.1253 77.9867 16.1253Z"/>
  </g>

  <g id="altinorumcek">
    <path fill-rule="evenodd" clip-rule="evenodd" d="M13.9677 48C16.0891 43.8396 19.2059 40.3087 23.0282 37.6319C23.0212 37.4898 23.0509 37.3556 23.1081 37.2253C23.0754 37.233 23.0691 37.2668 23.0035 37.2736C19.9209 37.4728 16.6727 38.0896 14.4511 40.4152C16.6885 37.9695 19.9132 37.0134 23.1095 36.6193C23.1567 36.5211 23.2149 36.4355 23.2955 36.3604C23.2641 36.3611 23.2192 36.345 23.2192 36.345C22.2422 35.9488 21.2052 35.7169 20.1585 35.9492L20.4974 35.8209C21.4711 35.4526 22.543 35.6188 23.5555 35.8348C23.7712 35.6236 24.0715 35.565 24.3637 35.5559C24.4918 35.3311 24.624 35.1615 24.8882 35.1071C24.906 35.085 24.9475 35.0464 24.9475 35.0464C25.0177 34.9871 25.0888 34.957 25.1601 34.9567C24.8606 32.7395 24.4248 29.2049 24.1458 25.562C22.7853 25.5495 21.4114 25.3004 20.0785 24.783C14.784 22.729 10.8239 17.8555 12.3188 12.2384C13.8252 6.57618 20.2388 3.12485 25.6875 5.3449C29.7003 6.97988 33.1082 10.5901 31.833 14.9358C31.2563 16.9001 29.0581 14.6476 28.3509 14.0527C27.8956 13.6695 27.4383 13.3021 26.9978 13.0317C25.935 12.3794 25.5828 14.0843 24.8687 24.751C30.314 23.5583 34.0035 19.9113 35.7055 14.9505C38.5528 6.64838 28.8393 -5.1449 14.0057 5.65656C19.9623 -0.652793 26.9656 -0.49321 29.7185 0.54864C36.0813 2.95651 39.2342 8.84716 37.3766 15.6835C35.9382 20.9775 30.0983 25.2669 24.8889 25.5457C24.9628 28.1546 25.3601 34.9549 25.3601 34.9549C25.475 34.9431 25.5217 34.9867 25.5217 34.9867C25.6164 35.0498 25.6044 35.0853 25.6264 35.1007C25.9783 35.1518 26.0471 35.3375 26.2477 35.6225C26.5038 35.6441 26.7601 35.7126 26.9424 35.9045C27.8582 35.7315 28.8284 35.5975 29.6933 35.9556L30.0434 36.1007C29.0947 35.8733 28.1542 36.0916 27.269 36.453C27.2533 36.4596 27.2394 36.4728 27.226 36.4826C27.2798 36.5464 27.3171 36.6167 27.3518 36.6924C30.4243 37.1689 33.5135 38.1841 35.5711 40.6431C33.5323 38.292 30.4005 37.6212 27.4351 37.3488C27.3954 37.3415 27.3984 37.3227 27.38 37.3165C27.4079 37.4117 27.4188 37.5073 27.4141 37.6065C31.1914 40.2794 34.288 43.7942 36.25 48C34.0521 44.0901 30.811 40.9492 27.09 38.4888C26.9593 38.3657 26.7619 38.2938 26.6062 38.2046C26.6062 38.2046 26.4173 39.1516 26.017 39.3669C25.6099 39.8169 25.099 39.8169 24.6725 39.447C24.2468 39.264 24.1535 38.6019 24.0747 38.2009C23.866 38.3097 23.6152 38.5115 23.3801 38.536C19.6067 40.9976 16.3352 44.1502 13.9677 48ZM26.7633 13.0058C27.4244 13.5389 29.6296 15.4637 30.2319 15.5157C30.3201 15.5231 30.4361 15.5176 30.5346 15.1818C31.6292 11.4525 30.021 9.76595 26.7851 7.95974C22.1709 5.38403 15.4643 7.5415 14.0994 12.6717C12.769 17.6723 15.0547 22.3616 19.9997 24.2802C21.1771 24.7369 22.4109 24.9178 23.6495 24.8667C23.0909 11.6405 23.3552 10.2589 26.7633 13.0058Z"/>
  </g>

  <g id="altinorumcek-year">
    <rect x="18" y="30.5" width="15" height="20" />
    <path d="M22.7822 30.8547C22.7144 30.7772 22.6563 30.6512 22.6563 30.5641C22.6563 30.4866 22.6175 30.4187 22.5594 30.4187C22.5109 30.4187 22.4625 30.2928 22.4625 30.1281C22.4625 29.9731 22.4238 29.8375 22.3656 29.8375C22.3172 29.8375 22.2688 29.76 22.2688 29.6631C22.2688 29.5663 22.1816 29.4306 22.075 29.3531C21.8716 29.2078 21.8038 28.8687 21.9781 28.8687C22.0363 28.8687 22.075 28.4812 22.075 27.9C22.075 26.9991 22.0653 26.9312 21.8813 26.9312C21.7747 26.9312 21.6875 26.8925 21.6875 26.8344C21.6875 26.7859 21.5325 26.7375 21.3388 26.7375C20.9997 26.7375 20.7188 26.9119 20.7188 27.125C20.7188 27.2994 20.4572 27.5125 20.2344 27.5125C19.8856 27.5125 19.75 27.28 19.75 26.6987C19.75 26.3984 19.7984 26.1562 19.8469 26.1562C19.905 26.1562 19.9438 26.0303 19.9438 25.8656C19.9438 25.5944 19.9244 25.575 19.5563 25.575C19.3431 25.575 19.1688 25.6234 19.1688 25.6719C19.1688 25.73 19.0428 25.7687 18.8781 25.7687C18.7231 25.7687 18.5875 25.73 18.5875 25.6719C18.5875 25.6234 18.51 25.575 18.4131 25.575C18.3162 25.575 18.1806 25.4878 18.1031 25.3812C18.0256 25.2747 17.89 25.1875 17.7931 25.1875C17.6963 25.1875 17.6188 25.1487 17.6188 25.0906C17.6188 25.0422 17.5025 24.9937 17.3669 24.9937C17.2119 24.9937 17.0084 24.8775 16.8438 24.7031C16.6791 24.5287 16.4756 24.4125 16.3206 24.4125C16.1366 24.4125 16.0688 24.3641 16.0688 24.2187C16.0688 24.1122 16.03 24.025 15.9719 24.025C15.9234 24.025 15.875 23.9087 15.875 23.7731C15.875 23.6278 15.7781 23.4341 15.6619 23.3275C15.4778 23.1725 15.4681 23.1241 15.5844 23.0466C15.6909 22.9691 15.7006 22.9303 15.6134 22.8916C15.5456 22.8722 15.4875 22.7656 15.4875 22.6591C15.4875 22.5428 15.4197 22.475 15.2938 22.475C15.1872 22.475 15.1 22.4362 15.1 22.3781C15.1 22.3297 14.9741 22.2812 14.8094 22.2812C14.5575 22.2812 14.5188 22.2425 14.5188 22.0294C14.5188 21.7775 14.325 21.5062 14.1313 21.5062C13.9472 21.5062 13.7438 21.2447 13.7438 21.0025C13.7438 20.8766 13.6566 20.7119 13.55 20.6344C13.4144 20.5375 13.3563 20.3825 13.3563 20.15C13.3563 19.9175 13.2981 19.7625 13.1625 19.6656C13.0559 19.5881 12.9688 19.4525 12.9688 19.3556C12.9688 19.2587 12.93 19.1812 12.8719 19.1812C12.8234 19.1812 12.775 19.0553 12.775 18.8906C12.775 18.7356 12.8234 18.6 12.8719 18.6C12.93 18.6 12.9688 18.5128 12.9688 18.4062C12.9688 18.2997 12.93 18.2125 12.8719 18.2125C12.8234 18.2125 12.775 18.1253 12.775 18.0187C12.775 17.9025 12.7072 17.825 12.62 17.825C12.2131 17.825 12.0484 17.1953 12.3875 16.9531C12.6684 16.7497 12.6297 16.4009 12.2906 16.0812C12 15.81 12 15.81 12 14.6863C12 13.9984 12.0387 13.5625 12.0969 13.5625C12.155 13.5625 12.1938 13.3881 12.1938 13.175C12.1938 12.9619 12.155 12.7875 12.0969 12.7875C12.0484 12.7875 12 12.7003 12 12.5937C12 12.4775 12.0678 12.4 12.155 12.4C12.3488 12.4 12.5813 12.1675 12.5813 11.9738C12.5813 11.8866 12.6297 11.8187 12.6781 11.8187C12.7363 11.8187 12.775 11.6928 12.775 11.5281C12.775 11.3731 12.8234 11.2375 12.8719 11.2375C13.0463 11.2375 12.9784 10.8984 12.775 10.7531C12.6588 10.6756 12.5813 10.5012 12.5813 10.3462C12.5813 10.0847 12.6006 10.075 13.0172 10.075C13.3563 10.075 13.5209 10.0169 13.6953 9.83281C13.8309 9.70687 13.9375 9.5325 13.9375 9.44531C13.9375 9.36781 13.9859 9.3 14.0344 9.3C14.0925 9.3 14.1313 9.17406 14.1313 9.00937C14.1313 8.76719 14.17 8.71875 14.3734 8.71875C14.6253 8.71875 15.1 8.34094 15.1 8.1375C15.1 8.00187 15.5456 7.55625 15.6909 7.55625C15.7491 7.55625 15.9331 7.41094 16.0978 7.24625C16.2819 7.04281 16.4078 6.975 16.4272 7.0525C16.495 7.23656 16.65 7.18812 16.65 6.975C16.65 6.82 16.7178 6.78125 16.9406 6.78125C17.1634 6.78125 17.2313 6.7425 17.2313 6.5875C17.2313 6.46156 17.2991 6.39375 17.4056 6.39375C17.5025 6.39375 17.6381 6.30656 17.7156 6.2C17.7931 6.08375 17.9675 6.00625 18.1225 6.00625C18.2678 6.00625 18.3938 5.9675 18.3938 5.90937C18.3938 5.86094 18.5003 5.8125 18.6359 5.8125C18.9169 5.8125 19.3625 5.425 19.3625 5.18281C19.3625 5.10531 19.4497 5.0375 19.5563 5.0375C19.6822 5.0375 19.75 5.10531 19.75 5.23125C19.75 5.40562 19.8178 5.425 20.3313 5.425C20.6509 5.425 20.9125 5.38625 20.9125 5.32812C20.9125 5.27969 21.0481 5.23125 21.2031 5.23125C21.3678 5.23125 21.4938 5.1925 21.4938 5.13437C21.4938 5.07625 21.9394 5.0375 22.6369 5.0375C23.6638 5.0375 23.7897 5.01812 23.9156 4.84375C24.0803 4.61125 24.4 4.58219 24.4 4.805C24.4 5.13437 24.8941 5.37656 25.02 5.115C25.0684 5.00844 25.0878 5.00844 25.1363 5.115C25.1653 5.17313 25.2719 5.23125 25.3784 5.23125C25.4753 5.23125 25.5625 5.27969 25.5625 5.32812C25.5625 5.38625 25.7369 5.425 25.95 5.425C26.1631 5.425 26.3375 5.47344 26.3375 5.52187C26.3375 5.58 26.415 5.61875 26.5119 5.61875C26.6088 5.61875 26.7444 5.70594 26.8219 5.8125C26.8994 5.92875 27.0738 6.00625 27.2288 6.00625C27.3741 6.00625 27.5 6.05469 27.5 6.10312C27.5 6.16125 27.5678 6.2 27.655 6.2C27.7422 6.2 27.9359 6.33562 28.0813 6.49062C28.2459 6.665 28.4494 6.78125 28.6044 6.78125C28.74 6.78125 28.8563 6.82969 28.8563 6.87812C28.8563 7.0525 29.1953 6.98469 29.3406 6.78125C29.5247 6.52937 30.0188 6.51 30.0188 6.76188C30.0188 6.85875 29.9316 6.99437 29.825 7.07187C29.4569 7.33344 29.6313 8.1375 30.0575 8.1375C30.1447 8.1375 30.2125 8.18594 30.2125 8.23437C30.2125 8.2925 30.3191 8.33125 30.4547 8.33125C30.7841 8.33125 31.375 8.92219 31.375 9.25156C31.375 9.42594 31.4234 9.49375 31.5688 9.49375C31.7238 9.49375 31.7625 9.56156 31.7625 9.86187C31.7625 10.1137 31.8206 10.2687 31.9563 10.3656C32.0628 10.4431 32.15 10.5691 32.15 10.6562C32.15 10.7434 32.2372 10.8694 32.3438 10.9469C32.4503 11.0244 32.5375 11.1503 32.5375 11.2278C32.5375 11.2956 32.6344 11.4409 32.7506 11.5378L32.9541 11.7219L32.7506 11.9059C32.5375 12.0803 32.4503 12.5937 32.6344 12.5937C32.6925 12.5937 32.7313 12.8069 32.7313 13.0587C32.7313 13.4075 32.7797 13.5528 32.925 13.6594C33.0994 13.7853 33.1188 13.9112 33.1188 15.19C33.1188 16.5269 33.1091 16.585 32.8766 16.8078C32.7506 16.9434 32.5763 17.05 32.4891 17.05C32.4116 17.05 32.3438 17.1372 32.3438 17.2437C32.3438 17.3697 32.4116 17.4375 32.5375 17.4375C32.8184 17.4375 32.7797 17.7087 32.4406 18.0187C32.2663 18.1834 32.15 18.3869 32.15 18.5419C32.15 18.6775 32.1113 18.7937 32.0531 18.7937C32.0047 18.7937 31.9563 18.8809 31.9563 18.9875C31.9563 19.0941 31.9175 19.1812 31.8594 19.1812C31.8109 19.1812 31.7625 19.2587 31.7625 19.3556C31.7625 19.4525 31.6753 19.5881 31.5688 19.6656C31.4622 19.7431 31.375 19.8787 31.375 19.9756C31.375 20.0725 31.3363 20.15 31.2781 20.15C31.2297 20.15 31.1813 20.2856 31.1813 20.4406C31.1813 20.6344 31.1328 20.7312 31.0359 20.7312C30.9488 20.7312 30.7744 20.8378 30.6484 20.9734C30.5128 21.0994 30.4063 21.2737 30.4063 21.3609C30.4063 21.4384 30.3675 21.5062 30.3094 21.5062C30.2609 21.5062 30.2125 21.5934 30.2125 21.7C30.2125 21.8259 30.1447 21.8937 30.0188 21.8937C29.7572 21.8937 29.7669 21.9422 30.1641 22.3297C30.4159 22.5912 30.5806 22.6687 30.8422 22.6687C31.0263 22.6687 31.1813 22.63 31.1813 22.5719C31.1813 22.5234 31.3556 22.475 31.5688 22.475C31.8594 22.475 31.9563 22.4362 31.9563 22.32C31.9563 22.2425 32.1791 21.9616 32.4406 21.7C32.7119 21.4384 32.925 21.1672 32.925 21.0994C32.925 21.0219 33.0122 20.9056 33.1188 20.8281C33.2253 20.7506 33.3125 20.6344 33.3125 20.5569C33.3125 20.3825 33.5547 20.15 33.7388 20.15C33.8259 20.15 33.8938 20.0725 33.8938 19.9562C33.8938 19.8497 33.9422 19.7625 33.9906 19.7625C34.0488 19.7625 34.0875 19.5881 34.0875 19.375C34.0875 19.1619 34.1359 18.9875 34.1844 18.9875C34.32 18.9875 34.3006 18.6291 34.165 18.5709C34.0681 18.5322 34.0778 18.4934 34.1844 18.4159C34.3103 18.3191 34.3103 18.2997 34.1844 18.2222C34.0681 18.1447 34.0778 18.0962 34.2619 17.9412C34.3781 17.8347 34.475 17.6797 34.475 17.5925C34.475 17.5053 34.5234 17.4375 34.5719 17.4375C34.63 17.4375 34.6688 17.3116 34.6688 17.1469C34.6688 16.9919 34.63 16.8562 34.5719 16.8562C34.3975 16.8562 34.475 16.5462 34.6978 16.3428C34.8431 16.2169 34.8722 16.1394 34.7947 16.1103C34.6397 16.0522 34.6106 14.1437 34.7656 14.1437C34.8238 14.1437 34.8625 13.9694 34.8625 13.7562C34.8625 13.5431 34.9109 13.3687 34.9594 13.3687C35.0175 13.3687 35.0563 13.1944 35.0563 12.9812C35.0563 12.7681 35.0175 12.5937 34.9594 12.5937C34.9109 12.5937 34.8625 12.4678 34.8625 12.3031C34.8625 12.1481 34.8238 12.0125 34.7656 12.0125C34.7172 12.0125 34.6688 11.7994 34.6688 11.5281C34.6688 11.2666 34.63 11.0437 34.5719 11.0437C34.5234 11.0437 34.475 10.8694 34.475 10.6562C34.475 10.3366 34.4459 10.2687 34.2813 10.2687C34.1553 10.2687 34.0875 10.2009 34.0875 10.075C34.0875 9.96844 34.0488 9.88125 33.9906 9.88125C33.9422 9.88125 33.8938 9.80375 33.8938 9.70687C33.8938 9.61 33.8066 9.47437 33.7 9.39687C33.5934 9.31937 33.5063 9.18375 33.5063 9.08688C33.5063 8.99 33.4675 8.9125 33.4094 8.9125C33.3609 8.9125 33.3125 8.78656 33.3125 8.62187C33.3125 8.46687 33.2738 8.33125 33.2156 8.33125C33.1672 8.33125 33.1188 8.20531 33.1188 8.04062C33.1188 7.88562 33.08 7.75 33.0219 7.75C32.9734 7.75 32.925 7.66281 32.925 7.55625C32.925 7.40125 32.8572 7.3625 32.6344 7.3625C32.4794 7.3625 32.3438 7.32375 32.3438 7.26562C32.3438 7.21719 32.2566 7.16875 32.15 7.16875C32.0338 7.16875 31.9563 7.10094 31.9563 7.01375C31.9563 6.92656 31.8303 6.73281 31.6656 6.5875C31.5106 6.44219 31.375 6.24844 31.375 6.16125C31.375 6.07406 31.3072 6.00625 31.2297 6.00625C31.0359 6.00625 30.4063 5.37656 30.4063 5.18281C30.4063 5.09562 30.3191 5.0375 30.1641 5.0375C29.8831 5.0375 29.4375 4.65 29.4375 4.40781C29.4375 4.33031 29.3503 4.2625 29.2438 4.2625C29.1372 4.2625 29.05 4.22375 29.05 4.16562C29.05 4.11719 28.9822 4.06875 28.895 4.06875C28.8078 4.06875 28.6141 3.94281 28.4688 3.77812C28.3234 3.62312 28.1297 3.4875 28.0425 3.4875C27.9553 3.4875 27.8875 3.44875 27.8875 3.39062C27.8875 3.34219 27.8003 3.29375 27.6938 3.29375C27.5872 3.29375 27.5 3.255 27.5 3.19687C27.5 3.14844 27.4128 3.1 27.3063 3.1C27.1997 3.1 27.1125 3.06125 27.1125 3.00312C27.1125 2.95469 26.9866 2.90625 26.8219 2.90625C26.6669 2.90625 26.5313 2.8675 26.5313 2.80937C26.5313 2.76094 26.4053 2.7125 26.2406 2.7125C26.0856 2.7125 25.95 2.67375 25.95 2.61562C25.95 2.56719 25.7756 2.51875 25.5625 2.51875C25.3494 2.51875 25.175 2.48 25.175 2.42187C25.175 2.37344 25.0006 2.325 24.7875 2.325C24.5744 2.325 24.4 2.28625 24.4 2.22812C24.4 2.17 23.8478 2.13125 22.9469 2.13125C22.0459 2.13125 21.4938 2.17 21.4938 2.22812C21.4938 2.28625 21.3194 2.325 21.1063 2.325C20.8931 2.325 20.7188 2.37344 20.7188 2.42187C20.7188 2.48 20.5928 2.51875 20.4281 2.51875C20.2731 2.51875 20.1375 2.56719 20.1375 2.61562C20.1375 2.67375 19.8759 2.7125 19.5563 2.7125C19.2366 2.7125 18.975 2.75125 18.975 2.80937C18.975 2.8675 18.8878 2.90625 18.7813 2.90625C18.6747 2.90625 18.5875 2.95469 18.5875 3.00312C18.5875 3.06125 18.4131 3.1 18.2 3.1C17.9869 3.1 17.8125 3.14844 17.8125 3.19687C17.8125 3.255 17.425 3.29375 16.8438 3.29375C16.2625 3.29375 15.875 3.3325 15.875 3.39062C15.875 3.53594 15.5941 3.50687 15.4294 3.35187C15.2453 3.16781 15.255 2.90625 15.4488 2.90625C15.5359 2.90625 15.7297 2.78031 15.875 2.61562C16.0397 2.44125 16.2431 2.325 16.3981 2.325C16.5338 2.325 16.65 2.28625 16.65 2.22812C16.65 2.17969 16.7275 2.13125 16.8244 2.13125C16.9213 2.13125 17.0569 2.04406 17.1344 1.9375C17.2313 1.80187 17.3862 1.74375 17.6381 1.74375C17.8416 1.74375 18.0063 1.705 18.0063 1.64687C18.0063 1.59844 18.1806 1.55 18.3938 1.55C18.6069 1.55 18.7813 1.51125 18.7813 1.45312C18.7813 1.40469 18.9556 1.35625 19.1688 1.35625C19.3819 1.35625 19.5563 1.3175 19.5563 1.25937C19.5563 1.21094 19.6919 1.1625 19.8469 1.1625C20.0116 1.1625 20.1375 1.12375 20.1375 1.06562C20.1375 1.01719 20.3119 0.96875 20.525 0.96875C20.7381 0.96875 20.9125 0.93 20.9125 0.871875C20.9125 0.823437 21.0481 0.775 21.2031 0.775C21.4259 0.775 21.4938 0.73625 21.4938 0.58125C21.4938 0.474687 21.5422 0.3875 21.5906 0.3875C21.6488 0.3875 21.6875 0.300312 21.6875 0.19375C21.6875 0.0290625 21.7553 0 22.1719 0C22.4431 0 22.6563 0.0484375 22.6563 0.096875C22.6563 0.155 23.0438 0.19375 23.625 0.19375C24.2063 0.19375 24.5938 0.2325 24.5938 0.290625C24.5938 0.42625 24.9619 0.406875 25.0103 0.27125C25.0394 0.184062 25.1169 0.213125 25.2428 0.358438C25.4559 0.600625 25.7078 0.649062 25.795 0.465C25.8434 0.368125 25.8628 0.368125 25.9113 0.465C25.9403 0.532812 26.1534 0.58125 26.4441 0.58125C26.7056 0.58125 26.9188 0.629687 26.9188 0.678125C26.9188 0.73625 27.0059 0.775 27.1125 0.775C27.2191 0.775 27.3063 0.823437 27.3063 0.871875C27.3063 0.93 27.4225 0.96875 27.5581 0.96875C27.7131 0.96875 27.9166 1.085 28.0813 1.25937C28.275 1.46281 28.4397 1.55 28.6528 1.55C28.9822 1.55 29.6313 2.0925 29.6313 2.37344C29.6313 2.48 29.7378 2.51875 29.9994 2.51875C30.2513 2.51875 30.4063 2.57687 30.5031 2.7125C30.6 2.84812 30.755 2.90625 31.0069 2.90625C31.2781 2.90625 31.375 2.945 31.375 3.05156C31.375 3.22594 31.8013 3.68125 31.9563 3.68125C32.1209 3.68125 32.3438 3.93313 32.3438 4.1075C32.3438 4.19469 32.4116 4.2625 32.4891 4.2625C32.6731 4.2625 33.5063 5.07625 33.5063 5.26031C33.5063 5.32813 33.5934 5.44437 33.7 5.52187C33.8066 5.59937 33.8938 5.735 33.8938 5.83187C33.8938 5.92875 33.9422 6.00625 33.9906 6.00625C34.0488 6.00625 34.0875 6.09344 34.0875 6.2C34.0875 6.30656 34.1553 6.39375 34.2328 6.39375C34.4266 6.39375 34.8625 6.82969 34.8625 7.02344C34.8625 7.10094 34.9109 7.16875 34.9594 7.16875C35.0175 7.16875 35.0563 7.24625 35.0563 7.34313C35.0563 7.44 35.1434 7.57562 35.25 7.65312C35.3566 7.73062 35.4438 7.86625 35.4438 7.96312C35.4438 8.06 35.4922 8.1375 35.5406 8.1375C35.5988 8.1375 35.6375 8.2925 35.6375 8.48625C35.6375 8.7575 35.715 8.90281 36.025 9.20312C36.2381 9.40656 36.4125 9.64875 36.4125 9.72625C36.4125 9.81344 36.4609 9.88125 36.5094 9.88125C36.5675 9.88125 36.6063 9.96844 36.6063 10.075C36.6063 10.1816 36.6547 10.2687 36.7031 10.2687C36.7613 10.2687 36.8 10.6272 36.8 11.1406C36.8 11.6541 36.8388 12.0125 36.8969 12.0125C36.955 12.0125 36.9938 12.1481 36.9938 12.3031C36.9938 12.4678 37.0422 12.5937 37.0906 12.5937C37.1488 12.5937 37.1875 12.8553 37.1875 13.175C37.1875 13.4947 37.2263 13.7562 37.2844 13.7562C37.3425 13.7562 37.3813 13.9306 37.3813 14.1437C37.3813 14.3569 37.4297 14.5312 37.4781 14.5312C37.5363 14.5312 37.575 14.7056 37.575 14.9187C37.575 15.1319 37.5363 15.3062 37.4781 15.3062C37.42 15.3062 37.3813 15.6259 37.3813 16.0812C37.3813 16.5366 37.3425 16.8562 37.2844 16.8562C37.2359 16.8562 37.1875 17.0306 37.1875 17.2437C37.1875 17.4569 37.1488 17.6312 37.0906 17.6312C36.9163 17.6312 36.9841 18.1641 37.1875 18.3094C37.4878 18.5322 37.4394 18.7937 37.0906 18.7937C36.8872 18.7937 36.8 18.8422 36.8 18.9488C36.8 19.0359 36.6741 19.2297 36.5094 19.375C36.3544 19.5203 36.2188 19.7044 36.2188 19.7819C36.2188 19.8497 36.1316 19.9756 36.025 20.0531C35.8216 20.1984 35.7538 20.5375 35.9281 20.5375C35.9863 20.5375 36.025 20.6247 36.025 20.7312C36.025 20.8378 36.0734 20.925 36.1219 20.925C36.18 20.925 36.2188 21.0606 36.2188 21.2156C36.2188 21.4675 36.18 21.5062 35.9669 21.5062C35.6859 21.5062 35.4438 21.7097 35.4438 21.9325C35.4438 22.0197 35.405 22.0875 35.3469 22.0875C35.2984 22.0875 35.25 22.1553 35.25 22.2328C35.25 22.4266 34.8141 22.8625 34.6203 22.8625C34.5428 22.8625 34.475 22.9109 34.475 22.9594C34.475 23.0175 34.4072 23.0562 34.3297 23.0562C34.1456 23.0562 33.7 23.4825 33.7 23.6569C33.7 23.7344 33.7872 23.8506 33.8938 23.9281C34.165 24.1219 34.1359 24.2187 33.7969 24.2187C33.6419 24.2187 33.5063 24.18 33.5063 24.1219C33.5063 24.0734 33.4191 24.025 33.3222 24.025C33.2156 24.025 33.1188 23.9669 33.0897 23.9087C33.0703 23.8312 32.9444 23.8991 32.7603 24.1025C32.5956 24.2672 32.3922 24.4125 32.305 24.4125C32.2178 24.4125 32.15 24.4609 32.15 24.5094C32.15 24.5675 32.1984 24.6062 32.2469 24.6062C32.3922 24.6062 32.3631 25.0809 32.2081 25.2456C32.1306 25.3231 31.995 25.3812 31.9175 25.3812C31.8303 25.3812 31.7625 25.4297 31.7625 25.4781C31.7625 25.5362 31.6366 25.575 31.4719 25.575C31.3169 25.575 31.1813 25.6234 31.1813 25.6719C31.1813 25.73 31.1134 25.7687 31.0263 25.7687C30.8325 25.7687 30.6 26.0012 30.6 26.195C30.6 26.2822 30.5225 26.35 30.4063 26.35C30.2997 26.35 30.2125 26.3984 30.2125 26.4469C30.2125 26.6212 29.9025 26.5437 29.6991 26.3306C29.5731 26.1756 29.4956 26.1466 29.4666 26.2337C29.4181 26.3694 29.05 26.3887 29.05 26.2531C29.05 26.0303 28.5366 26.1659 28.2459 26.4759C28.0619 26.6697 27.9359 26.7375 27.9166 26.6697C27.8681 26.5244 27.3063 26.4953 27.3063 26.6406C27.3063 26.6987 27.1803 26.7375 27.0156 26.7375C26.8606 26.7375 26.725 26.7859 26.725 26.8344C26.725 26.8925 26.57 26.9312 26.3763 26.9312C26.1341 26.9312 25.9597 26.9991 25.8241 27.1541C25.6981 27.2994 25.6206 27.3284 25.5916 27.2509C25.5141 27.0378 24.8844 27.1056 24.6616 27.3478C24.5356 27.4931 24.4581 27.5222 24.4291 27.4447C24.4 27.3769 24.2547 27.3187 24.0997 27.3187C23.8478 27.3187 23.8188 27.3575 23.8188 27.6094C23.8188 27.7741 23.8672 27.9 23.9156 27.9C23.9738 27.9 24.0125 28.3456 24.0125 29.0431C24.0125 30.07 23.9931 30.1959 23.8188 30.3219C23.7025 30.3994 23.625 30.5738 23.625 30.7288C23.625 30.9806 23.5959 31 23.2666 31C23.0631 30.9903 22.8403 30.9322 22.7822 30.8547V30.8547ZM24.4 24.8C24.4 24.6934 24.4484 24.6062 24.4969 24.6062C24.555 24.6062 24.5938 24.5675 24.5938 24.5094C24.5938 24.4609 24.4194 24.4125 24.2063 24.4125C23.8381 24.4125 23.8188 24.4319 23.8188 24.7031C23.8188 24.9647 23.8478 24.9937 24.1094 24.9937C24.3322 24.9937 24.4 24.955 24.4 24.8ZM26.1438 24.8969C26.1438 24.8387 26.4344 24.8 26.8219 24.8C27.4322 24.8 27.5 24.7806 27.5 24.6062C27.5 24.4997 27.5484 24.4125 27.5969 24.4125C27.655 24.4125 27.6938 24.3253 27.6938 24.2187C27.6938 24.0928 27.7616 24.025 27.8875 24.025C27.9941 24.025 28.0813 23.9862 28.0813 23.9281C28.0813 23.8797 28.2556 23.8312 28.4688 23.8312C28.6819 23.8312 28.8563 23.7925 28.8563 23.7344C28.8563 23.6859 28.9434 23.6375 29.05 23.6375C29.1566 23.6375 29.2438 23.5987 29.2438 23.5406C29.2438 23.4922 29.3309 23.4437 29.4375 23.4437C29.5441 23.4437 29.6313 23.405 29.6313 23.3469C29.6313 23.2984 29.7184 23.25 29.825 23.25C29.9316 23.25 30.0188 23.2112 30.0188 23.1531C30.0188 23.1047 30.1059 23.0562 30.2125 23.0562C30.4741 23.0562 30.4644 23.0078 30.0672 22.6203C29.6894 22.2425 29.3503 22.1844 29.1469 22.475C29.0016 22.6784 28.6625 22.7462 28.6625 22.5719C28.6625 22.3587 28.3331 22.4944 27.9844 22.8625C27.7809 23.0756 27.5388 23.25 27.4613 23.25C27.3741 23.25 27.3063 23.2984 27.3063 23.3469C27.3063 23.405 27.1803 23.4437 27.0156 23.4437C26.7928 23.4437 26.725 23.4825 26.725 23.6375C26.725 23.7634 26.6572 23.8312 26.5313 23.8312C26.4247 23.8312 26.3375 23.8797 26.3375 23.9281C26.3375 23.9862 26.1631 24.025 25.95 24.025C25.5819 24.025 25.5625 24.0444 25.5625 24.3059C25.5625 24.4609 25.5141 24.6063 25.4463 24.6256C25.3591 24.6547 25.3688 24.7128 25.4656 24.8291C25.6206 25.0034 26.1438 25.0519 26.1438 24.8969ZM21.6875 23.3469C21.6875 23.2984 21.7747 23.25 21.8813 23.25C22.0363 23.25 22.075 23.1822 22.075 22.9594C22.075 22.8044 22.0363 22.6687 21.9781 22.6687C21.8425 22.6687 21.8619 22.3103 22.0072 22.2425C22.1041 22.1941 22.1041 22.1747 22.0072 22.1262C21.8038 22.0294 21.8522 21.7 22.075 21.7C22.1816 21.7 22.2688 21.7484 22.2688 21.7969C22.2688 21.855 22.7531 21.8937 23.5281 21.8937C24.3031 21.8937 24.7875 21.855 24.7875 21.7969C24.7875 21.7484 24.9619 21.7 25.175 21.7C25.3881 21.7 25.5625 21.6612 25.5625 21.6031C25.5625 21.5547 25.6497 21.5062 25.7563 21.5062C25.8628 21.5062 25.95 21.4675 25.95 21.4094C25.95 21.3609 26.0372 21.3125 26.1438 21.3125C26.2503 21.3125 26.3375 21.2737 26.3375 21.2156C26.3375 21.1672 26.4247 21.1187 26.5313 21.1187C26.6378 21.1187 26.725 21.08 26.725 21.0219C26.725 20.9734 26.8606 20.925 27.0156 20.925C27.1803 20.925 27.3063 20.8862 27.3063 20.8281C27.3063 20.7797 27.4419 20.7312 27.5969 20.7312C27.7616 20.7312 27.8875 20.6925 27.8875 20.6344C27.8875 20.5859 27.9553 20.5375 28.0425 20.5375C28.12 20.5375 28.2556 20.4794 28.3331 20.4019C28.4881 20.2469 28.5172 19.5687 28.3719 19.5687C28.3234 19.5687 28.275 19.5009 28.275 19.4137C28.275 19.3266 28.1491 19.1328 27.9844 18.9875C27.8294 18.8422 27.6938 18.6484 27.6938 18.5613C27.6938 18.4741 27.6259 18.4062 27.5388 18.4062C27.4613 18.4062 27.2191 18.2319 27.0156 18.0187C26.8122 17.8056 26.5797 17.6312 26.5119 17.6312C26.4441 17.6312 26.3181 17.5441 26.2406 17.4375C26.1631 17.3309 26.0372 17.2437 25.95 17.2437C25.8628 17.2437 25.7369 17.1566 25.6594 17.05C25.5819 16.9434 25.4656 16.8562 25.3881 16.8562C25.2138 16.8562 24.9813 17.0984 24.9813 17.2825C24.9813 17.3697 24.9038 17.4375 24.8069 17.4375C24.71 17.4375 24.5744 17.5247 24.4969 17.6312C24.3806 17.7959 24.245 17.825 23.6056 17.825C23.1697 17.825 22.85 17.7862 22.85 17.7281C22.85 17.6797 22.7628 17.6312 22.6659 17.6312C22.5594 17.6312 22.4625 17.5828 22.4431 17.515C22.3947 17.3794 21.8813 17.8444 21.8813 18.0284C21.8813 18.0866 21.7553 18.2609 21.5906 18.4062C21.4356 18.5516 21.3 18.7356 21.3 18.8131C21.3 18.8809 21.2128 19.0069 21.1063 19.0844C20.99 19.1619 20.9125 19.3362 20.9125 19.4912C20.9125 19.6366 20.8738 19.7625 20.8156 19.7625C20.7672 19.7625 20.7188 19.8981 20.7188 20.0531C20.7188 20.2178 20.68 20.3437 20.6219 20.3437C20.5734 20.3437 20.525 20.5181 20.525 20.7312C20.525 20.9444 20.4863 21.1187 20.4281 21.1187C20.3797 21.1187 20.3313 21.2931 20.3313 21.5062C20.3313 21.7194 20.2925 21.8937 20.2344 21.8937C20.1859 21.8937 20.1375 21.9809 20.1375 22.0875C20.1375 22.1941 20.0988 22.2812 20.0406 22.2812C19.9922 22.2812 19.9438 22.3491 19.9438 22.4362C19.9438 22.5816 19.7209 22.8625 19.6144 22.8625C19.5853 22.8625 19.5563 22.7753 19.5563 22.6687C19.5563 22.5622 19.6047 22.475 19.6531 22.475C19.7113 22.475 19.75 22.3878 19.75 22.2812C19.75 22.1747 19.7984 22.0875 19.8469 22.0875C19.905 22.0875 19.9438 22.0003 19.9438 21.8937C19.9438 21.7872 19.9922 21.7 20.0406 21.7C20.0988 21.7 20.1375 21.5256 20.1375 21.3125C20.1375 21.0994 20.1859 20.925 20.2344 20.925C20.2925 20.925 20.3313 20.7506 20.3313 20.5375C20.3313 20.3244 20.3797 20.15 20.4281 20.15C20.4863 20.15 20.525 20.0241 20.525 19.8594C20.525 19.7044 20.5734 19.5687 20.6219 19.5687C20.68 19.5687 20.7188 19.4816 20.7188 19.375C20.7188 19.2684 20.7672 19.1812 20.8156 19.1812C20.8738 19.1812 20.9125 19.0941 20.9125 18.9875C20.9125 18.8809 20.9609 18.7937 21.0094 18.7937C21.0675 18.7937 21.1063 18.7259 21.1063 18.6387C21.1063 18.5516 21.2419 18.3578 21.3969 18.2125C21.5616 18.0672 21.6875 17.8831 21.6875 17.8056C21.6875 17.7378 21.7747 17.6119 21.8813 17.5344C22.0847 17.3891 22.1525 17.05 21.9781 17.05C21.9297 17.05 21.8813 16.9241 21.8813 16.7594C21.8813 16.6044 21.8425 16.4687 21.7844 16.4687C21.7359 16.4687 21.6875 16.3816 21.6875 16.275C21.6875 16.1006 21.6197 16.0812 21.0094 16.0812C20.6219 16.0812 20.3313 16.12 20.3313 16.1781C20.3313 16.2362 20.2538 16.275 20.1569 16.275C20.06 16.275 19.9244 16.3622 19.8469 16.4687C19.7694 16.5753 19.6338 16.6625 19.5369 16.6625C19.44 16.6625 19.3625 16.7109 19.3625 16.7594C19.3625 16.8175 19.2753 16.8562 19.1688 16.8562C19.0622 16.8562 18.975 16.9047 18.975 16.9531C18.975 17.0112 18.8975 17.05 18.8006 17.05C18.7038 17.05 18.5681 17.1372 18.4906 17.2437C18.4131 17.3503 18.2969 17.4375 18.2194 17.4375C18.1516 17.4375 17.7931 17.7475 17.425 18.1156C17.0569 18.4934 16.6984 18.7937 16.6306 18.7937C16.5531 18.7937 16.4369 18.8809 16.3594 18.9875C16.2819 19.0941 16.1463 19.1812 16.0494 19.1812C15.8459 19.1812 15.8169 19.3362 16.0009 19.4041C16.0881 19.4428 16.0784 19.4816 15.9719 19.5591C15.8556 19.6366 15.8653 19.685 16.0494 19.84C16.1656 19.9466 16.2625 20.0919 16.2625 20.1597C16.2625 20.2372 16.3497 20.3631 16.4563 20.4406C16.5628 20.5181 16.65 20.6441 16.65 20.7312C16.65 20.8184 16.7372 20.9444 16.8438 21.0219C16.9503 21.0994 17.0375 21.235 17.0375 21.3319C17.0375 21.4384 17.1053 21.5062 17.2119 21.5062C17.3088 21.5062 17.4444 21.5934 17.5219 21.7C17.5994 21.8066 17.735 21.8937 17.8319 21.8937C17.9287 21.8937 18.0063 21.9422 18.0063 21.9906C18.0063 22.0487 17.9675 22.0875 17.9094 22.0875C17.8609 22.0875 17.8125 22.1747 17.8125 22.2812C17.8125 22.3878 17.8609 22.475 17.9094 22.475C17.9675 22.475 18.0063 22.4362 18.0063 22.3781C18.0063 22.3297 18.1419 22.2812 18.2969 22.2812C18.4616 22.2812 18.5875 22.3297 18.5875 22.3781C18.5875 22.4362 18.665 22.475 18.7619 22.475C18.8588 22.475 18.9944 22.5622 19.0719 22.6687C19.1494 22.7753 19.285 22.8625 19.3819 22.8625C19.4788 22.8625 19.5563 22.9109 19.5563 22.9594C19.5563 23.0175 19.6434 23.0562 19.75 23.0562C19.8566 23.0562 19.9438 23.1047 19.9438 23.1531C19.9438 23.2112 20.1666 23.25 20.4281 23.25C20.6994 23.25 20.9125 23.2984 20.9125 23.3469C20.9125 23.405 21.0869 23.4437 21.3 23.4437C21.5131 23.4437 21.6875 23.405 21.6875 23.3469V23.3469ZM29.05 19.6656C29.1953 19.5106 29.3891 19.375 29.4763 19.375C29.5828 19.375 29.6313 19.2878 29.6313 19.1037C29.6313 18.9487 29.7088 18.7744 29.825 18.6969C29.9316 18.6194 30.0188 18.445 30.0188 18.3094C30.0188 18.1737 30.1059 17.9994 30.2125 17.9219C30.3191 17.8444 30.4063 17.7087 30.4063 17.6119C30.4063 17.515 30.4547 17.4375 30.5031 17.4375C30.5613 17.4375 30.6 17.3116 30.6 17.1469C30.6 16.9919 30.6484 16.8562 30.6969 16.8562C30.755 16.8562 30.7938 16.7303 30.7938 16.5753C30.7938 16.4203 30.8519 16.2653 30.9197 16.2363C31.0166 16.1878 31.0166 16.1684 30.9197 16.12C30.8422 16.0909 30.7938 15.8778 30.7938 15.5969C30.7938 15.3159 30.8422 15.1028 30.9197 15.0738C31.0166 15.0253 31.0166 15.0059 30.9197 14.9575C30.8519 14.9284 30.7938 14.7734 30.7938 14.6184V14.3375H30.0188C29.5634 14.3375 29.2438 14.3762 29.2438 14.4344C29.2438 14.4925 29.0306 14.5312 28.7594 14.5312C28.4978 14.5312 28.275 14.5797 28.275 14.6281C28.275 14.6862 28.1491 14.725 27.9844 14.725C27.8294 14.725 27.6938 14.7734 27.6938 14.8219C27.6938 14.88 27.5678 14.9187 27.4031 14.9187C27.2481 14.9187 27.1125 14.9672 27.1125 15.0156C27.1125 15.0737 27.0253 15.1125 26.9188 15.1125C26.8122 15.1125 26.725 15.1609 26.725 15.2094C26.725 15.2675 26.4344 15.3062 26.0469 15.3062H25.3688V15.9844C25.3688 16.5656 25.3881 16.6625 25.5431 16.6625C25.64 16.6625 25.7756 16.7497 25.8531 16.8562C25.9306 16.9628 26.0566 17.05 26.1438 17.05C26.2309 17.05 26.3569 17.1372 26.4344 17.2437C26.5119 17.3503 26.6281 17.4375 26.6959 17.4375C26.7638 17.4375 27.1513 17.7669 27.5484 18.1641C27.9456 18.5612 28.275 18.9487 28.275 19.0166C28.275 19.0844 28.3622 19.2006 28.4688 19.2781C28.585 19.3556 28.6625 19.53 28.6625 19.685C28.6625 20.0241 28.7109 20.0241 29.05 19.6656ZM16.1656 18.7937C16.2431 18.6872 16.3594 18.6 16.4369 18.6C16.5047 18.6 16.8631 18.2997 17.2313 17.9219C17.5994 17.5537 17.9578 17.2437 18.0256 17.2437C18.1031 17.2437 18.2194 17.1566 18.2969 17.05C18.3744 16.9434 18.51 16.8562 18.6069 16.8562C18.7038 16.8562 18.7813 16.8175 18.7813 16.7594C18.7813 16.7109 18.8684 16.6625 18.975 16.6625C19.0816 16.6625 19.1688 16.6237 19.1688 16.5656C19.1688 16.5172 19.2463 16.4687 19.3431 16.4687C19.44 16.4687 19.5756 16.3816 19.6531 16.275C19.7306 16.1684 19.8663 16.0812 19.9631 16.0812C20.06 16.0812 20.1375 16.0425 20.1375 15.9844C20.1375 15.9262 20.4572 15.8875 20.9125 15.8875C21.3678 15.8875 21.6875 15.8487 21.6875 15.7906C21.6875 15.7422 21.6488 15.6937 21.5906 15.6937C21.5422 15.6937 21.4938 15.5678 21.4938 15.4031V15.1125H19.9438C18.975 15.1125 18.3938 15.0737 18.3938 15.0156C18.3938 14.9672 18.1806 14.9187 17.9094 14.9187C17.6478 14.9187 17.425 14.88 17.425 14.8219C17.425 14.7637 17.1344 14.725 16.7469 14.725C16.3594 14.725 16.0688 14.7637 16.0688 14.8219C16.0688 14.88 15.8266 14.9187 15.5263 14.9187C15.1872 14.9187 14.9353 14.9672 14.8481 15.0544C14.6931 15.2094 14.6641 15.8875 14.8094 15.8875C14.8675 15.8875 14.9063 16.0619 14.9063 16.275C14.9063 16.4881 14.9547 16.6625 15.0031 16.6625C15.1484 16.6625 15.1194 17.2244 14.9838 17.2728C14.8966 17.3019 14.9256 17.3794 15.0806 17.5053C15.1969 17.6216 15.2938 17.8153 15.2938 17.9606C15.2938 18.0962 15.3422 18.2125 15.3906 18.2125C15.4488 18.2125 15.4875 18.3191 15.4875 18.4547C15.4875 18.9391 15.9041 19.1522 16.1656 18.7937ZM26.5313 15.0156C26.5313 14.9672 26.6669 14.9187 26.8219 14.9187C26.9866 14.9187 27.1125 14.88 27.1125 14.8219C27.1125 14.7734 27.1997 14.725 27.3063 14.725C27.4128 14.725 27.5 14.6862 27.5 14.6281C27.5 14.5797 27.6356 14.5312 27.7906 14.5312C27.9553 14.5312 28.0813 14.4925 28.0813 14.4344C28.0813 14.3859 28.3041 14.3375 28.5656 14.3375C28.8369 14.3375 29.05 14.2987 29.05 14.2406C29.05 14.1825 29.4375 14.1437 30.0188 14.1437C30.6 14.1437 30.9875 14.105 30.9875 14.0469C30.9875 13.9984 30.9488 13.95 30.8906 13.95C30.8422 13.95 30.7938 13.8822 30.7938 13.795C30.7938 13.6012 30.5613 13.3687 30.3675 13.3687C30.2609 13.3687 30.2125 13.2816 30.2125 13.0781C30.2125 12.9231 30.2609 12.7875 30.3094 12.7875C30.3675 12.7875 30.4063 12.6616 30.4063 12.4969C30.4063 12.3419 30.3675 12.2062 30.3094 12.2062C30.2609 12.2062 30.2125 12.0803 30.2125 11.935C30.2125 11.78 30.135 11.6056 30.0188 11.5281C29.9122 11.4506 29.825 11.2762 29.825 11.1406C29.825 11.005 29.7378 10.8306 29.6313 10.7531C29.5247 10.6756 29.4375 10.5594 29.4375 10.4819C29.4375 10.4141 29.3697 10.2881 29.2922 10.2009C29.1566 10.0653 29.1178 10.075 28.9628 10.2591C28.8659 10.3753 28.7303 10.4625 28.6722 10.4625C28.6044 10.4625 28.3816 10.6369 28.1781 10.85C27.9747 11.0631 27.7519 11.2375 27.6938 11.2375C27.5581 11.2375 27.3063 11.4797 27.3063 11.6153C27.3063 11.78 25.8725 13.175 25.7078 13.175C25.6303 13.175 25.5625 13.2234 25.5625 13.2719C25.5625 13.33 25.485 13.3687 25.3881 13.3687C25.2913 13.3687 25.1556 13.4559 25.0781 13.5625C25.0006 13.6691 24.865 13.7562 24.7681 13.7562C24.6713 13.7562 24.5938 13.8047 24.5938 13.8531C24.5938 13.9112 24.6422 13.95 24.6906 13.95C24.7488 13.95 24.7875 14.0275 24.7875 14.1244C24.7875 14.2212 24.8747 14.3569 24.9813 14.4344C25.0878 14.5119 25.175 14.6281 25.175 14.7056C25.175 14.9769 25.4172 15.1028 25.9791 15.1125C26.2794 15.1125 26.5313 15.0737 26.5313 15.0156ZM21.7456 14.7831C21.8231 14.7056 21.8813 14.57 21.8813 14.4925C21.8813 14.4053 21.9297 14.3375 21.9781 14.3375C22.0363 14.3375 22.075 14.1825 22.075 13.9887C22.075 13.64 21.9006 13.3687 21.6681 13.3687C21.5906 13.3687 21.4744 13.2816 21.3969 13.175C21.3194 13.0684 21.1838 12.9812 21.0869 12.9812C20.99 12.9812 20.9125 12.9425 20.9125 12.8844C20.9125 12.8359 20.8253 12.7875 20.7188 12.7875C20.5928 12.7875 20.525 12.7197 20.525 12.5937C20.525 12.4678 20.4572 12.4 20.3506 12.4C20.2538 12.4 20.1181 12.3128 20.0406 12.2062C19.9631 12.0997 19.8372 12.0125 19.75 12.0125C19.6628 12.0125 19.5369 11.9253 19.4594 11.8187C19.3625 11.6831 19.2075 11.625 18.9556 11.625C18.7522 11.625 18.5875 11.5862 18.5875 11.5281C18.5875 11.4797 18.5003 11.4312 18.3938 11.4312C18.2872 11.4312 18.2 11.3925 18.2 11.3344C18.2 11.2859 18.1128 11.2375 18.0063 11.2375C17.8997 11.2375 17.8125 11.1987 17.8125 11.1406C17.8125 11.0922 17.7447 11.0437 17.6672 11.0437C17.4734 11.0437 16.65 10.2203 16.65 10.0266C16.65 9.94906 16.6113 9.88125 16.5531 9.88125C16.5047 9.88125 16.4563 9.92969 16.4563 9.97812C16.4563 10.0362 16.3884 10.075 16.3109 10.075C16.2238 10.075 16.0106 10.23 15.8266 10.4141C15.6425 10.5981 15.4875 10.8112 15.4875 10.8984C15.4875 10.9759 15.4488 11.0437 15.3906 11.0437C15.3422 11.0437 15.2938 11.1212 15.2938 11.2181C15.2938 11.315 15.2066 11.4506 15.1 11.5281C14.9644 11.625 14.9063 11.78 14.9063 12.0222C14.9063 12.2256 14.8481 12.4097 14.79 12.4387C14.6931 12.4872 14.6931 12.5066 14.79 12.555C14.8675 12.5938 14.9063 12.8747 14.9063 13.4559C14.9063 14.1825 14.8772 14.3084 14.7125 14.4344C14.3928 14.6669 14.4897 14.725 15.1969 14.725C15.5844 14.725 15.875 14.6862 15.875 14.6281C15.875 14.57 16.1947 14.5312 16.65 14.5312C17.1053 14.5312 17.425 14.57 17.425 14.6281C17.425 14.6862 17.6478 14.725 17.9094 14.725C18.1806 14.725 18.3938 14.7734 18.3938 14.8219C18.3938 14.88 18.9944 14.9187 20.0019 14.9187C21.2613 14.9187 21.6294 14.8897 21.7456 14.7831ZM23.8188 14.2406C23.8188 14.1922 23.7316 14.1437 23.625 14.1437C23.5184 14.1437 23.4313 14.1922 23.4313 14.2406C23.4313 14.2987 23.5184 14.3375 23.625 14.3375C23.7316 14.3375 23.8188 14.2987 23.8188 14.2406ZM24.4 13.6594C24.4 13.6109 24.4775 13.5625 24.5744 13.5625C24.6713 13.5625 24.8069 13.4753 24.8844 13.3687C24.9619 13.2622 25.1266 13.175 25.2428 13.175C25.4075 13.175 25.8628 12.7778 26.8219 11.8187C27.5678 11.0728 28.2169 10.4625 28.275 10.4625C28.43 10.4625 28.8563 10.0072 28.8563 9.83281C28.8563 9.75531 28.7884 9.6875 28.7013 9.6875C28.5269 9.6875 28.275 9.46469 28.275 9.3C28.275 9.15469 28.0328 8.9125 27.8875 8.9125C27.8197 8.9125 27.6453 8.78656 27.5 8.62187C27.3547 8.46687 27.1803 8.33125 27.1125 8.33125C27.0447 8.33125 26.8703 8.20531 26.725 8.04062C26.5797 7.88562 26.3859 7.75 26.2988 7.75C26.2116 7.75 26.1438 7.71125 26.1438 7.65312C26.1438 7.60469 26.0178 7.55625 25.8531 7.55625C25.6981 7.55625 25.5625 7.5175 25.5625 7.45937C25.5625 7.41094 25.4366 7.3625 25.2719 7.3625H24.9813V8.23437C24.9813 8.74781 24.9425 9.10625 24.8844 9.10625C24.8359 9.10625 24.7875 9.32906 24.7875 9.59062C24.7875 9.86187 24.7488 10.075 24.6906 10.075C24.6422 10.075 24.5938 10.2978 24.5938 10.5594C24.5938 10.8306 24.555 11.0437 24.4969 11.0437C24.4484 11.0437 24.4 11.1309 24.4 11.2375C24.4 11.3441 24.3613 11.4312 24.3031 11.4312C24.2547 11.4312 24.2063 11.5184 24.2063 11.625C24.2063 11.7316 24.1675 11.8187 24.1094 11.8187C24.0609 11.8187 24.0125 11.9059 24.0125 12.0125C24.0125 12.1191 23.9738 12.2062 23.9156 12.2062C23.8672 12.2062 23.8188 12.2934 23.8188 12.4C23.8188 12.5066 23.78 12.5937 23.7219 12.5937C23.5088 12.5937 23.6347 13.0975 23.9447 13.4172C24.2644 13.7562 24.4 13.8241 24.4 13.6594ZM22.2688 12.9812C22.2688 12.8166 22.3366 12.7875 22.6563 12.7875C22.8694 12.7875 23.0438 12.8359 23.0438 12.8844C23.0438 12.9425 23.1309 12.9812 23.2375 12.9812C23.3925 12.9812 23.4313 12.9134 23.4313 12.6906C23.4313 12.5356 23.4797 12.4 23.5281 12.4C23.5863 12.4 23.625 12.3128 23.625 12.2062C23.625 12.0997 23.6734 12.0125 23.7219 12.0125C23.78 12.0125 23.8188 11.935 23.8188 11.8381C23.8188 11.7412 23.9059 11.6056 24.0125 11.5281C24.1288 11.4506 24.2063 11.2762 24.2063 11.1212C24.2063 10.9759 24.2547 10.85 24.3031 10.85C24.3613 10.85 24.4 10.6756 24.4 10.4625C24.4 10.2494 24.4484 10.075 24.4969 10.075C24.555 10.075 24.5938 9.86187 24.5938 9.59062C24.5938 9.32906 24.6422 9.10625 24.6906 9.10625C24.7488 9.10625 24.7875 8.79625 24.7875 8.37C24.7875 7.81781 24.7488 7.60469 24.6228 7.47875C24.5066 7.3625 24.4484 7.35281 24.4194 7.44C24.3613 7.62406 24.0706 7.57562 23.9156 7.3625C23.8381 7.25594 23.7025 7.16875 23.6056 7.16875C23.5088 7.16875 23.4313 7.13 23.4313 7.07187C23.4313 7.01375 22.9469 6.975 22.1719 6.975C21.3969 6.975 20.9125 7.01375 20.9125 7.07187C20.9125 7.13 20.7478 7.16875 20.5444 7.16875C20.2925 7.16875 20.1375 7.22687 20.0406 7.3625C19.9631 7.46906 19.8275 7.55625 19.7306 7.55625C19.6338 7.55625 19.5563 7.60469 19.5563 7.65312C19.5563 7.71125 19.3141 7.75 19.0138 7.75C18.51 7.75 18.4519 7.77906 18.1031 8.1375C17.8997 8.35062 17.6866 8.525 17.6188 8.525C17.4541 8.525 16.7856 9.23219 16.9213 9.28063C17.0569 9.31938 17.0763 9.6875 16.9406 9.6875C16.8922 9.6875 16.8438 9.75531 16.8438 9.83281C16.8438 10.0266 17.6672 10.85 17.8609 10.85C17.9384 10.85 18.0063 10.8984 18.0063 10.9469C18.0063 11.005 18.0934 11.0437 18.2 11.0437C18.3066 11.0437 18.3938 11.0922 18.3938 11.1406C18.3938 11.1987 18.4809 11.2375 18.5875 11.2375C18.6941 11.2375 18.7813 11.2859 18.7813 11.3344C18.7813 11.3925 18.9459 11.4312 19.1494 11.4312C19.4013 11.4312 19.5563 11.4894 19.6531 11.625C19.7306 11.7316 19.8566 11.8187 19.9244 11.8187C19.9922 11.8187 20.2247 11.9931 20.4281 12.2062C20.6316 12.4194 20.8641 12.5937 20.9319 12.5937C20.9997 12.5937 21.1256 12.6809 21.2031 12.7875C21.2806 12.8941 21.4163 12.9812 21.5131 12.9812C21.61 12.9812 21.6875 13.0297 21.6875 13.0781C21.6875 13.1362 21.8231 13.175 21.9781 13.175C22.2009 13.175 22.2688 13.1362 22.2688 12.9812V12.9812Z" />
  </g>

  <g id="mindsparkle">
    <path fill-rule="evenodd" clip-rule="evenodd" d="M24.943 6C15.05 6 7 14.049 7 23.943C7 33.835 15.05 41.885 24.943 41.885C34.837 41.885 42.885 33.836 42.885 23.943C42.885 14.049 34.837 6 24.943 6ZM24.943 40.22C15.968 40.22 8.666 32.918 8.666 23.943C8.666 14.967 15.968 7.665 24.943 7.665C33.918 7.665 41.22 14.967 41.22 23.943C41.22 32.918 33.918 40.219 24.943 40.219V40.22ZM24.975 24.436L19.557 18.185H19.475V29.513H21.123V22.314L24.894 26.835H24.975L28.762 22.315V29.513H30.411V18.185H30.329L24.975 24.436Z"/>
  </g>

  <g id="cssda">
    <path fill-rule="evenodd" clip-rule="evenodd" d="M29.9731 6H18.043L6 18.0277L24.0807 36.015L30.086 30.045L18.003 17.9147L29.9731 6ZM20.2617 42H32.1918L44.2348 29.9723L26.1541 11.985L20.1488 17.955L32.2318 30.0853L20.2617 42Z"/>
  </g>

  <g id="webby">
    <path fill-rule="evenodd" clip-rule="evenodd" d="M12 12.0784V0H37.5113V48H32.1915V40.1411C31.016 38.0908 30.5214 37.939 26.1464 37.4812C37.7184 33.744 28.9528 31.8755 25.5417 31.315C36.191 28.4504 30.7225 26.9848 27.0914 26.0116C26.2306 25.7809 25.4731 25.5779 25.058 25.3905C38.2499 23.0442 28.4718 20.4276 26.0196 19.7714L26.0186 19.7711C25.9302 19.7475 25.8513 19.7263 25.7834 19.7079C36.1841 16.5802 30.0875 14.7947 26.4691 13.7349L26.4691 13.7349C25.9193 13.5739 25.4268 13.4296 25.058 13.3C33.4019 11.8374 34.1387 8.91671 22.519 7.13351L20.8261 9.18892C30.2377 10.4362 30.1481 11.4649 12 12.0784ZM12 27.4561V31.3526C35.5641 29.9513 27.0154 29.0763 18.4669 28.2013H18.4669C16.0775 27.9567 13.6881 27.7121 12 27.4561ZM12 33.8944V37.7208L12.252 37.7836C35.2219 35.6636 28.6287 34.891 12 33.8944ZM12 21.5365V25.4409C13.4763 25.1505 16.3225 24.905 19.1686 24.6596C27.2561 23.962 35.3435 23.2645 12 21.5365ZM12 14.8824V19.0178C29.7225 18.0645 35.7102 16.8297 12 14.8824Z"/>
  </g>

  <g id="csswinner">
    <path d="M45 13L28.2687 37.9612L15.2771 18.5958H18.2228L28.2356 33.6685L42.0842 13H45ZM7.91011 13L23.2289 35.8214L21.7726 37.9583L5 13H7.91011ZM38.481 13L28.225 28.3116L26.7801 26.1551L35.5695 13H38.481Z" />
  </g>

  <g id="createjs">
    <path d="M39.5403 16.2283L25.4574 8.12217C25.1744 7.95928 24.8256 7.95928 24.5426 8.12217L10.4593 16.2283C10.1751 16.3918 10 16.695 10 17.0229V33.2299C10 33.5578 10.1751 33.861 10.4593 34.0245L24.5426 42.1304C24.8256 42.2933 25.1744 42.2933 25.4574 42.1304L39.5407 34.0245C39.8249 33.861 40 33.5578 40 33.2299V17.0229C40 16.6947 39.8249 16.3918 39.5403 16.2283ZM23.9265 13.3182C23.9265 13.3729 23.8975 13.4233 23.8501 13.4505L18.8124 16.3533C18.7103 16.412 18.7103 16.5593 18.8124 16.6183L23.8498 19.5176C23.8972 19.5448 23.9265 19.5953 23.9265 19.65V21.7566C23.9265 21.8743 23.7994 21.9475 23.6976 21.8888L14.5414 16.6192C14.4393 16.5605 14.4393 16.4132 14.5414 16.3542L23.6973 11.0787C23.7991 11.02 23.9265 11.0937 23.9265 11.211V13.3182ZM35.4583 16.6192L26.2948 21.8934C26.193 21.9521 26.0658 21.8785 26.0658 21.7612V19.6545C26.0658 19.5998 26.0951 19.5494 26.1425 19.5222L31.1876 16.6185C31.2897 16.5598 31.2897 16.4125 31.1876 16.3535L26.1425 13.4466C26.0951 13.4194 26.0661 13.369 26.0661 13.3143V11.2071C26.0661 11.0894 26.1933 11.0161 26.2953 11.0747L35.4589 16.3545C35.5603 16.4131 35.5603 16.5605 35.4583 16.6192Z" />
  </g>

  <g id="felis">
    <path d="M12.4474 6.17394C12.2362 6.82153 11.9973 7.58165 11.917 7.86641C11.6092 8.95721 11.4163 9.93779 11.3153 10.9436C11.2694 11.419 11.2487 12.5856 11.2809 13.0219L11.3038 13.3641L11.1477 13.6075C9.93974 15.4722 9.67566 17.4793 10.4013 19.2865C10.9272 20.5932 11.9537 21.7942 13.4992 22.9103C16.3652 24.9771 19.7662 25.728 23.1901 25.0529C23.6081 24.9702 23.964 24.8806 24.5106 24.7176C24.7862 24.6349 25.0204 24.5798 25.0732 24.5821C25.2409 24.5867 25.5394 24.6533 26.0584 24.8026C27.2502 25.1447 28.1918 25.2802 29.3561 25.2802C30.4928 25.2802 31.4802 25.1401 32.5756 24.8232C34.2543 24.3387 35.9904 23.3995 37.428 22.1938C38.7048 21.1214 39.5522 19.8721 39.8576 18.6114C39.9701 18.1521 39.9977 17.9018 40 17.3851C40 16.6158 39.8898 16.0187 39.605 15.2494C39.4879 14.9302 39.1319 14.1977 38.9459 13.8899L38.8173 13.6787L38.8472 13.4307C38.8931 13.0219 38.8839 11.3639 38.8334 10.8977C38.7071 9.74029 38.4981 8.73675 38.1284 7.49898C38.009 7.1017 37.3315 5.02113 37.3132 5.00046C37.304 4.98898 36.7942 5.19336 36.5209 5.31737C35.1821 5.92822 33.1658 7.30608 31.2299 8.93195C31.0026 9.12255 30.7913 9.29019 30.7592 9.30397C30.7064 9.32464 30.6558 9.30627 30.3274 9.13863C27.4431 7.68269 23.6471 7.52194 20.5722 8.72527C20.4206 8.78498 20.0877 8.93654 19.8305 9.06285C19.5549 9.20063 19.3551 9.2856 19.3367 9.27641C19.323 9.26493 19.1806 9.14781 19.0221 9.01462C17.1873 7.45075 15.07 5.99252 13.7059 5.35182C13.4602 5.237 12.9825 5.0395 12.8792 5.00965C12.8378 4.99817 12.8011 5.09232 12.4474 6.17394ZM17.1505 13.8578C17.681 13.9474 18.053 14.0668 18.5353 14.2987C19.1117 14.5743 19.5457 14.8866 20.0325 15.3757C20.6388 15.982 21.0728 16.6043 21.5344 17.5275C21.6423 17.7456 21.7319 17.9362 21.7319 17.9546C21.7319 18.0212 21.33 18.1843 20.9052 18.2899C19.6376 18.6022 18.1931 18.4461 17.0633 17.8697C15.8071 17.2289 14.8472 16.0601 14.2662 14.4572C14.2019 14.2803 14.1858 14.2137 14.2065 14.2C14.28 14.1517 14.613 14.0392 14.8564 13.9772C15.4374 13.8302 15.775 13.7912 16.4042 13.8027C16.7395 13.8096 16.953 13.8233 17.1505 13.8578ZM34.523 13.8486C34.9915 13.9175 35.7723 14.1425 35.7998 14.216C35.8136 14.2505 35.6368 14.7212 35.476 15.0772C34.6057 16.997 33.0855 18.1682 31.1496 18.4047C30.2172 18.5195 29.1264 18.3863 28.4467 18.074C28.3571 18.0327 28.2767 17.9891 28.2675 17.973C28.2584 17.9592 28.3387 17.7686 28.4467 17.5527C29.5421 15.3321 31.0967 14.076 33.0602 13.8256C33.3978 13.782 34.1625 13.7958 34.523 13.8486ZM25.3832 21.3235C25.7667 21.4337 26.0928 21.7759 26.1985 22.1755C26.2421 22.3385 26.2421 22.6118 26.1985 22.7817C26.0607 23.3099 25.5669 23.6888 25.0204 23.6888C24.6185 23.6865 24.2212 23.4706 24.0008 23.1285C23.7022 22.6669 23.7688 22.0285 24.1569 21.6335C24.4807 21.3051 24.9262 21.1926 25.3832 21.3235Z" />
    <path d="M36.5668 23.7485C36.4428 23.8358 35.8664 24.1963 35.6666 24.3088L35.4875 24.4099V36.3903L35.6896 36.372C35.7998 36.3628 36.0685 36.3559 36.2867 36.3559L36.6817 36.3605V30.0246C36.6817 26.541 36.6748 23.6888 36.6656 23.6888C36.6541 23.6911 36.6105 23.7164 36.5668 23.7485Z" />
    <path d="M13.4992 37.1045C12.9182 37.1688 12.374 37.4192 11.9652 37.8095C11.5472 38.2091 11.2786 38.7166 11.1798 39.2907C11.15 39.463 11.1454 39.8694 11.1454 42.0258V44.5564L11.1982 44.6345C11.29 44.7723 11.3612 44.793 11.7769 44.793C12.1811 44.793 12.2568 44.7746 12.3487 44.6483C12.3969 44.584 12.3969 44.5542 12.4084 43.1763C12.4199 41.8834 12.4222 41.7663 12.4612 41.7089C12.5577 41.5619 12.4934 41.5665 13.947 41.555C15.1595 41.5435 15.2743 41.5412 15.3318 41.5022C15.4535 41.4241 15.4741 41.3621 15.481 41.059C15.4902 40.8156 15.4833 40.765 15.442 40.6732C15.4052 40.5882 15.3754 40.5561 15.2973 40.5216C15.2032 40.478 15.1366 40.4757 13.924 40.4757C12.498 40.4757 12.5301 40.478 12.4497 40.3149C12.3969 40.2093 12.3923 39.626 12.4429 39.3849C12.498 39.1208 12.6403 38.8613 12.8424 38.6592C13.1134 38.3882 13.3729 38.2757 13.7679 38.2551C14.2846 38.2275 14.7944 38.3722 15.4052 38.7166C15.5844 38.8177 15.6556 38.8452 15.7336 38.8452C15.8439 38.8452 15.9334 38.8062 16.0046 38.7258C16.0919 38.6294 16.294 38.2482 16.3054 38.1609C16.3307 37.9519 16.1493 37.782 15.6349 37.5271C15.1802 37.302 14.7393 37.1688 14.2455 37.1114C13.9309 37.0747 13.7794 37.0724 13.4992 37.1045Z" />
    <path d="M35.8894 37.0908C35.4278 37.1551 35.1913 37.2171 34.918 37.3411C34.4518 37.5569 34.0683 37.9358 33.8593 38.3905C33.7147 38.7051 33.6848 38.8521 33.6848 39.2586C33.6848 39.6582 33.717 39.8166 33.8456 40.0991C33.9558 40.3402 34.0821 40.5147 34.2865 40.7076C34.6884 41.0842 35.2739 41.3116 35.9927 41.3736C36.7 41.4333 36.9894 41.5183 37.281 41.7502C37.6508 42.0419 37.7334 42.6091 37.4785 43.1166C37.2902 43.4932 36.8975 43.732 36.3946 43.778C35.9721 43.817 35.6138 43.7343 35.2602 43.5139C35.0627 43.3899 34.7228 43.073 34.5689 42.8663C34.4403 42.694 34.3163 42.6206 34.1946 42.6435C34.089 42.6642 33.6435 42.9627 33.5631 43.0661C33.5172 43.1258 33.5034 43.1717 33.5034 43.2544C33.5034 43.3485 33.5195 43.3922 33.6136 43.5345C34.298 44.5702 35.3957 45.0777 36.6242 44.9285C37.3545 44.8389 37.9562 44.5335 38.358 44.0512C38.5372 43.8354 38.7324 43.4473 38.8104 43.151C38.8633 42.9467 38.8702 42.8778 38.8724 42.5195C38.8724 42.1728 38.8656 42.0924 38.8219 41.927C38.7209 41.555 38.5601 41.2772 38.296 41.0245C37.8368 40.5836 37.2282 40.3494 36.305 40.2598C35.8572 40.2162 35.6942 40.1772 35.4439 40.0577C34.9295 39.812 34.7458 39.3321 34.9846 38.8498C35.1293 38.5536 35.4324 38.34 35.8136 38.2619C36.3165 38.1586 36.8011 38.278 37.1938 38.6041C37.4165 38.7878 37.5497 38.8337 37.699 38.7786C37.7862 38.7442 38.2111 38.4388 38.2754 38.3607C38.404 38.2091 38.3259 38.0162 38.0411 37.7705C37.5153 37.3181 36.9664 37.1091 36.2568 37.0885C36.0938 37.0839 35.9284 37.0839 35.8894 37.0908Z" />
    <path d="M19.3459 37.1344C18.9831 37.2033 18.6317 37.3457 18.3217 37.5455C18.2459 37.596 18.0714 37.7498 17.9313 37.8899C17.6534 38.1724 17.4927 38.4135 17.3664 38.7396C17.1735 39.2425 17.1551 39.4699 17.1689 41.2634C17.1804 42.7928 17.1804 42.8135 17.3434 43.2521C17.6213 44.0099 18.2758 44.623 19.0451 44.8458C19.3987 44.9491 19.9476 44.9836 20.3449 44.9285C21.02 44.8343 21.6217 44.483 22.0304 43.941C22.182 43.7389 22.3519 43.4151 22.3519 43.3302C22.3519 43.1809 22.2302 43.0569 21.8261 42.7974C21.5574 42.6252 21.4334 42.6688 21.1854 43.0316C20.9075 43.4312 20.6572 43.6379 20.3196 43.7435C20.09 43.8147 19.6743 43.8147 19.447 43.7435C18.9831 43.5965 18.6134 43.1993 18.4802 42.7032C18.4503 42.5907 18.4388 42.4575 18.4388 42.1705C18.4365 41.7502 18.4434 41.7272 18.595 41.6147C18.6547 41.5688 18.6937 41.5665 19.6399 41.555C20.524 41.5435 20.6273 41.5389 20.6824 41.5022C20.7996 41.4264 20.8179 41.3552 20.8087 40.9924C20.8019 40.6778 20.7996 40.6594 20.7444 40.602C20.7123 40.5676 20.6618 40.5285 20.6296 40.5147C20.5929 40.4964 20.2346 40.4849 19.5893 40.4757L18.6042 40.4642L18.5284 40.3815C18.4342 40.2759 18.4136 40.145 18.4319 39.7615C18.4572 39.2609 18.5743 38.9692 18.8729 38.6684C19.0175 38.5214 19.1002 38.4594 19.2311 38.3974C19.5365 38.2528 19.8511 38.216 20.1864 38.2849C20.6135 38.3722 20.8983 38.5926 21.2083 39.0749C21.2772 39.1828 21.3507 39.2838 21.3691 39.2999C21.438 39.3573 21.5482 39.3734 21.64 39.3413C21.7664 39.2976 22.2463 38.9509 22.2785 38.8797C22.3336 38.758 22.3129 38.6087 22.2119 38.4135C21.9064 37.8164 21.3185 37.3617 20.609 37.1757C20.4183 37.1252 20.3311 37.116 19.9522 37.1091C19.6445 37.1045 19.4653 37.1114 19.3459 37.1344Z" />
    <path d="M29.2527 37.263C29.2137 37.2722 29.1517 37.3135 29.1149 37.3526L29.046 37.4237L29.0391 37.7613C29.0346 38.069 29.0368 38.1058 29.0805 38.1747C29.1379 38.2665 29.2481 38.3171 29.3951 38.3171C29.5535 38.3171 29.6592 38.3538 29.7373 38.4342L29.8039 38.5031L29.8107 40.9832C29.8176 43.778 29.8291 43.5874 29.6454 43.67C29.565 43.7068 29.4915 43.7137 29.1494 43.7137C28.7062 43.7137 28.6373 43.7297 28.5431 43.8583C28.4995 43.918 28.4949 43.9571 28.4949 44.2533C28.4949 44.623 28.5133 44.6736 28.6694 44.7516C28.7406 44.7907 28.8738 44.793 30.4469 44.793C32.0199 44.793 32.1531 44.7907 32.2243 44.7516C32.3804 44.6736 32.3988 44.623 32.3988 44.2533C32.3988 43.9571 32.3942 43.918 32.3506 43.8583C32.2564 43.7297 32.1875 43.7137 31.7443 43.7137C31.3999 43.7137 31.3287 43.7068 31.246 43.67C31.0669 43.5874 31.0784 43.7826 31.0784 41.0268C31.0784 38.3193 31.0715 38.464 31.2185 38.3768C31.2598 38.3515 31.3654 38.3285 31.4802 38.3193C31.8247 38.2872 31.866 38.2252 31.8546 37.7544C31.8477 37.4237 31.8477 37.4237 31.7811 37.3548C31.742 37.3158 31.6754 37.2722 31.6318 37.2607C31.5285 37.2331 29.3492 37.2331 29.2527 37.263Z" />
    <path d="M23.9594 37.286C23.8607 37.3273 23.801 37.4008 23.7757 37.5225C23.7574 37.6052 23.7528 38.6064 23.7574 40.9694L23.7642 44.2992L23.8171 44.4141C23.8791 44.5519 23.9847 44.6667 24.1041 44.7264C24.2626 44.8091 24.4899 44.8182 26.0607 44.8114C27.5281 44.8045 27.5786 44.8022 27.6544 44.7585C27.7876 44.6805 27.8174 44.5909 27.8174 44.2832C27.8174 43.98 27.7853 43.8583 27.6842 43.7894C27.6268 43.7504 27.5327 43.7481 26.4396 43.7366C25.1008 43.7228 25.1444 43.7297 25.0594 43.546C25.0181 43.4519 25.0158 43.3485 25.0158 40.4803C25.0158 37.1574 25.0273 37.3939 24.8528 37.3066C24.777 37.2653 24.7173 37.2607 24.3912 37.263C24.1845 37.263 23.9916 37.2745 23.9594 37.286Z" />
  </g>

  <g id="smarties">
    <path d="M14 8H36V12.6316H19.1462V15.2047H36V17.7778H19.1462V20.3509H36V22.924H19.1462V25.4971H36V41.4503H14V8Z" />
  </g>

</svg>