<svg width="42.453" height="144.003" viewBox="0 0 42.453 144.003" xmlns="http://www.w3.org/2000/svg"><g id="svgGroup" stroke-linecap="round" fill-rule="evenodd" font-size="9pt" fill="white"><path d="M 39.902 32.551 L 28.652 32.551 L 28.652 118.501 C 28.78 130.517 24.441 133.927 21.114 134.765 A 8.113 8.113 0 0 1 19.502 135.001 C 15.104 135.148 10.419 131.998 10.209 126.253 A 11.048 11.048 0 0 1 10.202 125.851 L 0.002 127.951 C -0.147 135.092 7.229 144.003 18.91 144.003 A 23.063 23.063 0 0 0 19.202 144.001 A 23.506 23.506 0 0 0 20.053 143.973 C 29.977 143.467 39.902 136.605 39.902 119.251 L 39.902 32.551 Z M 32.822 16.083 A 9.761 9.761 0 0 0 34.352 16.201 C 38.623 16.201 41.706 13.588 42.334 9.631 A 9.761 9.761 0 0 0 42.452 8.101 C 42.452 3.83 39.84 0.747 35.882 0.119 A 9.761 9.761 0 0 0 34.352 0.001 C 30.081 0.001 26.998 2.614 26.37 6.571 A 9.761 9.761 0 0 0 26.252 8.101 C 26.252 12.372 28.865 15.455 32.822 16.083 Z" id="0" vector-effect="non-scaling-stroke"/></g></svg>