<svg width="64.052" height="77.853" viewBox="0 0 64.052 77.853" xmlns="http://www.w3.org/2000/svg"><g id="svgGroup" stroke-linecap="round" fill-rule="evenodd" font-size="9pt" fill="white"><path d="M 0 77.853 L 10.8 77.853 L 10.8 36.753 A 29.555 29.555 0 0 1 16.329 19.421 A 21.273 21.273 0 0 1 33.3 10.053 A 20.491 20.491 0 0 1 42.267 11.935 C 46.779 14.105 49.894 18.06 51.551 23.316 A 33.301 33.301 0 0 1 52.95 33.303 L 52.95 77.853 L 64.05 77.853 L 64.05 32.553 A 39.336 39.336 0 0 0 61.379 17.893 C 56.913 6.74 47.315 0.003 36.15 0.003 A 30.4 30.4 0 0 0 20.905 3.839 A 26.64 26.64 0 0 0 11.1 13.653 A 0.563 0.563 0 0 0 11.02 13.753 C 10.943 13.876 10.917 14.019 10.8 14.253 L 10.8 1.353 L 0 1.353 L 0 77.853 Z" id="0" vector-effect="non-scaling-stroke"/></g></svg>