<svg width="70.205" height="79.357" viewBox="0 0 70.205 79.357" xmlns="http://www.w3.org/2000/svg"><g id="svgGroup" stroke-linecap="round" fill-rule="evenodd" font-size="9pt" fill="white"><path d="M 0.003 39.602 C 0.003 63.002 14.403 79.352 34.953 79.352 A 34.649 34.649 0 0 0 53.814 74.169 C 64.184 67.571 70.203 55.141 70.203 39.602 A 44.935 44.935 0 0 0 66.19 20.62 C 62.211 12.039 55.593 5.681 47.797 2.433 A 31.378 31.378 0 0 0 35.703 0.002 A 34.548 34.548 0 0 0 2.031 25.426 A 48.226 48.226 0 0 0 0.003 39.602 Z M 54.223 57.956 A 36.681 36.681 0 0 0 59.103 39.152 A 37.993 37.993 0 0 0 56.374 24.637 A 22.647 22.647 0 0 0 35.253 9.452 A 26.656 26.656 0 0 0 34.551 9.461 C 24.866 9.716 17.984 15.256 14.277 23.425 A 38.58 38.58 0 0 0 11.103 39.302 A 38.076 38.076 0 0 0 14.131 54.428 A 22.615 22.615 0 0 0 34.953 69.302 A 22.002 22.002 0 0 0 54.223 57.956 Z" id="0" vector-effect="non-scaling-stroke"/></g></svg>