<svg width="74.256" height="109.352" viewBox="0 0 74.256 109.352" xmlns="http://www.w3.org/2000/svg"><g id="svgGroup" stroke-linecap="round" fill-rule="evenodd" font-size="9pt" fill="white"><path d="M 0 109.352 L 11.7 109.352 L 11.7 58.802 L 40.05 58.802 A 41.672 41.672 0 0 0 57.922 55.071 C 67.79 50.385 74.25 41.402 74.25 28.802 A 27.144 27.144 0 0 0 69.024 12.206 C 65.529 7.541 60.407 4.072 54.049 2.049 A 46.685 46.685 0 0 0 39.9 0.002 L 0 0.002 L 0 109.352 Z M 11.7 11.402 L 39.45 11.402 C 54.685 11.402 62.334 18.392 62.4 29.41 A 24.047 24.047 0 0 1 62.4 29.552 C 62.4 38.425 56.934 44.018 49.15 46.269 A 30.701 30.701 0 0 1 40.65 47.402 L 11.7 47.402 L 11.7 11.402 Z" id="0" vector-effect="non-scaling-stroke"/></g></svg>