<svg width="53.401" height="77.85" viewBox="0 0 53.401 77.85" xmlns="http://www.w3.org/2000/svg"><g id="svgGroup" stroke-linecap="round" fill-rule="evenodd" font-size="9pt" fill="white"><path d="M 0 77.85 L 10.5 77.85 L 10.5 32.7 C 10.5 21.361 17.974 11.92 26.803 9.969 A 15.5 15.5 0 0 1 30.15 9.6 A 12.243 12.243 0 0 1 36.576 11.286 C 39.296 12.927 41.188 15.664 42.197 19.028 A 21.548 21.548 0 0 1 43.05 25.2 L 53.4 23.4 A 25.215 25.215 0 0 0 50.475 11.378 A 21.022 21.022 0 0 0 32.1 0 C 22.65 0 14.25 5.1 10.5 11.1 L 10.5 1.2 L 0 1.2 L 0 77.85 Z" id="0" vector-effect="non-scaling-stroke"/></g></svg>