<svg width="80.14" height="111.154" viewBox="0 0 80.14 111.154" xmlns="http://www.w3.org/2000/svg"><g id="svgGroup" stroke-linecap="round" fill-rule="evenodd" font-size="9pt" fill="white"><path d="M 47.871 47.252 L 28.071 43.202 A 21.834 21.834 0 0 1 22.746 41.406 C 20.495 40.277 18.784 38.803 17.551 37.057 A 15.053 15.053 0 0 1 15.021 28.202 A 16.07 16.07 0 0 1 23.212 14.146 C 27.14 11.767 32.44 10.352 39.021 10.352 C 55.111 10.352 64.228 18.632 64.228 30.475 A 23.372 23.372 0 0 1 64.221 31.052 L 75.021 28.802 C 75.021 15.425 64.952 1.221 42.302 0.076 A 59.065 59.065 0 0 0 39.321 0.002 A 49.59 49.59 0 0 0 25.25 1.916 C 12.297 5.744 4.715 14.808 3.383 24.508 A 22.732 22.732 0 0 0 3.171 27.602 A 29.758 29.758 0 0 0 5.264 38.991 C 8.402 46.613 14.941 51.719 24.021 53.702 L 44.271 58.052 A 98.184 98.184 0 0 1 51.62 59.921 C 66.708 64.457 67.971 70.314 67.971 79.502 C 67.971 88.732 62.024 98.595 45.598 100.142 A 49.35 49.35 0 0 1 40.971 100.352 C 23.667 100.352 10.446 92.04 11.66 72.541 A 42.648 42.648 0 0 1 11.721 71.702 L 0.021 73.952 A 41.919 41.919 0 0 0 0.005 75.092 C 0.005 96.522 16.632 111.152 39.921 111.152 A 58.858 58.858 0 0 0 54.451 109.468 C 59.936 108.071 64.495 105.861 68.173 103.054 A 30.673 30.673 0 0 0 80.121 78.002 C 80.121 64.881 73.197 55.222 57.237 49.76 A 76.424 76.424 0 0 0 47.871 47.252 Z" id="0" vector-effect="non-scaling-stroke"/></g></svg>