<svg width="62.707" height="79.052" viewBox="0 0 62.707 79.052" xmlns="http://www.w3.org/2000/svg"><g id="svgGroup" stroke-linecap="round" fill-rule="evenodd" font-size="9pt" fill="white"><path d="M 10.202 52.501 L 0.002 55.051 A 14.896 14.896 0 0 0 0 55.283 C 0 63.75 7.15 75.773 24.767 78.49 A 50.057 50.057 0 0 0 32.402 79.051 A 45.563 45.563 0 0 0 42.921 77.908 C 56.372 74.717 62.394 65.328 62.692 55.94 A 23.175 23.175 0 0 0 62.702 55.501 A 23.581 23.581 0 0 0 62.704 55.169 C 62.704 46.312 57.698 37.824 46.303 34.202 A 38.292 38.292 0 0 0 39.152 32.701 L 23.252 30.901 C 16.952 30.151 13.052 26.551 13.052 20.851 A 7.162 7.162 0 0 1 13.288 19.053 C 14.629 13.877 21.605 8.701 31.952 8.701 A 25.856 25.856 0 0 1 36.964 9.158 C 46.59 11.059 49.132 18.466 49.652 23.401 L 59.252 21.451 A 15.27 15.27 0 0 0 59.027 18.969 C 57.885 12.15 51.976 0.001 31.952 0.001 A 41.852 41.852 0 0 0 22.417 1.044 C 9.882 3.973 3.472 12.537 2.767 19.816 A 13.86 13.86 0 0 0 2.702 21.151 A 21.667 21.667 0 0 0 3.725 27.915 C 6.498 36.401 14.36 40.372 20.552 41.101 L 36.302 42.901 A 33.251 33.251 0 0 1 44.548 44.682 C 48.174 46.084 50.876 48.426 51.666 52.468 A 13.461 13.461 0 0 1 51.902 55.051 A 12.495 12.495 0 0 1 44.424 66.846 C 41.344 68.35 37.389 69.151 32.702 69.151 C 19.13 69.151 12.073 62.51 10.501 54.726 A 17.224 17.224 0 0 1 10.202 52.501 Z" id="0" vector-effect="non-scaling-stroke"/></g></svg>