<svg width="60.602" height="97.2" viewBox="0 0 60.602 97.2" xmlns="http://www.w3.org/2000/svg"><g id="svgGroup" stroke-linecap="round" fill-rule="evenodd" font-size="9pt" fill="white"><path d="M 22.8 0 L 11.85 0 L 11.85 10.95 L 11.85 8.7 L 11.85 19.65 L 0 19.65 L 0 28.35 L 11.85 28.35 L 11.85 64.65 C 11.706 84.785 19.974 96.232 34.934 97.141 A 32.405 32.405 0 0 0 36.9 97.2 C 49.713 97.2 60.602 85.806 60.602 71.689 A 27.486 27.486 0 0 0 60.6 71.4 L 51.6 69.45 C 50.1 82.2 43.35 87.45 37.05 87.45 A 13.875 13.875 0 0 1 30.348 85.92 C 26.088 83.615 23.747 78.782 22.957 71.941 A 50.717 50.717 0 0 1 22.65 66.15 L 22.65 28.35 L 56.55 28.35 L 56.55 19.65 L 22.65 19.65 C 22.65 19.65 22.8 0 22.8 0 Z" id="0" vector-effect="non-scaling-stroke"/></g></svg>