<?xml version="1.0" standalone="no"?>
<!DOCTYPE svg PUBLIC "-//W3C//DTD SVG 20010904//EN"
 "http://www.w3.org/TR/2001/REC-SVG-20010904/DTD/svg10.dtd">
<svg version="1.0" xmlns="http://www.w3.org/2000/svg"
 width="471.000000pt" height="967.000000pt" viewBox="0 0 471.000000 967.000000"
 preserveAspectRatio="xMidYMid meet">

<g transform="translate(0.000000,967.000000) scale(0.100000,-0.100000)"
fill="#000000" stroke="none">
<path d="M920 9645 c-209 -46 -413 -161 -546 -308 -206 -228 -320 -523 -359
-927 -21 -216 -22 -6881 -1 -7135 29 -340 105 -589 249 -806 157 -236 350
-373 624 -441 125 -31 347 -32 484 -1 262 59 533 202 782 413 179 152 625 535
842 725 145 126 298 258 700 605 105 90 217 187 250 216 33 29 123 107 200
174 226 196 331 321 423 505 104 207 135 339 136 570 0 153 -2 180 -26 271
-69 259 -172 438 -361 625 -126 124 -210 179 -909 592 -82 48 -148 92 -148 97
0 19 39 48 176 131 76 46 148 89 159 95 46 24 405 241 470 282 321 207 524
478 611 817 26 100 28 126 28 285 0 158 -2 185 -27 277 -60 230 -154 406 -315
591 -30 35 -186 176 -346 315 -160 138 -345 299 -412 357 -66 58 -132 114
-145 125 -13 11 -123 106 -244 210 -120 105 -271 235 -335 289 -110 95 -198
172 -340 296 -254 222 -394 342 -450 386 -253 198 -503 319 -760 369 -90 18
-330 18 -410 0z m362 -969 c104 -50 231 -144 428 -316 91 -80 233 -203 315
-275 83 -71 220 -190 305 -265 85 -75 281 -244 435 -376 154 -133 370 -319
480 -414 110 -95 242 -209 292 -252 116 -100 156 -146 195 -226 24 -51 30 -78
30 -131 1 -141 -71 -218 -374 -401 -111 -67 -216 -130 -233 -140 -37 -21 -379
-224 -458 -273 -101 -60 -92 -124 -95 648 -1 496 -5 681 -14 686 -13 8 -872
11 -905 3 l-23 -6 0 -2109 0 -2108 343 -3 c188 -2 398 -1 467 2 l125 5 3 676
c2 613 4 677 18 683 11 4 73 -28 173 -87 778 -465 806 -482 866 -542 163 -161
149 -323 -43 -508 -56 -54 -329 -291 -461 -402 -20 -16 -90 -77 -156 -135
-159 -140 -454 -395 -514 -445 -27 -22 -126 -107 -221 -190 -96 -82 -244 -211
-329 -284 -86 -74 -214 -186 -286 -249 -201 -176 -352 -270 -472 -295 -45 -9
-59 -9 -81 4 -59 33 -100 134 -126 311 -15 97 -16 456 -16 3560 -1 3031 1
3467 15 3569 21 164 59 267 112 309 40 31 107 24 205 -24z"/>
</g>
</svg>
