<svg xmlns="http://www.w3.org/2000/svg" viewBox="456 546 1162 904" fill="none" role="img" aria-label="Burak Karakaya">
  <!-- Tight crop: PNG→SVG dönüşümündeki 2048×2048 boşluk kırpıldı (path bbox + küçük pay). -->
  <path fill="#fefefe" d="M 461.136 552.039 C 478.786 552.814 498.908 552.276 516.835 552.287 L 600.087 552.588 L 849.139 552.536 L 924.814 552.227 C 941.922 552.148 958.236 551.849 975.208 552.951 C 1103.07 561.253 1187.61 653.655 1176.16 782.689 C 1168.63 867.549 1127.25 925.071 1064.68 978.424 C 1072.2 985.586 1081.19 992.551 1088.48 1000.09 C 1122.56 1035.97 1165.33 1084.03 1179.37 1132.09 C 1202.93 1212.78 1184.4 1317.56 1122.56 1377.07 C 1077.21 1420.71 1019.33 1442.43 957.173 1445.4 C 931.761 1446.61 906.183 1445.96 881.036 1445.95 L 757.707 1445.86 L 594.052 1446.01 C 593.23 1411.65 593.993 1374.54 594.001 1340 L 593.79 1118.17 C 612.722 1104.39 627.73 1092.7 633.737 1068.79 C 639.365 1046.53 635.756 1022.94 623.73 1003.37 C 598.14 961.415 547.98 945.501 502.932 934.708 C 533.501 932.299 581.122 933.28 613.075 933.217 L 804.108 933.059 C 867.763 933.065 943.108 942.434 992.442 894.864 C 1059.26 830.434 1050.04 703.557 947.37 683.293 C 933.121 680.48 919.633 679.561 905.103 679.774 C 802.019 678.598 698.135 681.498 595.147 679.254 C 581.581 668.703 554.591 641.997 541.9 629.559 C 516.331 604.499 485.802 577.394 461.136 552.039 z M 743.88 1319.9 C 780.473 1320.95 817.27 1320.41 853.919 1320.41 C 879.891 1320.41 908.07 1321.22 933.883 1319.12 C 963.622 1316.71 987.536 1304.08 1009.36 1284.08 C 1037.81 1255.05 1048.27 1220.88 1048.16 1180.89 C 1047.98 1116.66 1009.81 1059.51 946.006 1043.83 C 917.808 1036.89 888.77 1038.49 859.938 1038.1 C 821.479 1037.56 782.431 1038.89 744.045 1037.72 C 744.108 1130.55 745.536 1227.46 743.88 1319.9 z"/>
  <path fill="#fefefe" d="M 1381.33 551.883 C 1404.19 553.093 1430.64 552.346 1453.89 552.317 C 1488.49 552.274 1525.26 553.231 1559.64 551.792 C 1548.77 565.355 1534.91 587.129 1524.96 601.926 L 1468.08 686.784 L 1275.48 976.181 C 1300.44 1009.87 1325.55 1046.76 1349.93 1081.23 L 1454.44 1227.4 L 1546.41 1356.12 C 1563.17 1379.48 1583.46 1406.31 1599.11 1429.93 C 1603.57 1435.84 1607.15 1440.38 1612.05 1445.91 L 1443.03 1445.99 C 1432.34 1432.91 1416.97 1409.73 1406.86 1395.41 C 1381.11 1358.91 1355.63 1322.24 1330.39 1285.39 L 1117.39 979.051 C 1125.51 962.687 1143.73 935.161 1153.77 919.001 L 1211.28 824.97 L 1316.99 654.624 C 1337.21 622.067 1360.11 582.957 1381.33 551.883 z"/>
</svg>
