<svg xmlns="http://www.w3.org/2000/svg" xmlns:xlink="http://www.w3.org/1999/xlink" width="38.136" height="40.219" viewBox="0 0 38.136 40.219"><defs><clipPath id="a"><rect width="38.136" height="40.219" fill="none"/></clipPath></defs><g transform="translate(0 0)"><g transform="translate(0 0)" clip-path="url(#a)"><path d="M22.089,40.219H2.232A2.235,2.235,0,0,1,0,37.987V2.231A2.234,2.234,0,0,1,2.232,0H27.015a2.234,2.234,0,0,1,2.233,2.231V17.366a.9.9,0,1,1-1.807,0V2.231a.426.426,0,0,0-.426-.426H2.232a.426.426,0,0,0-.426.426V37.987a.426.426,0,0,0,.426.426H22.089a.9.9,0,1,1,0,1.807" transform="translate(0 0)" fill="#231f20"/><path d="M23.783,6.918H4.575a1.129,1.129,0,0,1,0-2.259H23.783a1.129,1.129,0,0,1,0,2.259" transform="translate(0.445 1.602)" fill="#231f20"/><path d="M23.783,14.207H4.575a1.129,1.129,0,1,1,0-2.259H23.783a1.129,1.129,0,0,1,0,2.259" transform="translate(0.445 2.544)" fill="#231f20"/><path d="M14.18,21.5h-9.6a1.129,1.129,0,0,1,0-2.259h9.6a1.129,1.129,0,0,1,0,2.259" transform="translate(0.445 3.487)" fill="#231f20"/><path d="M11.436,28.785H4.575a1.129,1.129,0,1,1,0-2.259h6.86a1.129,1.129,0,1,1,0,2.259" transform="translate(0.445 4.429)" fill="#231f20"/><path d="M36.18,23.778a6.365,6.365,0,0,1-1.762,4.438l-8.04,8.424a.968.968,0,0,1-.711.316.982.982,0,0,1-.711-.3l-8.063-8.447a6.485,6.485,0,0,1,0-8.887,5.832,5.832,0,0,1,8.515.011l.26.26.237-.26a5.832,5.832,0,0,1,8.526,0,6.412,6.412,0,0,1,1.75,4.449" transform="translate(1.956 2.259)" fill="#fb0001"/></g></g></svg>