<svg xmlns="http://www.w3.org/2000/svg" width="44.528" height="47.27" viewBox="0 0 44.528 47.27"><g transform="translate(-10 -718.365)"><path d="M3536.5,729.765l15.075,5.383-15.075,5.5-15.634-5.5Z" transform="translate(-3498)" fill="#f0f0f0" opacity="0"/><path d="M3551.871,735.583l-15.446,4.938v24.336l15.446-5.524Z" transform="translate(-3498)" fill="#f0f0f0" opacity="0"/><path d="M3415.5,716.448l-15.257-4.762V735.6l15.257,5.265Z" transform="translate(-3377 24)" fill="#d3d3d3" stroke="#707070" stroke-width="1" opacity="0"/><path d="M3547.182,744.891v-8.3l-15.952-5.444-5.265,2.207L3541.7,738.9s-.091,8.65,0,8.35,2.669-3.706,2.669-3.706Z" transform="translate(-3498)" fill="#fb0001" opacity="0"/><path d="M40.525,13.353,25.292,8.046a.791.791,0,0,0-.524,0L9.533,13.353A.794.794,0,0,0,9,14.1V38.477a.794.794,0,0,0,.534.752L24.77,44.537h0a.766.766,0,0,0,.522,0l15.234-5.308a.792.792,0,0,0,.533-.752V14.1a.794.794,0,0,0-.534-.752ZM25.03,9.638,37.85,14.1l-2.248.784L22.782,10.42Zm8.156,6.091-12.82-4.467-3.106,1.085,12.815,4.467,3.112-1.083ZM30.87,18.221l3.936-1.371v5.87l-1.621-.78a.8.8,0,0,0-.953.2l-1.363,1.6V18.223Zm-3.211-.565L14.84,13.188,12.21,14.1l12.82,4.467,2.629-.915Zm-17.07-2.433,13.647,4.756V42.668L10.589,37.913Zm15.237,4.756V42.668l13.643-4.756V15.222L36.4,16.294v7.694a.8.8,0,0,1-1.14.714l-2.209-1.063-2.364,2.789a.8.8,0,0,1-1.4-.517V18.775l-3.455,1.2Z" transform="translate(13.468 721.052)" fill="#222" fill-rule="evenodd"/><circle cx="12.468" cy="12.468" r="12.468" transform="translate(10 718.365)" fill="#fb1415" stroke="#222" stroke-width="0"/><path d="M15.47,7l1.216,1.261L9.965,15.312,6,11.243,7.2,9.967,9.95,12.789,15.472,7Z" transform="translate(11.124 720.271)" fill="#fff" stroke="#222" stroke-width="0"/></g></svg>