<svg width="32" height="32" viewBox="0 0 32 32" fill="none" xmlns="http://www.w3.org/2000/svg">
<path fill-rule="evenodd" clip-rule="evenodd" d="M23.2727 12.6061H8.72729V24.2424H23.2727V21.9801C23.2727 21.8515 23.2217 21.7282 23.1307 21.6373C23.0398 21.5464 22.9165 21.4953 22.7879 21.4953C22.6593 21.4953 22.536 21.5464 22.4451 21.6373C22.3541 21.7282 22.3031 21.8515 22.3031 21.9801V23.2727H9.69699V13.5758H22.3031V18.8684C22.3031 18.997 22.3541 19.1203 22.4451 19.2112C22.536 19.3021 22.6593 19.3532 22.7879 19.3532C22.9165 19.3532 23.0398 19.3021 23.1307 19.2112C23.2217 19.1203 23.2727 18.997 23.2727 18.8684V12.6061Z" fill="white"/>
<path fill-rule="evenodd" clip-rule="evenodd" d="M16 7.27273C14.0577 7.27273 12.606 8.62158 12.606 10.144V15.5152C12.606 15.6437 12.555 15.7671 12.464 15.858C12.3731 15.9489 12.2498 16 12.1212 16C11.9926 16 11.8693 15.9489 11.7784 15.858C11.6874 15.7671 11.6364 15.6437 11.6364 15.5152V10.144C11.6364 7.95927 13.6582 6.30303 16 6.30303C18.3418 6.30303 20.3636 7.95927 20.3636 10.144V15.5152C20.3636 15.6437 20.3125 15.7671 20.2216 15.858C20.1307 15.9489 20.0074 16 19.8788 16C19.7502 16 19.6269 15.9489 19.5359 15.858C19.445 15.7671 19.3939 15.6437 19.3939 15.5152V10.144C19.3939 8.62158 17.9423 7.27273 16 7.27273Z" fill="white"/>
</svg>
