<svg width="24" height="24" viewBox="0 0 24 24" fill="none" xmlns="http://www.w3.org/2000/svg">
<path d="M3.42857 0C1.5375 0 0 1.5375 0 3.42857V20.5714C0 22.4625 1.5375 24 3.42857 24H8.68929V16.1893H5.86071V12H8.68929V10.1946C8.68929 5.52857 10.8 3.36429 15.3857 3.36429C16.2536 3.36429 17.7536 3.53571 18.3696 3.70714V7.5C18.0482 7.46786 17.4857 7.44643 16.7839 7.44643C14.5339 7.44643 13.6661 8.29821 13.6661 10.5107V12H18.1446L17.3732 16.1893H13.6607V24H20.5714C22.4625 24 24 22.4625 24 20.5714V3.42857C24 1.5375 22.4625 0 20.5714 0H3.42857Z" fill="#333333"/>
</svg>
