<svg width="591" height="423" viewBox="0 0 591 423" fill="none" xmlns="http://www.w3.org/2000/svg">
<path d="M244.899 251.21C207.5 237.71 195 209 195 209M466.5 126.71C432 7.70959 324.5 5.20955 319 5.20955C277.8 2.00955 283.833 36.2095 292 53.7095C322.5 116.21 383.5 240.51 383.5 237.71C387.154 226.637 391.067 216.849 395.141 208.21C399.949 198.016 404.982 189.422 410.08 182.21C431.878 151.367 454.862 145.766 466.5 148.21C456.9 279.41 303.02 294.543 227.28 285.71C202.538 283.143 172.715 269.204 157 254.5M157 254.5C121.285 221.081 116.792 169.538 114 137.71C113.953 137.439 113.905 137.162 113.856 136.881M157 254.5V136.881M67.5 91.7096C106.253 94.1623 111.317 122.283 113.856 136.881M175.649 194.397C207.007 190.051 222.686 179.351 222.686 162.297C222.686 145.353 213.938 136.881 196.444 136.881H157M157 136.881H113.856" stroke="black" stroke-width="10" stroke-linecap="square" stroke-linejoin="round"/>
<path d="M326.554 210.6L344.048 250.21L395 375M326.554 210.6H279.132M326.554 210.6L295.032 138.973C275.986 182.414 265.308 206.769 246.263 250.21C246.263 250.21 211.62 326.266 187.5 375" stroke="black" stroke-width="10"/>
<path d="M23.6494 196.516C55.0068 192.17 70.6855 181.47 70.6855 164.416C70.6855 147.472 61.9385 139 44.4443 139H5V249.328" stroke="black" stroke-width="10"/>
<path d="M235.581 355.335C236.508 359.141 237 363.118 237 367.21C237 394.824 214.614 417.21 187 417.21C159.386 417.21 137 394.824 137 367.21C137 339.595 159.386 317.21 187 317.21C196.628 317.21 205.62 319.931 213.25 324.646" stroke="black" stroke-width="10"/>
<path d="M373.5 321.155C379.492 318.615 386.082 317.21 393 317.21C420.614 317.21 443 339.595 443 367.21C443 394.824 420.614 417.21 393 417.21C365.386 417.21 343 394.824 343 367.21C343 357.539 345.746 348.509 350.5 340.858" stroke="black" stroke-width="10" stroke-linecap="square"/>
<path d="M488 250.236L536.769 139L568.292 210.627M585.786 250.236L568.292 210.627M568.292 210.627H520.87" stroke="black" stroke-width="10"/>
</svg>
