<svg width="34" height="24" viewBox="0 0 34 24" fill="none" xmlns="http://www.w3.org/2000/svg">
<path d="M33.2904 3.75625C32.8982 2.275 31.7466 1.1125 30.2838 0.71875C27.632 0 17 0 17 0C17 0 6.368 0 3.71622 0.71875C2.25339 1.1125 1.10179 2.275 0.70963 3.75625C0 6.4375 0 12.025 0 12.025C0 12.025 0 17.6125 0.70963 20.2938C1.10179 21.775 2.25339 22.8875 3.71622 23.2812C6.368 24 17 24 17 24C17 24 27.632 24 30.2838 23.2812C31.7466 22.8875 32.8982 21.7688 33.2904 20.2938C34 17.6125 34 12.025 34 12.025C34 12.025 34 6.4375 33.2904 3.75625ZM13.5265 17.1V6.95L22.4094 12.025L13.5265 17.1Z" fill="#333333"/>
</svg>
