<svg version="1.2" xmlns="http://www.w3.org/2000/svg" viewBox="0 0 280 197" width="280" height="197">
	<title>Yeni Proje</title>
	<style>
		.s0 { fill: #ffffff } 
	</style>
	<path fill-rule="evenodd" class="s0" d="m279.2 196.6l-21.8-9.2v-177.1l21.8-9.8zm-63.8-130.7l21.9 9.7v111.3l-21.9 9.7h-21.8l-21.9-9.7v-111.3l21.9-9.7zm-21.8 128.5h21.8v-126.3h-21.8zm-63.8-69.3l21.8 9.6v52.2l-21.8 9.7zm-21.9-1.7l21.9-9.7v-47.8l21.8 9.7v30.8l-43.7 19.4v70.8l-21.8-9.5v-176.8l21.8-9.8zm-41.4-48.8v46l-43.7 19.4v53.4h21.8v-41.4l21.8-9.7v43.6l-21.8 9.7h-21.8l-21.9-9.7v-111.3l21.9-9.7h21.8zm-43.7 62.9l21.8-9.6v-60.8h-21.8z"/>
</svg>