<svg xmlns="http://www.w3.org/2000/svg" viewBox="20 37 185 91" fill="currentColor" role="img" aria-label="Epilepsi ve Yaşam Derneği logosu">
<g transform="translate(0,225) scale(0.1,-0.1)">
<path d="M1049 1818 c-47 -64 -88 -158 -101 -229 -6 -35 -12 -65 -13 -66 -1
-2 -33 11 -72 27 -38 16 -95 32 -126 36 l-57 7 0 -40 c0 -51 16 -97 51 -151
16 -24 29 -45 29 -47 0 -2 -47 -4 -105 -4 l-104 -1 -16 31 c-23 44 -39 31 -50
-42 -6 -35 -13 -59 -17 -54 -3 6 -9 46 -13 90 -8 81 -21 124 -34 109 -4 -5
-20 -51 -36 -102 -28 -89 -44 -104 -45 -40 0 33 -9 58 -21 58 -5 0 -17 -16
-26 -35 -14 -29 -22 -35 -42 -33 -13 2 -26 -3 -28 -9 -3 -9 8 -13 36 -13 22 0
43 6 48 13 4 7 12 -14 18 -52 5 -36 15 -66 21 -68 7 -2 23 33 39 84 15 48 30
92 34 96 4 4 13 -44 20 -106 12 -108 23 -148 35 -136 4 3 13 48 22 100 9 52
17 94 18 94 0 0 39 -2 86 -5 l85 -5 -46 -27 c-69 -40 -77 -54 -50 -82 56 -60
185 -101 294 -95 l55 4 12 -38 c11 -39 56 -76 117 -98 63 -21 183 58 183 121
0 12 18 15 98 16 84 0 105 4 159 28 33 15 73 41 89 57 27 28 27 29 8 50 -10
12 -41 32 -69 45 l-50 24 80 0 c46 0 86 5 92 11 8 8 13 -1 18 -37 14 -105 30
-98 69 27 16 52 31 90 32 84 2 -5 10 -61 18 -123 8 -63 17 -116 19 -119 15
-14 25 14 37 97 7 50 17 93 21 96 5 3 9 0 9 -5 0 -7 29 -11 75 -11 60 0 75 3
75 15 0 12 -14 15 -65 15 -62 0 -65 1 -80 30 -21 40 -33 38 -41 -7 -3 -21 -10
-54 -14 -73 l-7 -35 -6 45 c-4 25 -10 72 -14 104 -12 87 -28 81 -59 -21 -14
-48 -30 -92 -34 -97 -5 -4 -12 16 -17 45 -4 29 -13 54 -19 56 -5 2 -18 -12
-27 -32 l-17 -35 -94 0 -95 0 35 66 c37 72 47 150 20 160 -23 9 -126 -16 -178
-42 -60 -31 -68 -30 -68 4 0 38 -27 127 -55 182 -25 49 -91 130 -106 130 -5 0
-23 -19 -40 -42z m88 -50 c18 -29 39 -70 48 -92 16 -37 16 -38 -2 -31 -62 26
-94 29 -141 13 -25 -10 -47 -16 -49 -15 -11 11 88 177 105 177 4 0 22 -24 39
-52z m31 -155 c28 -17 52 -70 52 -112 0 -67 -86 -121 -161 -101 -56 15 -89 54
-89 106 0 61 18 94 65 116 44 20 94 17 133 -9z m-300 -99 c39 -19 72 -40 72
-46 0 -6 -9 -8 -22 -3 -13 4 -49 9 -80 12 -67 6 -70 0 -43 -78 l16 -43 -26 24
c-33 31 -75 116 -75 152 0 27 1 28 43 22 23 -3 75 -21 115 -40z m612 14 c0
-41 -32 -107 -69 -142 l-29 -28 16 44 c24 67 13 82 -51 75 -28 -3 -63 -9 -77
-13 -23 -7 -24 -6 -11 10 20 24 80 53 144 71 74 20 77 19 77 -17z m-127 -149
c-29 -54 -101 -111 -156 -125 l-29 -7 25 49 c13 27 30 66 36 86 10 30 20 40
54 52 56 20 91 24 95 9 2 -7 -9 -36 -25 -64z m-440 55 c26 -13 37 -26 47 -58
6 -22 23 -60 36 -83 13 -23 24 -44 24 -47 0 -14 -118 55 -147 86 -27 27 -63
93 -63 113 0 12 72 4 103 -11z m184 -74 c21 0 51 7 67 15 l29 15 -7 -32 c-6
-32 -75 -148 -88 -148 -19 0 -108 143 -108 175 0 2 16 -3 35 -11 19 -7 51 -14
72 -14z m-213 -95 c27 -16 76 -36 110 -46 l61 -17 -50 -23 c-42 -20 -66 -24
-150 -24 -95 0 -104 2 -170 35 -40 20 -70 41 -70 50 0 35 162 87 200 65 11 -6
42 -25 69 -40z m643 13 c71 -34 68 -52 -13 -90 -92 -43 -193 -50 -293 -19 -38
12 -72 25 -75 30 -3 5 11 12 32 16 48 9 128 42 172 73 43 29 103 25 177 -10z
m-442 -108 c5 -8 11 -8 19 0 10 7 28 4 64 -12 56 -25 65 -45 36 -86 -50 -72
-180 -68 -219 8 -23 44 -19 56 25 69 21 6 42 16 45 21 8 13 22 13 30 0z"/>
<path d="M1063 1580 c-70 -28 -45 -140 32 -140 24 0 39 7 54 26 28 35 26 69
-4 99 -25 26 -45 30 -82 15z m73 -55 c9 -23 -15 -55 -42 -55 -17 0 -28 8 -36
26 -11 23 -10 29 11 45 18 15 27 16 42 8 11 -6 22 -16 25 -24z"/>
<path d="M1086 1523 c-11 -11 -6 -23 9 -23 8 0 15 4 15 9 0 13 -16 22 -24 14z"/>
</g>
</svg>
