<svg width="32" height="32" viewBox="0 0 32 32" fill="none" xmlns="http://www.w3.org/2000/svg">
<path d="M30 10C30.5523 10 31 10.4477 31 11C31 11.5523 30.5523 12 30 12H2C1.44772 12 1 11.5523 1 11C1 10.4477 1.44772 10 2 10H30Z" fill="white"/>
<path d="M25 15C25.5523 15 26 15.4477 26 16C26 16.5523 25.5523 17 25 17H2C1.44772 17 1 16.5523 1 16C1 15.4477 1.44772 15 2 15H25Z" fill="white"/>
<path d="M20 20C20.5523 20 21 20.4477 21 21C21 21.5523 20.5523 22 20 22H2C1.44772 22 1 21.5523 1 21C1 20.4477 1.44772 20 2 20H20Z" fill="white"/>
</svg>
