<svg width="120" height="22" viewBox="0 0 120 22" fill="none" xmlns="http://www.w3.org/2000/svg">
<g clip-path="url(#clip0_38_45)">
<path fill-rule="evenodd" clip-rule="evenodd" d="M5.87999 13.0778V20.2889C5.87999 20.9 6.11999 21.2056 6.83999 21.3889V21.9389H0.119995V21.3889C0.839995 21.2056 1.13999 20.9 1.13999 20.2889V1.77222C1.13999 1.1 0.839995 0.794445 0.119995 0.611111V0.0611115H13.62C15.22 0.101852 16.48 0.224074 17.4 0.427778C18.32 0.631482 19.14 0.998149 19.86 1.52778C20.58 2.05741 21.14 2.77037 21.54 3.66667C21.98 4.56296 22.2 5.52037 22.2 6.53889C22.2 8.0463 21.8 9.35 21 10.45C20.34 11.3667 19.44 12.1 18.3 12.4667C17.18 12.8741 15.62 13.0778 13.62 13.0778H5.87999ZM5.87999 9.47222H13.14C14.58 9.47222 15.58 9.30926 16.14 8.98333C16.92 8.61667 17.4 7.63889 17.4 6.53889C17.4 5.5 16.92 4.52222 16.14 4.15556C15.58 3.82963 14.58 3.66667 13.14 3.66667H5.87999V9.47222ZM30.78 13.0167V20.2889C30.78 20.9611 31.08 21.2667 31.8 21.45V21.9389H25.02V21.45C25.8 21.2056 26.04 20.9611 26.04 20.2889V1.77222C26.04 1.16111 25.8 0.855556 25.02 0.611111V0.122223H38.64C40.28 0.122223 41.58 0.224074 42.54 0.427778C43.5 0.590741 44.34 0.916667 45.06 1.40556C45.9 1.97593 46.54 2.72963 46.98 3.66667C47.34 4.6037 47.52 5.58148 47.52 6.6C47.52 10.1852 45.56 12.2833 41.64 12.8944L45.84 18.8833C46.6 19.9426 47.14 20.6352 47.46 20.9611C47.82 21.2463 48.24 21.4093 48.72 21.45V21.9389H40.92V21.45C41.44 21.3685 41.7 21.1648 41.7 20.8389C41.7 20.6759 41.46 20.2278 40.98 19.4944L36.6 13.0167H30.78ZM30.78 9.47222H38.04C39.12 9.47222 39.9 9.43148 40.38 9.35C40.82 9.26852 41.22 9.12593 41.58 8.92222C42.38 8.51481 42.78 7.74074 42.78 6.6C42.78 5.45926 42.38 4.66482 41.58 4.21667C41.18 4.01296 40.78 3.87037 40.38 3.78889C39.94 3.74815 39.16 3.72778 38.04 3.72778H30.78V9.47222ZM67.56 16.3778H57.72L56.22 19.4944C56.02 19.9019 55.92 20.2278 55.92 20.4722C55.92 20.9611 56.28 21.287 57 21.45V22H49.8V21.45C50.24 21.3685 50.56 21.2259 50.76 21.0222C51 20.8185 51.26 20.3907 51.54 19.7389L59.52 2.99444C59.76 2.46482 59.88 2.03704 59.88 1.71111C59.88 1.22222 59.58 0.875926 58.98 0.672223V0.122223H66.66V0.672223C66.06 0.835186 65.76 1.14074 65.76 1.58889C65.76 1.91482 65.86 2.26111 66.06 2.62778L74.28 19.4944C74.64 20.187 74.96 20.6759 75.24 20.9611C75.48 21.2056 75.82 21.3685 76.26 21.45V22H68.34V21.45C69.02 21.3278 69.36 21.0019 69.36 20.4722C69.36 20.2278 69.26 19.9019 69.06 19.4944L67.56 16.3778ZM66.18 13.3833L62.64 5.62222L59.1 13.3833H66.18ZM84.96 15.5833L90.72 2.75C90.96 2.22037 91.08 1.81296 91.08 1.52778C91.08 1.03889 90.72 0.733334 90 0.611111V0.0611115H97.44V0.611111C96.96 0.651852 96.64 0.774074 96.48 0.977778C96.28 1.18148 95.96 1.77222 95.52 2.75L88.02 19.0667C87.7 19.7593 87.54 20.2278 87.54 20.4722C87.54 21.0019 87.88 21.3074 88.56 21.3889V21.9389H81.06V21.3889C81.74 21.3074 82.08 20.9815 82.08 20.4111C82.08 20.2074 81.92 19.7593 81.6 19.0667L74.1 2.75C73.62 1.77222 73.3 1.18148 73.14 0.977778C72.94 0.774074 72.62 0.651852 72.18 0.611111V0.0611115H79.86V0.611111C79.18 0.733334 78.84 1.03889 78.84 1.52778C78.84 1.81296 78.96 2.22037 79.2 2.75L84.96 15.5833ZM111.24 16.3778H101.34L99.9 19.4333C99.7 19.8815 99.6 20.2278 99.6 20.4722C99.6 20.9204 99.96 21.2259 100.68 21.3889V21.9389H93.48V21.3889C93.92 21.3074 94.24 21.1648 94.44 20.9611C94.68 20.7574 94.94 20.35 95.22 19.7389L103.2 2.93333C103.44 2.4037 103.56 1.97593 103.56 1.65C103.56 1.16111 103.26 0.814815 102.66 0.611111V0.122223H110.34V0.611111C109.7 0.774074 109.38 1.07963 109.38 1.52778C109.38 1.8537 109.48 2.22037 109.68 2.62778L117.96 19.4333C118.32 20.1667 118.62 20.6556 118.86 20.9C119.14 21.1444 119.5 21.3074 119.94 21.3889V21.9389H111.96V21.3889C112.68 21.3074 113.04 20.9815 113.04 20.4111C113.04 20.2074 112.92 19.8815 112.68 19.4333L111.24 16.3778ZM109.92 13.3833L106.38 5.62222L102.84 13.3833H109.92Z" fill="white"/>
</g>
<defs>
<clipPath id="clip0_38_45">
<rect width="120" height="22" fill="white"/>
</clipPath>
</defs>
</svg>
