<svg width="18" height="17" viewBox="0 0 18 17" fill="none" xmlns="http://www.w3.org/2000/svg">
<path d="M6.8928 1C3.64372 1 1 3.64376 1 6.89288C1 10.142 3.64372 12.7858 6.8928 12.7858C10.1419 12.7858 12.7856 10.142 12.7856 6.89288C12.7856 3.64376 10.1419 1 6.8928 1ZM6.8928 11.7143C4.23461 11.7143 2.07142 9.55164 2.07142 6.89288C2.07142 4.23466 4.23461 2.07143 6.8928 2.07143C9.55152 2.07143 11.7142 4.23466 11.7142 6.89288C11.7142 9.55164 9.55152 11.7143 6.8928 11.7143Z" fill="white"/>
<path d="M15.843 15.0856L12.6282 11.8713C12.4187 11.6618 12.0802 11.6618 11.8707 11.8713C11.6613 12.0807 11.6613 12.4193 11.8707 12.6288L15.0855 15.8431C15.19 15.9475 15.3271 16 15.4643 16C15.6014 16 15.7385 15.9475 15.843 15.8431C16.0525 15.6336 16.0525 15.295 15.843 15.0856Z" fill="white"/>
</svg>
