<svg xmlns="http://www.w3.org/2000/svg" width="82.254" height="30" viewBox="0 0 82.254 30">
    <defs>
        <clipPath id="4fgldmhl7a">
            <path data-name="Rectangle 13" style="fill:none" d="M0 0h82.254v30H0z"/>
        </clipPath>
    </defs>
    <g data-name="Group 6">
        <g data-name="Group 5" style="clip-path:url(#4fgldmhl7a)">
            <path data-name="Path 54" d="M77.831 0H4.424A4.423 4.423 0 0 0 0 4.424v21.152A4.423 4.423 0 0 0 4.424 30h73.407a4.423 4.423 0 0 0 4.424-4.424V4.424A4.423 4.423 0 0 0 77.831 0" style="fill:#fff"/>
            <path data-name="Path 55" d="M6.257 20.745h1.146c.541 0 .926.27.926.76a.664.664 0 0 1-.359.583.751.751 0 0 1 .507.74c0 .549-.41.875-1.032.875H6.257zm1.107 1.158c.3 0 .444-.127.444-.355s-.148-.355-.452-.355h-.549v.71zm.022 1.315c.376 0 .554-.144.554-.418s-.178-.423-.554-.423h-.579v.841z"/>
            <path data-name="Rectangle 11" d="M8.886 20.66h.515v3.043h-.515z"/>
            <path data-name="Path 56" d="M10.432 21.239h-.558v-.579h.558zm-.537.334h.52v2.13h-.52z"/>
            <path data-name="Path 57" d="M10.879 21.573h.52v.33a.7.7 0 0 1 .664-.363.777.777 0 0 1 .794.845v1.319h-.52v-1.212a.448.448 0 0 0-.444-.495.5.5 0 0 0-.495.541V23.7h-.52z"/>
            <path data-name="Path 58" d="M13.207 22.639a.988.988 0 0 1 1.006-1.1.748.748 0 0 1 .625.292v-1.17h.516v3.043h-.515v-.266a.734.734 0 0 1-.617.3.989.989 0 0 1-1.014-1.1m1.665 0a.579.579 0 1 0-.575.651.58.58 0 0 0 .575-.651"/>
            <path data-name="Path 59" d="M16.823 20.745h1.969v.482h-1.411v.752h1.133v.482h-1.133v1.242h-.558z"/>
            <path data-name="Path 60" d="M19.992 22.008c-.33 0-.461.283-.461.689v1.006h-.52v-2.13h.52v.376a.519.519 0 0 1 .545-.376h.249v.435z"/>
            <path data-name="Path 61" d="M21.162 21.239h-.558v-.579h.558zm-.537.334h.52v2.13h-.52z"/>
            <path data-name="Path 62" d="M23.583 22.992a.943.943 0 0 1-1 .744 1.068 1.068 0 0 1-1.086-1.108 1.017 1.017 0 0 1 1.044-1.09.98.98 0 0 1 1.035 1.027c0 .072 0 .135-.008.177h-1.573a.575.575 0 0 0 .587.562.452.452 0 0 0 .495-.313zm-1.576-.591h1.048a.488.488 0 0 0-.515-.473.5.5 0 0 0-.533.473"/>
            <path data-name="Path 63" d="M23.933 21.573h.52v.33a.7.7 0 0 1 .664-.363.777.777 0 0 1 .794.845v1.319h-.52v-1.212a.448.448 0 0 0-.444-.495.5.5 0 0 0-.495.541V23.7h-.52z"/>
            <path data-name="Path 64" d="M26.261 22.639a.988.988 0 0 1 1.006-1.1.748.748 0 0 1 .625.292v-1.17h.516v3.043h-.516v-.266a.734.734 0 0 1-.617.3.989.989 0 0 1-1.014-1.1m1.665 0a.579.579 0 1 0-.575.651.58.58 0 0 0 .575-.651"/>
            <path data-name="Rectangle 12" d="M28.931 20.66h.515v3.043h-.515z"/>
            <path data-name="Path 65" d="m31.044 23.602-.33.963h-.495l.3-.862-.778-2.129h.528l.494 1.462.49-1.462h.533z"/>
            <path data-name="Path 66" d="M33.029 20.745h1.146c.541 0 .926.27.926.76a.664.664 0 0 1-.359.583.751.751 0 0 1 .507.74c0 .549-.41.875-1.032.875h-1.188zm1.107 1.158c.3 0 .444-.127.444-.355s-.148-.355-.452-.355h-.549v.71zm.022 1.315c.376 0 .554-.144.554-.418s-.178-.423-.554-.423h-.579v.841z"/>
            <path data-name="Path 67" d="M36.607 22.008c-.33 0-.461.283-.461.689v1.006h-.52v-2.13h.52v.376a.519.519 0 0 1 .545-.376h.249v.435z"/>
            <path data-name="Path 68" d="M38.969 22.333v1.369h-.511v-.317a.661.661 0 0 1-.638.351.65.65 0 0 1-.71-.638c0-.414.321-.672.8-.672h.393a.137.137 0 0 0 .156-.144c0-.207-.161-.355-.435-.355a.408.408 0 0 0-.448.364h-.465a.849.849 0 0 1 .938-.752.82.82 0 0 1 .921.794m-.511.469v-.034h-.478c-.22 0-.368.122-.368.308 0 .165.135.275.33.275a.5.5 0 0 0 .515-.549"/>
            <path data-name="Path 69" d="M39.4 21.573h.52v.33a.7.7 0 0 1 .664-.363.777.777 0 0 1 .794.845v1.319h-.52v-1.212a.448.448 0 0 0-.444-.495.5.5 0 0 0-.495.541V23.7h-.52z"/>
            <path data-name="Path 70" d="M41.728 22.639a.988.988 0 0 1 1.006-1.1.748.748 0 0 1 .625.292v-1.17h.516v3.043h-.516v-.266a.734.734 0 0 1-.617.3.989.989 0 0 1-1.014-1.1m1.665 0a.579.579 0 1 0-.575.651.58.58 0 0 0 .575-.651"/>
            <path data-name="Path 71" d="M27.666 7.905v2.958h-1.224a4.686 4.686 0 0 1-8.891 0h-1.462a4.685 4.685 0 0 1-8.89 0H5.974V7.905h1.224a4.685 4.685 0 0 1 8.89 0h1.462a4.686 4.686 0 0 1 8.891 0z"/>
            <path data-name="Path 72" d="m41.603 6.444-1.645 4.22-1.737-4.22h-1.108l2.307 5.448-.879 2.187h1.086l3.082-7.635z"/>
            <path data-name="Path 73" d="M43.627 8.749a1.688 1.688 0 0 1 .59-1.057 1.765 1.765 0 0 1 1.19-.428 1.7 1.7 0 0 1 1.169.428 1.754 1.754 0 0 1 .59 1.057zm4.542-.02a2.758 2.758 0 0 0-.937-1.7 2.776 2.776 0 0 0-3.8.14 2.72 2.72 0 0 0-.827 2 3.079 3.079 0 0 0 .022.372h5.554a1.463 1.463 0 0 0 .041-.351 2.344 2.344 0 0 0-.051-.464"/>
            <path data-name="Path 74" d="M47.974 10.529a2.507 2.507 0 0 1-1.044 1.063 3.113 3.113 0 0 1-1.013.36h-.029l-.094.013-.074.008-.084.007c-.053 0-.105.006-.159.008h-.135c-.054 0-.106 0-.158-.008l-.088-.001-.072-.008-.095-.013h-.024a3.009 3.009 0 0 1-.39-.091l-.039-.012-.091-.031a2.924 2.924 0 0 1-.12-.045h-.005l-.064-.033-.049-.022-.076-.035a1.963 1.963 0 0 1-.185-.1 2.507 2.507 0 0 1-1.044-1.063l.081-.022.64-.164.2-.051a.668.668 0 0 0 .042.051 1.984 1.984 0 0 0 .677.521 2.078 2.078 0 0 0 .849.21H45.484a2.078 2.078 0 0 0 .849-.21 1.984 1.984 0 0 0 .677-.521.943.943 0 0 0 .042-.051l.2.051.64.164z"/>
            <path data-name="Path 75" d="M32.706 8.749a1.687 1.687 0 0 1 .59-1.057 1.762 1.762 0 0 1 1.189-.428 1.7 1.7 0 0 1 1.169.428 1.75 1.75 0 0 1 .589 1.057zm4.542-.02a2.755 2.755 0 0 0-.936-1.7 2.776 2.776 0 0 0-3.8.14 2.718 2.718 0 0 0-.828 2 3.079 3.079 0 0 0 .022.372h5.553a1.462 1.462 0 0 0 .041-.351 2.306 2.306 0 0 0-.051-.464"/>
            <path data-name="Path 76" d="M37.048 10.529a2.507 2.507 0 0 1-1.044 1.063 3.113 3.113 0 0 1-1.013.36h-.029l-.094.013-.076.014-.084.007c-.053 0-.105.006-.159.008h-.135c-.054 0-.106 0-.158-.008l-.084-.007-.072-.008-.095-.013h-.024a3.009 3.009 0 0 1-.39-.091l-.039-.012-.091-.031a2.924 2.924 0 0 1-.12-.045h-.005l-.061-.026-.049-.022-.076-.035a1.963 1.963 0 0 1-.185-.1 2.507 2.507 0 0 1-1.044-1.063l.081-.022.64-.164.2-.051a.668.668 0 0 0 .042.051 1.984 1.984 0 0 0 .677.521 2.078 2.078 0 0 0 .849.21H34.559a2.078 2.078 0 0 0 .849-.21 1.984 1.984 0 0 0 .677-.521.943.943 0 0 0 .042-.051l.2.051.64.164z"/>
            <path data-name="Path 77" d="M52.997 10.503a1.837 1.837 0 0 1-2.632-.005 1.818 1.818 0 0 1-.549-1.32 1.85 1.85 0 0 1 .544-1.331 1.833 1.833 0 0 1 2.633 0 1.89 1.89 0 0 1 0 2.656m.729-3.332a2.56 2.56 0 0 0-1.924-.82h-.03a2.217 2.217 0 0 0-1.893.97V4.689h-1.031v7.222h1.035v-.857a2.211 2.211 0 0 0 1.893.939 2.547 2.547 0 0 0 1.955-.825 2.785 2.785 0 0 0 .786-1.991 2.816 2.816 0 0 0-.786-2.007"/>
            <path data-name="Path 78" d="M57.91 6.38a2.144 2.144 0 0 0-.982.242 1.57 1.57 0 0 0-.724.81v-.991h-1.035v5.468h1.035V9.145a1.513 1.513 0 0 1 .531-1.324 1.816 1.816 0 0 1 1.049-.376 2.3 2.3 0 0 1 .59.082V6.421a2.754 2.754 0 0 0-.466-.041"/>
            <path data-name="Path 79" d="M59.487 9.177a1.822 1.822 0 0 0 .544 1.326 1.84 1.84 0 0 0 2.633-.006 1.817 1.817 0 0 0 .548-1.32 1.844 1.844 0 0 0-.548-1.331 1.778 1.778 0 0 0-1.314-.557 1.8 1.8 0 0 0-1.324.552 1.846 1.846 0 0 0-.538 1.337m-.165-2.012a2.605 2.605 0 0 1 1.934-.815 2.194 2.194 0 0 1 1.893.96v-.866h1.035v5.468H63.15v-.867a2.183 2.183 0 0 1-.8.7 2.353 2.353 0 0 1-1.091.253 2.6 2.6 0 0 1-1.939-.831 2.888 2.888 0 0 1 0-4"/>
            <path data-name="Path 80" d="M64.888 6.441h1.034v.836a2.047 2.047 0 0 1 1.8-.928 2.363 2.363 0 0 1 1.625.608 2.063 2.063 0 0 1 .683 1.619v3.333h-1.034V8.876a1.537 1.537 0 0 0-.429-1.146 1.425 1.425 0 0 0-1.04-.422 1.466 1.466 0 0 0-1.153.511 1.871 1.871 0 0 0-.45 1.285v2.806H64.89V6.441z"/>
            <path data-name="Path 81" d="M72.128 10.508a1.781 1.781 0 0 0 1.324.547 1.759 1.759 0 0 0 1.314-.557 1.821 1.821 0 0 0 .547-1.321 1.852 1.852 0 0 0-.543-1.331 1.84 1.84 0 0 0-2.637 0 1.908 1.908 0 0 0-.006 2.663m-.7-3.343a2.6 2.6 0 0 1 1.935-.815 2.2 2.2 0 0 1 1.893.96V4.689h1.035v7.223h-1.035v-.858a2.211 2.211 0 0 1-1.893.939 2.6 2.6 0 0 1-1.939-.831 2.887 2.887 0 0 1 0-4"/>
        </g>
    </g>
</svg>
