<?xml version="1.0" encoding="utf-8"?><svg width="68" height="1159" viewBox="0 0 68 1159" xmlns="http://www.w3.org/2000/svg" xmlns:xlink="http://www.w3.org/1999/xlink"><svg width="32" height="32" viewBox="0 0 32 32" id="arrow-b" xmlns="http://www.w3.org/2000/svg"><path fill="#FFF" fill-rule="evenodd" d="M16 20.75l7-7.292L21.6 12 16 17.833 10.4 12 9 13.458z"/></svg><svg width="32" height="32" viewBox="0 0 32 32" id="arrow-b-w" y="32" xmlns="http://www.w3.org/2000/svg"><path fill="#FFF" fill-rule="evenodd" d="M16 20.75l7-7.292L21.6 12 16 17.833 10.4 12 9 13.458z"/></svg><svg width="32" height="32" viewBox="0 0 32 32" id="arrow2-r" y="64" xmlns="http://www.w3.org/2000/svg"><path fill="#FFF" d="M12.745 12.368l1.004-1.114 5.619 5.065-5.62 5.05-1.002-1.116 4.379-3.935z"/></svg><svg width="32" height="32" viewBox="0 0 32 32" id="arrow2-r-w" y="96" xmlns="http://www.w3.org/2000/svg"><path fill="#fff" d="M12.745 12.368l1.004-1.114 5.619 5.065-5.62 5.05-1.002-1.116 4.379-3.935z"/></svg><svg width="32" height="32" viewBox="0 0 32 32" id="bubble-qm" y="128" xmlns="http://www.w3.org/2000/svg"><g fill="none" fill-rule="evenodd"><circle cx="16" cy="16" r="10" fill="#989898"/><text fill="#FFF" font-family="Graphik-Medium, Graphik" font-size="10" font-weight="400"><tspan x="13.42" y="20">?</tspan></text></g></svg><svg width="32" height="32" viewBox="0 0 32 32" id="check" y="160" xmlns="http://www.w3.org/2000/svg"><rect width="19" height="19" x="6.5" y="6.5" fill="none" stroke="#979797" rx="3"/></svg><svg width="32" height="33" viewBox="0 0 32 32" id="check-full" y="192" xmlns="http://www.w3.org/2000/svg"><g fill="none" fill-rule="evenodd"><rect width="20" height="20" x="6" y="6" fill="#D93131" rx="3"/><path fill="#FFF" fill-rule="nonzero" d="M19.222 12.939l1.064 1.058-5.879 5.912-3.468-3.412 1.052-1.069 2.404 2.365z"/></g></svg><svg width="66" height="66" viewBox="0 0 66 66" id="cocoen" y="225" xmlns="http://www.w3.org/2000/svg"><g fill="none" fill-rule="evenodd"><circle cx="33" cy="33" r="33" fill="#FFF"/><path fill="#222" d="M50.75 33l-7.292-7L42 27.4l5.833 5.6L42 38.6l1.458 1.4zM16.25 33l7.292-7L25 27.4 19.167 33 25 38.6 23.542 40z"/></g></svg><svg width="32" height="32" fill="none" viewBox="0 0 32 32" id="compare" y="291" xmlns="http://www.w3.org/2000/svg"><path fill-rule="evenodd" clip-rule="evenodd" d="M10.436 12.655a.385.385 0 01-.39-.388c0-.218.172-.39.39-.405H20.63l-2.1-2.1a.376.376 0 010-.544.376.376 0 01.545 0l2.768 2.769a.447.447 0 01.11.28.375.375 0 01-.11.28l-2.753 2.768a.375.375 0 01-.28.11.375.375 0 01-.28-.11.376.376 0 010-.544l2.116-2.116H10.436zm.886 6.122l2.1-2.116a.376.376 0 000-.544.376.376 0 00-.544 0l-2.77 2.768a.447.447 0 00-.108.28c0 .11.031.203.109.28l2.753 2.754a.375.375 0 00.28.109.375.375 0 00.28-.11.376.376 0 000-.544l-2.1-2.1h10.211a.385.385 0 00.39-.388.385.385 0 00-.39-.39h-10.21z" fill="#fff"/></svg><svg width="32" height="32" viewBox="0 0 32 32" id="completed" y="323" xmlns="http://www.w3.org/2000/svg"><g fill="none" fill-rule="evenodd"><circle cx="16" cy="15" r="10" fill="#6E994E"/><path fill="#FFF" fill-rule="nonzero" d="M19.222 11.939l1.064 1.058-5.879 5.912-3.468-3.412 1.052-1.069 2.404 2.365z"/></g></svg><svg width="32" height="32" fill="none" viewBox="0 0 32 32" id="delete" y="355" xmlns="http://www.w3.org/2000/svg"><path fill-rule="evenodd" clip-rule="evenodd" d="M14.775 9h2.432c.527 0 .962.436.962.962v.853h3.468a.364.364 0 010 .726h-1.09v9.731a1.17 1.17 0 01-1.161 1.162h-6.772a1.17 1.17 0 01-1.162-1.162v-9.73h-1.089a.364.364 0 01-.363-.364c0-.2.163-.363.363-.363h3.45v-.853c0-.526.435-.962.962-.962zm0 .726a.24.24 0 00-.236.236v.853h2.904v-.853a.24.24 0 00-.236-.236h-2.432zm5.028 1.816v9.73c0 .236-.2.436-.435.436h-6.754a.442.442 0 01-.436-.436v-9.73h7.625zm-4.175 1.997c0-.2.163-.364.363-.364.2 0 .363.164.363.364v6.535c0 .2-.163.363-.363.363a.364.364 0 01-.363-.363V13.54zm-1.634-.364c-.2 0-.363.164-.363.364v6.535c0 .2.163.363.363.363.2 0 .363-.163.363-.363V13.54c0-.2-.163-.364-.363-.364zm3.63 6.9v-6.536a.364.364 0 01.726 0v6.535c.001.2-.162.363-.362.363a.364.364 0 01-.363-.363z" fill="#fff"/></svg><svg width="32" height="32" viewBox="0 0 32 32" id="download" y="387" xmlns="http://www.w3.org/2000/svg"><path d="M15.992 8a.538.538 0 00-.53.537v9.458l-3.381-3.382a.536.536 0 10-.76.76l4.362 4.353.025.018h.003c.004.004.011.008.019.013l.002.001.022.012.003.002.02.009.003.001.021.01.004.001a.123.123 0 00.024.009h.003l.02.007.003.001a.104.104 0 00.024.006h.003l.022.006h.004l.023.003h.003a.09.09 0 00.025.003h.001l.028.001h.027l.048-.003h.001l.036-.006h-.003l.025-.005.024-.006h-.003l.035-.01-.003.001.023-.008h-.004a.14.14 0 00.032-.013l-.003.002.041-.021c.002 0 .002-.001.003-.002l-.002.002.032-.02h-.001l.022-.015-.001.001.035-.028.003-.003.025-.022 4.298-4.298a.536.536 0 00-.374-.923h-.016a.54.54 0 00-.37.162l-3.38 3.382V8.539A.537.537 0 0016 8.002h-.008V8zM9.015 21.978h-.008a.536.536 0 100 1.075h13.985a.538.538 0 100-1.075H9.014z"/></svg><svg width="32" height="32" viewBox="0 0 32 32" id="gift" y="419" xmlns="http://www.w3.org/2000/svg"><path fill="#D93131" d="M24 11.558h-4.796c1.02-.6 1.412-1.39 1.382-2.077a1.56 1.56 0 00-.511-1.08 1.562 1.562 0 00-1.126-.399c-1.386 0-2.394 1.56-2.949 2.706-.555-1.145-1.563-2.706-2.95-2.706a1.553 1.553 0 00-1.635 1.48c-.03.686.362 1.476 1.38 2.076H8v3.555h.889v8.89H23.11v-8.89H24v-3.555zM18.95 8.89a.676.676 0 01.748.629c.023.54-.612 1.578-3.068 1.953.465-1.049 1.354-2.582 2.32-2.582zm-6.648.629a.677.677 0 01.749-.629c.965 0 1.854 1.533 2.32 2.582-2.457-.375-3.092-1.414-3.069-1.953zM8.89 12.447h6.669l.003 1.777H8.89v-1.777zm.889 10.666v-8h5.785l.018 8H9.778zm12.444 0H16.47l-.018-8h5.77v8zm.89-8.889H16.45l-.004-1.777h6.665v1.777z"/></svg><svg width="32" height="32" viewBox="0 0 32 32" id="input-error" y="451" xmlns="http://www.w3.org/2000/svg"><g fill="none" fill-rule="evenodd"><circle cx="16" cy="16" r="9" fill="#D93131"/><path fill="#FFF" d="M19.094 12.023l.883.883L16.884 16l3.093 3.094-.883.883L16 16.884l-3.094 3.093-.883-.883L15.116 16l-3.093-3.094.883-.883L16 15.116z"/></g></svg><svg width="32" height="32" fill="none" viewBox="0 0 32 32" id="minus" y="483" xmlns="http://www.w3.org/2000/svg"><path fill-rule="evenodd" clip-rule="evenodd" d="M16.75 15.375H22v2.25H10v-2.25h6.75z" fill="#fff"/></svg><svg width="32" height="32" fill="none" viewBox="0 0 32 32" id="more" y="515" xmlns="http://www.w3.org/2000/svg"><circle cx="16" cy="16" r="1.5" transform="rotate(-90 16 16)" fill="#fff"/><circle cx="16" cy="11" r="1.5" transform="rotate(-90 16 11)" fill="#fff"/><circle cx="16" cy="21" r="1.5" transform="rotate(-90 16 21)" fill="#fff"/></svg><svg width="32" height="32" fill="none" viewBox="0 0 32 32" id="plus" y="547" xmlns="http://www.w3.org/2000/svg"><path fill-rule="evenodd" clip-rule="evenodd" d="M15.25 10h1.5v5.25H22v1.5h-5.25V22h-1.5v-5.25H10v-1.5h5.25V10z" fill="#fff"/></svg><svg width="32" height="32" fill="none" viewBox="0 0 32 32" id="plus-c" y="579" xmlns="http://www.w3.org/2000/svg"><path fill-rule="evenodd" clip-rule="evenodd" d="M16 0c8.837 0 16 7.163 16 16s-7.163 16-16 16S0 24.837 0 16 7.163 0 16 0zm0 1C7.716 1 1 7.716 1 16c0 8.284 6.716 15 15 15 8.284 0 15-6.716 15-15 0-8.284-6.716-15-15-15zm.625 14.375V11h-1.25v4.375H11v1.25h4.375V21h1.25v-4.375H21v-1.25h-4.375z" fill="#fff"/></svg><svg width="32" height="32" viewBox="0 0 32 32" id="radio" y="611" xmlns="http://www.w3.org/2000/svg"><rect width="19" height="19" x="6.5" y="6.5" fill="none" stroke="#979797" rx="9.5"/></svg><svg width="32" height="32" viewBox="0 0 32 32" id="radio-full" y="643" xmlns="http://www.w3.org/2000/svg"><g fill="none" fill-rule="evenodd"><rect width="20" height="20" x="6" y="6" fill="#D93131" rx="10"/><path fill="#FFF" fill-rule="nonzero" d="M19.222 12.939l1.064 1.058-5.879 5.912-3.468-3.412 1.052-1.069 2.404 2.365z"/></g></svg><svg width="36" height="32" viewBox="0 0 36 32" id="remove" y="675" xmlns="http://www.w3.org/2000/svg"><path fill="#222" fill-rule="evenodd" d="M23.308 11.227l1.06 1.06L20.656 16l3.712 3.712-1.06 1.06-3.713-3.712-3.712 3.713-1.06-1.061L18.534 16l-3.713-3.713 1.06-1.06 3.713 3.712z"/></svg><svg width="32" height="32" viewBox="0 0 32 32" id="remove-w" y="707" xmlns="http://www.w3.org/2000/svg"><path fill="#fff" d="M19.712 11.227l1.061 1.061L17.061 16l3.712 3.712-1.061 1.061L16 17.061l-3.712 3.712-1.061-1.061L14.939 16l-3.712-3.712 1.061-1.061L16 14.939z"/></svg><svg width="24" height="24" viewBox="0 0 24 24" id="star" y="739" xmlns="http://www.w3.org/2000/svg"><path fill="#989898" d="M24 9.23h-9.167L12 0 9.167 9.23H0l7.416 5.602-2.832 9.128L12 18.269 19.416 24l-2.832-9.175z" opacity=".504"/></svg><svg width="24" height="24" viewBox="0 0 24 24" id="star-full" y="763" xmlns="http://www.w3.org/2000/svg"><path fill="#FFCE00" d="M24 9.23h-9.167L12 0 9.167 9.23H0l7.416 5.602-2.832 9.128L12 18.269 19.416 24l-2.832-9.175z"/></svg><svg width="68" height="32" viewBox="0 0 68 32" id="stars-alt-empty" y="787" xmlns="http://www.w3.org/2000/svg"><path d="M12 14.615H7.416L6 10l-1.416 4.615H0l3.708 2.801-1.416 4.564L6 19.134 9.708 22l-1.416-4.587zm14 0h-4.584L20 10l-1.416 4.615H14l3.708 2.801-1.416 4.564L20 19.134 23.708 22l-1.416-4.587zm14 0h-4.584L34 10l-1.416 4.615H28l3.708 2.801-1.416 4.564L34 19.134 37.708 22l-1.416-4.587zm14 0h-4.584L48 10l-1.416 4.615H42l3.708 2.801-1.416 4.564L48 19.134 51.708 22l-1.416-4.587zm14 0h-4.584L62 10l-1.416 4.615H56l3.708 2.801-1.416 4.564L62 19.134 65.708 22l-1.416-4.587z" fill="#989898" opacity=".504"/></svg><svg width="68" height="32" viewBox="0 0 68 32" id="stars-alt-full" y="819" xmlns="http://www.w3.org/2000/svg"><path d="M12 14.615H7.416L6 10l-1.416 4.615H0l3.708 2.801-1.416 4.564L6 19.134 9.708 22l-1.416-4.587zm14 0h-4.584L20 10l-1.416 4.615H14l3.708 2.801-1.416 4.564L20 19.134 23.708 22l-1.416-4.587zm14 0h-4.584L34 10l-1.416 4.615H28l3.708 2.801-1.416 4.564L34 19.134 37.708 22l-1.416-4.587zm14 0h-4.584L48 10l-1.416 4.615H42l3.708 2.801-1.416 4.564L48 19.134 51.708 22l-1.416-4.587zm14 0h-4.584L62 10l-1.416 4.615H56l3.708 2.801-1.416 4.564L62 19.134 65.708 22l-1.416-4.587z" fill="#FFCE00"/></svg><svg width="68" height="32" viewBox="0 0 68 32" id="stars-empty" y="851" xmlns="http://www.w3.org/2000/svg"><path d="M12 14.615H7.416L6 10l-1.416 4.615H0l3.708 2.801-1.416 4.564L6 19.134 9.708 22l-1.416-4.587zm14 0h-4.584L20 10l-1.416 4.615H14l3.708 2.801-1.416 4.564L20 19.134 23.708 22l-1.416-4.587zm14 0h-4.584L34 10l-1.416 4.615H28l3.708 2.801-1.416 4.564L34 19.134 37.708 22l-1.416-4.587zm14 0h-4.584L48 10l-1.416 4.615H42l3.708 2.801-1.416 4.564L48 19.134 51.708 22l-1.416-4.587zm14 0h-4.584L62 10l-1.416 4.615H56l3.708 2.801-1.416 4.564L62 19.134 65.708 22l-1.416-4.587z" fill="#666"/></svg><svg width="68" height="32" viewBox="0 0 68 32" id="stars-full" y="883" xmlns="http://www.w3.org/2000/svg"><path d="M12 14.615H7.416L6 10l-1.416 4.615H0l3.708 2.801-1.416 4.564L6 19.134 9.708 22l-1.416-4.587zm14 0h-4.584L20 10l-1.416 4.615H14l3.708 2.801-1.416 4.564L20 19.134 23.708 22l-1.416-4.587zm14 0h-4.584L34 10l-1.416 4.615H28l3.708 2.801-1.416 4.564L34 19.134 37.708 22l-1.416-4.587zm14 0h-4.584L48 10l-1.416 4.615H42l3.708 2.801-1.416 4.564L48 19.134 51.708 22l-1.416-4.587zm14 0h-4.584L62 10l-1.416 4.615H56l3.708 2.801-1.416 4.564L62 19.134 65.708 22l-1.416-4.587z" fill="#FFF"/></svg><svg width="32" height="32" style="background:#222" viewBox="0 0 32 32" id="swipe" y="915" xmlns="http://www.w3.org/2000/svg"><path d="M0 16C0 7.163 7.163 0 16 0s16 7.163 16 16-7.163 16-16 16S0 24.837 0 16zm1 0c0 8.284 6.716 15 15 15 8.284 0 15-6.716 15-15 0-8.284-6.716-15-15-15C7.716 1 1 7.716 1 16zm17.5-2.752l.659-.748 4.341 4.006-4.342 3.994-.657-.75 3.528-3.245-3.529-3.257zm-10 3.258l4.341-4.006.659.748-3.529 3.257L13.5 19.75l-.657.749L8.5 16.506z" fill="#FFF" fill-rule="nonzero"/></svg><svg width="32" height="32" viewBox="0 0 32 32" id="swiper-next" y="947" xmlns="http://www.w3.org/2000/svg"><path fill="#FFF" d="M0 16C0 7.163 7.163 0 16 0s16 7.163 16 16-7.163 16-16 16S0 24.837 0 16zm1 0c0 8.284 6.716 15 15 15 8.284 0 15-6.716 15-15 0-8.284-6.716-15-15-15C7.716 1 1 7.716 1 16zm13-3.2l.67-.743 4.412 3.977L14.67 20l-.668-.744 3.586-3.223L14 12.8z"/></svg><svg width="32" height="32" viewBox="0 0 32 32" id="swiper-next-dark" y="979" xmlns="http://www.w3.org/2000/svg"><path fill="#222" d="M0 16C0 7.163 7.163 0 16 0s16 7.163 16 16-7.163 16-16 16S0 24.837 0 16zm1 0c0 8.284 6.716 15 15 15 8.284 0 15-6.716 15-15 0-8.284-6.716-15-15-15C7.716 1 1 7.716 1 16zm13-3.2l.67-.743 4.412 3.977L14.67 20l-.668-.744 3.586-3.223L14 12.8z" opacity=".5"/></svg><svg width="21" height="20" fill="none" viewBox="0 0 21 20" id="switch-success" y="1011" xmlns="http://www.w3.org/2000/svg"><g clip-path="url(#bfclip0)"><circle cx="10.5" cy="10" r="10" fill="#fff"/><path d="M7 10.489l2.401 2.362L14.225 8" stroke="#6E994E" stroke-width="1.5" stroke-linecap="square"/></g><defs><clipPath id="bfclip0"><path fill="#fff" transform="translate(.5)" d="M0 0h20v20H0z"/></clipPath></defs></svg><svg width="64" height="64" viewBox="0 0 64 64" id="video" y="1031" xmlns="http://www.w3.org/2000/svg"><g fill="none" fill-rule="evenodd"><circle cx="32" cy="32" r="31.25" stroke="#FFF" stroke-width="1.5"/><path fill="#FFF" d="M41 33L27 43V23z"/></g></svg><svg width="32" height="32" viewBox="0 0 32 32" id="video-type" y="1095" xmlns="http://www.w3.org/2000/svg"><g fill="none" fill-rule="evenodd"><circle cx="16" cy="16" r="10.5" stroke="#F6F6F6"/><path fill="#F6F6F6" d="M20 16l-6 4v-8z"/></g></svg><svg width="32" height="32" viewBox="0 0 32 32" id="video-type-dark" y="1127" xmlns="http://www.w3.org/2000/svg"><g fill="none" fill-rule="evenodd"><circle cx="16" cy="16" r="10.5" stroke="#222"/><path fill="#222" d="M20 16l-6 4v-8z"/></g></svg></svg>