<?xml version="1.0" encoding="utf-8"?><!DOCTYPE svg PUBLIC "-//W3C//DTD SVG 1.1//EN" "http://www.w3.org/Graphics/SVG/1.1/DTD/svg11.dtd"><svg width="68" height="1246" viewBox="0 0 68 1246" xmlns="http://www.w3.org/2000/svg" xmlns:xlink="http://www.w3.org/1999/xlink"><svg width="32" height="32" viewBox="0 0 32 32" id="arrow-b" xmlns="http://www.w3.org/2000/svg"><path fill="#222" fill-rule="evenodd" d="M16 20.75l7-7.292L21.6 12 16 17.833 10.4 12 9 13.458z"/></svg><svg width="32" height="32" viewBox="0 0 32 32" id="arrow-b-w" y="32" xmlns="http://www.w3.org/2000/svg"><path fill="#FFF" fill-rule="evenodd" d="M16 20.75l7-7.292L21.6 12 16 17.833 10.4 12 9 13.458z"/></svg><svg width="9.018" height="5.009" viewBox="0 0 9.018 5.009" id="arrow-d-sm" y="64" xmlns="http://www.w3.org/2000/svg"><path data-name="Path 200" d="M8.311.707l-3.8 3.8-3.8-3.8" fill="none" stroke="#707070" stroke-linecap="round" stroke-linejoin="round"/></svg><svg width="32" height="32" viewBox="0 0 32 32" id="arrow2-r" y="70" xmlns="http://www.w3.org/2000/svg"><path fill="#222" d="M12.745 12.368l1.004-1.114 5.619 5.065-5.62 5.05-1.002-1.116 4.379-3.935z"/></svg><svg width="32" height="32" viewBox="0 0 32 32" id="arrow2-r-w" y="102" xmlns="http://www.w3.org/2000/svg"><path fill="#fff" d="M12.745 12.368l1.004-1.114 5.619 5.065-5.62 5.05-1.002-1.116 4.379-3.935z"/></svg><svg width="32" height="32" viewBox="0 0 32 32" id="bubble-qm" y="134" xmlns="http://www.w3.org/2000/svg"><g fill="none" fill-rule="evenodd"><circle cx="16" cy="16" r="10" fill="#989898"/><text fill="#FFF" font-family="Graphik-Medium, Graphik" font-size="10" font-weight="400"><tspan x="13.42" y="20">?</tspan></text></g></svg><svg width="20" height="20" viewBox="0 0 20 20" id="check" y="166" xmlns="http://www.w3.org/2000/svg"><g fill="#fff" stroke="#707070"><rect width="20" height="20" rx="3" stroke="none"/><rect x=".5" y=".5" width="19" height="19" rx="2.5" fill="none"/></g></svg><svg width="20" height="20" viewBox="0 0 20 20" id="check-full" y="186" xmlns="http://www.w3.org/2000/svg"><g transform="translate(-941 -904)"><g transform="translate(941 904)" fill="#fff" stroke="#707070"><rect width="20" height="20" rx="3" stroke="none"/><rect x=".5" y=".5" width="19" height="19" rx="2.5" fill="none"/></g><rect width="14" height="14" rx="1" transform="translate(944 907)" fill="#fb0001"/></g></svg><svg width="10" height="10" viewBox="0 0 10 10" id="check-sm-gray" y="206" xmlns="http://www.w3.org/2000/svg"><g data-name="Group 7" stroke="#222" fill="none"><circle cx="5" cy="5" r="5" stroke="none"/><circle cx="5" cy="5" r="4.5"/><path data-name="Path 5" d="M3.44 5.173l1.053 1.036L6.61 4.081" stroke-linecap="square"/></g></svg><svg width="66" height="66" viewBox="0 0 66 66" id="cocoen" y="216" xmlns="http://www.w3.org/2000/svg"><g fill="none" fill-rule="evenodd"><circle cx="33" cy="33" r="33" fill="#FFF"/><path fill="#222" d="M50.75 33l-7.292-7L42 27.4l5.833 5.6L42 38.6l1.458 1.4zM16.25 33l7.292-7L25 27.4 19.167 33 25 38.6 23.542 40z"/></g></svg><svg width="32" height="32" viewBox="0 0 32 32" id="compare" y="282" xmlns="http://www.w3.org/2000/svg"><path d="M13.422 16.661l-2.1 2.116h10.211c.218 0 .39.17.39.389a.386.386 0 01-.39.388h-10.21l2.1 2.1c.155.156.155.405 0 .545a.377.377 0 01-.28.109.368.368 0 01-.28-.11l-2.754-2.752a.376.376 0 01-.109-.28c0-.11.047-.203.109-.28l2.769-2.77a.376.376 0 01.544 0 .376.376 0 010 .545zm-3.375-4.394c0 .217.17.389.389.389h10.21l-2.115 2.115c-.155.156-.155.405 0 .545.078.077.171.108.28.108s.202-.03.28-.108l2.753-2.77a.372.372 0 00.11-.28.446.446 0 00-.11-.28l-2.768-2.768a.376.376 0 00-.545 0 .376.376 0 000 .544l2.1 2.1H10.436a.41.41 0 00-.39.405z"/></svg><svg width="32" height="32" viewBox="0 0 32 32" id="completed" y="314" xmlns="http://www.w3.org/2000/svg"><g fill="none" fill-rule="evenodd"><circle cx="16" cy="15" r="10" fill="#6E994E"/><path fill="#FFF" fill-rule="nonzero" d="M19.222 11.939l1.064 1.058-5.879 5.912-3.468-3.412 1.052-1.069 2.404 2.365z"/></g></svg><svg width="32" height="32" viewBox="0 0 32 32" id="delete" y="346" xmlns="http://www.w3.org/2000/svg"><path d="M17.207 9c.527 0 .962.436.962.962v.853h3.468a.364.364 0 010 .727h-1.09v9.73a1.17 1.17 0 01-1.161 1.162h-6.772a1.17 1.17 0 01-1.162-1.162v-9.73h-1.089a.364.364 0 010-.727h3.45v-.853c0-.526.435-.962.962-.962zm2.596 2.542H12.18v9.73c0 .236.2.436.435.436h6.754c.236 0 .435-.2.435-.436v-9.73zm-3.812 1.633c.2 0 .363.164.363.364v6.535a.364.364 0 01-.726 0V13.54c0-.2.163-.364.363-.364zm-1.997 0c.2 0 .363.164.363.364v6.535a.364.364 0 01-.726 0V13.54c0-.2.163-.364.363-.364zm3.994 0c.2 0 .363.164.363.364v6.535a.364.364 0 01-.726 0V13.54c0-.2.163-.364.363-.364zm-.78-3.449h-2.433a.241.241 0 00-.236.236v.853h2.904v-.853a.24.24 0 00-.236-.236z"/></svg><svg width="32" height="32" viewBox="0 0 32 32" id="download" y="378" xmlns="http://www.w3.org/2000/svg"><path d="M15.992 8a.538.538 0 00-.53.537v9.458l-3.381-3.382a.536.536 0 10-.76.76l4.362 4.353.025.018h.003c.004.004.011.008.019.013l.002.001.022.012.003.002.02.009.003.001.021.01.004.001a.123.123 0 00.024.009h.003l.02.007.003.001a.104.104 0 00.024.006h.003l.022.006h.004l.023.003h.003a.09.09 0 00.025.003h.001l.028.001h.027l.048-.003h.001l.036-.006h-.003l.025-.005.024-.006h-.003l.035-.01-.003.001.023-.008h-.004a.14.14 0 00.032-.013l-.003.002.041-.021c.002 0 .002-.001.003-.002l-.002.002.032-.02h-.001l.022-.015-.001.001.035-.028.003-.003.025-.022 4.298-4.298a.536.536 0 00-.374-.923h-.016a.54.54 0 00-.37.162l-3.38 3.382V8.539A.537.537 0 0016 8.002h-.008V8zM9.015 21.978h-.008a.536.536 0 100 1.075h13.985a.538.538 0 100-1.075H9.014z"/></svg><svg width="32" height="32" viewBox="0 0 32 32" id="fav" y="410" xmlns="http://www.w3.org/2000/svg"><path fill="#FFF" d="M18.746 8.721A4.333 4.333 0 0015.666 10l-.34.339-.346-.346a4.349 4.349 0 10-6.149 6.15l6.101 6.1.012.013c.215.211.56.211.771 0l6.102-6.101a4.355 4.355 0 00-3.068-7.431l-.003-.003zm2.293 6.654l-5.709 5.713-5.722-5.723a3.25 3.25 0 114.595-4.596l.729.731a.569.569 0 00.778 0l.73-.731a3.253 3.253 0 014.597 4.602l.002.004z"/></svg><svg width="32" height="32" viewBox="0 0 32 32" id="favh" y="442" xmlns="http://www.w3.org/2000/svg"><path fill="#FFF" d="M21.816 9.999a4.355 4.355 0 00-3.068-1.275l-.002-.003A4.333 4.333 0 0015.666 10l-.34.339-.346-.346a4.349 4.349 0 10-6.149 6.15l6.101 6.1.012.013c.215.211.56.211.771 0l6.102-6.101a4.354 4.354 0 00-.001-6.156z"/></svg><svg width="32" height="32" viewBox="0 0 32 32" id="gift" y="474" xmlns="http://www.w3.org/2000/svg"><path fill="#D93131" d="M24 11.558h-4.796c1.02-.6 1.412-1.39 1.382-2.077a1.56 1.56 0 00-.511-1.08 1.562 1.562 0 00-1.126-.399c-1.386 0-2.394 1.56-2.949 2.706-.555-1.145-1.563-2.706-2.95-2.706a1.553 1.553 0 00-1.635 1.48c-.03.686.362 1.476 1.38 2.076H8v3.555h.889v8.89H23.11v-8.89H24v-3.555zM18.95 8.89a.676.676 0 01.748.629c.023.54-.612 1.578-3.068 1.953.465-1.049 1.354-2.582 2.32-2.582zm-6.648.629a.677.677 0 01.749-.629c.965 0 1.854 1.533 2.32 2.582-2.457-.375-3.092-1.414-3.069-1.953zM8.89 12.447h6.669l.003 1.777H8.89v-1.777zm.889 10.666v-8h5.785l.018 8H9.778zm12.444 0H16.47l-.018-8h5.77v8zm.89-8.889H16.45l-.004-1.777h6.665v1.777z"/></svg><svg width="32" height="32" viewBox="0 0 32 32" id="input-error" y="506" xmlns="http://www.w3.org/2000/svg"><g fill="none" fill-rule="evenodd"><circle cx="16" cy="16" r="9" fill="#D93131"/><path fill="#FFF" d="M19.094 12.023l.883.883L16.884 16l3.093 3.094-.883.883L16 16.884l-3.094 3.093-.883-.883L15.116 16l-3.093-3.094.883-.883L16 15.116z"/></g></svg><svg width="32" height="32" viewBox="0 0 32 32" id="minus" y="538" xmlns="http://www.w3.org/2000/svg"><path fill-rule="evenodd" d="M16.75 15.375H22v2.25H10v-2.25h5.25z"/></svg><svg width="32" height="32" viewBox="0 0 32 32" id="more" y="570" xmlns="http://www.w3.org/2000/svg"><path d="M16 14.5a1.5 1.5 0 11-.001 3.001A1.5 1.5 0 0116 14.5zM16 9.5a1.5 1.5 0 11-.001 3.001A1.5 1.5 0 0116 9.5zM16 19.5a1.5 1.5 0 11-.001 3.001A1.5 1.5 0 0116 19.5z"/></svg><svg width="32" height="32" viewBox="0 0 32 32" id="plus" y="602" xmlns="http://www.w3.org/2000/svg"><path fill="#222" fill-rule="evenodd" d="M15.25 10h1.5v5.25H22v1.5h-5.25V22h-1.5v-5.25H10v-1.5h5.25z"/></svg><svg width="32" height="32" viewBox="0 0 32 32" id="plus-c" y="634" xmlns="http://www.w3.org/2000/svg"><path d="M16 0c8.837 0 16 7.163 16 16s-7.163 16-16 16S0 24.837 0 16 7.163 0 16 0zm0 1C7.716 1 1 7.716 1 16c0 8.284 6.716 15 15 15 8.284 0 15-6.716 15-15 0-8.284-6.716-15-15-15zm.625 10v4.375H21v1.25h-4.375V21h-1.25v-4.375H11v-1.25h4.375V11h1.25z"/></svg><svg width="32" height="32" viewBox="0 0 32 32" id="radio" y="666" xmlns="http://www.w3.org/2000/svg"><rect width="19" height="19" x="6.5" y="6.5" fill="none" stroke="#979797" rx="9.5"/></svg><svg width="32" height="32" viewBox="0 0 32 32" id="radio-full" y="698" xmlns="http://www.w3.org/2000/svg"><g fill="none" fill-rule="evenodd"><rect width="20" height="20" x="6" y="6" fill="#D93131" rx="10"/><path fill="#FFF" fill-rule="nonzero" d="M19.222 12.939l1.064 1.058-5.879 5.912-3.468-3.412 1.052-1.069 2.404 2.365z"/></g></svg><svg width="36" height="32" viewBox="0 0 36 32" id="remove" y="730" xmlns="http://www.w3.org/2000/svg"><path fill="#222" fill-rule="evenodd" d="M23.308 11.227l1.06 1.06L20.656 16l3.712 3.712-1.06 1.06-3.713-3.712-3.712 3.713-1.06-1.061L18.534 16l-3.713-3.713 1.06-1.06 3.713 3.712z"/></svg><svg width="32" height="32" viewBox="0 0 32 32" id="remove-w" y="762" xmlns="http://www.w3.org/2000/svg"><path fill="#fff" d="M19.712 11.227l1.061 1.061L17.061 16l3.712 3.712-1.061 1.061L16 17.061l-3.712 3.712-1.061-1.061L14.939 16l-3.712-3.712 1.061-1.061L16 14.939z"/></svg><svg width="24" height="24" viewBox="0 0 24 24" id="star" y="794" xmlns="http://www.w3.org/2000/svg"><path fill="#989898" d="M24 9.23h-9.167L12 0 9.167 9.23H0l7.416 5.602-2.832 9.128L12 18.269 19.416 24l-2.832-9.175z" opacity=".504"/></svg><svg width="24" height="24" viewBox="0 0 24 24" id="star-full" y="818" xmlns="http://www.w3.org/2000/svg"><path fill="#FFCE00" d="M24 9.23h-9.167L12 0 9.167 9.23H0l7.416 5.602-2.832 9.128L12 18.269 19.416 24l-2.832-9.175z"/></svg><svg width="68" height="32" viewBox="0 0 68 32" id="stars-alt-empty" y="842" xmlns="http://www.w3.org/2000/svg"><path d="M12 14.615H7.416L6 10l-1.416 4.615H0l3.708 2.801-1.416 4.564L6 19.134 9.708 22l-1.416-4.587zm14 0h-4.584L20 10l-1.416 4.615H14l3.708 2.801-1.416 4.564L20 19.134 23.708 22l-1.416-4.587zm14 0h-4.584L34 10l-1.416 4.615H28l3.708 2.801-1.416 4.564L34 19.134 37.708 22l-1.416-4.587zm14 0h-4.584L48 10l-1.416 4.615H42l3.708 2.801-1.416 4.564L48 19.134 51.708 22l-1.416-4.587zm14 0h-4.584L62 10l-1.416 4.615H56l3.708 2.801-1.416 4.564L62 19.134 65.708 22l-1.416-4.587z" fill="#989898" opacity=".504"/></svg><svg width="68" height="32" viewBox="0 0 68 32" id="stars-alt-full" y="874" xmlns="http://www.w3.org/2000/svg"><path d="M12 14.615H7.416L6 10l-1.416 4.615H0l3.708 2.801-1.416 4.564L6 19.134 9.708 22l-1.416-4.587zm14 0h-4.584L20 10l-1.416 4.615H14l3.708 2.801-1.416 4.564L20 19.134 23.708 22l-1.416-4.587zm14 0h-4.584L34 10l-1.416 4.615H28l3.708 2.801-1.416 4.564L34 19.134 37.708 22l-1.416-4.587zm14 0h-4.584L48 10l-1.416 4.615H42l3.708 2.801-1.416 4.564L48 19.134 51.708 22l-1.416-4.587zm14 0h-4.584L62 10l-1.416 4.615H56l3.708 2.801-1.416 4.564L62 19.134 65.708 22l-1.416-4.587z" fill="#FFCE00"/></svg><svg width="68" height="32" viewBox="0 0 68 32" id="stars-empty" y="906" xmlns="http://www.w3.org/2000/svg"><path d="M12 14.615H7.416L6 10l-1.416 4.615H0l3.708 2.801-1.416 4.564L6 19.134 9.708 22l-1.416-4.587zm14 0h-4.584L20 10l-1.416 4.615H14l3.708 2.801-1.416 4.564L20 19.134 23.708 22l-1.416-4.587zm14 0h-4.584L34 10l-1.416 4.615H28l3.708 2.801-1.416 4.564L34 19.134 37.708 22l-1.416-4.587zm14 0h-4.584L48 10l-1.416 4.615H42l3.708 2.801-1.416 4.564L48 19.134 51.708 22l-1.416-4.587zm14 0h-4.584L62 10l-1.416 4.615H56l3.708 2.801-1.416 4.564L62 19.134 65.708 22l-1.416-4.587z" fill="silver"/></svg><svg width="68" height="32" viewBox="0 0 68 32" id="stars-full" y="938" xmlns="http://www.w3.org/2000/svg"><path d="M12 14.615H7.416L6 10l-1.416 4.615H0l3.708 2.801-1.416 4.564L6 19.134 9.708 22l-1.416-4.587zm14 0h-4.584L20 10l-1.416 4.615H14l3.708 2.801-1.416 4.564L20 19.134 23.708 22l-1.416-4.587zm14 0h-4.584L34 10l-1.416 4.615H28l3.708 2.801-1.416 4.564L34 19.134 37.708 22l-1.416-4.587zm14 0h-4.584L48 10l-1.416 4.615H42l3.708 2.801-1.416 4.564L48 19.134 51.708 22l-1.416-4.587zm14 0h-4.584L62 10l-1.416 4.615H56l3.708 2.801-1.416 4.564L62 19.134 65.708 22l-1.416-4.587z" fill="#222"/></svg><svg width="32" height="32" viewBox="0 0 32 32" id="success" y="970" xmlns="http://www.w3.org/2000/svg"><path d="M28.141 5L31 7.878 11.946 27 1 16.254l2.827-2.909 8.086 7.939z"/></svg><svg width="32" height="32" style="background:#222" viewBox="0 0 32 32" id="swipe" y="1002" xmlns="http://www.w3.org/2000/svg"><path d="M0 16C0 7.163 7.163 0 16 0s16 7.163 16 16-7.163 16-16 16S0 24.837 0 16zm1 0c0 8.284 6.716 15 15 15 8.284 0 15-6.716 15-15 0-8.284-6.716-15-15-15C7.716 1 1 7.716 1 16zm17.5-2.752l.659-.748 4.341 4.006-4.342 3.994-.657-.75 3.528-3.245-3.529-3.257zm-10 3.258l4.341-4.006.659.748-3.529 3.257L13.5 19.75l-.657.749L8.5 16.506z" fill="#FFF" fill-rule="nonzero"/></svg><svg width="32" height="32" viewBox="0 0 32 32" id="swiper-next" y="1034" xmlns="http://www.w3.org/2000/svg"><path fill="#FFF" d="M0 16C0 7.163 7.163 0 16 0s16 7.163 16 16-7.163 16-16 16S0 24.837 0 16zm1 0c0 8.284 6.716 15 15 15 8.284 0 15-6.716 15-15 0-8.284-6.716-15-15-15C7.716 1 1 7.716 1 16zm13-3.2l.67-.743 4.412 3.977L14.67 20l-.668-.744 3.586-3.223L14 12.8z"/></svg><svg width="32" height="32" viewBox="0 0 32 32" id="swiper-next-dark" y="1066" xmlns="http://www.w3.org/2000/svg"><path fill="#222" d="M0 16C0 7.163 7.163 0 16 0s16 7.163 16 16-7.163 16-16 16S0 24.837 0 16zm1 0c0 8.284 6.716 15 15 15 8.284 0 15-6.716 15-15 0-8.284-6.716-15-15-15C7.716 1 1 7.716 1 16zm13-3.2l.67-.743 4.412 3.977L14.67 20l-.668-.744 3.586-3.223L14 12.8z" opacity=".5"/></svg><svg width="21" height="20" fill="none" viewBox="0 0 21 20" id="switch-success" y="1098" xmlns="http://www.w3.org/2000/svg"><g clip-path="url(#bkclip0)"><circle cx="10.5" cy="10" r="10" fill="#fff"/><path d="M7 10.489l2.401 2.362L14.225 8" stroke="#6E994E" stroke-width="1.5" stroke-linecap="square"/></g><defs><clipPath id="bkclip0"><path fill="#fff" transform="translate(.5)" d="M0 0h20v20H0z"/></clipPath></defs></svg><svg width="64" height="64" viewBox="0 0 64 64" id="video" y="1118" xmlns="http://www.w3.org/2000/svg"><g fill="none" fill-rule="evenodd"><circle cx="32" cy="32" r="31.25" stroke="#FFF" stroke-width="1.5"/><path fill="#FFF" d="M41 33L27 43V23z"/></g></svg><svg width="32" height="32" viewBox="0 0 32 32" id="video-type" y="1182" xmlns="http://www.w3.org/2000/svg"><g fill="none" fill-rule="evenodd"><circle cx="16" cy="16" r="10.5" stroke="#F6F6F6"/><path fill="#F6F6F6" d="M20 16l-6 4v-8z"/></g></svg><svg width="32" height="32" viewBox="0 0 32 32" id="video-type-dark" y="1214" xmlns="http://www.w3.org/2000/svg"><g fill="none" fill-rule="evenodd"><circle cx="16" cy="16" r="10.5" stroke="#222"/><path fill="#222" d="M20 16l-6 4v-8z"/></g></svg></svg>