<?xml version="1.0" encoding="utf-8"?><!DOCTYPE svg PUBLIC "-//W3C//DTD SVG 1.1//EN" "http://www.w3.org/Graphics/SVG/1.1/DTD/svg11.dtd"><svg xmlns="http://www.w3.org/2000/svg" xmlns:xlink="http://www.w3.org/1999/xlink"><symbol viewBox="0 0 10.194 6.097" id="arrow-down" xmlns="http://www.w3.org/2000/svg"><path d="M1.414 1.414l3.683 3.683L8.78 1.414" fill="none" stroke="#222" stroke-linecap="round" stroke-linejoin="round" stroke-width="2"/></symbol><symbol viewBox="0 0 24.926 19.891" id="cart" xmlns="http://www.w3.org/2000/svg"><defs><clipPath id="ba"><path fill="none" d="M0 0h24.926v19.891H0z"/></clipPath></defs><g clip-path="url(#ba)" fill="#231f20"><path d="M10.762 19.892a2.331 2.331 0 112.33-2.331 2.334 2.334 0 01-2.33 2.331m0-3.542a1.211 1.211 0 101.211 1.211 1.212 1.212 0 00-1.211-1.211M19.264 19.892a2.331 2.331 0 112.33-2.331 2.334 2.334 0 01-2.33 2.331m0-3.542a1.211 1.211 0 101.211 1.211 1.212 1.212 0 00-1.211-1.211M24.816 2.778a.551.551 0 00-.448-.231H5.214L4.493.378A.566.566 0 003.961 0H.56a.56.56 0 000 1.12h3l.7 2.071.028.091 3.394 10.2a.563.563 0 00.532.385h12.753a.548.548 0 00.525-.385l3.4-10.2a.525.525 0 00-.077-.5m-4.255 9.973H8.615l-3.03-9.088h18.006z"/></g></symbol><symbol viewBox="0 0 18 14.969" id="close" xmlns="http://www.w3.org/2000/svg"><g fill="none" stroke="#222" stroke-linecap="round" stroke-width="2"><path d="M3.343 13.555L14.657 2.24M3.343 2.241l11.314 11.314"/></g></symbol><symbol viewBox="0 0 18 14.969" id="close-dark" xmlns="http://www.w3.org/2000/svg"><g fill="none" stroke="#222" stroke-linecap="round" stroke-width="2"><path d="M3.343 13.555L14.657 2.24M3.343 2.241l11.314 11.314"/></g></symbol><symbol viewBox="0 0 10 11.434" id="delete" xmlns="http://www.w3.org/2000/svg"><path d="M2.179 11.434a.98.98 0 01-.968-.989V2.163H.3a.309.309 0 010-.618h2.877V.819A.812.812 0 013.979 0h2.027a.812.812 0 01.8.819v.726H9.7a.309.309 0 010 .618h-.91v8.282a.98.98 0 01-.968.989zm-.363-.989a.372.372 0 00.363.371h5.628a.372.372 0 00.363-.371V2.163H1.816zM3.782.819v.726H6.2V.819a.2.2 0 00-.2-.2H3.979a.2.2 0 00-.197.2zm2.572 8.607V3.863a.302.302 0 11.605 0v5.563a.302.302 0 11-.605 0zm-1.664 0V3.863a.302.302 0 11.605 0v5.563a.302.302 0 11-.605 0zm-1.664 0V3.863a.302.302 0 11.605 0v5.563a.302.302 0 11-.605 0z" fill="#222"/></symbol><symbol viewBox="0 0 36 36" id="download" xmlns="http://www.w3.org/2000/svg"><g stroke="#fb0001" stroke-width="3"><g fill="#fff"><circle cx="18" cy="18" r="18" stroke="none"/><circle cx="18" cy="18" r="16.5" fill="none"/></g><g fill="none"><path d="M18 14v11M18 11v2M12.999 20.381l5 5.128 5-5.128"/></g></g></symbol><symbol viewBox="0 0 32 32" id="error" xmlns="http://www.w3.org/2000/svg"><path d="M19.712 11.227l1.061 1.061L17.061 16l3.712 3.712-1.061 1.061L16 17.061l-3.712 3.712-1.061-1.061L14.939 16l-3.712-3.712 1.061-1.061L16 14.939z"/><path fill="none" stroke-width="1.5" stroke="currentColor" d="M31.25 16c0 8.422-6.828 15.25-15.25 15.25S.75 24.422.75 16 7.578.75 16 .75 31.25 7.578 31.25 16z"/></symbol><symbol viewBox="0 0 12 10.25" id="filter" xmlns="http://www.w3.org/2000/svg"><path d="M4.5 4H8v2.25H0V4h4.5zM6.75 8H12v2.25H0V8h6.75zM6.75 0H12v2.25H0V0h6.75z" fill="#222"/></symbol><symbol viewBox="0 0 14 12.133" id="home" xmlns="http://www.w3.org/2000/svg"><path d="M7.286.099a.471.471 0 00-.58 0L0 5.328l.58.734.82-.639v5.776a.935.935 0 00.933.933h9.333a.935.935 0 00.934-.933V5.427l.82.639.58-.734zm.648 11.1H6.067V7.466h1.866zm.933 0V7.466a.934.934 0 00-.933-.933H6.067a.934.934 0 00-.933.933v3.733h-2.8v-6.5L7 1.06l4.667 3.639v6.5z"/></symbol><symbol viewBox="0 0 18 15.797" id="menu" xmlns="http://www.w3.org/2000/svg"><g fill="none" stroke="#222" stroke-linecap="round" stroke-width="2"><path d="M1 1h16M1 7.898h16M1 14.797h16"/></g></symbol><symbol viewBox="0 0 81 81" id="plus-circle" xmlns="http://www.w3.org/2000/svg"><path d="M38.026 22.016h4.549v15.922h15.922v4.549H42.575v15.922h-4.549V42.487H22.104v-4.549h15.922z" fill="#222"/><g fill="none" stroke="#222" stroke-width="5"><circle cx="40.5" cy="40.5" r="40.5" stroke="none"/><circle cx="40.5" cy="40.5" r="38"/></g></symbol><symbol viewBox="0 0 18 18" id="search" xmlns="http://www.w3.org/2000/svg"><path d="M17 18l-3.868-3.868a8 8 0 111-1L18 17l-1 1zM8 1.75A6.249 6.249 0 1014.247 8 6.256 6.256 0 008 1.75z" fill="#222"/></symbol><symbol viewBox="0 0 7.723 9.438" id="sort" xmlns="http://www.w3.org/2000/svg"><path d="M6.593 5.578l-2.729 2.73-2.731-2.73" fill="none" stroke="#222" stroke-linecap="square" stroke-width="1.6"/><path d="M4.78 4.33v3.371H2.941v-7.7H4.78V4.33z" fill="#222"/></symbol><symbol viewBox="0 0 32 32" id="success" xmlns="http://www.w3.org/2000/svg"><path d="M28.141 5L31 7.878 11.946 27 1 16.254l2.827-2.909 8.086 7.939z"/></symbol><symbol viewBox="0 0 14.293 20.324" id="user" xmlns="http://www.w3.org/2000/svg"><g fill="#222"><path d="M7.146 9.356a4.678 4.678 0 10-4.678-4.678 4.678 4.678 0 004.678 4.678zm0-8.226a3.549 3.549 0 11-3.549 3.549A3.549 3.549 0 017.146 1.13z"/><path d="M14.275 17.117l-.479-4.308a6.711 6.711 0 00-1.92-3.989.566.566 0 10-.8.8 5.579 5.579 0 011.592 3.316l.479 4.308a1.76 1.76 0 01-1.748 1.954H2.887a1.76 1.76 0 01-1.748-1.954l.48-4.309a5.5 5.5 0 011.505-3.226.565.565 0 10-.816-.78 6.635 6.635 0 00-1.811 3.877l-.479 4.313a2.888 2.888 0 002.869 3.208h8.518a2.889 2.889 0 002.87-3.207z"/></g></symbol><symbol viewBox="0 0 31 31" id="warning" xmlns="http://www.w3.org/2000/svg"><g fill="#fff" stroke="#fb0001" stroke-width="3"><circle cx="15.5" cy="15.5" r="15.5" stroke="none"/><circle cx="15.5" cy="15.5" r="14" fill="none"/></g><text transform="translate(12 22)" fill="#fb0001" font-size="21" font-family="Helvetica"><tspan x="0" y="0">!</tspan></text></symbol></svg>