<?xml version="1.0" encoding="UTF-8" standalone="no"?>
<svg
   xmlns:dc="http://purl.org/dc/elements/1.1/"
   xmlns:cc="http://creativecommons.org/ns#"
   xmlns:rdf="http://www.w3.org/1999/02/22-rdf-syntax-ns#"
   xmlns:svg="http://www.w3.org/2000/svg"
   xmlns="http://www.w3.org/2000/svg"
   viewBox="61 310 666 168"
   height="168"
   width="666"
   xml:space="preserve"
   id="svg2"
   version="1.1"><metadata
     id="metadata8"><rdf:RDF><cc:Work
         rdf:about=""><dc:format>image/svg+xml</dc:format><dc:type
           rdf:resource="http://purl.org/dc/dcmitype/StillImage" /></cc:Work></rdf:RDF></metadata><defs
     id="defs6"><clipPath
       id="clipPath18"
       clipPathUnits="userSpaceOnUse"><path
         id="path16"
         d="M 0,591 H 591 V 0 H 0 Z" /></clipPath></defs><g
     transform="matrix(1.3333333,0,0,-1.3333333,0,788)"
     id="g10"><g
       id="g12"><g
         clip-path="url(#clipPath18)"
         id="g14"><g
           transform="translate(61.2166,315.2919)"
           id="g20"><path
             id="path22"
             style="fill:#292927;fill-opacity:1;fill-rule:nonzero;stroke:none"
             d="m 0,0 c 2.144,4.418 5.711,8.078 10.695,10.981 4.984,2.903 10.287,4.701 15.902,5.395 5.616,0.694 11.106,0.694 16.471,0 5.366,-0.694 9.876,-2.525 13.538,-5.491 C 60.266,7.92 62.159,4.291 62.285,0 c 0.125,-2.775 -0.664,-5.237 -2.367,-7.381 -1.704,-2.147 -3.913,-3.63 -6.625,-4.451 -2.715,-0.822 -5.556,-1.105 -8.521,-0.852 -2.966,0.251 -5.774,1.26 -8.424,3.028 -2.65,1.769 -4.671,4.228 -6.059,7.384 3.66,1.01 5.899,2.555 6.721,4.639 0.821,2.081 0.348,3.942 -1.418,5.585 -1.768,1.641 -4.103,2.525 -7.006,2.65 C 25.177,10.728 22.715,9.623 21.202,7.289 19.687,4.954 19.184,2.587 19.689,0.19 c 0.126,-0.631 0.281,-1.199 0.471,-1.705 0.191,-0.506 0.506,-1.042 0.947,-1.608 0.441,-0.569 0.822,-1.075 1.137,-1.516 0.316,-0.441 0.789,-0.914 1.42,-1.42 0.632,-0.506 1.105,-0.914 1.421,-1.23 0.315,-0.315 0.914,-0.789 1.798,-1.42 0.882,-0.631 1.483,-1.039 1.798,-1.23 0.316,-0.19 0.977,-0.598 1.987,-1.229 1.009,-0.632 1.64,-1.075 1.896,-1.325 14.512,-9.468 23.346,-15.399 26.502,-17.796 4.794,-3.535 8.486,-6.943 11.073,-10.225 2.588,-3.281 4.198,-7.005 4.829,-11.168 0.757,-5.05 -0.032,-9.561 -2.367,-13.536 -2.334,-3.977 -5.773,-7.163 -10.316,-9.56 -4.544,-2.4 -9.531,-4.198 -14.956,-5.395 -5.428,-1.2 -11.108,-1.864 -17.04,-1.989 -16.28,-0.253 -28.017,1.956 -35.211,6.625 -7.193,4.669 -10.665,10.412 -10.412,17.23 0.125,4.037 1.733,7.381 4.827,10.031 3.091,2.65 7.256,4.04 12.493,4.166 5.238,0.125 11.329,-1.704 18.272,-5.491 -2.905,-2.271 -4.671,-5.017 -5.302,-8.235 -0.632,-3.219 -0.286,-6.152 1.042,-8.802 1.325,-2.65 3.564,-4.891 6.72,-6.72 3.156,-1.831 6.69,-2.682 10.602,-2.557 4.669,0.25 7.95,2.206 9.844,5.868 1.009,1.513 1.357,3.124 1.042,4.827 -0.316,1.703 -0.855,3.218 -1.611,4.543 -0.756,1.325 -1.924,2.746 -3.502,4.261 -1.577,1.513 -3.188,2.903 -4.829,4.165 -1.64,1.263 -3.534,2.555 -5.678,3.88 -2.146,1.325 -4.07,2.492 -5.773,3.504 -1.703,1.01 -3.472,2.052 -5.3,3.124 -1.831,1.072 -3.314,2.051 -4.451,2.935 -5.049,3.659 -8.929,7.825 -11.642,12.494 -2.715,4.668 -4.103,9.182 -4.165,13.535 C -2.81,-8.426 -1.894,-4.165 0,0" /></g><g
           transform="translate(180.3262,279.8904)"
           id="g24"><path
             id="path26"
             style="fill:#292927;fill-opacity:1;fill-rule:nonzero;stroke:none"
             d="m 0,0 c 0,-21.077 1.641,-35.592 4.922,-43.542 h -42.976 c 2.144,4.794 3.692,11.547 4.639,20.256 0.946,8.709 1.292,17.322 1.042,25.841 -0.253,8.518 -0.884,16.438 -1.894,23.759 -1.012,7.319 -2.274,12.306 -3.787,14.959 13.125,1.259 25.811,4.035 38.054,8.328 L 0,15.715 c 4.669,17.162 10.788,28.017 18.362,32.561 2.397,1.387 5.047,2.304 7.95,2.745 2.903,0.441 5.901,0.253 8.994,-0.569 3.091,-0.821 5.899,-2.271 8.424,-4.353 2.524,-2.084 4.606,-5.237 6.246,-9.465 1.641,-4.228 2.463,-9.245 2.463,-15.051 0,-0.381 -0.033,-2.59 -0.096,-6.627 -0.062,-4.038 -0.062,-7.289 0,-9.749 0.063,-2.462 0.126,-5.996 0.191,-10.602 0.062,-4.609 0.188,-8.551 0.378,-11.832 0.19,-3.282 0.473,-6.753 0.852,-10.412 0.378,-3.662 0.851,-6.848 1.42,-9.561 0.568,-2.715 1.295,-4.829 2.179,-6.342 H 15.902 c 1.263,1.638 2.335,6.34 3.219,14.102 0.882,7.762 1.45,15.965 1.703,24.611 0.251,8.646 -0.16,16.471 -1.232,23.477 C 18.52,25.651 16.721,29.28 14.197,29.533 11.421,29.658 8.959,27.324 6.815,22.527 4.669,17.731 2.585,11.231 0.566,3.031 0.313,2.019 0.125,1.009 0,0" /></g><g
           transform="translate(379.1389,305.4484)"
           id="g28"><path
             id="path30"
             style="fill:#292927;fill-opacity:1;fill-rule:nonzero;stroke:none"
             d="m 0,0 c -0.631,-1.137 -1.262,-2.367 -1.894,-3.692 -0.631,-1.325 -1.137,-2.525 -1.515,-3.597 -0.381,-1.072 -0.821,-2.397 -1.325,-3.975 -0.506,-1.578 -0.947,-2.81 -1.325,-3.692 0,-20.824 0.882,-36.601 2.65,-47.329 4.794,4.922 8.802,11.422 12.02,19.5 3.219,8.075 5.27,16.027 6.154,23.854 0.378,1.766 0.474,3.943 0.283,6.53 -0.19,2.588 -0.506,5.05 -0.946,7.384 -0.441,2.334 -1.388,4.291 -2.838,5.869 C 9.811,2.43 7.887,3.219 5.49,3.219 3.597,3.091 1.766,2.019 0,0 M -1.706,52.441 C -2.337,51.682 -2.938,48.874 -3.504,44.015 -4.073,39.156 -4.579,33.824 -5.019,28.018 -5.46,22.212 -5.681,17.102 -5.681,12.684 c -0.38,-0.631 -0.884,-1.453 -1.515,-2.46 -2.525,-4.671 -6.688,-14.452 -12.494,-29.345 -2.524,-6.562 -4.072,-10.507 -4.638,-11.832 -0.569,-1.328 -1.611,-3.599 -3.124,-6.815 -1.515,-3.219 -2.872,-5.774 -4.07,-7.667 -1.199,-1.894 -2.715,-3.978 -4.543,-6.25 -1.831,-2.271 -3.692,-4.165 -5.586,-5.678 2.019,13.125 2.838,31.049 2.46,53.766 -0.378,22.718 -2.144,37.042 -5.3,42.976 14.262,2.019 28.524,6.372 42.785,13.062 m -85.19,-64.747 c -0.38,-0.253 -0.884,-0.759 -1.515,-1.515 -2.778,-2.775 -4.924,-5.047 -6.437,-6.815 -1.515,-1.769 -3.189,-4.419 -5.017,-7.953 -1.831,-3.534 -3.061,-7.193 -3.692,-10.978 -0.506,-3.031 -0.441,-5.428 0.19,-7.193 0.632,-1.769 1.641,-2.65 3.029,-2.65 1.893,0.125 3.722,1.48 5.49,4.067 1.766,2.588 3.186,5.553 4.258,8.9 1.072,3.343 2.241,7.604 3.504,12.779 0.125,5.299 0.19,9.087 0.19,11.358 M 14.197,24.233 c 6.815,1.766 13.189,0.566 19.121,-3.597 5.931,-4.293 9.908,-10.54 11.927,-18.742 2.019,-8.206 2.334,-16.346 0.947,-24.424 -1.388,-8.078 -3.85,-15.146 -7.384,-21.202 -4.418,-7.825 -10.097,-14.104 -17.037,-18.838 -6.943,-4.734 -14.768,-6.911 -23.477,-6.53 -3.156,0 -7.729,0.221 -13.725,0.661 -5.997,0.441 -10.54,0.694 -13.631,0.759 -3.091,0.063 -7.983,-0.157 -14.67,-0.663 -3.409,-0.506 -6.345,-0.885 -8.804,-1.135 -2.462,-0.253 -5.145,-0.378 -8.048,-0.378 -2.903,0 -5.362,0.188 -7.381,0.566 -2.019,0.378 -4.103,0.977 -6.247,1.798 -2.146,0.822 -3.945,2.019 -5.398,3.597 -1.452,1.578 -2.777,3.471 -3.975,5.681 -1.199,2.209 -2.083,4.889 -2.65,8.045 -0.568,3.156 -0.851,6.752 -0.851,10.793 -1.012,-3.409 -1.989,-6.44 -2.936,-9.09 -0.946,-2.65 -2.239,-5.49 -3.879,-8.519 -1.643,-3.03 -3.442,-5.522 -5.398,-7.479 -1.956,-1.956 -4.386,-3.596 -7.289,-4.921 -2.903,-1.325 -6.121,-1.987 -9.653,-1.987 -7.068,0 -12.654,2.493 -16.756,7.477 -4.103,4.984 -5.931,10.918 -5.491,17.796 0.441,6.878 3.124,12.841 8.048,17.891 2.903,3.028 6.374,5.678 10.412,7.95 4.038,2.272 7.857,4.07 11.454,5.395 3.597,1.325 7.066,2.683 10.412,4.07 3.344,1.388 6.214,3.219 8.614,5.491 2.397,2.271 4.037,5.049 4.924,8.33 1.007,4.166 0.849,8.048 -0.476,11.645 -1.325,3.596 -4.133,5.583 -8.423,5.963 -2.147,0.126 -4.261,-0.443 -6.342,-1.705 -2.084,-1.263 -3.662,-2.871 -4.734,-4.827 -1.072,-1.959 -1.292,-4.356 -0.661,-7.196 0.631,-2.84 2.334,-5.648 5.112,-8.423 -2.653,-3.282 -6.249,-5.461 -10.793,-6.533 -4.543,-1.072 -8.867,-0.598 -12.969,1.421 -4.103,2.018 -6.72,5.427 -7.855,10.224 -0.884,6.815 3.219,12.684 12.306,17.605 9.968,5.3 21.012,7.131 33.129,5.491 14.513,-1.769 24.296,-8.268 29.345,-19.499 2.144,-4.797 3.219,-10.287 3.219,-16.471 l 0.188,-34.833 c 0,-13.759 3.156,-19.943 9.468,-18.553 5.3,1.135 10.221,4.699 14.765,10.695 4.543,5.994 8.391,12.935 11.547,20.824 3.155,7.888 6.216,15.775 9.182,23.665 2.965,7.887 6.374,14.828 10.224,20.824 3.847,5.996 8.045,9.626 12.589,10.888" /></g><g
           transform="translate(440.7246,339.1468)"
           id="g32"><path
             id="path34"
             style="fill:#292927;fill-opacity:1;fill-rule:nonzero;stroke:none"
             d="m 0,0 c 2.019,0 3.847,-0.506 5.488,-1.515 1.64,-1.01 2.965,-2.335 3.977,-3.975 1.01,-1.643 1.516,-3.472 1.516,-5.491 0,-2.524 -0.506,-5.082 -1.516,-7.669 -1.012,-2.587 -2.432,-4.922 -4.26,-7.003 -1.831,-2.084 -3.82,-3.755 -5.964,-5.017 l -0.756,1.325 c 2.524,1.893 4.353,4.669 5.49,8.331 C 2.713,-21.52 1.388,-21.771 0,-21.771 c -3.031,0 -5.585,1.04 -7.669,3.123 -2.084,2.082 -3.124,4.637 -3.124,7.667 0,3.029 1.04,5.616 3.124,7.762 C -5.585,-1.075 -3.031,0 0,0" /></g><g
           transform="translate(469.8841,315.2919)"
           id="g36"><path
             id="path38"
             style="fill:#292927;fill-opacity:1;fill-rule:nonzero;stroke:none"
             d="m 0,0 c 2.144,4.418 5.711,8.078 10.695,10.981 4.984,2.903 10.287,4.701 15.902,5.395 5.616,0.694 11.106,0.694 16.471,0 5.366,-0.694 9.876,-2.525 13.538,-5.491 C 60.266,7.92 62.159,4.291 62.285,0 c 0.125,-2.775 -0.664,-5.237 -2.367,-7.381 -1.704,-2.147 -3.913,-3.63 -6.625,-4.451 -2.715,-0.822 -5.556,-1.105 -8.521,-0.852 -2.966,0.251 -5.774,1.26 -8.424,3.028 -2.65,1.769 -4.671,4.228 -6.059,7.384 3.66,1.01 5.899,2.555 6.721,4.639 0.821,2.081 0.348,3.942 -1.418,5.585 -1.768,1.641 -4.103,2.525 -7.006,2.65 C 25.177,10.728 22.715,9.623 21.202,7.289 19.687,4.954 19.184,2.587 19.689,0.19 c 0.126,-0.631 0.281,-1.199 0.471,-1.705 0.191,-0.506 0.506,-1.042 0.947,-1.608 0.441,-0.569 0.822,-1.075 1.137,-1.516 0.316,-0.441 0.789,-0.914 1.42,-1.42 0.632,-0.506 1.105,-0.914 1.421,-1.23 0.315,-0.315 0.914,-0.789 1.798,-1.42 0.882,-0.631 1.483,-1.039 1.798,-1.23 0.316,-0.19 0.977,-0.598 1.987,-1.229 1.009,-0.632 1.64,-1.075 1.896,-1.325 14.512,-9.468 23.346,-15.399 26.502,-17.796 4.794,-3.535 8.486,-6.943 11.073,-10.225 2.588,-3.281 4.198,-7.005 4.829,-11.168 0.757,-5.05 -0.032,-9.561 -2.367,-13.536 -2.334,-3.977 -5.773,-7.163 -10.316,-9.56 -4.544,-2.4 -9.531,-4.198 -14.956,-5.395 -5.428,-1.2 -11.108,-1.864 -17.04,-1.989 -16.28,-0.253 -28.017,1.956 -35.211,6.625 -7.193,4.669 -10.665,10.412 -10.412,17.23 0.125,4.037 1.733,7.381 4.827,10.031 3.091,2.65 7.256,4.04 12.493,4.166 5.238,0.125 11.329,-1.704 18.272,-5.491 -2.905,-2.271 -4.671,-5.017 -5.302,-8.235 -0.632,-3.219 -0.286,-6.152 1.042,-8.802 1.325,-2.65 3.564,-4.891 6.72,-6.72 3.156,-1.831 6.69,-2.682 10.602,-2.557 4.669,0.25 7.95,2.206 9.844,5.868 1.009,1.513 1.357,3.124 1.042,4.827 -0.316,1.703 -0.855,3.218 -1.611,4.543 -0.756,1.325 -1.924,2.746 -3.502,4.261 -1.577,1.513 -3.188,2.903 -4.829,4.165 -1.64,1.263 -3.534,2.555 -5.678,3.88 -2.146,1.325 -4.07,2.492 -5.773,3.504 -1.703,1.01 -3.472,2.052 -5.3,3.124 -1.831,1.072 -3.314,2.051 -4.451,2.935 -5.049,3.659 -8.929,7.825 -11.642,12.494 -2.715,4.668 -4.103,9.182 -4.165,13.535 C -2.81,-8.426 -1.894,-4.165 0,0" /></g></g></g></g></svg>