<svg xmlns="http://www.w3.org/2000/svg" width="32" height="30" viewBox="0 0 32 30">
    <g fill="none" fill-rule="evenodd">
        <rect width="31.727" height="29.455" fill="#EBE4E0" rx="3.3"/>
        <path fill="#D93131" fill-rule="nonzero" d="M0 21.44h9.184c.972 0 1.753-.817 1.753-1.815V9.595c0-1-.781-1.816-1.753-1.816H0v-.801h9.184c1.383 0 2.505 1.171 2.505 2.616v10.03c0 1.446-1.122 2.617-2.505 2.617H0v-.801zM8.433 0l-.001 6.977h.752c1.383 0 2.505 1.172 2.505 2.617l-.001.023h7.932v-.023c0-1.386 1.033-2.521 2.339-2.61V0h.75v6.977h9.018v.802h-9.602c-.971 0-1.753.817-1.753 1.815l-.001 4.031h11.356v.802l-11.356-.001.001 5.199c0 .948.705 1.733 1.61 1.809l.143.006h9.602v.801H22.71v7.214h-.752V22.24h.167c-1.383 0-2.504-1.171-2.504-2.616l-.001-1.191h-7.932v1.19c0 1.446-1.12 2.617-2.504 2.617h-.751v7.214H7.68V22.24H0v-.801h9.184c.972 0 1.753-.817 1.753-1.815v-5.199H0v-.8l10.937-.001v-4.03c0-1-.781-1.816-1.753-1.816H0v-.801l7.681-.001V0h.752zM19.62 10.419h-7.932v7.213h7.932v-7.213z"/>
    </g>
</svg>
