<svg viewBox="0 0 1440 965" fill="none" xmlns="http://www.w3.org/2000/svg" preserveAspectRatio="none">
<g clip-path="url(#clip0_2222_10026)">
<path d="M7.94458 711.908C41.8174 729.749 79.5587 729.749 115.413 739.188C170.138 752.404 168.251 818.48 173.912 865.678C177.686 892.108 192.783 914.763 217.314 929.866C232.411 939.306 249.394 943.081 264.491 948.745C279.587 952.521 294.684 956.297 308.554 963.49" stroke="black" stroke-miterlimit="10" style="stroke-dashoffset: -0.190107; stroke-dasharray: 438.028px, 1.03957px; opacity: 0.0995;"></path>
<path d="M1372.93 0.47168C1374.05 30.848 1385.67 57.7317 1400.62 83.4637C1408.66 97.302 1416.51 111.291 1418.07 127.508C1419.85 145.821 1413.58 162.567 1404.2 177.708C1389.45 201.476 1371.42 222.791 1347.7 238.045C1304.75 265.684 1268.07 299.59 1238.31 341.237C1216.93 371.142 1190.23 395.477 1159.37 415.753C1127.8 436.501 1100.57 462.12 1078.57 493.364C1058.55 521.758 1031.37 540.354 997.124 549.095C966.309 556.968 936.172 567.351 906.545 579.056C879.673 589.666 853.085 589.288 826.024 579.15C789.585 565.501 751.485 559.592 712.97 554.74C677.191 550.247 641.884 542.45 608.521 527.573C581.687 515.604 563.892 496.158 554.438 468.369C536.096 414.412 506.318 365.837 481.408 314.996C465.368 282.222 453.971 248.56 452.555 211.784C451.857 193.528 439.346 183.824 418.739 182.748C392.641 181.37 366.826 185.807 340.784 185.429C305.704 184.938 286.116 168.778 276.737 140.063C263.169 98.5669 255.017 55.7494 246.601 13.0262C245.808 8.9861 246.488 4.66282 246.488 0.47168" stroke="black" stroke-miterlimit="10" style="stroke-dashoffset: -6.75495; stroke-dasharray: 1858.2px, 7.44581px; opacity: 0.099;"></path>
<path d="M1274.67 0.037758C1269.53 28.3374 1280.1 50.8222 1299.69 70.5885C1315.09 86.1071 1329.56 102.494 1340.11 121.996C1353.71 147.199 1349.71 178.482 1329.88 198.664C1319.92 208.802 1309.97 219.412 1298.35 227.416C1268.8 247.768 1246.19 274.67 1225.88 303.348C1200.43 339.293 1169.63 369.33 1132.4 392.173C1100.66 411.638 1073.69 436.18 1048.37 462.913C1023.38 489.306 992.285 501.143 956.619 504.843C941.447 506.41 926.407 506.127 911.311 506.939C891.233 508.015 871.513 504.767 853.642 496.48C824.695 483.057 796.257 483.245 766.705 492.968C740.796 501.483 714.132 502.766 687.562 496.706C650.953 488.362 626.534 465.405 614.891 430.082C608.23 409.863 602.87 389.171 603.002 367.291C603.116 350.356 613.702 341.294 625.855 336.896C644.574 330.118 662.954 334.385 681.202 337.33C704.696 341.124 727.398 348.619 750.439 354.472C779.481 361.854 793.539 356.586 808.239 327.041C819.373 304.688 824.072 280.315 830.809 256.584C843.037 213.446 869.494 182.465 908.631 160.717C939.089 143.801 972.15 134.192 1004.29 121.883C1017.18 116.936 1030.55 111.99 1039.44 100.55C1049.76 87.2776 1050.05 72.1933 1045.82 56.5992C1040.73 37.758 1035.74 18.879 1030.72 0" stroke="black" stroke-miterlimit="10" style="stroke-dashoffset: -25.9335; stroke-dasharray: 1813.27px, 37.6656px; opacity: 0.0999;"></path>
<path d="M662.623 962.924C645.696 924.184 626.618 905.267 627.562 861.808C627.807 850.48 617.862 821.331 651.358 824.125C694.647 827.731 736.275 835.453 779.678 844.892C819.306 852.444 851.386 837.34 889.128 829.789C915.547 826.013 940.078 835.453 960.836 852.444C985.368 875.098 1008.01 897.753 1041.98 903.417C1072.17 909.081 1100.48 910.969 1128.78 918.52C1158.98 927.96 1185.4 946.839 1211.82 963.698" stroke="black" stroke-miterlimit="10" style="stroke-dashoffset: -244.265; stroke-dasharray: 95.6448px, 667.597px; opacity: 0.0764;"></path>
<path d="M1015.88 0.47168C1018.39 17.2362 1022.09 33.9441 1023.15 50.8031C1024.69 75.4024 1015.15 94.2436 992.143 106.402C971.65 117.219 950.08 125.394 929.153 135.079C888.656 153.807 849.16 174.083 821.062 210.557C808.664 226.642 802.852 245.861 795.662 264.532C788.963 281.92 781.905 299.723 764.412 309.842C757.883 313.617 750.92 316.072 743.069 316.279C715.499 316.978 688.496 313.202 661.265 309.238C638.224 305.896 614.334 302.309 590.972 308.728C568.346 314.958 561.949 323.51 563.251 346.373C564.893 374.899 577.234 400.366 586.028 426.835C592.633 446.658 600.634 465.669 615.938 481.112C636.337 501.709 661.284 512.81 689.043 517.171C720.293 522.06 751.75 520.399 783.339 517.982C801.229 516.623 819.986 519.719 837.253 525.289C870.559 536.012 903.451 532.972 936.682 526.27C954.251 522.721 972.008 520.078 989.445 516.057C1019.09 509.204 1043.11 492.307 1062.12 469.426C1081.74 445.789 1103.97 425.4 1129.11 408.163C1144 397.95 1159.3 388.416 1173.04 376.617C1177.3 372.973 1184.76 368.064 1188.1 371.557C1194.32 378.07 1167.53 394.703 1155.43 403.028C1124.11 424.55 1094.72 447.923 1070.91 478.242C1048.6 506.617 1019.85 525.874 983.236 532.821C957.817 537.654 932.851 544.961 907.754 551.455C884.222 557.534 860.766 558.251 837.347 551.379C806.965 542.45 775.867 537.692 744.296 537.824C716.896 537.938 690.081 534.294 663.907 527.271C624.071 516.567 590.576 495.573 575.026 455.644C561.232 420.208 546.871 385.074 532.039 350.092C526.359 336.669 523.679 322.604 522.679 307.406C520.547 275.52 556.363 280.957 564.515 280.655C579.782 280.107 594.708 282.788 609.767 283.732C629.091 284.94 648.339 287.678 667.606 289.811C686.042 291.869 704.611 292.624 722.897 289.622C746.881 285.677 760.43 268.742 770.753 248.315C779.546 230.909 787.491 213.313 801.889 198.984C824.704 176.273 852.481 161.566 880.146 146.52C908.471 131.114 938.343 118.843 967.007 103.966C995.408 89.2407 1009.37 67.7564 1008.58 35.7188C1008.28 23.8627 1006.67 12.2522 1005.82 0.509438" stroke="black" stroke-miterlimit="10" style="stroke-dashoffset: -1114.83; stroke-dasharray: 1016.56px, 1954.45px; opacity: 0.0412;"></path>
<path d="M1237.16 0.47168C1235.54 12.1767 1232.37 23.5984 1233.25 35.6999C1234.74 55.9948 1247.22 68.4738 1262.24 79.7823C1278.41 91.9404 1296.22 102.135 1308.85 118.673C1331.25 147.973 1328.32 179.199 1301.94 201.023C1262.88 233.344 1230.31 270.762 1200.87 311.277C1181.89 337.405 1158.79 358.512 1131.5 375.239C1094.06 398.195 1061.47 427.042 1029.6 456.928C1008.62 476.619 982.934 485.794 954.27 487.285C931.587 488.456 909.433 488.248 887.524 479.96C864.351 471.2 846.443 456.626 832.384 436.878C822.062 422.379 822.42 404.954 825.27 389.228C833.045 346.203 842.914 303.536 852.5 260.87C864.389 208.008 898.148 174.989 947.929 156.356C977.424 145.311 1008.88 141.762 1038.49 131.322C1040.98 130.435 1043.58 129.793 1046.02 128.773C1075.82 116.257 1084.14 93.6961 1069.95 64.6414C1060.06 44.4031 1048.51 24.9011 1042.17 3.0581C1042 2.45397 1040.58 2.18967 1039.73 1.77433" stroke="black" stroke-miterlimit="10" style="stroke-dashoffset: -698.765; stroke-dasharray: 723.137px, 699.065px; opacity: 0.0517;"></path>
<path d="M1213.27 1.71875C1203.53 11.9323 1203.78 25.9971 1199.72 38.2874C1186.21 79.1981 1196.72 84.1256 1228.42 97.1709C1244.25 103.684 1260.31 109.235 1274.99 118.504C1294.77 130.983 1307.11 153.109 1296.28 176.557C1291.77 186.336 1285.64 195.191 1277.26 201.534C1246.88 224.51 1225.37 254.999 1204.57 286.036C1180.89 321.359 1151.43 350.414 1115.25 372.804C1085.89 390.966 1057.76 410.619 1033.36 435.501C1006.69 462.687 973.593 475.751 935.474 471.919C889.392 467.275 853.519 440.485 852.613 385.359C852.047 350.81 860.407 317.262 866.37 283.488C869.408 266.327 873.05 249.203 880.202 233.194C899.45 190.169 935.437 169.761 979.443 160.17C1009.9 153.544 1041.55 153.449 1071.27 142.707C1088.06 136.628 1103.25 128.416 1115.22 114.936C1123.44 105.666 1123.63 93.735 1116.54 83.4648C1104.27 65.7185 1086.67 52.9375 1073.38 35.9841C1064.95 25.2042 1061.25 11.9512 1052.36 1.75651" stroke="black" stroke-miterlimit="10" style="stroke-dashoffset: -6.12986; stroke-dasharray: 1411.15px, 8.53971px; opacity: 0.095;"></path>
<path d="M1439.57 200.456C1425.11 208.121 1413.34 219.562 1400.86 229.718C1383.37 243.972 1365.61 257.961 1346.34 269.308C1309.28 291.151 1281.2 321.64 1257.39 356.491C1234.65 389.775 1206.46 417.168 1173.02 439.407C1148.64 455.624 1126.41 474.711 1111.76 499.99C1083.57 548.641 1041.47 580.66 993.351 606.902C971.178 619.003 952.42 635.862 936.72 655.798C928.02 666.843 927.435 677.264 936.814 685.778C969.762 715.701 997.653 750.779 1032.24 778.984C1049.04 792.671 1068.55 800.166 1090.06 801.563C1131.97 804.244 1171.53 812.475 1203.36 843.002C1211.17 850.497 1220.53 856.274 1230.72 861.07C1256.07 872.945 1271.13 867.715 1282.54 841.983C1286.19 833.771 1288.56 825.275 1291.34 816.817C1305.89 772.603 1319.1 728.011 1327.61 682.191C1333.46 650.682 1352.8 628.16 1376.86 609.469C1395.5 594.989 1416.77 584.625 1439.55 577.809" stroke="black" stroke-miterlimit="10" style="stroke-dashoffset: -31.7845; stroke-dasharray: 1311.29px, 151.364px; opacity: 0.0903;"></path>
<path d="M1439.57 220.583C1424.34 226.624 1412.6 237.989 1399.45 247.165C1380.84 260.135 1361.82 272.462 1342.91 284.96C1310.55 306.331 1285.41 335.16 1264.94 367.82C1242.9 402.992 1213.78 430.536 1179.45 453.474C1157.77 467.954 1139.18 485.89 1125.09 508.507C1102.4 544.905 1076.68 578.85 1042.43 605.658C1032.22 613.644 1023.79 623.876 1015.79 634.316C996.804 659.104 993.766 686.007 1007.35 713.476C1021.11 741.247 1041.02 763.902 1071.19 775.21C1080.5 778.703 1090.18 781.157 1100.1 781.44C1140.52 782.648 1178.81 790.238 1212.16 815.252C1217.8 819.481 1224.53 823.408 1232.1 824.258C1245.18 825.711 1255.78 822.596 1263.69 810.57C1280.69 784.763 1288.71 755.878 1295.02 726.2C1299.6 704.565 1298.79 682.269 1304.64 660.69C1308.34 647.059 1313.89 634.373 1322.91 624.593C1354.27 590.611 1388.97 561.028 1435.73 549.984C1436.81 549.738 1437.43 547.586 1438.28 546.34" stroke="black" stroke-miterlimit="10" style="stroke-dashoffset: -8.92041; stroke-dasharray: 1299.41px, 21.508px; opacity: 0.0984;"></path>
<path d="M236.43 0.47168C237.11 33.3589 246.035 66.2838 249.979 98.9067C251.98 115.407 253.017 132.134 250.753 148.653C249.338 158.98 247.281 171.591 238.714 178.633C230.543 185.354 217.843 186.147 207.785 185.354C192.707 184.164 178.629 181.993 163.42 183.673C136.019 186.713 110.393 197.889 88.6353 214.654C61.1219 235.836 33.2877 257.528 8.05762 281.391" stroke="black" stroke-miterlimit="10" style="stroke-dashoffset: -174.694; stroke-dasharray: 73.4987px, 372.543px; opacity: 0.0478;"></path>
<path d="M223.863 0.47168C226.882 27.1288 230.883 53.8615 232.185 80.6696C233.223 102.229 232.298 128.547 214.862 143.933C198.652 158.225 175.63 158.489 155.457 162.038C129.491 166.626 106.601 175.348 84.5599 189.866C59.9337 206.083 34.3074 220.62 8.19043 234.231" stroke="black" stroke-miterlimit="10" style="stroke-dashoffset: -31.0085; stroke-dasharray: 279.925px, 96.8273px; opacity: 0.0994;"></path>
<path d="M0.0751953 698.522C8.00086 697.88 14.4546 703.449 21.2103 706.659C28.8718 710.302 36.9862 713.134 45.2326 715.173C63.0654 719.591 81.3699 718.798 99.5423 720.327C115.337 721.648 132.056 723.612 145.738 732.24C156.72 739.168 164.816 749.646 170.175 761.37C184.46 792.577 183.29 827.975 194.103 860.126C202.218 884.253 217.842 904.548 240.525 916.517C273.001 933.641 314.932 936.321 341.653 963.488" stroke="black" stroke-miterlimit="10" style="stroke-dashoffset: -2.85401; stroke-dasharray: 474.946px, 4.21493px; opacity: 0.0995;"></path>
<path d="M7.92578 738.282C28.4193 752.423 54.6306 757.746 78.0491 764.902C96.0328 770.395 112.073 780.703 120.734 797.921C129.132 814.591 130.396 835.83 125.716 853.784C120.753 872.757 107.525 886.898 90.315 895.714C64.0282 909.194 36.1563 920.125 8.15223 929.413" stroke="black" stroke-miterlimit="10" style="stroke-dashoffset: -22.5025; stroke-dasharray: 37.6339px, 296.055px; opacity: 0.0958;"></path>
<path d="M8.45399 860.259C17.8516 852.047 28.7211 839.7 29.457 826.56C30.2684 811.834 17.8893 798.619 8.22754 788.953" stroke="black" stroke-miterlimit="10" style="stroke-dashoffset: -84.9345; stroke-dasharray: 0.148766px, 85.2345px; opacity: 0.0906;"></path>
<path d="M213.805 0.47168C217.334 46.3288 236.204 114.293 183.367 136.948C172.044 140.724 109.601 151.296 8.02051 206.781" stroke="black" stroke-miterlimit="10" style="stroke-dashoffset: -29.5066; stroke-dasharray: 275.691px, 65.0057px; opacity: 0.0837;"></path>
<path d="M201.236 0.47168C206.011 27.4498 206.011 55.7682 200.349 84.0867C196.575 99.1899 187.14 110.517 173.93 116.181C141.85 125.621 109.77 131.284 79.5772 142.612C55.0454 153.939 32.4006 165.266 8.41602 177.085" stroke="black" stroke-miterlimit="10" style="stroke-dashoffset: -1.66677; stroke-dasharray: 292.495px, 11.945px; opacity: 0.0912;"></path>
<path d="M8.71839 753.386C26.721 759.937 43.7046 773.152 62.5752 780.704C72.0105 786.367 83.3329 792.031 88.9941 801.471C119.187 854.332 49.3658 890.202 8.17114 905.305" stroke="black" stroke-miterlimit="10" style="stroke-dashoffset: -31.3287; stroke-dasharray: 165.962px, 79.9745px; opacity: 0.046;"></path>
<path d="M191.179 0.47168C189.292 33.5666 198.407 74.2885 166.572 96.2259C151.815 106.402 133.926 110.404 116.489 113.028C98.5619 115.747 81.1066 118.616 63.9343 124.714C44.1201 131.756 26.4572 142.404 8.19043 152.58" stroke="black" stroke-miterlimit="10" style="stroke-dashoffset: -118.142; stroke-dasharray: 120.524px, 152.64px; opacity: 0.0134;"></path>
<path d="M176.082 0.47168C174.063 28.2049 178.724 61.5075 151.683 79.0272C126.339 95.433 91.8816 92.1669 63.3681 97.7362C43.5728 101.606 25.6834 110.008 8.66211 120.636" stroke="black" stroke-miterlimit="10" style="stroke-dashoffset: -230.848; stroke-dasharray: 5.81496px, 231.148px; opacity: 0.0908;"></path>
<path d="M1093.69 963.773C1102.1 962.847 1110.61 962.866 1119.03 963.735" stroke="black" stroke-miterlimit="10" style="stroke-dashoffset: -1.27852; stroke-dasharray: 23.2509px, 2.2369px; opacity: 0.0982;"></path>
<path d="M158.476 0.47168C160.702 25.5619 151.267 51.9925 128.622 63.3198C113.526 68.9835 96.5421 70.8714 81.4456 68.9835C56.9138 68.9835 30.4949 74.6472 8.68042 85.7292" stroke="black" stroke-miterlimit="10" style="stroke-dashoffset: -29.3583; stroke-dasharray: 92.1518px, 105.124px; opacity: 0.0974;"></path>
<path d="M985.727 0.47168C980.764 9.19377 983.651 18.9542 982.255 28.186C976.896 63.5841 953.741 82.954 924.284 98.869C887.883 118.541 848.972 131.945 810.928 147.501C774.81 162.265 741.522 181.427 713.027 208.122C686.873 232.589 657.416 238.668 622.335 232.4C563.591 221.884 538.002 175.008 530.643 128.792C525.208 94.6212 524.208 59.9971 520.358 25.6751C519.415 17.274 517.697 9.00498 518.075 0.490559" stroke="black" stroke-miterlimit="10" style="stroke-dashoffset: -22.1449; stroke-dasharray: 673.271px, 64.8747px; opacity: 0.0909;"></path>
<path d="M964.347 1.71737C962.064 1.9628 960.799 3.20881 960.573 5.49317C956.969 40.9857 937.154 64.3579 906.659 81.2168C881.127 95.3194 853.671 103.211 826.063 111.159C793.907 120.428 762.62 132.209 731.785 145.141C709.103 154.637 685.779 162.944 661.341 164.851C631.922 167.154 608.107 155.034 589.519 131.435C572.441 109.724 565.705 84.6339 560.61 58.3732C556.892 39.1922 555.703 19.7846 553.25 0.490234" stroke="black" stroke-miterlimit="10" style="stroke-dashoffset: -396.451; stroke-dasharray: 186.902px, 396.751px; opacity: 0.0891;"></path>
<path d="M948.004 0.472004C946.778 21.8808 936.361 38.7586 921.566 53.2577C896.751 77.5927 864.52 87.2965 832.214 94.2251C799.153 101.305 768.148 113.387 736.804 125.017C710.819 134.664 684.362 142.574 656.358 139.874C626.882 137.024 606.162 120.033 592.349 94.7159C580.027 72.1366 575.403 47.273 573.328 21.843C572.743 14.6879 571.686 7.58938 570.855 0.453125" stroke="black" stroke-miterlimit="10" style="stroke-dashoffset: -19.5909; stroke-dasharray: 48.0314px, 474.383px; opacity: 0.0858;"></path>
<path d="M939.211 1.71932C934.852 1.66268 935.059 5.89157 934.38 8.06266C924.454 39.2319 902.206 57.2424 872.635 68.5132C846.877 78.3303 819.42 81.181 793.303 89.4877C774.168 95.5668 755.637 103.099 736.842 109.971C716.858 117.278 696.723 122.073 675.211 122.715C638.149 123.829 610.428 100.287 599.558 70.9486C591.066 48.0484 587.953 24.4307 585.934 0.435547" stroke="black" stroke-miterlimit="10" style="stroke-dashoffset: -166.125; stroke-dasharray: 81.4603px, 392.751px; opacity: 0.0586;"></path>
<path d="M920.341 0.47168C912.208 26.7135 893.846 42.9117 868.767 51.9358C851.293 58.2225 833.064 61.4886 814.797 64.9246C789.435 69.6821 765.601 79.8579 741.824 89.7882C723.256 97.5286 703.913 104.514 683.986 104.382C652.378 104.155 628.299 92.5445 613.731 55.7683C606.767 38.173 605.239 19.2374 603.521 0.490559" stroke="black" stroke-miterlimit="10" style="stroke-dashoffset: -24.7038; stroke-dasharray: 360.18px, 56.887px; opacity: 0.0864;"></path>
<path d="M452.669 0.472004C451.348 9.08082 454.669 17.1988 455.197 25.6188C458.67 81.2741 423.683 114.633 375.941 127.32C342.143 136.306 316.007 125.413 295.873 88.316C281.135 61.168 273.416 31.1692 269.133 0.453125" stroke="black" stroke-miterlimit="10" style="stroke-dashoffset: -298.675; stroke-dasharray: 57.9171px, 298.975px; opacity: 0.0256;"></path>
<path d="M900.224 0.47168C887.297 27.3554 862.407 35.3601 836.063 39.1925C806.569 43.478 778.621 51.4449 751.787 64.4526C730.897 74.5906 709.668 82.5198 685.249 82.8785C659.887 83.2561 639.45 64.4526 632.298 45.8001C626.656 31.0934 623.693 16.1224 623.637 0.47168" stroke="black" stroke-miterlimit="10" style="stroke-dashoffset: -182.459; stroke-dasharray: 168.869px, 182.759px; opacity: 0.0907;"></path>
<path d="M873.824 1.71802C853.84 12.6301 832.176 15.4808 809.739 17.2177C789.132 18.8224 770.941 29.1114 753.07 39.325C738.71 47.5184 724.311 55.4476 707.951 59.8087C676.342 68.2476 656.094 52.3137 646.395 23.0513C644.017 15.8584 642.866 8.19351 643.772 0.453125" stroke="black" stroke-miterlimit="10" style="stroke-dashoffset: -223.866; stroke-dasharray: 57.2675px, 224.166px; opacity: 0.0839;"></path>
<path d="M423.759 1.71802C425.024 2.54869 427.156 3.19058 427.401 4.26668C434.799 37.1916 417.928 76.2523 388.528 93.4699C361.26 109.442 331.52 104.25 312.838 77.385C296.496 53.8995 289.174 27.7899 284.211 0.453125" stroke="black" stroke-miterlimit="10" style="stroke-dashoffset: -144.911; stroke-dasharray: 131.842px, 145.211px; opacity: 0.0676;"></path>
<path d="M1438.3 689.725C1420.98 704.828 1403.86 720.044 1391.75 740.018C1376.14 765.769 1363.86 792.634 1360.25 823.029C1356.42 855.18 1384.71 888.35 1418.19 889.54C1425.47 889.804 1432.47 890.956 1439.55 892.221" stroke="black" stroke-miterlimit="10" style="stroke-dashoffset: -11.6964; stroke-dasharray: 255.812px, 22.2965px; opacity: 0.0913;"></path>
<path d="M1181.85 0.47168C1176.38 15.1595 1168.15 27.7518 1154.17 35.6621C1133.92 47.1217 1114.24 43.0438 1094.04 27.884C1084.63 20.8044 1075.82 12.12 1071.21 0.490559" stroke="black" stroke-miterlimit="10" style="stroke-dashoffset: -4.43533; stroke-dasharray: 131.229px, 15.4746px; opacity: 0.079;"></path>
<path d="M1438.3 752.611C1437.55 758.577 1431.92 760.163 1428.11 762.447C1414.07 770.867 1404.35 783.233 1399.71 798.015C1391.48 824.2 1401.05 843.155 1432.02 846.912C1434.49 847.214 1437.04 846.95 1439.55 846.95" stroke="black" stroke-miterlimit="10" style="stroke-dashoffset: -34.7785; stroke-dasharray: 68.6137px, 70.3434px; opacity: 0.0415;"></path>
<path d="M1400.6 0.47168C1405.58 30.1306 1420.32 55.0886 1438.32 78.4608" stroke="black" stroke-miterlimit="10" style="stroke-dashoffset: -5.21965; stroke-dasharray: 72.2465px, 15.3965px; opacity: 0.0876;"></path>
<path d="M1155.45 1.71875C1144.45 9.25147 1133.58 16.1801 1118.97 14.5376C1107.67 13.2727 1099.8 5.7211 1090.08 1.71875" stroke="black" stroke-miterlimit="10" style="stroke-dashoffset: -18.4249; stroke-dasharray: 42.8405px, 28.7029px; opacity: 0.0854;"></path>
<path d="M733.03 1.71875C726.425 3.3801 723.613 10.0444 717.971 13.1028C703.478 20.9376 691.043 21.7871 682.626 5.55118C681.758 3.87095 679.381 2.98364 677.701 1.71875" stroke="black" stroke-miterlimit="10" style="stroke-dashoffset: -0.081083; stroke-dasharray: 14.6837px, 52.6355px; opacity: 0.0815;"></path>
<path d="M333.236 1.71875C341.464 5.3624 349.503 12.5742 358.372 2.98364" stroke="black" stroke-miterlimit="10" style="stroke-dashoffset: -7.82344; stroke-dasharray: 5.65193px, 22.3206px; opacity: 0.0283;"></path>
<path d="M394.302 963.394C386.98 947.517 377.96 931.979 363.411 921.69C348.428 911.118 330.199 906.889 312.687 902.623C276.964 893.938 243.714 880.232 227.523 844.721C211.785 810.21 214.767 769.903 198.444 735.751C182.838 703.091 151.097 692.934 117.262 692.273C83.9933 691.612 49.9884 695.652 20.2294 677.377C16.0967 674.829 12.1527 671.978 8.4541 668.825" stroke="black" stroke-miterlimit="10" style="stroke-dashoffset: -23.7127; stroke-dasharray: 507.952px, 30.9492px; opacity: 0.0869;"></path>
<path d="M7.98242 472.163C22.9657 439.012 66.8588 412.714 100.864 400.027C171.629 373.634 198.897 388.756 270.077 360.532C296.816 349.922 327.953 348.752 356.976 376.711C377.356 396.345 383.395 423.909 392.83 450.339C398.492 469.218 396.604 488.097 389.056 505.088C373.96 535.295 358.863 563.613 343.767 593.82C338.105 605.147 336.218 614.587 330.557 625.914C324.896 644.793 319.235 663.672 319.235 682.551C319.235 693.878 321.122 705.206 324.896 716.533C332.444 742.964 343.767 767.506 351.315 793.937C356.976 816.592 356.976 846.798 332.444 856.238C309.799 863.789 283.381 854.35 268.284 835.471C245.639 807.152 251.3 771.282 245.639 737.3C241.865 712.757 228.656 688.215 206.011 676.887C187.14 667.448 164.496 661.784 143.738 661.784C96.5612 661.784 36.1752 671.224 8.19 624.045" stroke="black" stroke-miterlimit="10" style="stroke-dashoffset: -587.573; stroke-dasharray: 307.382px, 1062.48px; opacity: 0.06;"></path>
<path d="M143.398 255.789C152.437 256.677 152.607 265.437 149.361 270.685C145.87 276.33 139.133 279.407 132.132 277.028C124.055 274.291 126.358 268.249 129.716 263.435C132.849 258.961 137.737 255.223 143.398 255.789Z" stroke="black" stroke-miterlimit="10" style="stroke-dashoffset: -34.3989; stroke-dasharray: 38.5862px, 34.6989px; opacity: 0.0855;"></path>
<path d="M166.024 452.002C189.895 454.89 206.313 470.937 214.05 494.687C226.259 532.2 207.407 567.183 174.95 579.378C153.833 587.308 132.491 589.101 110.714 587.629C89.0882 586.156 69.3872 563.199 68.104 538.789C67.3681 524.818 66.8208 510.697 72.916 497.255C86.9558 466.331 111.639 452.625 144.643 452.021C151.758 451.889 158.947 451.152 166.024 452.002Z" stroke="black" stroke-miterlimit="10" style="stroke-dashoffset: -22.8138; stroke-dasharray: 428.621px, 32.3254px; opacity: 0.0983;"></path>
<path d="M1438.3 254.527C1429.72 263.457 1418.19 267.95 1408.05 274.539C1385.31 289.321 1362.2 303.613 1341.59 321.302C1310.53 347.959 1292.19 383.376 1283.22 422.003C1275.66 454.588 1258.26 475.43 1228.25 485.644C1193.72 497.406 1170.62 521.061 1152.98 551.399C1139.16 575.149 1121.05 595.425 1102.63 615.513C1088.21 631.239 1075.8 647.966 1071.06 669.563C1065.87 693.256 1079.4 717.988 1102.65 723.538C1137.67 731.883 1193.27 721.14 1204.51 664.579C1209.29 640.565 1221.38 620.346 1238.39 602.939C1261.62 579.189 1286.26 556.818 1306.38 530.066C1321.29 510.243 1343.42 503.145 1366.61 498.538C1390.69 493.743 1415.07 491.383 1439.53 489.741" stroke="black" stroke-miterlimit="10" style="stroke-dashoffset: -45.8588; stroke-dasharray: 147.916px, 939.677px; opacity: 0.0871;"></path>
<path d="M8.13379 726.727C32.76 741.226 61.2358 745.624 88.768 751.42C111.318 756.159 130.717 766.882 140.285 788.857C151.494 814.589 153.211 847.967 148.512 875.304C144.342 899.583 133.322 918.877 108.752 926.145C75.2378 936.038 43.0067 950.461 9.09619 958.995" stroke="black" stroke-miterlimit="10" style="stroke-dashoffset: -2.40269; stroke-dasharray: 409.564px, 3.06679px; opacity: 0.0992;"></path>
<path d="M995.785 0.47168C993.879 20.3324 995.426 40.7028 986.991 59.5818C979.65 76.0065 966.95 86.9941 951.854 96.1693C919.811 115.634 884.995 129.283 851.179 145.028C823.684 157.809 796.152 170.571 772.149 189.299C755.561 202.25 744.296 220.355 732.086 237.139C719.82 254.016 702.422 262.399 684.004 262.682C629.656 263.494 575.818 258.812 530.755 222.942C520.358 214.673 510.79 205.158 501.864 195.284C489.183 181.238 486.881 163.718 491.938 146.444C502.487 110.498 504.318 73.8921 502.789 36.9459C502.28 24.7312 499.619 12.6297 497.939 0.47168" stroke="black" stroke-miterlimit="10" style="stroke-dashoffset: -68.0238; stroke-dasharray: 391.78px, 443.284px; opacity: 0.0217;"></path>
<path d="M8.43566 445.788C35.2886 408.144 74.6905 390.435 118.791 381.052C165.194 371.179 211.182 361.097 253.773 339.292C276.965 327.417 300.289 314.24 326.953 316.165C361.902 318.695 383.943 347.523 399.964 376.333C410.814 395.853 419.721 416.432 428.175 437.085C435.516 455.039 437.705 474.107 431.799 492.816C425.628 512.375 411.777 527.478 399.719 543.563C386.981 560.573 374.922 578.149 365.015 596.99C355.108 615.85 347.711 636.032 344.484 657.139C341.069 679.529 343.578 701.013 349.428 722.762C361.185 766.618 379.168 808.624 390.868 852.48C392.85 859.937 400.096 877.928 388.887 881.27C381.961 883.328 373.488 881.987 366.393 882.025C355.052 882.101 343.71 882.61 332.388 882.214C298.912 881.006 263.435 869.338 246.13 838.585C226.731 804.112 234.11 762.616 219.108 727.01C206.672 697.54 179.951 681.662 149.003 677.679C109.356 672.582 63.9342 688.629 28.1744 665.087C20.6827 660.159 14.1346 653.646 8.02051 647.133" stroke="black" stroke-miterlimit="10" style="stroke-dashoffset: -4.56316; stroke-dasharray: 820.34px, 689.35px; opacity: 0.0627;"></path>
<path d="M1232.12 145.105C1236.91 146.162 1242.88 147.937 1247.14 150.24C1255.37 154.714 1260.69 164.361 1254.77 175.292C1252.54 179.408 1251.33 184.354 1248.33 187.752C1224.1 215.24 1206.68 247.165 1187.94 278.334C1162.39 320.83 1125.05 350.886 1082.57 375.41C1059.44 388.757 1039.72 406.862 1019.6 424.287C998.37 442.675 974.329 454.211 945.457 451.926C909.584 449.075 883.731 425.817 877.466 390.381C871.786 358.305 879.579 327.306 883.938 296.042C886.693 276.219 890.694 256.717 898.827 238.122C915.301 200.458 945.589 181.541 984.481 175.538C1015.62 170.724 1047.21 170.554 1078.72 170.006C1106.73 169.515 1133.5 160.963 1160.47 154.035C1183.91 148.012 1208.1 139.856 1232.1 145.124L1232.12 145.105Z" stroke="black" stroke-miterlimit="10" style="stroke-dashoffset: -898.369; stroke-dasharray: 192.546px, 898.669px; opacity: 0.0546;"></path>
<path d="M1008.35 205.478C1012.62 206.045 1017.84 207.574 1022.17 208.159C1055.11 212.633 1083.23 226.245 1105.27 251.921C1117.63 266.325 1118.18 293.266 1101.27 312.277C1090.63 324.227 1079.31 335.762 1066.13 344.994C1042.9 361.268 1019.75 377.749 995.614 392.569C981.461 401.253 965.912 408.201 947.985 401.782C928.208 394.684 919.528 378.221 918.471 360.135C916.584 328.154 916.509 296.079 926.302 264.475C938.889 223.904 968.724 200.211 1008.37 205.459L1008.35 205.478Z" stroke="black" stroke-miterlimit="10" style="stroke-dashoffset: -113.11; stroke-dasharray: 297.637px, 323.78px; opacity: 0.0538;"></path>
<path d="M191.179 414.262C202.35 416.433 214.427 418.226 225.316 422.568C248.904 431.951 259.924 451.076 269.001 472.182C278.814 495.007 283.097 519.399 286.645 543.828C290.948 573.411 266.963 613.68 240.148 621.61C231.713 624.102 222.56 625.631 213.804 625.348C173.912 624.064 134.227 629.142 94.3532 628.236C69.3685 627.67 50.2525 616.871 39.3264 595.254C14.4172 545.999 26.6831 471.05 78.1245 438.351C99.7125 424.626 124.263 419.302 149.644 416.489C163.514 414.941 177.554 411.637 191.16 414.299L191.179 414.262Z" stroke="black" stroke-miterlimit="10" style="stroke-dashoffset: -0.914976; stroke-dasharray: 779.795px, 1.53327px; opacity: 0.0999;"></path>
<path d="M252.792 397.817C278.173 406.161 294.798 422.246 305.554 445.713C314.857 466.027 324.859 486.038 328.388 508.561C330.029 519.114 330.916 529.97 329.067 539.957C322.5 575.355 310.423 609.092 292.892 640.601C280.249 663.312 271.719 673.903 240.356 661.651C197.331 644.848 152.91 644.131 108.205 646.094C87.0888 647.02 66.4255 647.586 47.97 636.674C22.1361 621.401 11.8704 595.234 8.11516 567.652C3.51073 533.953 9.77578 500.953 26.6084 470.954C45.1771 437.859 74.3322 418.452 110.715 409.239C139.191 402.027 167.987 397.458 197.444 396.25C206.993 395.853 227.939 389.661 252.811 397.836L252.792 397.817Z" stroke="black" stroke-miterlimit="10" style="stroke-dashoffset: -468.123; stroke-dasharray: 506.868px, 468.423px; opacity: 0.0986;"></path>
<path d="M421.665 963.771C415.475 939.285 401.171 917.103 404.153 892.088C405.643 879.514 424.118 884.48 433.817 884.65C476.88 885.405 526.812 916.631 531.001 963.262" stroke="black" stroke-miterlimit="10" style="stroke-dashoffset: -158.351; stroke-dasharray: 85.9336px, 158.651px; opacity: 0.0815;"></path>
<path d="M1013.37 225.604C1030.89 227.643 1047.94 236.025 1059.79 249.58C1086.53 280.145 1079.36 300.742 1056.79 323.133C1036.3 343.465 1012.18 360.721 983.218 369.103C962.838 375.012 949.289 369.065 943.061 348.827C933.456 317.582 934.871 286.564 949.421 257.151C959.667 236.44 977.462 226.038 1000.77 225.623C1004.96 225.547 1009.18 225.132 1013.34 225.623L1013.37 225.604Z" stroke="black" stroke-miterlimit="10" style="stroke-dashoffset: -163.806; stroke-dasharray: 140.447px, 307.417px; opacity: 0.0476;"></path>
<path d="M703.045 963.753C694.761 937.398 675.89 899.64 704.196 880.761C732.502 873.21 762.695 882.649 791.001 884.537C824.968 886.425 858.143 875.569 891.431 877.118C915.359 878.231 932.625 890.446 948.892 908.306C961.139 921.747 977.915 943.855 975.707 963.338" stroke="black" stroke-miterlimit="10" style="stroke-dashoffset: -50.8785; stroke-dasharray: 82.0594px, 326.666px; opacity: 0.0516;"></path>
<path d="M370.506 963.336C349.409 926.069 306.006 918.518 268.265 905.302C251.281 901.527 235.505 893.711 226.749 876.984C223.975 871.698 204.105 833.562 202.218 818.459C200.331 788.253 194.669 761.822 177.686 735.392C168.25 724.064 156.985 717.74 144.134 713.284C99.4292 697.766 49.3654 710.849 8.66138 683.946" stroke="black" stroke-miterlimit="10" style="stroke-dashoffset: -12.768; stroke-dasharray: 488.833px, 15.8166px; opacity: 0.0957;"></path>
<path d="M683.155 963.168C670.21 933.641 651.339 897.771 668.323 865.677C679.645 848.686 702.29 850.574 721.161 852.462C755.128 858.125 789.095 867.565 823.062 865.677C841.933 863.789 860.803 860.013 881.561 856.237C926.851 850.574 958.931 880.78 989.124 910.986C1002.33 922.314 1017.43 933.641 1034.41 935.529C1064.61 939.305 1092.91 933.641 1123.11 941.193C1141.98 946.857 1160.85 954.408 1178 963.376" stroke="black" stroke-miterlimit="10" style="stroke-dashoffset: -635.416; stroke-dasharray: 12.8668px, 635.716px; opacity: 0.0777;"></path>
<path d="M1439.57 240.708C1428.19 244.295 1419.15 251.96 1409.43 258.36C1386.71 273.312 1363.78 287.981 1341.61 303.726C1314.13 323.228 1294.66 349.81 1278.69 379.072C1262.71 408.353 1244.99 436.238 1216.99 455.683C1206.31 463.103 1195.08 469.729 1184.23 476.941C1163.13 490.968 1148 510.338 1135.69 531.463C1119.35 559.499 1099.29 584.287 1077.55 608.018C1061.66 625.349 1047.64 643.661 1040.83 667.033C1031.13 700.411 1051.66 738.075 1084.99 749.025C1100.25 754.047 1116.05 755.387 1131.58 755.991C1159.04 757.03 1186.15 757.671 1213.42 763.316C1235.61 767.904 1245.07 758.427 1254.65 732.468C1259.13 720.348 1257.31 707.397 1257.22 694.785C1257.05 673.868 1256.75 653.29 1268.24 634.184C1271.88 628.124 1275.66 621.875 1280.18 617.042C1306.06 589.516 1332.61 562.5 1364.25 541.488C1386.95 526.423 1412.34 517.738 1439.59 514.925" stroke="black" stroke-miterlimit="10" style="stroke-dashoffset: -26.0919; stroke-dasharray: 1173.58px, 26.3919px; opacity: 0.0983;"></path>
<path d="M471.521 1.71875C480.315 7.40133 476.107 17.4827 476.918 24.4679C479.503 46.8207 479.258 69.8153 468.973 91.0164C456.462 116.824 434.346 131.21 408.663 141.386C390.453 148.597 371.959 152.939 352.07 152.921C324.254 152.921 305.742 140.781 292.722 116.333C274.342 81.8223 264.642 45.0083 259.132 6.75944C258.736 4.04087 258.207 2.15297 255.282 1.73763" stroke="black" stroke-miterlimit="10" style="stroke-dashoffset: -205.158; stroke-dasharray: 222.119px, 205.458px; opacity: 0.0613;"></path>
<path d="M166.024 429.365C179.875 430.932 194.632 433.141 207.823 440.088C221.428 447.243 230.939 456.777 237.563 469.671C250.319 494.535 255.169 521.683 250.98 548.774C245.771 582.511 228.524 593.857 193.67 602.882C170.61 608.847 146.776 609.904 123.263 612.85C79.4267 618.362 45.837 587.269 45.1576 542.563C44.7802 517.643 47.9882 494.327 62.8205 473.315C81.6912 446.582 108.997 436.293 139.624 431.951C148.361 430.705 157.23 428.383 166.024 429.365Z" stroke="black" stroke-miterlimit="10" style="stroke-dashoffset: -17.6283; stroke-dasharray: 10.8949px, 622.29px; opacity: 0.0996;"></path>
<path d="M1036 187.865C1055.49 189.545 1075.76 194.887 1095.1 197.833C1114.31 200.759 1133.79 202.156 1152.88 205.686C1173.89 209.556 1179.81 220.242 1175.45 239.404C1164.87 285.941 1137.86 321.849 1098.59 347.165C1063.59 369.726 1030.98 395.382 997.031 419.264C974.141 435.387 940.778 436.576 920.171 420.775C905.112 409.221 896.904 393.778 895.696 376.484C892.865 335.253 896.413 294.04 909.321 254.621C924.077 209.613 955.554 190.394 1003.32 187.94C1014.18 187.374 1025.15 186.921 1036 187.865Z" stroke="black" stroke-miterlimit="10" style="stroke-dashoffset: -235.216; stroke-dasharray: 229.643px, 610.933px; opacity: 0.0844;"></path>
<path d="M150.946 474.637C176.723 478.941 187.197 496.31 186.121 517.397C185.215 534.879 174.667 546.339 160.929 555.023C143.417 566.105 118.225 565.18 105.676 553.872C81.8419 532.406 91.3716 492.1 123.225 478.28C132.321 474.334 141.681 473.088 150.946 474.637Z" stroke="black" stroke-miterlimit="10" style="stroke-dashoffset: -276.695; stroke-dasharray: 11.2461px, 276.995px; opacity: 0.0341;"></path>
<path d="M8.64309 770.434C30.5142 782.592 59.6316 798.998 60.7072 826.013C61.8206 854.558 30.5142 871.323 8.37891 882.896" stroke="black" stroke-miterlimit="10" style="stroke-dashoffset: -20.3596; stroke-dasharray: 102.544px, 58.946px; opacity: 0.0832;"></path>
<path d="M138.36 0.47168C138.058 23.674 119.187 40.6651 96.5427 42.553C66.3497 44.4409 36.1566 35.0014 8.02051 49.7647" stroke="black" stroke-miterlimit="10" style="stroke-dashoffset: -117.335; stroke-dasharray: 37.606px, 117.635px; opacity: 0.0407;"></path>
<path d="M1340.25 0.473305C1339.16 29.6225 1350.65 55.0713 1364.29 79.614C1370.9 91.4889 1376.9 103.42 1381.99 116.069C1394.75 147.805 1385.48 174.689 1366.73 200.496C1352.53 220.055 1332.49 232.798 1313.66 246.731C1297.04 259.021 1280.85 271.387 1267.09 287C1261.69 293.117 1251.1 305.142 1247.22 302.311C1241.22 297.931 1264.62 272.803 1276.07 261.985C1295.85 243.314 1319.64 229.702 1339.06 210.559C1374.71 175.425 1375.48 140.272 1351.48 99.8523C1342.34 84.4659 1331.95 69.8158 1322.74 54.4672C1312.81 37.9292 1308.53 19.8054 1310.08 0.435547" stroke="black" stroke-miterlimit="10" style="stroke-dashoffset: -294.794; stroke-dasharray: 443.503px, 295.094px; opacity: 0.0698;"></path>
<path d="M397.359 0.47168C396.756 14.4421 398.114 28.186 392.679 42.1187C381.584 70.626 347.748 81.4814 325.726 54.5222C312.894 38.8338 306.214 20.5589 304.327 0.47168" stroke="black" stroke-miterlimit="10" style="stroke-dashoffset: -63.2325; stroke-dasharray: 121.938px, 63.5325px; opacity: 0.0895;"></path>
<path d="M1007.09 258.301C1029.66 265.23 1036.21 280.692 1028.34 297.23C1021.35 311.899 1008.16 319.469 993.2 323.472C985.425 325.548 974.839 316.977 971.951 307.33C964.743 283.203 981.84 250.542 1007.09 258.301Z" stroke="black" stroke-miterlimit="10" style="stroke-dashoffset: -41.524; stroke-dasharray: 157.361px, 41.824px; opacity: 0.0922;"></path>
<path d="M731.011 963.205C723.067 946.856 719.293 924.201 738.163 912.874C743.825 909.098 751.146 908.173 757.034 907.21C790.567 901.773 826.893 903.094 860.011 904.794C880.448 905.832 904.225 910.986 915.547 931.753C921.209 941.192 921.209 954.408 915.359 963.62" stroke="black" stroke-miterlimit="10" style="stroke-dashoffset: -0.36388; stroke-dasharray: 276.901px, 0.759597px; opacity: 0.0994;"></path>
<path d="M173.573 208.011C214.352 219.168 213.88 248.166 194.746 277.032C169.704 314.809 120.716 328.364 80.6348 318.321C54.8009 311.845 51.2343 296.534 63.4436 276.22C81.9746 245.41 107.299 221.15 143.323 210.238C152.758 207.388 169.459 206.897 173.573 208.011Z" stroke="black" stroke-miterlimit="10" style="stroke-dashoffset: -90.7244; stroke-dasharray: 289.301px, 122.711px; opacity: 0.0075;"></path>
<path d="M678.966 368.991C703.102 372.578 726.199 383.037 744.541 400.217C749.655 404.993 753.92 410.185 758.128 415.547C769.13 429.536 765.714 447.056 754.354 458.251C722.293 489.911 665.757 479.414 646.339 438.126C642.263 429.442 639.357 420.361 638.583 410.506C636.035 377.657 652 364.989 678.947 368.991H678.966Z" stroke="black" stroke-miterlimit="10" style="stroke-dashoffset: -264.128; stroke-dasharray: 104.081px, 264.428px; opacity: 0.0454;"></path>
<path d="M456.878 963.093C450.481 950.652 456.784 927.94 474.05 932.452C488.713 936.285 500.054 946.442 497.827 963.225" stroke="black" stroke-miterlimit="10" style="stroke-dashoffset: -68.2692; stroke-dasharray: 18.6268px, 68.5692px; opacity: 0.0598;"></path>
<path d="M767.281 963.622C762.695 933.642 802.474 929.677 824.798 932.471C839.536 934.302 875.032 940.495 864.578 963.81" stroke="black" stroke-miterlimit="10" style="stroke-dashoffset: -0.210455; stroke-dasharray: 8.36496px, 127.8px; opacity: 0.0981;"></path>
<path d="M466.322 668.619C468.629 687.7 481.443 700.823 500.408 707.007C530.363 716.766 558.298 701.698 568.037 675.754C574.369 658.875 575.801 641.815 574.625 624.409C573.449 607.123 555.117 591.376 535.625 590.35C524.469 589.762 513.192 589.324 502.458 594.196C477.764 605.419 466.819 625.148 466.337 651.529C466.231 657.216 465.644 662.963 466.322 668.619Z" stroke="black" stroke-miterlimit="10" style="stroke-dashoffset: -27.236; stroke-dasharray: 254.814px, 113.481px; opacity: 0.0508;"></path>
<path d="M435.772 688.934C437.509 697.905 438.943 707.603 442.416 716.347C449.921 735.289 465.217 744.139 482.098 751.428C500.354 759.308 519.863 762.747 539.402 765.596C563.063 769.051 595.271 749.791 601.613 728.258C603.606 721.484 604.829 714.135 604.603 707.103C603.576 675.068 607.638 643.2 606.913 611.181C606.46 591.117 597.823 575.767 580.534 566.993C541.138 546.99 481.192 556.84 455.04 598.149C444.062 615.484 439.804 635.199 437.554 655.581C436.316 666.719 433.674 677.993 435.803 688.919L435.772 688.934Z" stroke="black" stroke-miterlimit="10" style="stroke-dashoffset: -42.3619; stroke-dasharray: 53.3153px, 573.016px; opacity: 0.0873;"></path>
<path d="M422.356 738.096C429.045 758.42 441.94 771.732 460.753 780.345C477.038 787.795 493.081 795.803 511.137 798.629C519.597 799.944 528.3 800.654 536.306 799.173C564.684 793.915 591.73 784.244 616.99 770.206C635.197 760.082 643.687 753.252 633.865 728.139C620.395 693.687 619.82 658.117 621.394 622.32C622.135 605.411 622.589 588.865 613.842 574.087C601.597 553.401 580.621 545.181 558.509 542.174C531.493 538.487 505.037 543.503 480.988 556.982C454.457 571.851 438.898 595.196 431.512 624.329C425.731 647.131 422.068 670.19 421.1 693.777C420.782 701.423 415.818 718.196 422.371 738.111L422.356 738.096Z" stroke="black" stroke-miterlimit="10" style="stroke-dashoffset: -3.04197; stroke-dasharray: 743.991px, 37.3161px; opacity: 0.0844;"></path>
<path d="M448.188 668.799C449.437 679.89 451.199 691.705 456.739 702.267C462.444 713.161 470.046 720.776 480.328 726.08C500.154 736.294 521.801 740.177 543.403 736.823C570.304 732.652 579.351 718.842 586.547 690.935C591.304 672.471 592.147 653.388 594.495 634.561C598.891 599.462 574.098 572.567 538.45 572.023C518.579 571.721 499.988 574.289 483.233 586.166C461.917 601.275 453.713 623.138 450.25 647.661C449.257 654.657 447.405 661.758 448.188 668.799Z" stroke="black" stroke-miterlimit="10" style="stroke-dashoffset: -34.0347; stroke-dasharray: 471.814px, 34.3347px; opacity: 0.0965;"></path>
<path d="M484.516 656.828C487.954 677.43 501.83 685.8 518.678 684.94C532.644 684.216 541.8 675.786 548.738 664.806C557.591 650.811 556.852 630.677 547.818 620.648C530.669 601.6 498.467 609.216 487.426 634.674C484.274 641.943 483.279 649.423 484.516 656.828Z" stroke="black" stroke-miterlimit="10" style="stroke-dashoffset: -126.687; stroke-dasharray: 103.378px, 126.987px; opacity: 0.0976;"></path>
</g>
<defs>
<clipPath id="clip0_2222_10026">
<rect width="1440" height="964.698" fill="white"></rect>
</clipPath>
</defs>
</svg>