<svg version="1.2" xmlns="http://www.w3.org/2000/svg" viewBox="0 0 400 400" width="400" height="400"><style>.a{fill:#fff}</style><path fill-rule="evenodd" class="a" d="m200.8 0.5c2 0 4.3 0 5.3 0.1 1 0 2.2 0.1 2.7 0.1 0.5 0 1.5 0.1 2.3 0.1 0.8 0 2 0.1 2.6 0.2 0.7 0 1.7 0.1 2.4 0.1 0.7 0.1 1.8 0.2 2.5 0.3 0.8 0 1.9 0.1 2.7 0.2 0.7 0.1 1.9 0.2 2.6 0.3 0.7 0.1 1.9 0.3 2.5 0.3 0.7 0.1 1.9 0.3 2.6 0.4 0.7 0.1 1.9 0.3 2.5 0.4 0.6 0.1 1.7 0.3 2.3 0.4 0.6 0.1 1.8 0.3 2.5 0.4 0.7 0.1 2 0.4 2.8 0.6 0.9 0.1 2 0.4 2.5 0.5 0.6 0.1 1.5 0.3 2.1 0.4 0.6 0.2 1.6 0.4 2.2 0.5 0.6 0.2 1.8 0.5 2.7 0.7 0.9 0.2 2 0.5 2.6 0.7 0.6 0.1 1.6 0.4 2.2 0.5 0.6 0.2 1.5 0.5 2.1 0.6 0.6 0.2 1.6 0.5 2.3 0.7 0.7 0.2 1.7 0.5 2.1 0.7 0.5 0.1 1.5 0.5 2.2 0.7 0.7 0.2 2 0.6 2.7 0.9 0.8 0.3 2 0.7 2.6 0.9 0.6 0.2 1.7 0.6 2.4 0.9 0.7 0.2 1.7 0.6 2.2 0.8 0.6 0.2 1.6 0.6 2.2 0.9 0.7 0.3 1.7 0.7 2.4 1 0.6 0.2 1.7 0.7 2.3 0.9 0.6 0.3 1.6 0.7 2.1 0.9 0.5 0.3 1.4 0.7 2.1 1 0.7 0.3 1.7 0.8 2.3 1.1 0.6 0.2 1.9 0.9 2.9 1.4 0.9 0.4 2.3 1.1 3.1 1.5 0.7 0.4 1.8 1 2.4 1.3 0.7 0.4 1.6 0.9 2.2 1.2 0.6 0.3 1.5 0.8 2.1 1.2 0.6 0.3 1.4 0.8 1.9 1.1 0.5 0.2 1.3 0.7 1.9 1.1 0.6 0.3 1.7 1 2.4 1.4 0.7 0.5 1.7 1.1 2.3 1.5 0.6 0.3 1.4 0.9 1.9 1.1 0.4 0.3 1.3 0.9 2 1.4 0.7 0.4 1.6 1.1 2.1 1.4 0.5 0.3 1.3 0.9 1.8 1.3 0.5 0.3 1.4 1 2 1.4 0.6 0.4 1.5 1.1 2.1 1.5 0.6 0.5 1.6 1.2 2.2 1.7 0.6 0.4 1.5 1.1 2 1.5 0.5 0.4 1.5 1.1 2.1 1.7 0.7 0.5 1.9 1.5 2.7 2.2 0.8 0.6 1.8 1.5 2.3 1.9 0.4 0.4 1.3 1.1 1.8 1.6 0.5 0.5 1.4 1.2 2 1.7 0.5 0.5 1.4 1.3 1.8 1.7 0.5 0.4 1.2 1.1 1.6 1.5 0.4 0.4 1.5 1.5 2.4 2.3 0.9 0.9 2.4 2.4 3.3 3.3 0.9 0.9 2 2 2.4 2.5 0.4 0.4 1.1 1.2 1.6 1.7 0.5 0.6 1.3 1.5 1.8 2 0.5 0.5 1.2 1.3 1.6 1.8 0.4 0.4 1.1 1.2 1.5 1.8 0.5 0.5 1.2 1.4 1.7 1.9 0.4 0.5 1.1 1.3 1.5 1.8 0.3 0.5 1 1.3 1.4 1.8 0.4 0.5 1.1 1.4 1.5 2 0.5 0.6 1.4 1.8 2.1 2.7 0.7 0.9 1.6 2.1 2 2.7 0.4 0.6 1.2 1.6 1.6 2.3 0.5 0.6 1.1 1.5 1.4 1.9 0.3 0.5 0.9 1.3 1.3 2 0.4 0.7 1.1 1.7 1.5 2.2 0.3 0.6 0.9 1.5 1.2 2 0.3 0.5 0.8 1.2 1.1 1.7 0.3 0.4 0.8 1.3 1.2 1.9 0.4 0.7 1 1.7 1.4 2.4 0.3 0.6 0.9 1.7 1.3 2.3 0.3 0.6 0.8 1.5 1.2 2.1 0.3 0.5 0.8 1.5 1.1 2.2 0.4 0.6 1 1.7 1.3 2.4 0.4 0.7 1.1 2.1 1.5 3 0.5 1 1.2 2.4 1.5 3.1 0.4 0.8 0.9 1.8 1.1 2.3 0.2 0.5 0.6 1.3 0.8 1.8 0.2 0.5 0.7 1.5 1 2.2 0.3 0.7 0.7 1.8 1 2.4 0.2 0.6 0.6 1.6 0.9 2.3 0.3 0.8 0.7 1.8 0.9 2.3 0.3 0.6 0.6 1.6 0.9 2.4 0.3 0.7 0.7 1.8 1 2.5 0.2 0.7 0.7 2.1 1 3 0.3 0.9 0.8 2.4 1.1 3.3 0.3 0.9 0.6 2.1 0.8 2.8 0.2 0.6 0.5 1.6 0.7 2.3 0.2 0.7 0.5 1.8 0.7 2.5 0.2 0.7 0.5 1.8 0.7 2.5 0.2 0.6 0.4 1.6 0.5 2.1 0.2 0.5 0.4 1.4 0.6 2.1 0.1 0.7 0.4 1.9 0.6 2.6 0.1 0.7 0.4 1.9 0.5 2.5 0.1 0.6 0.4 1.8 0.5 2.6 0.2 0.7 0.4 1.9 0.5 2.6 0.1 0.6 0.3 1.7 0.4 2.3 0.1 0.7 0.3 1.7 0.4 2.3 0.1 0.7 0.3 1.8 0.4 2.5 0.1 0.8 0.3 1.9 0.4 2.6 0 0.7 0.2 1.8 0.3 2.5 0.1 0.8 0.2 2 0.3 2.7 0.1 0.7 0.2 1.9 0.2 2.6 0.1 0.7 0.2 1.8 0.3 2.5 0 0.7 0.1 1.8 0.1 2.4 0.1 0.7 0.2 1.8 0.2 2.6 0 0.8 0.1 2.1 0.1 2.9 0.1 0.8 0.1 2.2 0.1 3.1 0.1 0.8 0.1 3.2 0.1 5.3 0 2.1 0 4.5-0.1 5.4 0 0.9 0 2.2-0.1 3 0 0.8-0.1 2.1-0.1 2.9 0 0.8-0.1 2-0.2 2.6 0 0.7-0.1 1.8-0.1 2.5-0.1 0.7-0.2 1.8-0.3 2.5 0 0.7-0.1 1.8-0.2 2.4-0.1 0.6-0.2 1.8-0.3 2.7-0.1 0.8-0.3 2.1-0.4 2.9-0.1 0.9-0.2 2-0.3 2.6-0.1 0.6-0.3 1.6-0.4 2.2-0.1 0.7-0.3 1.7-0.4 2.4-0.1 0.6-0.3 1.7-0.4 2.3-0.1 0.7-0.3 1.9-0.5 2.6-0.1 0.8-0.4 1.9-0.5 2.6-0.1 0.6-0.4 1.7-0.5 2.5-0.2 0.7-0.5 1.8-0.6 2.5-0.2 0.7-0.4 1.7-0.6 2.2-0.1 0.5-0.3 1.4-0.5 2.1-0.2 0.7-0.5 1.8-0.7 2.5-0.2 0.7-0.5 1.8-0.7 2.5-0.2 0.6-0.5 1.7-0.7 2.3-0.2 0.6-0.5 1.9-0.8 2.8-0.3 0.9-0.8 2.3-1.1 3.3-0.3 0.9-0.8 2.2-1 2.9-0.3 0.7-0.7 1.9-1 2.6-0.3 0.7-0.6 1.8-0.9 2.3-0.2 0.6-0.6 1.6-0.9 2.3-0.3 0.8-0.7 1.8-0.9 2.3-0.2 0.5-0.6 1.4-0.9 2.1-0.3 0.7-0.7 1.7-1 2.3-0.2 0.6-0.7 1.6-1 2.2-0.3 0.7-0.8 1.7-1.1 2.4-0.3 0.6-0.9 1.9-1.4 2.9-0.5 1-1.2 2.4-1.5 3.1-0.4 0.7-1 1.8-1.3 2.4-0.4 0.7-1 1.8-1.3 2.4-0.4 0.6-0.9 1.6-1.2 2.2-0.3 0.5-0.9 1.5-1.3 2.2-0.4 0.6-0.9 1.5-1.2 2-0.3 0.5-0.8 1.3-1.2 1.9-0.3 0.6-0.8 1.4-1.1 1.8-0.3 0.5-0.8 1.3-1.1 1.8-0.4 0.5-1 1.5-1.5 2.2-0.4 0.7-1.1 1.7-1.4 2.1-0.3 0.5-1 1.4-1.4 2.1-0.5 0.6-1.2 1.6-1.6 2.2-0.4 0.6-1.1 1.5-1.5 2.1-0.4 0.5-1.1 1.4-1.6 2-0.4 0.6-1.1 1.5-1.5 2.1-0.4 0.5-1.1 1.3-1.5 1.8-0.4 0.5-1.1 1.4-1.6 1.9-0.4 0.6-1.1 1.4-1.5 1.9-0.4 0.5-1.1 1.3-1.5 1.8-0.5 0.5-1.1 1.2-1.6 1.7-0.4 0.5-1.1 1.3-1.5 1.7-0.4 0.5-1.1 1.2-1.5 1.7-0.4 0.4-1.2 1.2-1.7 1.8-0.6 0.6-2.3 2.3-3.7 3.8-1.5 1.4-3.2 3.1-3.8 3.7-0.6 0.5-1.4 1.3-1.9 1.7-0.4 0.5-1.2 1.2-1.8 1.7-0.6 0.5-1.3 1.2-1.7 1.5-0.4 0.4-1.1 1-1.6 1.4-0.4 0.4-1.3 1.1-1.8 1.5-0.5 0.5-1.3 1.2-1.8 1.6-0.5 0.4-1.3 1-1.8 1.5-0.5 0.4-1.6 1.2-2.4 1.9-0.8 0.6-2.2 1.6-3 2.3-0.9 0.6-2.1 1.5-2.7 1.9-0.6 0.4-1.5 1.1-2.1 1.5-0.6 0.5-1.5 1.1-2 1.4-0.5 0.3-1.4 1-2.1 1.4-0.7 0.5-1.7 1.1-2.2 1.5-0.5 0.3-1.3 0.8-1.8 1.2-0.6 0.3-1.6 0.9-2.3 1.4-0.7 0.4-1.7 1-2.1 1.2-0.5 0.3-1.3 0.8-1.8 1.1-0.5 0.3-1.4 0.8-2 1.1-0.6 0.4-1.5 0.9-2.2 1.3-0.6 0.3-1.7 0.9-2.3 1.2-0.7 0.4-1.8 1-2.5 1.3-0.7 0.4-2.1 1.1-3.1 1.6-1.1 0.5-2.5 1.2-3.2 1.6-0.8 0.3-1.8 0.8-2.3 1-0.5 0.2-1.4 0.6-2 0.9-0.6 0.3-1.6 0.7-2.3 1-0.7 0.3-1.7 0.7-2.3 1-0.6 0.2-1.6 0.6-2.2 0.9-0.6 0.2-1.6 0.6-2.2 0.8-0.6 0.3-1.6 0.7-2.2 0.9-0.5 0.2-1.7 0.6-2.5 0.9-0.9 0.3-2.4 0.8-3.4 1.2-1 0.3-2.4 0.8-3.3 1-0.8 0.3-2 0.7-2.6 0.9-0.6 0.1-1.7 0.5-2.4 0.7-0.7 0.2-1.8 0.5-2.4 0.6-0.5 0.2-1.5 0.4-2 0.6-0.6 0.1-1.7 0.4-2.4 0.6-0.7 0.2-1.8 0.4-2.5 0.6-0.6 0.2-1.7 0.4-2.3 0.5-0.6 0.2-1.7 0.4-2.4 0.6-0.6 0.1-1.8 0.3-2.6 0.5-0.8 0.2-1.9 0.4-2.4 0.5-0.5 0.1-1.6 0.2-2.4 0.4-0.7 0.1-2 0.3-2.7 0.4-0.8 0.2-2 0.3-2.7 0.4-0.7 0.1-1.9 0.3-2.6 0.4-0.8 0.1-1.9 0.2-2.4 0.3-0.6 0.1-1.5 0.2-2.1 0.2-0.7 0.1-1.7 0.2-2.4 0.3-0.7 0-1.9 0.2-2.7 0.2-0.8 0.1-2 0.2-2.6 0.2-0.7 0.1-1.9 0.1-2.6 0.2-0.8 0-1.9 0.1-2.4 0.1-0.5 0-1.7 0.1-2.8 0.1-1.4 0.1-2.9 0.1-6.2 0.1-2.8 0-4.8 0-5.7-0.1-0.8 0-2.1 0-2.9-0.1-0.8 0-2.1-0.1-2.9-0.1-0.7-0.1-1.9-0.1-2.5-0.2-0.7 0-1.8-0.1-2.5-0.2-0.6 0-1.9-0.1-2.7-0.2-0.8-0.1-1.9-0.2-2.5-0.3-0.7 0-1.8-0.2-2.5-0.2-0.7-0.1-1.9-0.3-2.5-0.4-0.7 0-1.7-0.2-2.3-0.3-0.6-0.1-1.8-0.2-2.5-0.4-0.8-0.1-2-0.3-2.6-0.4-0.6-0.1-1.7-0.3-2.4-0.4-0.6-0.1-1.8-0.3-2.6-0.5-0.7-0.2-1.9-0.4-2.6-0.5-0.7-0.2-1.7-0.4-2.3-0.5-0.6-0.2-1.6-0.4-2.3-0.6-0.7-0.1-1.9-0.4-2.6-0.6-0.7-0.2-1.8-0.5-2.4-0.6-0.6-0.2-1.6-0.4-2.1-0.6-0.5-0.1-1.5-0.4-2.3-0.6-0.7-0.2-1.8-0.5-2.3-0.7-0.6-0.2-1.8-0.6-2.6-0.8-0.8-0.3-2.3-0.8-3.4-1.1-1-0.4-2.4-0.9-3.2-1.1-0.8-0.3-2-0.8-2.7-1-0.8-0.3-1.8-0.7-2.3-0.9-0.6-0.2-1.6-0.6-2.2-0.9-0.7-0.2-1.8-0.7-2.5-1-0.7-0.3-1.8-0.7-2.4-1-0.6-0.2-1.5-0.7-2.1-0.9-0.6-0.3-1.6-0.7-2.1-1-0.6-0.2-1.5-0.7-2-0.9-0.6-0.3-2-0.9-3-1.5-1.1-0.5-2.6-1.2-3.3-1.6-0.7-0.4-1.6-0.9-2.2-1.2-0.5-0.2-1.5-0.8-2.1-1.1-0.7-0.4-1.7-1-2.3-1.3-0.6-0.3-1.4-0.8-1.9-1.1-0.5-0.3-1.4-0.8-2.1-1.2-0.6-0.4-1.6-1-2.1-1.3-0.6-0.4-1.6-1-2.1-1.3-0.6-0.4-1.6-1-2.3-1.5-0.7-0.4-1.6-1-2-1.3-0.4-0.2-1.1-0.7-1.7-1.1-0.6-0.4-1.5-1-2-1.4-0.6-0.4-1.5-1.1-2.1-1.5-0.7-0.5-1.6-1.2-2.1-1.5-0.5-0.4-1.4-1.1-2-1.6-0.6-0.4-1.6-1.1-2.1-1.6-0.6-0.4-1.4-1-1.8-1.4-0.4-0.3-1.2-0.9-1.7-1.3-0.4-0.4-1.3-1.1-1.8-1.5-0.5-0.5-1.4-1.2-1.8-1.6-0.5-0.4-1.2-1-1.7-1.4-0.4-0.4-1.2-1.1-1.7-1.6-0.5-0.4-1.3-1.1-1.8-1.5-0.4-0.4-1.3-1.3-2-2-0.7-0.6-2-1.8-2.8-2.6-0.8-0.8-2.1-2.1-2.8-2.8-0.7-0.8-1.8-1.9-2.3-2.5-0.6-0.5-1.4-1.4-1.8-1.8-0.4-0.5-1.1-1.2-1.5-1.6-0.4-0.5-1-1.2-1.5-1.7-0.4-0.5-1.1-1.3-1.6-1.9-0.5-0.5-1.1-1.3-1.5-1.7-0.3-0.5-1-1.2-1.4-1.7-0.4-0.5-1.1-1.4-1.7-2.1-0.5-0.7-1.3-1.7-1.9-2.4-0.5-0.7-1.4-1.9-2.1-2.8-0.6-0.8-1.5-2.1-2-2.7-0.5-0.7-1.2-1.7-1.6-2.3-0.4-0.5-1-1.5-1.5-2.1-0.4-0.6-1-1.5-1.3-1.9-0.3-0.4-0.8-1.3-1.2-1.9-0.4-0.6-1-1.5-1.3-2-0.3-0.6-0.9-1.5-1.3-2.1-0.3-0.6-1-1.6-1.4-2.3-0.4-0.6-0.9-1.6-1.2-2-0.3-0.5-0.7-1.3-1-1.8-0.3-0.5-0.8-1.4-1.1-2-0.4-0.7-0.9-1.7-1.3-2.3-0.3-0.7-0.9-1.7-1.2-2.3-0.3-0.5-0.9-1.9-1.5-2.9-0.5-1.1-1.1-2.4-1.4-3-0.3-0.5-0.7-1.5-1-2.2-0.3-0.6-0.8-1.7-1.1-2.4-0.3-0.7-0.8-1.8-1.1-2.4-0.3-0.6-0.7-1.7-1-2.3-0.2-0.7-0.7-1.7-0.9-2.4-0.3-0.6-0.7-1.6-0.9-2.2-0.2-0.5-0.6-1.5-0.9-2.3-0.2-0.7-0.7-2-1-2.8-0.3-0.8-0.7-2.2-1.1-3.1-0.3-0.9-0.7-2.3-1-3-0.2-0.8-0.6-2-0.8-2.7-0.2-0.7-0.6-1.9-0.8-2.6-0.2-0.8-0.5-1.8-0.6-2.3-0.2-0.5-0.4-1.5-0.6-2.2-0.2-0.6-0.5-1.8-0.7-2.5-0.1-0.8-0.4-2-0.6-2.7-0.2-0.7-0.4-1.7-0.5-2.2-0.1-0.5-0.3-1.3-0.4-1.8-0.1-0.6-0.3-1.6-0.5-2.4-0.1-0.7-0.4-2-0.5-2.8-0.2-0.9-0.4-2.1-0.5-2.7-0.1-0.7-0.3-1.7-0.4-2.3-0.1-0.7-0.3-1.7-0.4-2.4-0.1-0.6-0.2-1.9-0.3-2.7-0.1-0.8-0.3-2.1-0.4-2.8-0.1-0.8-0.2-1.9-0.3-2.5 0-0.7-0.2-1.8-0.2-2.5-0.1-0.7-0.2-1.8-0.2-2.5-0.1-0.7-0.2-1.7-0.2-2.4-0.1-0.6-0.1-1.8-0.2-2.6 0-0.7-0.1-2-0.1-2.8-0.1-0.8-0.1-2.1-0.1-3-0.1-0.9-0.1-3.1-0.1-5.6 0-2.4 0-4.7 0.1-5.6 0-0.8 0-2.1 0.1-2.9 0-0.8 0.1-2.1 0.1-2.9 0.1-0.7 0.1-2 0.2-2.8 0.1-0.8 0.1-1.9 0.2-2.4 0-0.5 0.1-1.6 0.2-2.3 0-0.7 0.2-1.8 0.2-2.6 0.1-0.7 0.3-1.9 0.3-2.6 0.1-0.7 0.3-1.9 0.4-2.5 0.1-0.7 0.2-1.8 0.3-2.5 0.1-0.7 0.3-1.7 0.3-2.2 0.1-0.6 0.3-1.7 0.4-2.5 0.2-0.7 0.4-2 0.5-2.7 0.2-0.7 0.4-1.8 0.5-2.5 0.1-0.7 0.4-1.8 0.5-2.5 0.2-0.7 0.4-1.7 0.5-2.2 0.1-0.5 0.3-1.5 0.5-2.2 0.2-0.7 0.5-1.9 0.6-2.7 0.2-0.7 0.5-1.9 0.7-2.6 0.2-0.6 0.5-1.7 0.6-2.3 0.2-0.6 0.5-1.6 0.7-2.2 0.2-0.7 0.5-1.8 0.7-2.5 0.2-0.7 0.6-2 0.8-2.7 0.3-0.7 0.7-2.1 1-3 0.4-1 0.8-2.4 1.1-3.2 0.3-0.8 0.8-2 1-2.7 0.3-0.8 0.7-1.8 0.9-2.4 0.2-0.5 0.6-1.5 0.9-2.2 0.2-0.6 0.6-1.6 0.9-2.1 0.2-0.6 0.6-1.5 0.9-2.2 0.3-0.7 0.8-1.8 1.1-2.5 0.3-0.7 0.7-1.7 1-2.2 0.2-0.6 0.7-1.5 0.9-2.1 0.3-0.6 1-1.9 1.5-3 0.5-1.1 1.2-2.5 1.6-3.2 0.4-0.7 0.9-1.8 1.3-2.4 0.3-0.6 0.8-1.6 1.2-2.2 0.3-0.5 0.8-1.5 1.2-2.2 0.3-0.6 0.9-1.5 1.1-2 0.3-0.5 0.8-1.3 1.2-1.9 0.3-0.6 0.9-1.5 1.2-2.1 0.4-0.5 1-1.5 1.3-2.1 0.4-0.5 0.9-1.4 1.3-1.9 0.3-0.5 0.9-1.5 1.5-2.3 0.5-0.7 1.1-1.7 1.4-2.1 0.3-0.4 0.8-1.2 1.2-1.7 0.3-0.5 0.9-1.4 1.3-1.9 0.4-0.5 1-1.4 1.4-1.9 0.5-0.6 1.1-1.5 1.5-2 0.4-0.5 1-1.3 1.4-1.8 0.3-0.5 1-1.3 1.5-1.9 0.4-0.6 1.2-1.5 1.6-2.1 0.5-0.5 1.1-1.3 1.5-1.8 0.4-0.4 1.1-1.3 1.6-1.8 0.4-0.5 1.1-1.3 1.5-1.8 0.4-0.4 1.1-1.2 1.6-1.7 0.4-0.6 1.2-1.5 1.8-2 0.5-0.6 1.4-1.5 1.9-2.1 0.6-0.6 1.6-1.7 2.4-2.5 0.8-0.8 2.1-2.1 2.8-2.8 0.8-0.8 1.9-1.9 2.5-2.4 0.6-0.6 1.5-1.4 2.1-1.9 0.5-0.5 1.4-1.3 1.9-1.8 0.5-0.5 1.3-1.2 1.8-1.6 0.4-0.3 1.2-1 1.6-1.4 0.5-0.4 1.3-1.1 1.8-1.5 0.6-0.5 1.5-1.2 2-1.6 0.5-0.5 1.4-1.2 1.9-1.6 0.6-0.4 1.4-1.1 1.9-1.4 0.5-0.4 1.3-1.1 1.9-1.5 0.6-0.5 1.5-1.1 1.9-1.4 0.5-0.4 1.3-1 1.9-1.4 0.5-0.4 1.4-1 1.9-1.4 0.5-0.3 1.5-1 2.1-1.4 0.6-0.4 1.4-1 1.8-1.2 0.3-0.3 1.2-0.8 1.9-1.3 0.7-0.5 1.8-1.1 2.4-1.5 0.5-0.4 1.5-1 2.1-1.3 0.5-0.4 1.5-1 2.1-1.3 0.7-0.4 1.6-0.9 2.1-1.2 0.5-0.3 1.3-0.8 1.9-1.1 0.6-0.3 1.5-0.9 2-1.2 0.6-0.3 1.6-0.8 2.2-1.1 0.6-0.4 1.7-0.9 2.4-1.3 0.8-0.4 2.2-1.1 3.3-1.6 1-0.6 2.3-1.2 2.9-1.5 0.6-0.3 1.5-0.7 2.1-0.9 0.5-0.3 1.5-0.7 2.1-1 0.6-0.3 1.5-0.7 2.1-0.9 0.6-0.3 1.6-0.7 2.2-1 0.6-0.2 1.8-0.7 2.6-1 0.7-0.3 1.8-0.7 2.4-0.9 0.5-0.3 1.6-0.7 2.3-0.9 0.7-0.3 1.9-0.7 2.6-1 0.7-0.2 1.5-0.5 1.9-0.6 0.4-0.2 1.2-0.4 1.7-0.6 0.6-0.2 1.7-0.6 2.6-0.9 0.9-0.3 2.2-0.6 2.8-0.8 0.6-0.2 1.7-0.5 2.4-0.8 0.7-0.2 1.9-0.5 2.5-0.7 0.6-0.1 1.7-0.4 2.4-0.6 0.7-0.2 1.6-0.4 2.2-0.6 0.5-0.1 1.5-0.3 2.3-0.5 0.7-0.2 1.9-0.5 2.6-0.6 0.7-0.2 1.6-0.4 2.1-0.5 0.4-0.1 1.4-0.3 2.2-0.4 0.8-0.2 2-0.4 2.7-0.6 0.8-0.1 2-0.3 2.7-0.4 0.8-0.2 1.9-0.4 2.5-0.4 0.5-0.1 1.6-0.3 2.3-0.4 0.8-0.1 1.9-0.3 2.6-0.4 0.6 0 1.8-0.2 2.5-0.3 0.7-0.1 1.9-0.2 2.7-0.3 0.7-0.1 1.9-0.2 2.6-0.2 0.7-0.1 1.8-0.2 2.5-0.3 0.7 0 1.7-0.1 2.4-0.1 0.6-0.1 1.8-0.2 2.6-0.2 0.8 0 2.1-0.1 2.8-0.1 0.7-0.1 2-0.1 2.9-0.1 0.9-0.1 1.9-0.1 2.4-0.1 0.4 0 2.4 0 4.3 0zm-4.7 7.8c-0.4 0-1.3 0-2.1 0-0.8 0-2 0.1-2.8 0.1-0.8 0.1-1.9 0.1-2.5 0.1-0.6 0.1-1.6 0.1-2.2 0.2-0.6 0-1.7 0.1-2.4 0.2-0.7 0-1.9 0.1-2.6 0.2-0.7 0-1.8 0.2-2.6 0.2-0.7 0.1-1.8 0.2-2.4 0.3-0.6 0.1-1.7 0.2-2.4 0.3-0.6 0.1-1.8 0.3-2.5 0.4-0.8 0.1-1.9 0.3-2.5 0.4-0.6 0.1-1.7 0.2-2.3 0.3-0.6 0.2-1.7 0.3-2.3 0.4-0.6 0.2-1.5 0.3-2.2 0.5-0.6 0.1-1.7 0.3-2.4 0.5-0.7 0.1-1.7 0.3-2.2 0.4-0.5 0.2-1.5 0.4-2.3 0.6-0.7 0.1-1.9 0.4-2.5 0.6-0.7 0.2-1.7 0.4-2.4 0.6-0.6 0.1-1.5 0.4-2 0.5-0.6 0.2-1.5 0.5-2.2 0.6-0.6 0.2-1.7 0.6-2.4 0.8-0.7 0.2-1.6 0.5-2.1 0.6-0.5 0.1-1.5 0.5-2.2 0.7-0.8 0.3-2 0.7-2.6 0.9-0.7 0.2-1.7 0.6-2.2 0.8-0.6 0.2-1.5 0.5-2.1 0.7-0.6 0.3-1.6 0.6-2.3 0.9-0.7 0.3-1.7 0.7-2.3 0.9-0.6 0.3-1.5 0.6-2 0.8-0.5 0.2-1.4 0.6-2 0.9-0.6 0.2-1.6 0.7-2.3 1-0.7 0.3-1.7 0.7-2.3 1-0.5 0.2-1.5 0.7-2.1 1-0.6 0.3-1.8 0.8-2.7 1.3-0.9 0.4-2.2 1.1-2.9 1.5-0.7 0.3-1.8 0.9-2.5 1.3-0.6 0.3-1.6 0.8-2.1 1.1-0.6 0.3-1.6 0.9-2.2 1.3-0.7 0.3-1.6 0.9-2.1 1.2-0.5 0.3-1.4 0.8-2 1.1-0.6 0.4-1.4 0.9-1.9 1.2-0.4 0.2-1.2 0.7-1.7 1.1-0.5 0.3-1.4 0.8-1.9 1.2-0.6 0.4-1.5 0.9-2 1.3-0.5 0.3-1.3 0.9-1.9 1.3-0.6 0.4-1.6 1-2.1 1.4-0.5 0.4-1.4 1-1.9 1.4-0.6 0.4-1.4 1-1.8 1.3-0.5 0.4-1.3 1-1.9 1.4-0.5 0.4-1.4 1.1-1.9 1.5-0.6 0.4-1.4 1-1.8 1.4-0.4 0.3-1.1 0.9-1.6 1.2-0.4 0.4-1.2 1-1.7 1.5-0.5 0.4-1.3 1.1-1.8 1.5-0.4 0.3-1.2 1-1.7 1.5-0.6 0.5-1.4 1.2-1.8 1.5-0.4 0.4-1.2 1.2-1.8 1.7-0.5 0.5-1.4 1.3-2 1.9-0.6 0.5-1.7 1.5-2.4 2.3-0.8 0.7-2 1.9-2.7 2.7-0.8 0.8-1.8 1.8-2.4 2.4-0.5 0.6-1.3 1.4-1.6 1.8-0.4 0.4-1.2 1.2-1.7 1.8-0.5 0.6-1.2 1.4-1.6 1.8-0.4 0.5-1.1 1.3-1.5 1.8-0.5 0.5-1.2 1.4-1.6 1.8-0.3 0.5-1.1 1.3-1.5 1.9-0.5 0.6-1.3 1.5-1.7 2.1-0.4 0.5-1 1.3-1.4 1.9-0.5 0.5-1.1 1.3-1.4 1.8-0.4 0.5-1 1.3-1.4 1.8-0.3 0.5-0.9 1.2-1.2 1.7-0.3 0.4-0.9 1.2-1.2 1.7-0.4 0.6-1 1.4-1.3 1.9-0.4 0.5-0.9 1.3-1.3 1.9-0.3 0.5-0.9 1.4-1.3 1.9-0.3 0.6-0.9 1.5-1.2 2-0.3 0.5-0.8 1.3-1.1 1.7-0.3 0.4-0.8 1.3-1.1 1.9-0.4 0.5-0.9 1.4-1.2 2-0.3 0.5-0.9 1.4-1.2 2.1-0.4 0.6-1 1.7-1.4 2.4-0.3 0.6-0.9 1.6-1.2 2.2-0.3 0.5-0.8 1.5-1.1 2.2-0.4 0.7-1 2-1.5 2.9-0.4 0.9-1 2.1-1.3 2.7-0.3 0.6-0.7 1.6-1 2.1-0.2 0.6-0.7 1.5-0.9 2.1-0.3 0.6-0.7 1.6-1 2.2-0.3 0.6-0.7 1.6-0.9 2.2-0.3 0.6-0.7 1.6-1 2.3-0.2 0.7-0.6 1.7-0.8 2.2-0.2 0.5-0.6 1.5-0.9 2.2-0.2 0.7-0.6 1.8-0.8 2.4-0.3 0.7-0.7 2-1 2.9-0.4 0.9-0.8 2.4-1.1 3.2-0.3 0.8-0.6 2-0.8 2.6-0.2 0.7-0.5 1.7-0.7 2.3-0.2 0.7-0.5 1.7-0.6 2.3-0.2 0.6-0.5 1.7-0.7 2.4-0.2 0.7-0.4 1.7-0.5 2.2-0.2 0.4-0.4 1.5-0.6 2.2-0.2 0.7-0.4 1.9-0.6 2.6-0.1 0.7-0.3 1.7-0.5 2.2-0.1 0.6-0.3 1.6-0.4 2.3-0.2 0.7-0.4 1.9-0.5 2.5-0.1 0.7-0.3 1.8-0.4 2.4-0.1 0.7-0.3 1.7-0.4 2.3-0.1 0.7-0.2 1.7-0.3 2.3-0.1 0.6-0.3 1.6-0.4 2.3 0 0.6-0.2 1.8-0.3 2.5-0.1 0.8-0.2 1.9-0.3 2.5 0 0.6-0.1 1.6-0.2 2.2 0 0.6-0.1 1.6-0.2 2.2 0 0.7-0.1 1.7-0.2 2.4 0 0.6-0.1 1.7-0.1 2.5-0.1 0.7-0.1 1.9-0.2 2.7 0 0.7 0 2-0.1 2.8 0 0.9 0 3 0 5.8 0 2.9 0 5 0 5.9 0.1 0.8 0.1 2 0.1 2.8 0.1 0.7 0.1 1.8 0.2 2.4 0 0.6 0.1 1.6 0.1 2.2 0 0.7 0.1 1.9 0.2 2.7 0.1 0.8 0.2 1.9 0.2 2.5 0.1 0.6 0.2 1.6 0.2 2.2 0.1 0.6 0.2 1.7 0.3 2.5 0.1 0.7 0.3 1.8 0.3 2.5 0.1 0.7 0.3 1.7 0.4 2.3 0.1 0.6 0.2 1.6 0.3 2.1 0.1 0.6 0.2 1.6 0.4 2.3 0.1 0.8 0.3 1.9 0.4 2.5 0.1 0.7 0.3 1.8 0.5 2.5 0.1 0.8 0.3 1.9 0.5 2.5 0.1 0.6 0.3 1.6 0.5 2.2 0.1 0.6 0.4 1.8 0.5 2.6 0.2 0.8 0.5 1.8 0.6 2.2 0.1 0.4 0.3 1.3 0.5 2 0.2 0.7 0.5 1.7 0.6 2.3 0.2 0.5 0.5 1.6 0.7 2.3 0.2 0.7 0.5 1.8 0.7 2.4 0.2 0.7 0.4 1.5 0.6 1.9 0.1 0.4 0.4 1.2 0.5 1.8 0.2 0.5 0.6 1.6 0.8 2.4 0.3 0.8 0.7 2 1 2.7 0.2 0.6 0.6 1.8 0.9 2.5 0.3 0.7 0.6 1.7 0.9 2.3 0.2 0.5 0.5 1.4 0.7 2 0.3 0.5 0.7 1.6 1 2.2 0.2 0.7 0.7 1.8 1 2.5 0.3 0.6 0.7 1.5 0.8 1.9 0.2 0.4 0.6 1.3 0.9 1.9 0.3 0.7 0.8 1.7 1 2.3 0.3 0.6 0.9 1.9 1.4 2.8 0.5 1 1.2 2.4 1.6 3.1 0.3 0.6 0.9 1.7 1.2 2.4 0.4 0.6 0.9 1.6 1.2 2.1 0.3 0.5 0.8 1.4 1.1 2 0.3 0.6 0.9 1.6 1.3 2.3 0.4 0.6 0.9 1.5 1.1 1.9 0.3 0.4 0.8 1.2 1.1 1.8 0.4 0.6 1 1.5 1.3 2 0.3 0.6 0.9 1.4 1.2 1.9 0.3 0.5 0.9 1.4 1.4 2 0.4 0.7 1.1 1.8 1.6 2.4 0.4 0.6 1.2 1.8 1.7 2.5 0.5 0.7 1.4 1.9 1.9 2.6 0.5 0.7 1.4 1.9 2 2.7 0.6 0.7 1.5 1.9 2 2.6 0.6 0.7 1.5 1.8 2 2.4 0.5 0.6 1.4 1.7 2 2.4 0.6 0.7 1.5 1.8 2.1 2.5 0.6 0.6 1.5 1.6 2 2.2 0.5 0.5 1.3 1.4 1.7 1.9 0.5 0.5 1.2 1.2 1.6 1.7 0.5 0.4 1.5 1.5 2.3 2.3 0.8 0.9 2.2 2.2 3 3 0.9 0.9 1.9 1.8 2.3 2.2 0.4 0.4 1 1 1.5 1.4 0.4 0.3 1.1 1 1.5 1.4 0.5 0.4 1.2 1 1.7 1.5 0.5 0.4 1.3 1.1 1.8 1.6 0.6 0.4 1.5 1.2 2.1 1.7 0.6 0.5 1.4 1.2 1.8 1.5 0.4 0.3 1.2 1 1.7 1.4 0.6 0.4 1.4 1.1 1.9 1.4 0.5 0.4 1.3 1 1.8 1.4 0.5 0.4 1.3 1 1.8 1.4 0.5 0.3 1.4 1 2 1.4 0.5 0.4 1.5 1.1 2 1.5 0.6 0.4 1.8 1.2 2.7 1.8 1 0.6 2.2 1.4 2.7 1.8 0.5 0.3 1.5 0.9 2.1 1.3 0.6 0.4 1.5 1 2.1 1.3 0.6 0.4 1.4 0.9 2 1.2 0.5 0.3 1.3 0.8 1.8 1.1 0.4 0.3 1.3 0.7 1.8 1.1 0.6 0.3 1.6 0.8 2.3 1.2 0.6 0.4 1.6 0.9 2.1 1.2 0.5 0.2 1.5 0.8 2.2 1.1 0.6 0.4 2 1.1 3.1 1.6 1 0.5 2.3 1.1 2.9 1.4 0.6 0.3 1.5 0.7 2.1 0.9 0.5 0.3 1.5 0.7 2.2 1 0.6 0.3 1.7 0.8 2.2 1 0.6 0.3 1.6 0.7 2.2 0.9 0.6 0.3 1.5 0.6 2 0.9 0.6 0.2 1.6 0.6 2.2 0.8 0.6 0.2 1.6 0.6 2.1 0.8 0.6 0.2 1.5 0.6 2.1 0.8 0.6 0.2 1.7 0.6 2.4 0.8 0.8 0.3 2 0.7 2.6 0.9 0.7 0.2 1.7 0.5 2.2 0.7 0.4 0.1 1.4 0.4 2.1 0.7 0.7 0.2 1.7 0.5 2.2 0.6 0.5 0.1 1.4 0.4 2 0.6 0.6 0.1 1.5 0.4 2.1 0.5 0.6 0.2 1.7 0.5 2.5 0.7 0.8 0.2 1.9 0.5 2.5 0.6 0.6 0.1 1.6 0.4 2.3 0.5 0.6 0.2 1.7 0.4 2.5 0.6 0.7 0.1 1.7 0.3 2.3 0.4 0.6 0.1 1.6 0.3 2.2 0.5 0.7 0.1 1.7 0.3 2.4 0.4 0.6 0.1 1.7 0.3 2.3 0.4 0.6 0.1 1.6 0.2 2.2 0.3 0.6 0.1 1.6 0.2 2.3 0.3 0.6 0.1 1.8 0.3 2.7 0.4 0.8 0.1 2 0.2 2.6 0.3 0.6 0 1.6 0.1 2.2 0.2 0.5 0 1.7 0.1 2.5 0.2 0.8 0.1 2 0.2 2.6 0.2 0.6 0 1.7 0.1 2.3 0.1 0.6 0.1 1.7 0.1 2.4 0.2 0.7 0 1.9 0 2.6 0.1 0.7 0 1.5 0 1.6 0h0.3v-135c-18.4-18.4-20.1-20.1-20.2-20.3-0.1-0.2-1.8-1.9-10.1-10.2l-10-10c-0.9 0.1-1.4 0.2-1.6 0.2-0.3 0-0.8 0.1-1 0-0.3 0-0.7 0-0.9 0-0.2-0.1-0.6-0.2-0.9-0.2-0.3-0.1-0.7-0.2-1-0.3-0.2-0.1-0.6-0.3-0.9-0.4-0.2-0.2-0.6-0.4-0.8-0.5-0.1-0.1-0.4-0.3-0.6-0.5-0.2-0.1-0.5-0.4-0.8-0.7-0.2-0.2-0.5-0.6-0.7-0.8-0.2-0.2-0.4-0.5-0.5-0.7-0.1-0.2-0.3-0.6-0.5-0.8-0.1-0.3-0.2-0.7-0.3-1-0.1-0.4-0.3-0.8-0.3-1.1-0.1-0.2-0.1-0.6-0.1-0.8-0.1-0.2-0.1-0.6-0.1-0.9 0-0.3 0-0.7 0.1-1 0-0.3 0.1-0.6 0.1-0.8 0-0.1 0.1-0.4 0.2-0.6 0-0.2 0.1-0.6 0.2-0.8 0.1-0.2 0.3-0.6 0.4-0.8 0.1-0.2 0.3-0.5 0.4-0.7 0.1-0.1 0.3-0.4 0.4-0.6 0.2-0.2 0.5-0.5 0.8-0.8 0.3-0.3 0.7-0.7 0.9-0.8 0.2-0.2 0.5-0.4 0.7-0.5l0.4-0.2v-22.6l-19.7-19.7h-10.6l-1.7-0.7-14.7-14.7q-0.4 0.1-0.7 0.2c-0.2 0.1-0.5 0.1-0.7 0.2-0.3 0-0.7 0-1.1 0-0.4 0-0.7 0-1-0.1-0.3 0-0.6-0.1-0.7-0.1-0.2 0-0.4-0.1-0.6-0.2-0.2-0.1-0.5-0.2-0.6-0.2-0.2-0.1-0.4-0.3-0.5-0.3-0.2-0.1-0.4-0.3-0.6-0.4-0.2-0.1-0.5-0.4-0.7-0.6-0.1-0.2-0.4-0.4-0.5-0.6-0.2-0.2-0.4-0.5-0.5-0.6-0.1-0.2-0.2-0.5-0.3-0.6-0.1-0.2-0.2-0.5-0.3-0.7-0.1-0.2-0.2-0.5-0.2-0.6 0-0.2-0.1-0.5-0.1-0.7-0.1-0.3-0.1-0.7-0.1-1 0-0.4 0-0.8 0.1-1 0-0.3 0.1-0.6 0.1-0.8 0-0.1 0.1-0.4 0.2-0.6 0.1-0.2 0.2-0.5 0.3-0.6 0-0.2 0.2-0.4 0.3-0.6 0.1-0.2 0.3-0.4 0.4-0.6 0.1-0.1 0.3-0.4 0.5-0.6 0.2-0.1 0.5-0.4 0.7-0.6 0.2-0.2 0.5-0.4 0.7-0.4 0.1-0.1 0.3-0.3 0.5-0.3 0.1-0.1 0.4-0.2 0.6-0.3 0.2-0.1 0.5-0.2 0.6-0.2 0.2 0 0.5-0.1 0.7-0.1 0.3-0.1 0.7-0.1 1.1-0.1 0.3 0 0.8 0 1 0.1 0.2 0 0.5 0.1 0.7 0.1 0.2 0.1 0.5 0.2 0.7 0.2 0.2 0.1 0.4 0.2 0.6 0.3 0.2 0.1 0.5 0.3 0.7 0.4 0.2 0.1 0.5 0.4 0.7 0.5 0.2 0.2 0.4 0.5 0.6 0.6 0.1 0.2 0.3 0.4 0.4 0.5 0.1 0.2 0.3 0.4 0.4 0.6 0.1 0.1 0.2 0.4 0.3 0.6 0 0.1 0.2 0.4 0.2 0.6 0.1 0.1 0.2 0.4 0.2 0.6 0.1 0.1 0.1 0.5 0.2 0.7 0 0.2 0 0.6 0 1 0 0.3 0 0.7 0 1-0.1 0.2-0.1 0.5-0.2 0.6 0 0.2-0.1 0.5-0.2 0.7 0 0.1-0.1 0.4-0.2 0.5l-0.1 0.3 13.8 13.8h10.6l1.7 0.7 17 16.9v-12.6l-20.6-20.7c-0.6 0.3-1 0.4-1.3 0.4-0.2 0.1-0.7 0.2-0.9 0.2-0.3 0.1-0.8 0.1-1.2 0.1-0.3 0-0.8 0-1.1-0.1-0.3 0-0.7-0.1-1-0.2-0.3 0-0.8-0.2-1-0.3-0.3-0.1-0.7-0.3-0.9-0.4-0.3-0.1-0.6-0.3-0.8-0.5-0.2-0.1-0.5-0.3-0.7-0.5-0.1-0.1-0.4-0.4-0.6-0.6-0.2-0.2-0.5-0.5-0.6-0.6-0.2-0.2-0.4-0.5-0.5-0.7-0.1-0.2-0.3-0.5-0.5-0.8-0.1-0.2-0.3-0.6-0.4-0.8-0.1-0.3-0.2-0.7-0.3-1-0.1-0.3-0.2-0.8-0.2-1.1 0-0.2-0.1-0.7-0.1-1.1 0-0.4 0.1-0.9 0.1-1.2 0-0.2 0.1-0.7 0.2-1 0.1-0.3 0.2-0.7 0.3-1 0.1-0.2 0.3-0.6 0.4-0.8 0.1-0.2 0.3-0.6 0.5-0.8 0.1-0.2 0.3-0.5 0.5-0.7 0.1-0.2 0.4-0.5 0.6-0.7 0.2-0.2 0.4-0.4 0.6-0.5 0.2-0.2 0.4-0.3 0.5-0.4l0.2-0.2v-25.5c-0.8-0.4-1.2-0.6-1.5-0.8-0.3-0.2-0.6-0.5-0.8-0.6-0.2-0.2-0.6-0.5-0.8-0.7-0.2-0.2-0.5-0.5-0.6-0.7-0.1-0.2-0.4-0.5-0.5-0.8-0.2-0.2-0.5-0.7-0.6-1-0.2-0.4-0.4-0.9-0.5-1.2-0.1-0.3-0.2-0.7-0.3-0.9 0-0.3-0.1-0.6-0.1-0.8-0.1-0.3-0.1-0.7-0.1-1 0-0.3 0-0.8 0-1.1 0-0.3 0.1-0.8 0.1-1 0.1-0.2 0.2-0.6 0.2-0.9 0.1-0.2 0.2-0.6 0.3-0.8 0.1-0.2 0.3-0.6 0.4-0.9 0.2-0.3 0.4-0.7 0.6-1 0.1-0.2 0.4-0.5 0.5-0.7 0.1-0.2 0.4-0.5 0.6-0.7 0.2-0.2 0.6-0.6 0.8-0.7 0.2-0.2 0.6-0.5 0.8-0.6 0.2-0.1 0.5-0.3 0.7-0.5 0.2-0.1 0.6-0.2 0.7-0.3 0.2-0.1 0.6-0.2 0.8-0.3 0.2-0.1 0.6-0.2 0.8-0.3 0.3 0 0.7-0.1 1-0.1 0.2-0.1 0.7-0.1 1-0.1 0.3-0.1 0.7-0.1 1.1 0 0.2 0 0.7 0.1 0.9 0.1 0.2 0 0.5 0.1 0.7 0.1 0.2 0.1 0.6 0.2 0.9 0.3 0.2 0.1 0.7 0.3 0.9 0.4 0.3 0.1 0.7 0.3 0.9 0.5 0.2 0.1 0.5 0.3 0.7 0.5 0.3 0.1 0.6 0.4 0.8 0.6 0.2 0.1 0.5 0.5 0.7 0.7 0.2 0.2 0.4 0.5 0.6 0.7 0.1 0.1 0.3 0.4 0.4 0.6 0.1 0.2 0.3 0.6 0.5 0.9 0.1 0.3 0.3 0.7 0.4 0.9 0 0.2 0.2 0.6 0.2 0.9 0.1 0.3 0.2 0.7 0.2 1 0.1 0.3 0.1 0.6 0.1 1.4 0 0.9 0 1.2-0.1 1.5 0 0.3-0.1 0.7-0.1 0.9-0.1 0.3-0.3 0.7-0.4 1-0.1 0.3-0.3 0.8-0.4 1-0.2 0.3-0.4 0.7-0.6 1-0.1 0.2-0.4 0.6-0.5 0.7-0.2 0.2-0.5 0.6-0.7 0.8-0.2 0.2-0.6 0.5-0.8 0.7-0.2 0.2-0.5 0.4-0.8 0.6-0.2 0.1-0.6 0.4-0.9 0.5l-0.5 0.2 0.1 24.6q0.6 0.2 0.9 0.4c0.3 0.1 0.6 0.3 0.8 0.4 0.2 0.1 0.4 0.3 0.6 0.4 0.1 0.1 0.4 0.4 0.6 0.5 0.2 0.2 0.5 0.5 0.6 0.7 0.2 0.1 0.4 0.4 0.5 0.6 0.1 0.1 0.3 0.4 0.5 0.6 0.1 0.2 0.3 0.5 0.4 0.8 0.1 0.2 0.3 0.6 0.3 0.8 0.1 0.2 0.2 0.6 0.3 0.8 0 0.2 0.1 0.6 0.1 0.8 0.1 0.2 0.1 0.6 0.1 1.1 0 0.7 0 1 0 1.4-0.1 0.2-0.1 0.6-0.2 0.8v0.3c17.1 17.1 22.1 22.1 22.1 22.2 0 0 0.3 0.7 0.6 1.4l0.5 1.3v43.4c0.6 0.3 1 0.5 1.2 0.7 0.2 0.1 0.5 0.3 0.7 0.4 0.1 0.2 0.4 0.4 0.6 0.6 0.2 0.2 0.5 0.5 0.6 0.7 0.2 0.2 0.4 0.5 0.6 0.7 0.1 0.2 0.3 0.6 0.5 0.8 0.1 0.2 0.2 0.6 0.3 0.8 0.1 0.3 0.3 0.7 0.4 1 0 0.3 0.1 0.8 0.2 1.1 0 0.3 0 0.7 0 1.1 0 0.5 0 0.9 0 1.2-0.1 0.3-0.1 0.6-0.2 0.8 0 0.2-0.1 0.6-0.2 0.8l-0.2 0.5 13.2 13.2v-21.2q-0.6-0.3-1-0.5c-0.2-0.1-0.6-0.3-0.7-0.5-0.2-0.1-0.5-0.3-0.7-0.5-0.2-0.1-0.5-0.4-0.6-0.6-0.2-0.2-0.5-0.5-0.7-0.7-0.1-0.2-0.4-0.5-0.5-0.7-0.1-0.2-0.3-0.6-0.4-0.8-0.1-0.1-0.3-0.5-0.4-0.7-0.1-0.3-0.2-0.6-0.3-0.9-0.1-0.2-0.2-0.6-0.2-0.8-0.1-0.2-0.1-0.5-0.2-0.8 0-0.3-0.1-0.7-0.1-1.4 0-0.7 0.1-1 0.1-1.4 0.1-0.3 0.2-0.7 0.2-1 0.1-0.2 0.2-0.6 0.3-0.8 0.1-0.2 0.3-0.7 0.4-1 0.2-0.3 0.5-0.8 0.6-1 0.2-0.3 0.4-0.6 0.5-0.8 0.2-0.2 0.5-0.5 0.8-0.8 0.2-0.2 0.6-0.5 0.7-0.7 0.2-0.1 0.5-0.3 0.7-0.5 0.2-0.1 0.5-0.3 0.7-0.4 0.2-0.1 0.6-0.3 0.8-0.4 0.3-0.1 0.7-0.3 1-0.4 0.3 0 0.7-0.2 0.9-0.2 0.2 0 0.6-0.1 0.9-0.1 0.5-0.1 0.8-0.1 1.4-0.1 0.6 0 0.9 0.1 1.3 0.1 0.4 0.1 0.8 0.2 1.1 0.3 0.3 0.1 0.7 0.2 0.9 0.3 0.3 0.1 0.7 0.3 0.9 0.4 0.3 0.1 0.6 0.3 0.8 0.5 0.2 0.1 0.6 0.4 0.8 0.5 0.2 0.2 0.6 0.6 0.9 0.8 0.2 0.3 0.5 0.7 0.7 0.8 0.1 0.2 0.3 0.5 0.4 0.7 0.2 0.2 0.4 0.6 0.5 0.8 0.1 0.3 0.3 0.6 0.4 0.9 0.1 0.2 0.2 0.5 0.3 0.7 0 0.2 0.1 0.5 0.1 0.6 0.1 0.2 0.1 0.6 0.2 0.8 0 0.4 0.1 0.7 0.1 1.5 0 0.7-0.1 1.1-0.1 1.4-0.1 0.3-0.1 0.7-0.2 1-0.1 0.3-0.2 0.8-0.4 1.1-0.1 0.3-0.3 0.7-0.4 0.9-0.1 0.3-0.3 0.6-0.5 0.8-0.1 0.2-0.3 0.6-0.5 0.8-0.2 0.2-0.5 0.6-0.8 0.8-0.2 0.3-0.5 0.6-0.7 0.7-0.2 0.1-0.5 0.4-0.7 0.5-0.3 0.2-0.7 0.4-1 0.6l-0.5 0.3v29.1l13.5 13.6v-66.3l-14.8-14.9c-0.6 0.2-1 0.3-1.2 0.4-0.4 0.1-0.6 0.1-1.4 0.1-0.8 0-0.9 0-1.3-0.1-0.3-0.1-0.6-0.2-0.8-0.2-0.2-0.1-0.6-0.2-0.8-0.3-0.2-0.1-0.4-0.3-0.6-0.3-0.1-0.1-0.4-0.3-0.5-0.4-0.2-0.2-0.5-0.4-0.6-0.5-0.2-0.2-0.4-0.4-0.6-0.6-0.1-0.2-0.3-0.4-0.4-0.6-0.2-0.2-0.3-0.5-0.5-0.8-0.1-0.2-0.2-0.5-0.3-0.7 0-0.1-0.1-0.4-0.2-0.6 0-0.2-0.1-0.5-0.1-0.7 0-0.2-0.1-0.7-0.1-1 0-0.3 0.1-0.7 0.1-0.9 0-0.2 0.1-0.5 0.1-0.7 0.1-0.2 0.2-0.5 0.2-0.6 0.1-0.2 0.2-0.5 0.3-0.8 0.2-0.2 0.3-0.5 0.5-0.7 0.1-0.2 0.3-0.4 0.4-0.5 0.1-0.2 0.2-0.4 0.3-0.5 0.1-0.1 0.4-0.3 0.5-0.4 0.2-0.2 0.5-0.4 0.6-0.5l0.3-0.2v-7.9l-12.4-12.4c-0.6 0.3-0.9 0.5-1.1 0.6-0.2 0-0.6 0.1-0.9 0.2-0.5 0.1-0.6 0.1-1.4 0.1-0.9 0-1 0-1.4-0.1-0.2 0-0.6-0.1-0.8-0.2-0.2 0-0.6-0.2-0.9-0.4-0.3-0.1-0.7-0.3-0.9-0.5-0.2-0.1-0.6-0.5-0.9-0.8-0.3-0.3-0.5-0.6-0.8-0.9-0.1-0.3-0.4-0.7-0.5-0.9-0.1-0.2-0.2-0.6-0.3-0.8-0.1-0.2-0.2-0.5-0.2-0.8 0-0.2-0.1-0.6-0.1-0.8 0-0.3 0-0.7 0-1 0-0.2 0.1-0.6 0.1-0.9 0-0.2 0.1-0.5 0.2-0.7 0.1-0.2 0.2-0.6 0.3-0.8 0.1-0.3 0.3-0.6 0.4-0.8 0.2-0.2 0.4-0.5 0.5-0.6 0.1-0.2 0.4-0.5 0.6-0.6 0.2-0.2 0.5-0.5 0.7-0.6 0.2-0.2 0.6-0.4 0.8-0.5 0.2-0.1 0.5-0.3 0.7-0.4l0.4-0.1v-14.9l0.6-1.4 4.8-4.8c-0.2-0.5-0.2-0.7-0.3-0.8 0-0.2 0-0.5-0.1-0.7 0-0.2 0-0.6 0-0.9 0-0.4 0-0.8 0-1 0.1-0.3 0.1-0.5 0.1-0.7 0.1-0.1 0.2-0.4 0.2-0.6 0.1-0.2 0.3-0.6 0.4-0.8 0.1-0.3 0.4-0.7 0.5-0.9 0.2-0.2 0.5-0.6 0.7-0.8 0.2-0.2 0.5-0.5 0.7-0.6 0.2-0.1 0.4-0.3 0.6-0.4 0.1-0.1 0.3-0.2 0.5-0.3 0.1-0.1 0.4-0.2 0.6-0.3 0.3-0.1 0.6-0.2 0.8-0.2 0.1-0.1 0.5-0.1 0.7-0.2 0.2 0 0.6 0 0.9 0 0.4 0 0.8 0 1 0 0.2 0.1 0.5 0.1 0.7 0.2 0.2 0 0.5 0.1 0.7 0.2 0.2 0.1 0.5 0.2 0.6 0.3 0.2 0.1 0.4 0.2 0.6 0.3 0.1 0.1 0.4 0.3 0.6 0.4 0.1 0.1 0.4 0.4 0.6 0.6 0.2 0.2 0.5 0.5 0.6 0.6 0.1 0.2 0.3 0.5 0.4 0.7 0.2 0.2 0.3 0.5 0.4 0.7 0.1 0.2 0.2 0.5 0.3 0.6 0 0.2 0.1 0.4 0.1 0.6 0.1 0.2 0.1 0.5 0.1 0.7 0.1 0.1 0.1 0.6 0.1 0.9 0 0.3 0 0.7-0.1 1 0 0.2-0.1 0.5-0.1 0.7-0.1 0.1-0.2 0.4-0.2 0.6-0.1 0.2-0.2 0.5-0.3 0.6-0.1 0.2-0.2 0.5-0.3 0.6-0.1 0.2-0.3 0.4-0.4 0.6-0.1 0.2-0.4 0.5-0.6 0.6-0.2 0.2-0.5 0.5-0.6 0.6-0.2 0.1-0.4 0.3-0.6 0.4-0.1 0.1-0.4 0.2-0.6 0.3-0.2 0.1-0.4 0.2-0.6 0.3-0.1 0-0.4 0.1-0.6 0.2-0.2 0-0.5 0.1-0.7 0.1-0.2 0.1-0.6 0.1-0.8 0.1-0.1 0-0.5 0-0.8 0-0.2 0-0.6-0.1-0.8-0.1-0.3-0.1-0.6-0.2-0.9-0.2-0.2-0.1-0.6-0.3-0.8-0.4-0.3-0.1-0.5-0.3-0.7-0.4l-0.2-0.1-3.9 3.9v14q0.8 0.3 1.2 0.5c0.3 0.2 0.7 0.4 0.9 0.6 0.2 0.1 0.6 0.4 0.8 0.7 0.3 0.3 0.6 0.7 0.8 0.9 0.1 0.2 0.3 0.6 0.5 0.8 0.1 0.3 0.3 0.7 0.4 0.9 0 0.2 0.1 0.6 0.2 0.8 0.1 0.4 0.1 0.6 0.1 1.4 0 0.8 0 0.9-0.1 1.3-0.1 0.3-0.2 0.6-0.2 0.9-0.1 0.2-0.2 0.5-0.3 0.6l-0.1 0.2 13.1 13 0.6 1.4v7.8q0.7 0 1 0.1c0.2 0 0.6 0.1 0.8 0.2 0.2 0.1 0.6 0.2 0.7 0.3 0.2 0.1 0.5 0.3 0.6 0.3 0.1 0.1 0.4 0.3 0.6 0.4 0.2 0.2 0.5 0.5 0.7 0.7 0.2 0.2 0.5 0.5 0.7 0.7 0.1 0.2 0.4 0.6 0.5 0.9 0.2 0.3 0.3 0.7 0.4 0.9 0.1 0.3 0.2 0.6 0.2 0.8 0.1 0.2 0.1 0.6 0.2 0.9 0 0.4 0 0.7 0 1-0.1 0.3-0.1 0.7-0.2 0.9 0 0.2-0.1 0.6-0.2 0.8 0 0.2-0.2 0.6-0.3 0.8-0.1 0.3-0.3 0.5-0.4 0.7l-0.1 0.2 11.8 11.8v-4l1.2-2.8 16.9-16.9v-11.1l-14.5-14.6-0.7-1.7v-22.7l-14-14q-0.6 0.2-1.1 0.3c-0.4 0.1-0.5 0.1-1.3 0.1-0.8 0-0.9 0-1.4-0.1-0.3 0-0.6-0.1-0.8-0.2-0.2-0.1-0.6-0.2-0.9-0.4-0.3-0.1-0.7-0.4-0.9-0.5-0.2-0.1-0.5-0.4-0.6-0.5-0.2-0.2-0.4-0.4-0.6-0.6-0.1-0.2-0.4-0.5-0.5-0.7-0.1-0.2-0.3-0.5-0.4-0.7-0.1-0.2-0.3-0.6-0.4-0.9 0-0.3-0.1-0.7-0.2-0.9 0-0.3-0.1-0.6-0.1-1.3 0-0.7 0.1-0.9 0.1-1.2 0.1-0.3 0.2-0.6 0.2-0.8 0.1-0.2 0.3-0.6 0.4-0.8 0.1-0.3 0.3-0.6 0.5-0.9 0.1-0.2 0.4-0.6 0.5-0.7 0.2-0.2 0.4-0.4 0.5-0.5 0.1-0.1 0.4-0.3 0.6-0.5 0.2-0.2 0.6-0.4 1-0.6 0.3-0.1 0.7-0.3 0.8-0.3 0.2-0.1 0.5-0.2 0.7-0.2 0.2-0.1 0.7-0.1 1-0.2 0.4 0 0.6 0 1 0 0.3 0.1 0.7 0.1 1 0.2 0.2 0 0.6 0.1 0.8 0.2 0.1 0.1 0.5 0.2 0.7 0.3 0.3 0.2 0.6 0.3 0.7 0.4 0.1 0.1 0.3 0.2 0.4 0.3 0.2 0.2 0.5 0.4 0.7 0.6 0.1 0.2 0.4 0.5 0.6 0.7 0.2 0.3 0.5 0.7 0.6 1 0.1 0.3 0.3 0.7 0.4 0.9 0.1 0.2 0.2 0.6 0.2 0.8 0.1 0.3 0.1 0.7 0.1 0.9 0 0.3 0 0.7 0 1 0 0.2 0 0.6-0.1 0.8 0 0.3-0.1 0.6-0.2 0.9-0.1 0.2-0.2 0.5-0.3 0.6l-0.1 0.3 14.5 14.5 0.7 1.7v22.7l10.4 10.4v-41.9l1.1-2.7 16.3-16.2c-0.2-0.5-0.3-0.8-0.3-1-0.1-0.1-0.1-0.4-0.2-0.7q0-0.4-0.1-1.3c0-0.6 0-0.9 0.1-1.3 0-0.3 0.1-0.8 0.1-1.1 0.1-0.2 0.2-0.6 0.3-0.9 0.1-0.2 0.3-0.7 0.4-0.9 0.1-0.3 0.3-0.7 0.5-1 0.1-0.2 0.4-0.6 0.5-0.9 0.2-0.2 0.5-0.6 0.8-0.8 0.2-0.2 0.6-0.6 0.8-0.7 0.2-0.2 0.5-0.5 0.7-0.6 0.3-0.2 0.6-0.4 0.8-0.5 0.3-0.1 0.6-0.3 0.8-0.4 0.1-0.1 0.5-0.2 0.7-0.3 0.2 0 0.6-0.2 0.9-0.2 0.3-0.1 0.7-0.2 0.9-0.2 0.4-0.1 0.7-0.1 1.4-0.1 0.7 0 1 0 1.5 0.1 0.3 0 0.8 0.1 1 0.2 0.3 0.1 0.8 0.2 1 0.3 0.3 0.1 0.7 0.3 1 0.5 0.2 0.1 0.6 0.3 0.8 0.5 0.2 0.1 0.5 0.3 0.8 0.5 0.2 0.2 0.5 0.5 0.8 0.7 0.2 0.3 0.5 0.6 0.6 0.8 0.2 0.2 0.4 0.5 0.6 0.7 0.1 0.2 0.3 0.6 0.4 0.8 0.2 0.2 0.3 0.6 0.4 0.9 0.1 0.2 0.3 0.6 0.4 0.8 0 0.3 0.1 0.7 0.2 1 0.1 0.3 0.1 0.8 0.1 1.1 0.1 0.3 0.1 0.8 0.1 1.1 0 0.4-0.1 0.8-0.1 1.1-0.1 0.2-0.1 0.6-0.2 0.9-0.1 0.3-0.2 0.7-0.3 0.9-0.1 0.3-0.3 0.8-0.4 1.1-0.2 0.3-0.4 0.7-0.6 0.9-0.1 0.2-0.3 0.6-0.5 0.8-0.1 0.1-0.5 0.5-0.8 0.8-0.3 0.3-0.7 0.7-1 0.9-0.2 0.2-0.6 0.4-0.8 0.6-0.2 0.1-0.5 0.3-0.7 0.3-0.1 0.1-0.5 0.3-0.8 0.4-0.3 0.1-0.8 0.3-1.1 0.3-0.3 0.1-0.7 0.2-1 0.2-0.3 0.1-0.7 0.1-1.4 0.1-0.8 0-1.1 0-1.4-0.1-0.3 0-0.7-0.1-1-0.2-0.3 0-0.7-0.2-1-0.3l-0.5-0.1-14.8 14.8v59.9l-1.2 2.7-16.9 17v17.9l23.4-23.4v-22.3l0.5-1.4 7.9-7.9c-0.2-0.5-0.4-0.9-0.5-1.1 0-0.2-0.1-0.6-0.2-0.8-0.1-0.4-0.1-0.6-0.1-1.4 0-0.8 0-0.9 0.1-1.3 0.1-0.3 0.2-0.6 0.2-0.9 0.1-0.2 0.3-0.6 0.4-0.8 0.2-0.3 0.4-0.7 0.5-0.9 0.2-0.2 0.5-0.6 0.8-0.9 0.2-0.2 0.6-0.6 0.8-0.7 0.2-0.2 0.6-0.4 0.8-0.5 0.3-0.1 0.6-0.3 0.8-0.4 0.2 0 0.7-0.1 0.9-0.2 0.5-0.1 0.6-0.1 1.5-0.1 0.7 0 0.9 0 1.3 0.1 0.2 0 0.6 0.1 0.8 0.2 0.2 0.1 0.5 0.2 0.8 0.3l0.3 0.2 5.5-5.5v-16c-0.5-0.1-0.8-0.3-1-0.3-0.2-0.1-0.4-0.3-0.6-0.4-0.2-0.1-0.5-0.3-0.7-0.5-0.2-0.1-0.5-0.4-0.6-0.6-0.2-0.2-0.5-0.4-0.6-0.6-0.1-0.1-0.2-0.3-0.3-0.5-0.2-0.2-0.3-0.5-0.4-0.7-0.1-0.3-0.2-0.5-0.3-0.7 0-0.1-0.1-0.4-0.2-0.5 0-0.2-0.1-0.5-0.1-0.7 0-0.1 0-0.6 0-1 0-0.4 0-0.8 0-1 0-0.2 0.1-0.4 0.1-0.6 0.1-0.2 0.2-0.5 0.2-0.7 0.1-0.1 0.2-0.4 0.3-0.6 0.1-0.2 0.2-0.4 0.3-0.6 0.1-0.1 0.3-0.3 0.4-0.5 0-0.1 0.2-0.4 0.4-0.5 0.1-0.2 0.4-0.4 0.6-0.6 0.2-0.2 0.5-0.4 0.7-0.5 0.2-0.2 0.5-0.4 0.7-0.5 0.2-0.1 0.5-0.2 0.7-0.3 0.2 0 0.6-0.1 0.8-0.2 0.3 0 0.6-0.1 0.8-0.1 0.2 0 0.6-0.1 0.7-0.1 0.2 0 0.5 0.1 0.7 0.1 0.2 0 0.6 0.1 0.8 0.1 0.3 0.1 0.6 0.2 0.8 0.3 0.2 0 0.5 0.2 0.7 0.2 0.2 0.1 0.4 0.3 0.5 0.3 0.2 0.1 0.4 0.3 0.5 0.4 0.2 0.1 0.4 0.2 0.5 0.4 0.2 0.1 0.4 0.4 0.6 0.6 0.2 0.1 0.4 0.4 0.5 0.6 0.1 0.2 0.3 0.5 0.4 0.7 0.1 0.2 0.3 0.6 0.4 0.7 0 0.2 0.1 0.6 0.2 0.8 0 0.2 0.1 0.5 0.1 0.7 0.1 0.1 0.1 0.6 0.1 0.9 0 0.4 0 0.8-0.1 1 0 0.2-0.1 0.5-0.1 0.7-0.1 0.2-0.2 0.5-0.2 0.7-0.1 0.2-0.2 0.5-0.3 0.6-0.1 0.2-0.3 0.6-0.4 0.8-0.2 0.2-0.4 0.5-0.6 0.7-0.2 0.2-0.4 0.4-0.6 0.6-0.1 0.1-0.4 0.3-0.5 0.4-0.1 0.1-0.3 0.2-0.5 0.3-0.1 0.1-0.3 0.2-0.5 0.3-0.1 0.1-0.4 0.2-0.6 0.3l-0.4 0.1v16.9l-0.6 1.3-6 6c0.2 0.6 0.3 0.9 0.4 1.1 0.1 0.2 0.2 0.6 0.2 0.8 0 0.2 0.1 0.6 0.1 0.8 0 0.3 0 0.7 0 1 0 0.2-0.1 0.6-0.1 0.9 0 0.2-0.1 0.5-0.2 0.7-0.1 0.2-0.2 0.6-0.3 0.8-0.1 0.3-0.3 0.6-0.4 0.8-0.2 0.2-0.4 0.5-0.5 0.6-0.1 0.2-0.4 0.5-0.6 0.6-0.2 0.2-0.5 0.5-0.7 0.7-0.2 0.1-0.6 0.3-0.9 0.5-0.3 0.1-0.7 0.3-0.9 0.4-0.2 0-0.6 0.1-0.8 0.2-0.4 0-0.5 0.1-1.4 0.1-0.8 0-0.9-0.1-1.4-0.2-0.3 0-0.7-0.1-0.9-0.2-0.2-0.1-0.4-0.2-0.6-0.3l-0.2-0.1-7.4 7.4v22.3l-0.5 1.3-26.7 26.8v49.8l12.7-12.6c0-23.2 0-30 0-30 0.1-0.1 0-0.1-0.3-0.3-0.2-0.1-0.5-0.3-0.7-0.4-0.2-0.2-0.5-0.4-0.7-0.5-0.1-0.1-0.4-0.4-0.6-0.6-0.2-0.2-0.5-0.5-0.7-0.7-0.1-0.2-0.4-0.5-0.5-0.7-0.1-0.2-0.4-0.6-0.5-0.9-0.2-0.3-0.4-0.7-0.5-1 0-0.3-0.2-0.6-0.2-0.9-0.1-0.2-0.1-0.6-0.2-0.9 0-0.2 0-0.7 0-1.1 0-0.4 0-0.8 0-1 0-0.2 0.1-0.5 0.1-0.7 0-0.2 0.1-0.5 0.2-0.8 0.1-0.3 0.2-0.7 0.3-0.9 0.1-0.2 0.3-0.6 0.4-0.8 0.1-0.2 0.3-0.5 0.4-0.7 0.2-0.2 0.4-0.5 0.6-0.7 0.1-0.2 0.4-0.5 0.6-0.7 0.2-0.2 0.5-0.4 0.6-0.5 0.1-0.1 0.4-0.4 0.7-0.5 0.2-0.2 0.7-0.4 1-0.6 0.3-0.1 0.7-0.3 1-0.4 0.3-0.1 0.7-0.2 1-0.3 0.3 0 0.7-0.1 0.9-0.1 0.2 0 0.6 0 0.8 0 0.3 0 0.7 0 0.9 0 0.2 0 0.7 0.1 0.9 0.1 0.3 0.1 0.7 0.2 1 0.3 0.3 0.1 0.8 0.3 1.1 0.5 0.3 0.1 0.7 0.3 0.9 0.5 0.2 0.1 0.6 0.4 0.8 0.5 0.2 0.2 0.5 0.5 0.7 0.7 0.2 0.2 0.5 0.6 0.6 0.7 0.2 0.2 0.4 0.5 0.5 0.7 0.1 0.2 0.3 0.6 0.5 0.9 0.1 0.3 0.3 0.7 0.4 1 0.1 0.3 0.2 0.7 0.3 0.9 0 0.2 0.1 0.6 0.1 0.8 0 0.3 0.1 0.7 0.1 1.1 0 0.3-0.1 0.7-0.1 0.9 0 0.2-0.1 0.6-0.1 0.8-0.1 0.2-0.2 0.7-0.3 1-0.1 0.3-0.3 0.8-0.4 1-0.1 0.2-0.3 0.6-0.4 0.8-0.1 0.2-0.3 0.5-0.5 0.7-0.1 0.2-0.4 0.5-0.5 0.7-0.2 0.1-0.5 0.4-0.7 0.6-0.2 0.2-0.5 0.5-0.7 0.6-0.2 0.1-0.5 0.3-0.8 0.5-0.2 0.1-0.4 0.2-0.4 0.2 0 0 0 0.1 0.1 0.2 0 0.2 0 3.1 0 11.2l0.1 11 13.1-13.2c-0.2-0.7-0.4-1.1-0.4-1.3-0.1-0.3-0.1-0.6-0.2-0.9 0-0.2-0.1-0.6-0.1-0.9 0-0.4 0-0.8 0.1-1.1 0-0.3 0-0.7 0.1-0.9 0-0.3 0.1-0.7 0.2-0.9 0.1-0.3 0.2-0.7 0.4-1 0.1-0.2 0.3-0.6 0.4-0.9 0.1-0.2 0.4-0.6 0.6-0.8 0.1-0.2 0.4-0.6 0.6-0.8 0.2-0.2 0.6-0.5 0.8-0.7 0.2-0.2 0.6-0.4 0.8-0.6 0.3-0.1 0.7-0.4 0.9-0.5l0.5-0.2v-43.3l1.1-2.7 27.7-27.7v-28.5q-0.6-0.3-0.9-0.5c-0.2-0.1-0.5-0.3-0.7-0.5-0.2-0.1-0.6-0.4-0.8-0.6-0.2-0.2-0.5-0.6-0.7-0.8-0.2-0.2-0.4-0.5-0.5-0.7-0.2-0.2-0.4-0.5-0.5-0.7-0.1-0.2-0.3-0.6-0.3-0.7-0.1-0.2-0.2-0.5-0.3-0.7-0.1-0.2-0.2-0.6-0.2-0.8 0-0.1-0.1-0.5-0.1-0.7-0.1-0.3-0.1-0.7-0.1-1.2q0-0.7 0.1-1.2c0-0.3 0.1-0.7 0.2-1 0-0.3 0.2-0.7 0.3-1 0.1-0.3 0.3-0.7 0.4-0.9 0.1-0.2 0.3-0.6 0.4-0.7 0.1-0.2 0.3-0.5 0.5-0.7 0.2-0.2 0.4-0.5 0.6-0.6 0.1-0.2 0.4-0.5 0.6-0.6 0.2-0.2 0.6-0.4 0.8-0.6 0.2-0.2 0.7-0.4 1-0.6 0.3-0.1 0.8-0.3 1-0.4 0.3-0.1 0.8-0.2 1-0.3 0.3 0 0.7-0.1 0.9-0.1 0.2 0 0.6 0 0.9 0 0.2 0 0.6 0 0.8 0 0.3 0 0.7 0.1 0.9 0.1 0.3 0.1 0.7 0.2 1 0.3 0.3 0.1 0.8 0.3 1 0.4 0.2 0.1 0.6 0.3 0.8 0.4 0.2 0.1 0.6 0.4 0.8 0.5 0.2 0.2 0.5 0.5 0.7 0.7 0.3 0.2 0.6 0.6 0.8 0.8 0.1 0.2 0.4 0.5 0.5 0.7 0.1 0.2 0.3 0.5 0.4 0.8 0.1 0.2 0.3 0.6 0.4 0.8 0.1 0.3 0.2 0.7 0.3 0.9 0.1 0.2 0.1 0.6 0.2 0.8 0 0.3 0.1 0.8 0.1 1.2 0 0.6 0 0.9-0.1 1.3 0 0.3-0.1 0.7-0.1 0.9 0 0.2-0.2 0.6-0.3 0.9-0.1 0.2-0.2 0.7-0.4 0.9-0.1 0.3-0.3 0.7-0.4 0.9-0.1 0.2-0.4 0.5-0.5 0.7-0.2 0.2-0.5 0.6-0.8 0.8-0.2 0.3-0.6 0.6-0.9 0.8-0.2 0.2-0.5 0.4-0.7 0.5l-0.4 0.2v30.4l-1.1 2.8-27.7 27.6v12.8l17.2-17.1 1.7-0.7h10.6l13.2-13.2q-0.1-0.3-0.2-0.6c-0.1-0.2-0.2-0.5-0.2-0.7-0.1-0.2-0.1-0.7-0.1-0.9-0.1-0.4-0.1-0.7 0-1.1 0-0.3 0-0.6 0.1-0.8 0-0.2 0.1-0.6 0.2-0.8 0.1-0.3 0.2-0.7 0.4-1 0.1-0.2 0.3-0.6 0.4-0.7 0.2-0.2 0.4-0.5 0.5-0.7 0.2-0.1 0.4-0.4 0.6-0.5 0.1-0.1 0.4-0.4 0.6-0.5 0.2-0.2 0.6-0.4 0.9-0.5 0.3-0.2 0.7-0.3 0.9-0.4 0.2-0.1 0.6-0.2 0.8-0.2 0.4-0.1 0.6-0.1 1.3-0.1 0.7 0 0.9 0 1.3 0.1 0.3 0 0.6 0.1 0.8 0.2 0.2 0.1 0.6 0.2 0.9 0.3 0.2 0.2 0.6 0.4 0.7 0.5 0.2 0.1 0.5 0.3 0.7 0.5 0.2 0.2 0.5 0.5 0.7 0.6 0.1 0.2 0.4 0.5 0.5 0.7 0.2 0.2 0.4 0.6 0.5 0.8 0.1 0.3 0.3 0.7 0.3 0.9 0.1 0.2 0.2 0.6 0.2 0.7 0.1 0.2 0.1 0.5 0.1 0.7 0.1 0.2 0.1 0.5 0.1 0.8 0 0.2 0 0.6-0.1 0.8 0 0.3-0.1 0.6-0.1 0.8-0.1 0.3-0.2 0.6-0.3 0.8 0 0.1-0.2 0.4-0.3 0.6-0.1 0.2-0.2 0.5-0.4 0.7-0.1 0.1-0.3 0.4-0.4 0.6-0.2 0.2-0.4 0.5-0.6 0.6-0.2 0.2-0.5 0.4-0.7 0.6-0.2 0.1-0.5 0.3-0.8 0.5-0.3 0.1-0.6 0.3-0.9 0.3-0.2 0.1-0.5 0.2-0.8 0.3-0.2 0-0.6 0.1-0.9 0.1-0.4 0-0.6 0-1 0-0.3 0-0.7-0.1-0.8-0.1-0.2-0.1-0.5-0.1-0.6-0.2-0.2 0-0.4-0.1-0.6-0.2l-0.3-0.1-13.9 13.9-1.7 0.7h-10.6l-19.9 19.9v22.5c0.6 0.4 0.9 0.6 1.1 0.8 0.2 0.1 0.5 0.3 0.6 0.5 0.2 0.1 0.4 0.4 0.6 0.6 0.2 0.2 0.4 0.6 0.6 0.8 0.1 0.2 0.4 0.6 0.5 0.9 0.1 0.2 0.3 0.6 0.4 0.9 0.1 0.2 0.2 0.6 0.3 0.9 0 0.2 0.1 0.6 0.2 0.9 0 0.3 0 0.7 0 1.2q0 0.8 0 1.3c-0.1 0.2-0.2 0.6-0.2 0.9-0.1 0.2-0.2 0.6-0.3 0.8 0 0.2-0.2 0.6-0.3 0.9-0.2 0.2-0.4 0.7-0.6 0.9-0.1 0.2-0.4 0.6-0.5 0.8-0.2 0.2-0.5 0.5-0.7 0.7-0.2 0.1-0.4 0.4-0.6 0.5-0.2 0.1-0.4 0.4-0.6 0.5-0.2 0.1-0.5 0.3-0.7 0.4-0.2 0.1-0.5 0.3-0.8 0.4-0.2 0-0.5 0.2-0.7 0.2-0.2 0.1-0.5 0.2-0.8 0.2-0.3 0.1-0.7 0.2-1 0.2-0.3 0-0.7 0.1-0.9 0.1-0.1 0-0.5-0.1-0.8-0.1-0.3 0-0.7-0.1-0.9-0.1l-0.3-0.1-39.6 39.6v135.9c0.9 0 1.7 0 2.4 0 0.7-0.1 1.9-0.1 2.6-0.1 0.8-0.1 1.9-0.1 2.5-0.2 0.6 0 1.6-0.1 2.2-0.1 0.7 0 1.7-0.1 2.4-0.2 0.7 0 1.8-0.1 2.5-0.2 0.7-0.1 1.8-0.2 2.4-0.2 0.7-0.1 1.8-0.2 2.5-0.3 0.7-0.1 1.9-0.3 2.5-0.3 0.7-0.1 1.8-0.3 2.5-0.4 0.6-0.1 1.7-0.2 2.3-0.3 0.7-0.1 1.7-0.3 2.3-0.4 0.7-0.1 1.6-0.3 2.2-0.4 0.5-0.1 1.6-0.3 2.3-0.4 0.7-0.2 1.8-0.4 2.4-0.5 0.6-0.2 1.7-0.4 2.4-0.6 0.7-0.1 1.8-0.4 2.4-0.5 0.6-0.1 1.7-0.4 2.5-0.6 0.7-0.2 1.8-0.5 2.4-0.6 0.6-0.2 1.5-0.4 2-0.6 0.5-0.1 1.4-0.4 1.9-0.5 0.5-0.2 1.6-0.5 2.4-0.7 0.7-0.2 1.8-0.6 2.3-0.7 0.4-0.2 1.5-0.5 2.2-0.7 0.8-0.3 1.9-0.7 2.6-0.9 0.7-0.2 1.7-0.6 2.2-0.8 0.6-0.2 1.5-0.5 2.1-0.8 0.6-0.2 1.7-0.6 2.3-0.8 0.7-0.3 1.8-0.7 2.4-1 0.7-0.2 1.6-0.6 2.2-0.8 0.5-0.3 1.3-0.6 1.9-0.8 0.5-0.3 1.5-0.7 2.1-1 0.7-0.3 1.7-0.7 2.2-1 0.6-0.2 1.5-0.7 2.1-0.9 0.6-0.3 1.9-0.9 2.9-1.4 1-0.5 2.3-1.2 3-1.6 0.7-0.3 1.6-0.8 2.1-1.1 0.5-0.2 1.4-0.7 2-1 0.5-0.3 1.5-0.9 2.1-1.2 0.6-0.4 1.5-0.9 2-1.2 0.5-0.2 1.4-0.8 2.1-1.2 0.6-0.4 1.6-1 2.2-1.3 0.6-0.4 1.5-1 2.1-1.3 0.6-0.4 1.4-0.9 1.8-1.2 0.5-0.3 1.3-0.9 1.9-1.2 0.6-0.4 1.6-1.1 2.3-1.6 0.7-0.5 1.8-1.3 2.5-1.8 0.7-0.5 1.9-1.3 2.7-1.9 0.8-0.6 2-1.5 2.6-2 0.7-0.5 1.8-1.4 2.6-2 0.7-0.5 1.8-1.4 2.5-2 0.7-0.5 1.8-1.5 2.5-2.1 0.8-0.6 1.9-1.6 2.5-2.1 0.6-0.6 1.6-1.5 2.2-2 0.5-0.5 1.4-1.3 1.9-1.7 0.5-0.5 1.5-1.4 2.2-2.1 0.7-0.6 1.9-1.9 2.8-2.8 0.9-0.8 2.1-2.1 2.8-2.8 0.7-0.8 1.7-1.8 2.1-2.3 0.5-0.5 1.3-1.4 1.8-1.9 0.5-0.6 1.4-1.6 2-2.2 0.5-0.6 1.4-1.7 2-2.4 0.6-0.6 1.5-1.7 2-2.4 0.6-0.7 1.5-1.8 2.1-2.6 0.6-0.7 1.5-1.9 2.1-2.6 0.5-0.7 1.4-1.9 2-2.7 0.6-0.8 1.5-2 1.9-2.7 0.5-0.7 1.3-1.8 1.8-2.5 0.5-0.7 1.2-1.7 1.5-2.2 0.3-0.5 0.9-1.4 1.3-2 0.4-0.7 1-1.6 1.3-2.1 0.4-0.5 0.8-1.3 1.1-1.7 0.3-0.5 0.8-1.3 1.1-1.8 0.3-0.5 0.9-1.5 1.3-2.1 0.3-0.7 0.9-1.6 1.1-2.1 0.3-0.5 0.8-1.4 1.2-2 0.3-0.7 0.9-1.7 1.3-2.4 0.3-0.6 0.9-1.8 1.3-2.6 0.4-0.7 1.1-2 1.5-2.8 0.3-0.8 0.9-2 1.2-2.6 0.3-0.6 0.8-1.6 1.1-2.3 0.3-0.7 0.8-1.9 1.2-2.7 0.3-0.8 0.7-1.7 0.9-2 0.1-0.3 0.4-1 0.6-1.6 0.3-0.5 0.7-1.6 1-2.4 0.3-0.8 0.7-1.9 0.9-2.4 0.2-0.5 0.6-1.4 0.8-2 0.2-0.5 0.5-1.5 0.7-2 0.3-0.6 0.6-1.6 0.8-2.2 0.2-0.7 0.6-1.8 0.9-2.5 0.2-0.8 0.5-1.8 0.7-2.2 0.1-0.5 0.4-1.5 0.6-2.2 0.2-0.7 0.6-1.8 0.8-2.4 0.1-0.7 0.4-1.6 0.6-2.2 0.1-0.5 0.4-1.4 0.5-2 0.2-0.7 0.4-1.7 0.6-2.4 0.2-0.6 0.4-1.7 0.6-2.4 0.2-0.6 0.4-1.7 0.6-2.4 0.1-0.7 0.4-1.8 0.5-2.6 0.2-0.7 0.4-1.8 0.5-2.4 0.1-0.5 0.3-1.5 0.4-2.1 0.1-0.6 0.3-1.6 0.4-2.4 0.1-0.7 0.3-1.8 0.4-2.5 0.1-0.7 0.3-1.9 0.4-2.6 0.1-0.7 0.3-1.6 0.3-2.1 0.1-0.5 0.2-1.5 0.3-2.3 0.1-0.7 0.2-1.8 0.3-2.5 0-0.6 0.2-1.7 0.2-2.4 0.1-0.7 0.2-1.8 0.2-2.5 0.1-0.7 0.2-1.8 0.2-2.4 0.1-0.7 0.1-1.7 0.2-2.3 0-0.6 0-1.7 0.1-2.4 0-0.8 0.1-2 0.1-2.8 0-0.9 0-3.1 0-5.8 0-2.7 0-4.8 0-5.7 0-0.8-0.1-2.1-0.1-2.8-0.1-0.7-0.1-1.8-0.1-2.4-0.1-0.6-0.1-1.6-0.2-2.3 0-0.6-0.1-1.7-0.2-2.4 0-0.7-0.1-1.8-0.2-2.5 0-0.7-0.2-1.8-0.2-2.5-0.1-0.6-0.2-1.7-0.3-2.4-0.1-0.8-0.2-1.9-0.3-2.6-0.1-0.6-0.3-1.7-0.4-2.4-0.1-0.7-0.2-1.7-0.3-2.4-0.1-0.6-0.3-1.6-0.4-2.3-0.1-0.6-0.3-1.6-0.4-2.2-0.1-0.6-0.3-1.6-0.4-2.2-0.1-0.5-0.3-1.6-0.5-2.3-0.1-0.8-0.4-1.9-0.5-2.6-0.2-0.7-0.4-1.8-0.6-2.4-0.1-0.6-0.4-1.7-0.6-2.5-0.2-0.7-0.5-1.8-0.6-2.4-0.2-0.6-0.4-1.6-0.6-2.2-0.2-0.6-0.5-1.6-0.6-2.2-0.2-0.7-0.5-1.7-0.7-2.3-0.2-0.6-0.5-1.5-0.6-1.9-0.1-0.5-0.5-1.5-0.7-2.2-0.3-0.8-0.7-1.9-0.9-2.6-0.2-0.7-0.6-1.7-0.8-2.3-0.2-0.6-0.5-1.5-0.8-2.1-0.2-0.5-0.5-1.6-0.8-2.2-0.3-0.7-0.6-1.6-0.8-2.1-0.2-0.5-0.6-1.3-0.8-2-0.3-0.6-0.8-1.7-1.1-2.4-0.3-0.7-0.7-1.7-0.9-2.2-0.2-0.5-0.6-1.4-0.8-1.9-0.3-0.5-0.7-1.3-0.9-1.9-0.3-0.6-0.8-1.7-1.2-2.4-0.4-0.8-1.1-2.2-1.6-3.1-0.5-1-1.1-2.3-1.5-3-0.3-0.6-0.9-1.6-1.2-2.2-0.3-0.5-0.8-1.5-1.2-2.2-0.4-0.6-0.9-1.4-1.1-1.8-0.2-0.4-0.7-1.2-1-1.7-0.3-0.6-0.9-1.5-1.2-2.1-0.4-0.5-1-1.5-1.3-2.1-0.4-0.6-1.1-1.7-1.7-2.5-0.5-0.8-1.3-2-1.8-2.7-0.5-0.8-1.2-1.8-1.6-2.3-0.3-0.6-1-1.5-1.3-2-0.4-0.5-1-1.3-1.4-1.9-0.4-0.5-1-1.3-1.4-1.8-0.4-0.5-1-1.3-1.4-1.8-0.3-0.5-1-1.4-1.5-2-0.4-0.5-1.1-1.4-1.5-1.9-0.4-0.5-1.1-1.3-1.5-1.7-0.3-0.5-1-1.2-1.4-1.7-0.3-0.4-1-1.2-1.5-1.8-0.5-0.5-1.2-1.4-1.7-1.9-0.5-0.5-1.3-1.4-1.7-1.8-0.4-0.5-1.2-1.4-1.8-1.9-0.5-0.6-1.5-1.6-2.2-2.4-0.7-0.7-1.8-1.8-2.5-2.4-0.6-0.6-1.5-1.5-2-2-0.5-0.5-1.3-1.2-1.8-1.7-0.5-0.4-1.3-1.2-1.9-1.7-0.6-0.6-1.6-1.5-2.2-2-0.6-0.6-1.7-1.5-2.4-2-0.6-0.6-1.7-1.5-2.4-2.1-0.7-0.6-1.9-1.5-2.6-2.1-0.8-0.6-2-1.5-2.7-2.1-0.8-0.6-2-1.5-2.7-2-0.8-0.6-1.9-1.4-2.6-1.9-0.6-0.4-1.5-1.1-2-1.4-0.5-0.3-1.4-1-2.1-1.4-0.8-0.5-1.8-1.2-2.3-1.6-0.6-0.3-1.6-1-2.2-1.4-0.7-0.4-1.6-0.9-2-1.2-0.4-0.3-1.2-0.8-1.8-1.1-0.5-0.3-1.5-0.9-2.1-1.3-0.6-0.3-1.6-0.9-2.1-1.1-0.4-0.3-1.4-0.8-2-1.2-0.6-0.3-1.7-0.9-2.4-1.3-0.6-0.3-1.8-0.9-2.5-1.3-0.8-0.4-2.1-1.1-2.9-1.5-0.8-0.3-2.1-1-2.8-1.3-0.8-0.4-1.8-0.9-2.3-1.1-0.5-0.2-1.6-0.7-2.3-1-0.7-0.3-1.7-0.7-2-0.9-0.4-0.1-1.2-0.5-1.7-0.7-0.6-0.3-1.6-0.7-2.3-0.9-0.7-0.3-1.7-0.7-2.2-0.9-0.6-0.2-1.5-0.6-2.2-0.8-0.6-0.3-1.8-0.7-2.5-1-0.8-0.2-2.2-0.7-3.2-1-0.9-0.4-2.3-0.8-2.9-1-0.7-0.2-1.9-0.6-2.6-0.8-0.7-0.2-1.8-0.5-2.4-0.7-0.5-0.2-1.5-0.4-2.1-0.6-0.6-0.2-1.6-0.5-2.3-0.6-0.7-0.2-1.7-0.5-2.4-0.7-0.7-0.1-1.7-0.4-2.4-0.5-0.7-0.2-1.6-0.4-2.2-0.5-0.5-0.2-1.6-0.4-2.5-0.6-0.8-0.2-1.9-0.4-2.4-0.5-0.5-0.1-1.5-0.3-2.1-0.4-0.7-0.1-1.8-0.3-2.4-0.4-0.6-0.1-1.7-0.3-2.3-0.4-0.6-0.1-1.6-0.2-2.2-0.3-0.6-0.1-1.6-0.2-2.3-0.3-0.7-0.1-1.8-0.3-2.5-0.4-0.7 0-1.9-0.2-2.6-0.3-0.7 0-1.9-0.2-2.6-0.2-0.7-0.1-1.9-0.2-2.6-0.2-0.7-0.1-1.7-0.2-2.4-0.2-0.6-0.1-1.6-0.1-2.2-0.2-0.6 0-1.5 0-2-0.1-0.5 0-1.7 0-2.6-0.1-1 0-3 0-5.6 0-2.1 0-4.2 0-4.5 0zm-29.6 35.7c1.3 0 2.1 0.1 2.6 0.1 0.4 0 0.9 0.1 1.2 0.1 0.3 0.1 0.9 0.1 1.3 0.2 0.5 0.1 1.1 0.2 1.4 0.2 0.3 0.1 0.9 0.2 1.3 0.3 0.4 0.1 1.1 0.3 1.6 0.4 0.5 0.2 1.2 0.4 1.7 0.5 0.4 0.2 1.1 0.4 1.4 0.6 0.4 0.1 1 0.3 1.4 0.5 0.3 0.1 0.9 0.4 1.3 0.6 0.4 0.2 1.2 0.6 1.8 0.9 0.6 0.3 1.5 0.7 1.9 1 0.5 0.2 1.2 0.7 1.6 0.9 0.4 0.3 1.1 0.7 1.6 1 0.4 0.3 1.2 0.9 1.6 1.2 0.4 0.3 1.1 0.8 1.5 1.1 0.4 0.3 1.2 0.9 1.6 1.3 0.5 0.4 1.2 1 1.6 1.4 0.4 0.3 1.1 0.9 1.5 1.3 0.3 0.4 1.2 1.2 2.9 2.9l0.9-0.8c0.4-0.5 1.1-1.2 1.5-1.6 0.4-0.4 1.1-1 1.5-1.4 0.5-0.4 1.1-0.9 1.4-1.2 0.3-0.2 0.9-0.7 1.3-1.1 0.4-0.3 1.3-1 1.8-1.4 0.6-0.4 1.4-1 1.7-1.2 0.4-0.3 1.1-0.7 1.5-1 0.4-0.3 1-0.7 1.4-0.9 0.3-0.2 1-0.6 1.4-0.8 0.4-0.2 1.2-0.7 1.8-1 0.6-0.2 1.4-0.6 1.8-0.8 0.4-0.2 1.1-0.5 1.4-0.6 0.4-0.1 1.1-0.4 1.5-0.6 0.5-0.1 1.2-0.4 1.7-0.5 0.5-0.2 1.3-0.4 1.7-0.5 0.5-0.1 1.3-0.3 1.8-0.4 0.5-0.1 1.1-0.2 1.5-0.3 0.4 0 0.9-0.1 1.3-0.2 0.3 0 1-0.1 1.4-0.1 0.6-0.1 1.2-0.1 2.9-0.1 1.7 0 2.2 0 2.8 0.1 0.4 0 1 0.1 1.4 0.1 0.3 0.1 1 0.2 1.4 0.2 0.4 0.1 1.1 0.2 1.4 0.3 0.4 0.1 1 0.2 1.3 0.3 0.4 0.1 1 0.2 1.3 0.3 0.4 0.1 0.9 0.3 1.2 0.4 0.3 0.1 0.9 0.3 1.4 0.4 0.4 0.2 1.1 0.5 1.6 0.7 0.5 0.2 1.3 0.5 1.7 0.7 0.4 0.2 1.1 0.5 1.6 0.8 0.5 0.2 1.2 0.6 1.6 0.8 0.3 0.2 1 0.6 1.4 0.8 0.5 0.3 1.2 0.8 1.7 1.1 0.5 0.3 1.2 0.8 1.6 1.1 0.4 0.2 1 0.7 1.3 0.9 0.3 0.3 0.8 0.6 1 0.8 0.2 0.2 0.6 0.5 0.9 0.8 0.3 0.2 0.7 0.6 1 0.9 0.3 0.2 0.9 0.8 1.4 1.2 0.5 0.5 1 0.9 1.2 1.1 0.1 0.1 0.4 0.3 0.9 0.8l0.8-0.2c0.5-0.1 1.1-0.2 1.4-0.2 0.2-0.1 0.8-0.2 1.2-0.3 0.5 0 1.3-0.2 1.8-0.2 0.5-0.1 1.3-0.2 1.8-0.2 0.5-0.1 1.2-0.1 1.6-0.1 0.4-0.1 1.6-0.1 2.5-0.1 1.1 0 2 0 2.4 0.1 0.4 0 0.9 0 1.3 0.1 0.3 0 0.9 0.1 1.4 0.1 0.4 0.1 1.1 0.2 1.5 0.3 0.4 0.1 1.1 0.2 1.6 0.4 0.4 0.1 1.1 0.3 1.6 0.4 0.4 0.2 0.9 0.3 1.2 0.4 0.2 0.1 0.6 0.3 0.9 0.4 0.2 0.1 0.7 0.3 1.1 0.5 0.4 0.2 1 0.5 1.3 0.7 0.3 0.2 0.8 0.5 1 0.6 0.3 0.2 0.7 0.5 1 0.6 0.2 0.2 0.6 0.5 0.9 0.7 0.2 0.2 0.6 0.5 0.9 0.8 0.3 0.3 0.9 0.8 1.3 1.1 0.3 0.4 0.8 0.9 1 1.2 0.3 0.2 0.6 0.6 0.8 0.9 0.2 0.2 0.6 0.7 0.8 1 0.2 0.4 0.6 0.9 0.8 1.2 0.2 0.3 0.5 0.8 0.7 1.1 0.1 0.3 0.5 0.9 0.7 1.4 0.2 0.4 0.5 1 0.6 1.3 0.2 0.3 0.4 0.9 0.6 1.3 0.1 0.3 0.3 1 0.5 1.4 0.1 0.4 0.3 1.1 0.5 1.5 0.1 0.4 0.2 1.1 0.3 1.4 0.1 0.4 0.3 1 0.3 1.3 0.1 0.4 0.2 1 0.3 1.5 0.1 0.4 0.2 1.1 0.3 1.5 0 0.4 0.1 1 0.1 1.4 0.1 0.4 0.1 1.1 0.2 1.6 0 0.4 0.1 1.2 0.1 1.8 0 0.5 0 1 0 1 0 0 0.2 0.1 0.4 0.1 0.2 0.1 0.7 0.3 1 0.4 0.3 0.1 0.8 0.4 1.1 0.5 0.3 0.2 0.8 0.5 1.1 0.6 0.2 0.2 0.6 0.4 0.9 0.6 0.2 0.1 0.6 0.4 0.8 0.6 0.2 0.1 0.6 0.5 0.9 0.7 0.2 0.2 0.7 0.7 1.1 1.1 0.4 0.3 0.9 0.9 1.1 1.1 0.3 0.3 0.6 0.7 0.8 1 0.1 0.2 0.4 0.6 0.6 0.9 0.2 0.2 0.5 0.7 0.7 0.9 0.1 0.3 0.4 0.8 0.6 1.1 0.2 0.3 0.4 0.8 0.5 1 0.1 0.2 0.3 0.6 0.5 0.9 0.1 0.4 0.3 1 0.5 1.3 0.1 0.4 0.4 1 0.5 1.3 0.1 0.4 0.3 1 0.4 1.3 0.1 0.3 0.2 0.9 0.3 1.3q0.2 0.6 0.3 1.3l1.3 0.5c0.7 0.2 1.6 0.5 2.1 0.7 0.4 0.2 1.1 0.4 1.4 0.6 0.3 0.1 1 0.4 1.5 0.7 0.6 0.3 1.2 0.6 1.5 0.7 0.2 0.2 0.8 0.5 1.2 0.7 0.3 0.3 1 0.7 1.3 0.9 0.4 0.3 1 0.7 1.4 1 0.4 0.3 1 0.7 1.3 1 0.4 0.3 0.9 0.8 1.2 1.1 0.3 0.3 0.9 0.8 1.2 1.1 0.3 0.4 0.8 0.9 1 1.1 0.2 0.3 0.5 0.7 0.7 0.8 0.2 0.2 0.4 0.6 0.6 0.8 0.2 0.3 0.5 0.6 0.7 0.9 0.1 0.2 0.5 0.7 0.7 1.1 0.3 0.4 0.6 1 0.8 1.3 0.2 0.3 0.5 0.8 0.7 1.1 0.1 0.3 0.4 0.8 0.6 1.2 0.2 0.4 0.4 0.9 0.5 1.2 0.1 0.2 0.3 0.7 0.5 1.1 0.1 0.3 0.3 0.9 0.5 1.3 0.1 0.5 0.4 1.1 0.5 1.5 0.1 0.4 0.3 1.1 0.4 1.5 0.1 0.4 0.3 1.1 0.4 1.4 0 0.4 0.2 1.1 0.3 1.5 0 0.4 0.1 1 0.2 1.4 0.1 0.4 0.1 1 0.2 1.5 0.1 0.4 0.1 1.2 0.2 1.6 0 0.4 0 1.1 0.1 1.5 0 0.4 0 1.5 0 4l0.1 0.2c0.1 0.1 0.2 0.2 0.2 0.3 0.1 0 0.3 0.1 0.6 0.2 0.2 0.1 0.7 0.2 1.1 0.4 0.4 0.1 1.1 0.4 1.5 0.6 0.4 0.2 1.2 0.5 1.8 0.8 0.6 0.3 1.3 0.7 1.6 0.9 0.4 0.2 0.9 0.5 1.2 0.7 0.3 0.1 0.9 0.5 1.3 0.7 0.3 0.3 0.9 0.7 1.2 0.9 0.3 0.2 0.7 0.6 0.9 0.7 0.2 0.2 0.6 0.5 0.9 0.8 0.2 0.2 0.8 0.7 1.1 1.1 0.4 0.4 0.9 0.9 1.1 1.2 0.2 0.2 0.6 0.7 0.8 1 0.2 0.2 0.5 0.7 0.7 1 0.2 0.2 0.5 0.7 0.7 1.1 0.2 0.3 0.5 0.8 0.6 1.1 0.2 0.3 0.4 0.7 0.5 1 0.1 0.3 0.3 0.7 0.4 1 0.2 0.4 0.4 0.9 0.5 1.2 0.1 0.4 0.2 0.9 0.3 1.2 0.1 0.3 0.2 0.8 0.2 1.1 0.1 0.2 0.2 0.7 0.2 1.1 0.1 0.3 0.2 0.9 0.2 1.2 0 0.4 0.1 1.1 0.1 1.6q0 0.9 0 1.9c0 0.5-0.1 1.2-0.1 1.4 0 0.3-0.1 0.8-0.1 1.2 0 0.3-0.1 1-0.2 1.5-0.1 0.4-0.2 1.1-0.3 1.5-0.1 0.3-0.2 1-0.3 1.4-0.1 0.4-0.3 1.1-0.5 1.5-0.1 0.4-0.3 1.1-0.5 1.6-0.1 0.4-0.4 1.2-0.6 1.7-0.1 0.4-0.5 1.2-0.7 1.7-0.2 0.4-0.5 1.1-0.6 1.5-0.2 0.3-0.5 1-0.7 1.4-0.3 0.4-0.6 1.1-0.8 1.5-0.2 0.4-0.6 1-0.7 1.3-0.2 0.3-0.5 0.8-1.1 1.7l0.2 0.2c0.2 0.1 0.5 0.5 0.9 0.8 0.3 0.3 0.9 0.9 1.3 1.3 0.5 0.4 1.1 1 1.4 1.4 0.3 0.3 0.8 0.9 1 1.2 0.3 0.3 0.8 0.9 1 1.2 0.3 0.3 0.7 0.9 0.9 1.2 0.2 0.3 0.6 0.9 0.8 1.2 0.2 0.4 0.6 1 0.8 1.4 0.2 0.4 0.5 0.9 0.6 1.2 0.2 0.2 0.4 0.7 0.5 1 0.2 0.4 0.4 1 0.6 1.4 0.1 0.3 0.3 0.9 0.4 1.3 0.2 0.3 0.4 1 0.5 1.5 0.1 0.5 0.3 1.2 0.3 1.5 0.1 0.4 0.1 0.8 0.2 1 0 0.2 0.1 0.7 0.1 1 0 0.3 0.1 1 0.1 1.5 0 0.8 0 1.3 0 2 0 0.6-0.1 1.3-0.1 1.6 0 0.3-0.1 0.9-0.1 1.2-0.1 0.3-0.2 0.8-0.3 1.2 0 0.4-0.2 1-0.2 1.3-0.1 0.4-0.3 0.9-0.4 1.2-0.1 0.3-0.2 0.9-0.3 1.2-0.2 0.4-0.4 0.9-0.5 1.3-0.1 0.3-0.4 0.9-0.5 1.3-0.2 0.4-0.5 1.1-0.8 1.7-0.3 0.5-0.6 1.3-0.8 1.6-0.2 0.3-0.5 0.8-0.7 1.2-0.2 0.3-0.6 0.9-0.8 1.2-0.2 0.4-0.5 0.8-0.7 1.1-0.2 0.3-0.5 0.7-0.7 1-0.3 0.3-0.6 0.8-0.9 1.2-0.2 0.3-0.7 0.9-1 1.2-0.4 0.4-0.9 1.1-1.2 1.4-0.4 0.4-1 1-1.3 1.4-0.3 0.4-0.9 1-2 2l0.2 1c0.1 0.6 0.3 1.3 0.4 1.7 0.1 0.3 0.2 0.9 0.3 1.3 0.1 0.4 0.2 1.1 0.2 1.5 0.1 0.4 0.2 1.1 0.3 1.5 0 0.4 0.1 1 0.1 1.3 0.1 0.3 0.1 0.7 0.1 0.8 0 0.1 0.1 0.5 0.1 0.9 0 0.5 0.1 1.5 0.1 2.4 0 1.1 0 1.9-0.1 2.5 0 0.5 0 1.1-0.1 1.5 0 0.3-0.1 0.9-0.1 1.3 0 0.3-0.1 0.9-0.2 1.3-0.1 0.4-0.2 1-0.3 1.3 0 0.4-0.2 0.9-0.2 1.2-0.1 0.3-0.3 0.8-0.4 1.2-0.1 0.4-0.3 0.9-0.4 1.2-0.1 0.4-0.3 0.9-0.4 1.2-0.2 0.3-0.4 0.8-0.5 1.1-0.2 0.3-0.4 0.8-0.5 1-0.2 0.3-0.4 0.7-0.6 1-0.1 0.3-0.4 0.8-0.6 1.1-0.2 0.3-0.6 0.8-0.8 1.1-0.2 0.2-0.5 0.7-0.7 0.9-0.2 0.3-0.5 0.7-0.7 0.9-0.3 0.3-0.9 0.9-1.4 1.4-0.5 0.6-1.1 1.2-1.4 1.4-0.3 0.2-0.7 0.6-1 0.8-0.2 0.2-0.7 0.5-1 0.8-0.3 0.2-0.9 0.6-1.3 0.8-0.4 0.3-0.9 0.6-1.2 0.8-0.3 0.1-0.8 0.4-1.1 0.6-0.4 0.2-1 0.5-1.4 0.7-0.4 0.1-1 0.4-1.4 0.6-0.3 0.1-0.9 0.4-1.3 0.5-0.4 0.2-1 0.4-1.4 0.5-0.4 0.2-1.1 0.4-1.5 0.5-0.5 0.1-1.2 0.3-1.7 0.4-0.4 0.1-1.2 0.3-1.7 0.4-0.5 0.1-1.3 0.3-1.7 0.3-0.5 0.1-1.3 0.2-1.7 0.3-0.4 0-0.8 0.1-0.8 0.1 0 0 0 0.1-0.1 0.3 0 0.1-0.2 0.6-0.4 1.1-0.2 0.5-0.5 1.1-0.7 1.4-0.1 0.3-0.4 0.9-0.6 1.4-0.2 0.4-0.5 1-0.7 1.4-0.2 0.3-0.6 0.9-0.8 1.3-0.3 0.4-0.6 1-0.9 1.3-0.2 0.4-0.6 0.9-0.8 1.2-0.2 0.3-0.7 0.8-0.9 1.1-0.3 0.4-0.7 0.8-0.9 1.1-0.2 0.2-0.6 0.6-0.8 0.8-0.2 0.2-0.6 0.6-1 1-0.3 0.3-0.9 0.7-1.2 1-0.3 0.2-0.8 0.6-1.1 0.8-0.3 0.3-0.7 0.6-1 0.8-0.3 0.2-0.9 0.5-1.2 0.8-0.4 0.2-1 0.5-1.5 0.7-0.4 0.3-1 0.6-1.3 0.7-0.4 0.2-1 0.4-1.3 0.5-0.4 0.2-1.1 0.4-1.5 0.6-0.4 0.1-1 0.3-1.3 0.4-0.3 0-0.9 0.2-1.2 0.3-0.4 0-1 0.2-1.3 0.2-0.4 0.1-1 0.2-1.4 0.2-0.3 0.1-0.9 0.2-1.3 0.2-0.4 0-1 0.1-1.4 0.1-0.4 0-1.3 0.1-2.2 0.1q-1.4 0-2.4-0.1c-0.6-0.1-1.4-0.1-1.8-0.2-0.4 0-1.1-0.1-1.5-0.1-0.4-0.1-1-0.2-1.3-0.2-0.4-0.1-1.1-0.2-1.6-0.3-0.5-0.1-1.2-0.3-1.6-0.4-0.5-0.1-1.1-0.3-1.5-0.4-0.4-0.1-1.2-0.3-1.7-0.4-0.4-0.2-1.2-0.4-1.7-0.6-0.5-0.1-1.3-0.4-1.7-0.5-0.4-0.2-1.2-0.5-1.8-0.7-0.5-0.2-1.1-0.5-1.4-0.6l-0.3 0.2c-0.2 0.2-0.7 0.5-1 0.7-0.4 0.3-1 0.7-1.3 0.9-0.2 0.1-0.7 0.4-0.9 0.6-0.3 0.1-0.8 0.4-1.1 0.6-0.4 0.2-1.1 0.6-1.6 0.9-0.5 0.2-1.2 0.6-1.7 0.8-0.4 0.2-1.1 0.5-1.4 0.6-0.3 0.2-0.9 0.4-1.2 0.5-0.3 0.1-1 0.3-1.4 0.5-0.4 0.1-1 0.3-1.3 0.4-0.3 0.1-0.9 0.2-1.2 0.3-0.4 0.1-1 0.2-1.3 0.3-0.4 0-0.9 0.1-1.2 0.2-0.4 0-1 0.1-1.4 0.1-0.7 0.1-1 0.1-2.6 0.1-1.5 0-1.9 0-2.5 0-0.3-0.1-0.9-0.1-1.3-0.2-0.4-0.1-1-0.2-1.4-0.2-0.4-0.1-0.9-0.2-1.1-0.3-0.3-0.1-0.9-0.2-1.3-0.4-0.5-0.1-1.1-0.3-1.4-0.4-0.2-0.1-0.7-0.3-1-0.4-0.4-0.2-1-0.5-1.5-0.7-0.5-0.3-1.1-0.5-1.3-0.7-0.2-0.1-0.7-0.4-1-0.6-0.3-0.1-0.9-0.5-1.3-0.8-0.4-0.2-0.9-0.6-1.2-0.8-0.3-0.2-0.7-0.5-1-0.8-0.2-0.2-0.7-0.5-1-0.8-0.3-0.3-0.8-0.7-1.1-1-0.3-0.3-0.8-0.8-1.2-1.2-0.4-0.4-0.9-1-1.2-1.3-0.3-0.4-0.8-0.9-1.1-1.2-0.2-0.3-0.7-0.9-0.9-1.3-0.3-0.3-0.7-0.9-0.9-1.2-0.2-0.3-0.6-0.8-0.8-1.2q-0.4-0.5-1-1.5l-6.4 6.4v37.1c0 32.6 0 37.2-0.1 37.5 0 0.2-0.1 0.5-0.1 0.6-0.1 0.2-0.2 0.4-0.3 0.6-0.1 0.1-0.2 0.3-0.3 0.5-0.1 0.1-0.3 0.3-0.4 0.4-0.1 0.1-0.3 0.3-0.5 0.4-0.1 0.1-0.4 0.2-0.5 0.3-0.2 0.1-0.5 0.2-0.7 0.3-0.2 0-0.6 0.1-0.8 0.1-0.2 0-0.5 0-0.7 0-0.2 0-0.5-0.1-0.6-0.2-0.2 0-0.5-0.1-0.6-0.2-0.1 0-0.3-0.2-0.5-0.3-0.2-0.1-0.4-0.3-0.6-0.5-0.1-0.1-0.3-0.4-0.4-0.5-0.1-0.2-0.3-0.5-0.4-0.7 0-0.1-0.1-0.4-0.1-0.5-0.1-0.1-0.1-0.4-0.1-0.7-0.1-0.3-0.1-12.3-0.1-75.8l1.1-2.7 38.5-38.5-0.1-0.4c-0.1-0.2-0.1-0.7-0.2-1 0-0.2 0-0.7 0-1 0-0.3 0-0.7 0-0.9 0-0.2 0.1-0.6 0.1-0.9 0.1-0.2 0.2-0.7 0.3-1 0.1-0.2 0.3-0.7 0.4-1 0.2-0.3 0.4-0.7 0.5-0.9 0.2-0.2 0.4-0.5 0.5-0.7 0.2-0.2 0.4-0.4 0.6-0.6 0.2-0.2 0.5-0.5 0.7-0.7 0.2-0.2 0.6-0.4 0.8-0.6q0.4-0.3 0.9-0.5v-13.6l1.1-2.7 4.6-4.6-0.1-0.3c-0.1-0.1-0.2-0.4-0.2-0.5-0.1-0.3-0.1-1.7-0.1-22.8l0.7-1.7 16.6-16.6-0.1-0.2c0-0.2-0.1-0.5-0.1-0.7-0.1-0.1-0.1-0.6-0.1-0.9 0-0.3 0-0.7 0-1 0-0.2 0.1-0.6 0.2-0.8 0-0.2 0.1-0.6 0.2-0.7 0-0.2 0.2-0.5 0.3-0.7 0.1-0.2 0.2-0.4 0.3-0.6 0.1-0.1 0.2-0.3 0.3-0.5 0.2-0.2 0.4-0.5 0.6-0.6 0.2-0.2 0.5-0.5 0.7-0.7 0.2-0.1 0.5-0.3 0.6-0.4 0.2-0.1 0.4-0.2 0.6-0.3 0.2-0.1 0.6-0.3 0.8-0.4 0.3 0 0.7-0.2 1-0.2 0.3-0.1 0.7-0.1 1.1-0.1q0.7 0 1.1 0.1c0.3 0 0.6 0.1 0.7 0.1 0.2 0.1 0.4 0.1 0.6 0.2 0.1 0 0.4 0.2 0.6 0.2 0.1 0.1 0.4 0.3 0.6 0.4 0.1 0.1 0.4 0.3 0.6 0.4 0.1 0.1 0.4 0.4 0.6 0.6 0.2 0.2 0.5 0.5 0.6 0.6 0.1 0.2 0.3 0.5 0.4 0.7 0.1 0.1 0.3 0.4 0.4 0.6 0.1 0.2 0.2 0.5 0.3 0.7 0 0.1 0.1 0.4 0.1 0.6 0.1 0.1 0.1 0.4 0.2 0.6 0 0.2 0 0.7 0 1 0 0.4 0 0.8-0.1 1 0 0.2-0.1 0.5-0.1 0.7 0 0.2-0.1 0.4-0.2 0.6-0.1 0.2-0.2 0.5-0.3 0.6 0 0.2-0.2 0.4-0.3 0.6 0 0.1-0.2 0.4-0.3 0.5-0.2 0.2-0.4 0.5-0.6 0.7-0.2 0.2-0.5 0.5-0.7 0.7-0.2 0.1-0.6 0.3-0.8 0.5-0.2 0.1-0.5 0.2-0.8 0.3-0.3 0.1-0.7 0.3-0.9 0.3q-0.5 0.2-1.1 0.2c-0.4 0-0.7 0-1.1 0-0.3 0-0.8-0.1-1-0.1-0.3-0.1-0.6-0.2-0.7-0.2-0.2-0.1-0.5-0.2-1.2-0.6l-15.4 15.5v18.1l6.9-6.9 2.7-1.2h17.7l0.2-0.4c0.2-0.3 0.4-0.6 0.5-0.9 0.2-0.2 0.4-0.5 0.5-0.6 0.1-0.2 0.4-0.4 0.6-0.6 0.2-0.2 0.5-0.5 0.7-0.7 0.1-0.1 0.5-0.4 0.7-0.5 0.2-0.2 0.5-0.4 0.7-0.4 0.1-0.1 0.4-0.2 0.6-0.3 0.2-0.1 0.5-0.3 0.8-0.3 0.2-0.1 0.7-0.2 1-0.3 0.5-0.1 0.7-0.1 1.5-0.1q0.9-0.1 1.2 0c0.2 0 0.6 0.1 0.9 0.1 0.2 0.1 0.6 0.2 1.2 0.4l8-8.1c4.4-4.4 8-8 8.1-8q0 0-0.1-0.2c0-0.1-0.1-0.4-0.2-0.7-0.1-0.2-0.2-0.7-0.3-1 0-0.3-0.1-0.8-0.1-1.1-0.1-0.3-0.1-0.8-0.1-1.2 0-0.4 0.1-0.8 0.1-1.1 0.1-0.2 0.1-0.6 0.2-0.9 0.1-0.3 0.2-0.7 0.3-1 0.1-0.2 0.3-0.6 0.4-1 0.2-0.3 0.5-0.7 0.6-1 0.1-0.2 0.4-0.5 0.6-0.7 0.1-0.2 0.4-0.6 0.7-0.8 0.2-0.2 0.5-0.5 0.7-0.7 0.2-0.1 0.5-0.4 0.8-0.5 0.2-0.2 0.6-0.4 0.9-0.6 0.2-0.1 0.6-0.3 0.8-0.4 0.3 0 0.7-0.2 0.9-0.3 0.3 0 0.7-0.1 1-0.2 0.3 0 0.7-0.1 1-0.1 0.3 0 0.7 0 1 0 0.3 0 0.7 0 1 0.1 0.2 0 0.6 0.1 0.9 0.1 0.3 0.1 0.7 0.2 0.9 0.3 0.2 0.1 0.6 0.2 0.8 0.3 0.2 0.1 0.6 0.2 0.7 0.3 0.2 0.2 0.6 0.4 0.8 0.5 0.3 0.2 0.7 0.5 1 0.8 0.2 0.2 0.6 0.5 0.8 0.7 0.2 0.3 0.4 0.6 0.6 0.7 0.1 0.2 0.3 0.5 0.4 0.7 0.1 0.2 0.4 0.7 0.5 1 0.2 0.3 0.4 0.7 0.4 0.9 0.1 0.3 0.2 0.7 0.3 0.9 0.1 0.3 0.1 0.7 0.2 0.9 0 0.2 0.1 0.7 0.1 1.1 0 0.5 0 1-0.1 1.3 0 0.2 0 0.7-0.1 0.9-0.1 0.3-0.2 0.7-0.2 1-0.1 0.2-0.3 0.7-0.4 0.9-0.1 0.3-0.3 0.7-0.4 0.8-0.1 0.2-0.3 0.6-0.4 0.8-0.2 0.2-0.4 0.5-0.5 0.7-0.1 0.1-0.4 0.5-0.7 0.7-0.2 0.3-0.6 0.6-0.8 0.8-0.2 0.1-0.6 0.4-0.8 0.6-0.3 0.1-0.7 0.4-1 0.5-0.3 0.2-0.7 0.4-1 0.4-0.2 0.1-0.6 0.2-0.9 0.3-0.3 0.1-0.7 0.2-0.9 0.2-0.3 0.1-0.8 0.1-1.2 0.1-0.4 0-0.9 0-1.2 0-0.3 0-0.7-0.1-1-0.2-0.3 0-0.7-0.1-1.4-0.3l-0.2 0.1c-0.1 0.1-3.7 3.8-16.2 16.3l0.1 0.4c0 0.3 0.1 0.7 0.1 0.9 0.1 0.3 0.1 0.7 0.1 1.2 0 0.6 0 0.9-0.1 1.3 0 0.2-0.1 0.6-0.1 0.9-0.1 0.2-0.2 0.6-0.3 0.8-0.1 0.3-0.2 0.6-0.3 0.8-0.1 0.2-0.3 0.5-0.4 0.7-0.1 0.2-0.4 0.6-0.5 0.8-0.2 0.2-0.5 0.5-0.7 0.7-0.2 0.3-0.5 0.6-0.7 0.7-0.2 0.2-0.5 0.5-0.8 0.6-0.2 0.2-0.6 0.4-0.9 0.6-0.3 0.1-0.8 0.3-1.1 0.4-0.3 0.1-0.7 0.2-0.9 0.3-0.3 0-0.7 0.1-1 0.1-0.2 0-0.7 0-1.2 0-0.4 0-0.9 0-1.1-0.1-0.2 0-0.6-0.1-0.8-0.1-0.3-0.1-0.7-0.2-0.9-0.3-0.2-0.1-0.5-0.2-0.7-0.3-0.1-0.1-0.4-0.2-0.6-0.4-0.2-0.1-0.6-0.3-0.8-0.5-0.2-0.1-0.6-0.5-0.9-0.7-0.2-0.3-0.6-0.6-0.7-0.8-0.2-0.3-0.4-0.6-0.8-1.2h-16.4l-13.7 13.7v12l0.1 0.1c0.1 0 0.3 0.1 0.5 0.3 0.2 0.1 0.6 0.3 0.8 0.5 0.2 0.1 0.5 0.4 0.7 0.6 0.2 0.2 0.5 0.5 0.6 0.7 0.2 0.2 0.5 0.6 0.6 0.8 0.2 0.2 0.4 0.7 0.6 1 0.1 0.3 0.3 0.7 0.4 0.9 0.1 0.2 0.2 0.6 0.2 0.8 0.1 0.3 0.2 0.7 0.2 0.9 0 0.3 0.1 0.7 0.1 1.2q0 0.7-0.1 1.2c0 0.3-0.1 0.7-0.2 1-0.1 0.3-0.2 0.7-0.3 0.9 0 0.2-0.2 0.5-0.3 0.7-0.1 0.2-0.3 0.5-0.4 0.8-0.1 0.2-0.4 0.6-0.5 0.7-0.2 0.2-0.5 0.6-0.8 0.9-0.3 0.3-0.7 0.6-0.9 0.8-0.3 0.2-0.6 0.4-0.8 0.5-0.2 0.2-0.6 0.3-0.8 0.5-0.3 0.1-0.7 0.2-0.9 0.3-0.2 0.1-0.6 0.2-0.8 0.2-0.3 0.1-0.6 0.1-0.8 0.2-0.2 0-0.5 0-0.8 0-0.3 0-0.7 0-1 0-0.2 0-0.6-0.1-0.8-0.1-0.2 0-0.6-0.1-0.8-0.2q-0.3 0-0.9-0.3l-2.7 2.7c-1.5 1.5-2.7 2.7-2.7 2.7 0 0.1 5.1 0.1 22.5 0.1l3.4-3.4-0.2-0.4c-0.1-0.2-0.2-0.6-0.3-0.8-0.1-0.2-0.2-0.6-0.2-0.8-0.1-0.2-0.1-0.6-0.1-0.9-0.1-0.4-0.1-0.7 0-1 0-0.3 0-0.7 0.1-1 0.1-0.3 0.2-0.6 0.2-0.8 0.1-0.2 0.3-0.6 0.3-0.7 0.1-0.2 0.3-0.5 0.4-0.7 0.2-0.2 0.4-0.5 0.5-0.6 0.1-0.2 0.4-0.5 0.5-0.6 0.2-0.2 0.5-0.4 0.7-0.6 0.2-0.1 0.5-0.3 0.8-0.5 0.2-0.1 0.5-0.2 0.7-0.3 0.2-0.1 0.6-0.2 0.8-0.3 0.2 0 0.5-0.1 0.8-0.1 0.3-0.1 0.6-0.1 1.1-0.1 0.6 0 0.8 0.1 1.2 0.2 0.3 0 0.7 0.1 0.9 0.2 0.2 0.1 0.5 0.2 1.1 0.5l4.1-4.1 1.4-0.5h11.7l6.8-6.9-0.2-0.3c-0.1-0.1-0.3-0.5-0.4-0.7-0.1-0.2-0.2-0.6-0.3-0.8-0.1-0.2-0.2-0.6-0.2-0.8-0.1-0.3-0.1-0.5-0.1-1.3 0-0.8 0-1 0.1-1.3 0-0.3 0.1-0.6 0.2-0.8 0.1-0.2 0.2-0.6 0.3-0.9 0.2-0.2 0.4-0.6 0.5-0.7 0.1-0.2 0.3-0.5 0.5-0.8 0.2-0.2 0.5-0.5 0.7-0.7 0.2-0.1 0.5-0.4 0.7-0.5 0.2-0.1 0.5-0.3 0.7-0.4 0.2-0.1 0.5-0.2 0.7-0.3 0.2-0.1 0.6-0.2 0.7-0.2 0.2-0.1 0.6-0.1 0.8-0.1 0.2-0.1 0.6-0.1 0.8-0.1 0.3 0 0.6 0 0.9 0.1 0.2 0 0.5 0 0.7 0.1 0.1 0 0.4 0.1 0.6 0.1 0.2 0.1 0.5 0.2 0.8 0.4 0.2 0.1 0.6 0.3 0.8 0.4 0.1 0.1 0.5 0.4 0.6 0.5 0.2 0.2 0.5 0.5 0.7 0.7 0.2 0.2 0.4 0.5 0.6 0.7 0.1 0.3 0.3 0.6 0.4 0.8 0.1 0.2 0.3 0.6 0.4 0.8 0 0.2 0.1 0.6 0.2 0.8 0 0.2 0.1 0.6 0.1 0.9 0 0.3 0 0.7 0 1 0 0.3-0.1 0.7-0.1 0.9-0.1 0.2-0.2 0.5-0.2 0.8-0.1 0.2-0.3 0.5-0.4 0.7-0.1 0.2-0.3 0.6-0.4 0.8-0.2 0.3-0.4 0.6-0.6 0.8-0.1 0.2-0.4 0.4-0.6 0.6-0.2 0.2-0.5 0.4-0.7 0.5-0.2 0.1-0.5 0.3-0.7 0.4-0.2 0.1-0.6 0.3-0.7 0.4-0.2 0-0.6 0.1-0.8 0.2-0.3 0-0.6 0.1-0.8 0.1-0.3 0-0.6 0.1-0.7 0.1-0.2 0-0.5-0.1-0.7-0.1-0.2 0-0.6-0.1-0.7-0.1-0.2 0-0.5-0.1-1.1-0.3l-7.8 7.8-1.4 0.5h-11.7l-3.5 3.6 0.1 0.2c0 0.2 0.1 0.4 0.2 0.6 0.1 0.2 0.1 0.5 0.2 0.7 0.1 0.2 0.1 0.6 0.1 0.8 0.1 0.2 0.1 0.6 0.1 1 0 0.5-0.1 0.8-0.1 1.1-0.1 0.3-0.2 0.6-0.3 0.9 0 0.2-0.2 0.5-0.3 0.7-0.1 0.2-0.2 0.5-0.4 0.7-0.1 0.2-0.3 0.5-0.4 0.7-0.2 0.1-0.4 0.4-0.6 0.6-0.2 0.1-0.4 0.3-0.5 0.4-0.1 0.1-0.3 0.2-0.5 0.4-0.1 0.1-0.4 0.2-0.7 0.4-0.2 0.1-0.5 0.2-0.8 0.3-0.2 0.1-0.6 0.2-0.8 0.2-0.2 0.1-0.6 0.1-0.8 0.1-0.3 0.1-0.7 0.1-0.9 0.1-0.2-0.1-0.6-0.1-0.9-0.1-0.3-0.1-0.6-0.2-0.8-0.2-0.2-0.1-0.5-0.2-1.1-0.5l-4 4.1-1.3 0.5h-27.3l-16 16.1 0.2 0.1c0.2 0.1 0.4 0.3 0.5 0.4 0.1 0.1 0.3 0.3 0.4 0.4 0.1 0.1 0.3 0.5 0.5 0.8 0.2 0.4 0.6 0.9 0.8 1.3 0.3 0.4 0.7 1 1 1.3 0.2 0.4 0.7 1 0.9 1.2 0.2 0.3 0.7 0.8 1 1.2 0.3 0.3 0.9 0.9 1.3 1.4 0.4 0.4 1 0.9 1.3 1.2 0.3 0.2 0.7 0.6 0.9 0.7 0.2 0.2 0.6 0.5 1 0.7 0.3 0.3 0.8 0.6 1.1 0.8 0.3 0.2 0.7 0.4 1 0.6 0.2 0.1 0.8 0.4 1.2 0.6 0.4 0.2 1 0.5 1.3 0.6 0.2 0.1 0.7 0.3 0.9 0.3 0.3 0.1 0.7 0.3 1 0.3 0.2 0.1 0.7 0.2 1 0.3 0.3 0.1 0.8 0.2 1.2 0.2 0.4 0.1 0.9 0.1 1.2 0.2 0.3 0 1 0 1.6 0 0.8 0 1.3 0 1.7-0.1 0.3 0 0.8-0.1 1.1-0.1 0.3 0 0.8-0.1 1.1-0.2 0.3-0.1 0.8-0.2 1.1-0.2 0.3-0.1 0.7-0.2 1-0.3 0.3-0.1 0.7-0.2 0.9-0.3 0.1-0.1 0.6-0.2 0.9-0.3 0.3-0.2 0.8-0.4 1.2-0.5 0.3-0.2 1-0.5 1.5-0.7 0.5-0.3 1.1-0.6 1.4-0.8 0.3-0.1 0.8-0.4 1.2-0.7q0.5-0.3 1.4-0.9l-0.5-0.5c-0.3-0.3-1-0.9-1.5-1.4-0.4-0.4-1.1-1.1-1.4-1.5-0.3-0.3-0.7-0.8-0.9-1-0.2-0.2-0.5-0.6-0.8-1-0.3-0.3-0.6-0.8-0.7-1-0.1-0.2-0.3-0.5-0.4-0.7-0.1-0.3-0.3-0.6-0.4-0.8 0-0.2-0.1-0.6-0.1-0.8-0.1-0.3-0.1-0.5 0-0.8 0-0.2 0.1-0.5 0.1-0.7 0.1-0.2 0.2-0.4 0.2-0.5 0.1-0.2 0.2-0.4 0.3-0.5 0.1-0.2 0.3-0.4 0.4-0.5 0.1-0.2 0.3-0.4 0.5-0.5 0.2-0.1 0.5-0.3 0.7-0.4 0.1-0.1 0.4-0.2 0.6-0.2 0.1-0.1 0.5-0.1 0.7-0.1 0.2-0.1 0.4-0.1 0.7 0 0.2 0 0.5 0.1 0.7 0.1 0.2 0.1 0.5 0.2 0.6 0.2 0.1 0.1 0.4 0.2 0.5 0.3 0.1 0.1 0.3 0.3 0.5 0.4 0.2 0.2 0.4 0.4 0.5 0.5 0.1 0.2 0.2 0.4 0.3 0.6 0.1 0.2 0.2 0.4 0.4 0.6 0.1 0.2 0.3 0.5 0.6 0.8 0.2 0.3 0.8 0.9 1.3 1.4 0.5 0.5 1.2 1.2 1.6 1.6 0.5 0.4 1.2 1.1 1.6 1.4 0.4 0.4 1.1 1 1.4 1.3 0.3 0.2 0.9 0.8 2.2 1.8l0.9 0.4c0.5 0.2 1.2 0.4 1.6 0.6 0.4 0.1 1.1 0.4 1.5 0.5 0.4 0.1 1.1 0.4 1.6 0.5 0.4 0.1 1.2 0.3 1.7 0.5 0.4 0.1 1.2 0.2 1.6 0.3 0.4 0.1 1 0.3 1.4 0.3 0.4 0.1 1 0.2 1.4 0.2 0.4 0.1 1 0.2 1.4 0.2 0.4 0.1 1.2 0.1 1.8 0.2 0.7 0 1.3 0 2.2 0 0.7 0 1.6 0 2-0.1 0.3 0 1-0.1 1.4-0.1 0.4-0.1 1-0.2 1.3-0.3 0.4 0 0.9-0.2 1.3-0.3 0.4-0.1 1-0.2 1.4-0.4 0.3-0.1 0.9-0.3 1.1-0.4 0.3-0.1 0.9-0.4 1.4-0.6 0.4-0.2 1-0.5 1.3-0.7 0.3-0.2 0.7-0.4 0.9-0.6 0.2-0.1 0.5-0.3 0.8-0.5 0.3-0.2 0.6-0.5 0.8-0.7 0.2-0.2 0.6-0.5 0.9-0.8 0.3-0.3 0.8-0.7 1-1 0.3-0.3 0.6-0.7 0.8-0.9 0.1-0.1 0.5-0.6 0.7-0.9 0.2-0.3 0.6-0.8 0.8-1.1 0.2-0.3 0.5-0.7 0.6-1 0.2-0.3 0.5-0.8 0.7-1.1 0.1-0.3 0.4-0.9 0.6-1.3 0.2-0.4 0.5-1.1 0.7-1.5 0.2-0.3 0.4-1 0.6-1.4 0.1-0.3 0.3-1 0.7-2.2l3.7-2.7h0.9c0.5-0.1 1.1-0.1 1.4-0.2 0.3 0 0.8-0.1 1.1-0.1 0.3 0 0.8-0.1 1.1-0.2 0.3 0 0.9-0.2 1.3-0.2 0.4-0.1 1.1-0.3 1.5-0.4 0.4-0.1 1.1-0.3 1.4-0.4 0.4-0.1 1-0.3 1.4-0.5 0.4-0.1 1-0.3 1.3-0.5 0.4-0.1 1.1-0.5 1.7-0.8 0.6-0.2 1.4-0.7 1.7-0.9 0.4-0.2 0.8-0.5 1-0.6 0.2-0.1 0.6-0.4 0.8-0.6 0.3-0.1 0.6-0.4 0.8-0.5 0.1-0.1 0.5-0.4 0.7-0.6 0.2-0.2 0.7-0.6 1-0.9 0.3-0.3 0.7-0.8 0.9-1 0.2-0.3 0.5-0.7 0.7-0.9 0.1-0.1 0.3-0.5 0.5-0.7 0.1-0.2 0.3-0.5 0.5-0.7 0.1-0.2 0.3-0.6 0.5-0.9 0.1-0.3 0.4-0.7 0.5-1 0.1-0.3 0.3-0.7 0.4-0.9 0.1-0.2 0.2-0.6 0.3-0.8 0-0.2 0.2-0.6 0.2-0.8 0.1-0.3 0.2-0.7 0.3-1 0.1-0.2 0.2-0.7 0.2-0.9 0.1-0.3 0.2-0.7 0.2-1 0-0.3 0.1-0.6 0.1-0.8 0-0.2 0.1-0.6 0.1-1 0.1-0.3 0.1-1.1 0.1-1.7 0.1-0.7 0.1-1.4 0-2.1 0-0.6 0-1.4-0.1-1.8 0-0.4-0.1-1-0.1-1.3-0.1-0.4-0.1-1-0.2-1.4-0.1-0.4-0.2-1-0.2-1.4-0.1-0.5-0.3-1.3-0.4-1.8-0.1-0.6-0.3-1.4-0.5-1.9-0.1-0.5-0.3-1.3-0.6-2.5l1.3-4.1 0.4-0.4c0.2-0.2 0.8-0.7 1.3-1.2 0.5-0.4 1.2-1.2 1.6-1.6 0.4-0.4 1-1 1.2-1.3 0.3-0.3 0.7-0.8 0.9-1.1 0.3-0.3 0.7-0.9 1-1.2 0.3-0.4 0.7-0.9 0.9-1.2 0.2-0.3 0.6-0.8 0.8-1.2 0.2-0.3 0.5-0.8 0.7-1.1 0.2-0.4 0.5-0.9 0.7-1.2 0.1-0.3 0.4-0.9 0.6-1.3 0.2-0.3 0.4-0.9 0.6-1.2 0.1-0.3 0.3-0.8 0.4-1.1 0.1-0.3 0.3-0.8 0.4-1.1 0-0.2 0.2-0.7 0.2-0.9 0.1-0.3 0.2-0.7 0.3-1 0-0.2 0.1-0.7 0.1-1 0.1-0.2 0.2-0.7 0.2-1 0-0.3 0.1-0.9 0.1-1.4 0-0.6 0-1.2-0.1-1.6 0-0.4-0.1-0.9-0.1-1.3-0.1-0.4-0.1-0.9-0.2-1.1-0.1-0.3-0.1-0.7-0.2-0.9-0.1-0.2-0.2-0.6-0.3-0.9-0.1-0.3-0.2-0.7-0.4-1-0.1-0.3-0.2-0.7-0.4-0.9-0.1-0.3-0.3-0.7-0.4-0.9-0.1-0.3-0.3-0.6-0.4-0.8-0.2-0.2-0.4-0.7-0.6-1-0.2-0.3-0.5-0.8-0.7-1-0.2-0.3-0.6-0.8-0.8-1-0.2-0.3-0.5-0.7-0.7-0.8-0.1-0.2-0.5-0.7-0.9-1.1-0.3-0.3-0.9-0.9-1.3-1.3-0.4-0.3-0.9-0.9-1.3-1.1-0.3-0.3-0.8-0.7-1-0.9-0.2-0.2-0.7-0.6-1-0.8-0.3-0.3-0.6-0.5-0.6-0.5 0 0-0.1-1.2-0.7-5.4l0.1-0.2c0.1-0.1 0.4-0.5 0.6-0.9 0.3-0.4 0.7-1 0.8-1.3 0.2-0.3 0.5-0.8 0.7-1 0.1-0.2 0.4-0.8 0.7-1.2 0.2-0.5 0.7-1.3 1-1.9 0.2-0.6 0.6-1.4 0.8-1.8 0.2-0.4 0.5-1.1 0.7-1.6 0.2-0.4 0.4-1.2 0.6-1.6 0.1-0.4 0.3-1 0.5-1.4 0.1-0.4 0.3-1.1 0.4-1.5 0.1-0.4 0.2-1 0.3-1.3 0-0.3 0.1-0.7 0.2-1 0-0.2 0.1-0.8 0.1-1.1 0.1-0.4 0.1-1 0.1-1.3 0.1-0.4 0.1-0.9 0.1-1.2 0-0.4 0-0.9-0.1-1.2 0-0.3 0-0.9-0.1-1.2 0-0.3-0.1-0.8-0.2-1.1 0-0.2-0.1-0.7-0.2-1-0.1-0.3-0.2-0.7-0.3-0.9-0.1-0.3-0.3-0.6-0.4-0.9-0.1-0.2-0.3-0.6-0.4-0.9-0.2-0.3-0.5-0.8-0.6-1-0.2-0.3-0.5-0.6-0.6-0.8-0.1-0.2-0.4-0.5-0.6-0.7-0.2-0.3-0.6-0.7-0.9-1-0.4-0.3-0.9-0.8-1.2-1-0.2-0.3-0.7-0.6-0.9-0.7-0.2-0.2-0.7-0.5-1-0.7-0.3-0.2-0.8-0.5-1-0.7-0.3-0.1-0.9-0.4-1.3-0.6-0.4-0.2-1-0.5-1.3-0.7-0.4-0.1-1-0.4-1.5-0.6-0.5-0.2-1.4-0.5-2.1-0.7q-1-0.4-2.6-0.8l-0.2-0.3c-0.1-0.3-0.2-0.3-0.3-0.3 0 0-0.5 0.1-1 0.2-0.6 0.1-1.3 0.2-1.7 0.3-0.4 0-1.1 0.2-1.4 0.2-0.4 0.1-1 0.3-1.4 0.4-0.4 0.1-0.9 0.2-1.2 0.3-0.2 0.1-0.7 0.2-1.1 0.3-0.3 0.1-0.7 0.3-0.9 0.3-0.2 0-0.5 0-0.7 0-0.2 0-0.5 0-0.7 0-0.2 0-0.4-0.1-0.6-0.2-0.1 0-0.4-0.2-0.6-0.2-0.1-0.1-0.4-0.3-0.5-0.4-0.2-0.2-0.4-0.4-0.6-0.6-0.1-0.1-0.3-0.4-0.4-0.6-0.1-0.2-0.2-0.5-0.3-0.6 0-0.1-0.1-0.4-0.1-0.6 0-0.2-0.1-0.4-0.1-0.6 0-0.2 0.1-0.5 0.1-0.7 0-0.2 0.1-0.4 0.1-0.6 0.1-0.1 0.2-0.3 0.3-0.5 0-0.1 0.2-0.3 0.2-0.4 0.1-0.1 0.3-0.4 0.5-0.6 0.2-0.2 0.5-0.4 0.7-0.5 0.2-0.1 0.5-0.3 0.7-0.4 0.3-0.1 0.8-0.2 1.2-0.4 0.4-0.1 1.1-0.3 1.5-0.4 0.5-0.1 1.2-0.3 1.7-0.4 0.5-0.1 1.3-0.3 1.7-0.4 0.5-0.1 1.2-0.2 1.6-0.3 0.4 0 0.8-0.1 0.9-0.1 0.1 0 0.1 0 0.1-0.4 0-0.2 0-0.8-0.1-1.4 0-0.7 0-1.5-0.1-1.9 0-0.4 0-0.9-0.1-1.2 0-0.3-0.1-0.8-0.1-1.2-0.1-0.4-0.2-1-0.3-1.4-0.1-0.4-0.2-1.1-0.3-1.5-0.1-0.4-0.3-1-0.4-1.4-0.1-0.3-0.3-0.9-0.4-1.4-0.2-0.4-0.4-0.9-0.5-1.2-0.1-0.3-0.2-0.7-0.4-1-0.1-0.2-0.3-0.8-0.5-1.2-0.2-0.4-0.5-1-0.7-1.3-0.2-0.3-0.6-0.8-0.8-1.2-0.3-0.4-0.7-1-0.8-1.2-0.2-0.3-0.6-0.7-0.9-1-0.2-0.4-0.8-1-1.3-1.5-0.5-0.5-1.1-1.1-1.4-1.3-0.3-0.2-0.8-0.6-1.1-0.9-0.3-0.2-0.8-0.5-1-0.7-0.3-0.2-0.7-0.5-0.9-0.6-0.3-0.2-0.7-0.4-0.9-0.5-0.3-0.2-0.9-0.5-1.3-0.7-0.4-0.2-0.9-0.5-1.2-0.6-0.3-0.1-0.9-0.3-1.3-0.5-0.4-0.2-1.1-0.4-1.5-0.6-0.4-0.1-1-0.3-1.4-0.4-0.3-0.1-0.8-0.2-1.2-0.3-0.4-0.1-0.7-0.2-0.7-0.2 0-0.1-0.7-0.8-1.5-1.7-1.2-1.5-1.4-1.7-1.4-1.9-0.1-0.1-0.1-0.4-0.2-0.8 0-0.3-0.1-0.9-0.2-1.2-0.1-0.4-0.2-0.9-0.3-1.2-0.1-0.4-0.3-0.9-0.4-1.2-0.1-0.4-0.3-0.9-0.4-1.2-0.1-0.4-0.4-0.9-0.5-1.2-0.2-0.4-0.4-0.9-0.6-1.1-0.1-0.3-0.4-0.7-0.5-0.9-0.1-0.2-0.4-0.5-0.5-0.7-0.1-0.2-0.4-0.6-0.6-0.8-0.1-0.2-0.5-0.6-0.8-0.9-0.3-0.3-0.8-0.7-1-0.9-0.2-0.2-0.6-0.5-0.8-0.6-0.1-0.1-0.5-0.3-0.7-0.4-0.2-0.2-0.6-0.3-0.8-0.5-0.3-0.1-0.7-0.2-0.9-0.3-0.3-0.1-0.7-0.2-1-0.3-0.3-0.1-0.7-0.2-0.9-0.2-0.1 0-0.3-0.1-0.3-0.1-0.1 0-0.8-1-3.3-4.1v-2c0-1.5 0-2.3 0-2.8-0.1-0.5-0.1-1.1-0.2-1.4 0-0.3-0.1-0.9-0.1-1.3-0.1-0.4-0.2-1.1-0.3-1.5 0-0.4-0.2-1-0.3-1.5-0.1-0.4-0.3-1.1-0.4-1.5-0.1-0.4-0.3-1-0.4-1.4-0.1-0.3-0.3-0.9-0.5-1.1-0.1-0.3-0.3-0.8-0.4-1.1-0.2-0.3-0.4-0.8-0.6-1.2-0.2-0.3-0.5-0.8-0.6-1.1-0.2-0.3-0.5-0.7-0.7-0.9-0.2-0.3-0.5-0.7-0.7-0.9-0.2-0.3-0.5-0.7-0.7-0.9-0.2-0.2-0.6-0.6-0.8-0.8-0.3-0.2-0.7-0.5-0.9-0.7-0.2-0.2-0.7-0.5-1-0.7-0.2-0.2-0.7-0.5-0.9-0.6-0.3-0.2-0.8-0.4-1.1-0.6-0.4-0.2-0.9-0.4-1.2-0.5-0.2-0.1-0.7-0.3-1-0.4-0.3-0.1-0.9-0.3-1.3-0.4-0.4-0.1-1-0.2-1.3-0.3-0.4 0-1-0.1-1.3-0.2-0.3 0-0.9-0.1-1.4-0.1-0.5 0-1.3-0.1-2.1-0.1-0.6 0-1.5 0.1-2 0.1-0.4 0-1 0-1.3 0.1-0.4 0-1.1 0.1-1.6 0.2-0.5 0-1 0.1-1 0.1 0 0 0 0.2 0.1 0.3 0.1 0.2 0.4 0.6 0.5 0.9 0.2 0.3 0.5 0.7 0.5 0.9 0.1 0.2 0.3 0.5 0.3 0.7 0.1 0.3 0.1 0.5 0.1 1 0 0.5 0 0.6-0.1 0.9 0 0.2-0.1 0.5-0.2 0.6-0.1 0.2-0.2 0.5-0.4 0.6-0.1 0.2-0.3 0.5-0.5 0.7-0.1 0.1-0.4 0.3-0.6 0.4-0.2 0.1-0.4 0.3-0.6 0.3-0.1 0.1-0.4 0.2-0.6 0.2-0.4 0.1-0.5 0.1-1 0.1-0.4 0-0.6 0-0.9-0.1-0.1 0-0.4-0.2-0.6-0.2-0.2-0.1-0.4-0.3-0.6-0.4-0.1-0.1-0.3-0.3-0.5-0.4-0.1-0.1-0.3-0.4-0.4-0.5-0.1-0.1-0.3-0.5-0.5-0.8-0.2-0.3-0.5-0.8-0.6-1.1-0.2-0.2-0.5-0.7-0.8-1.1-0.2-0.4-0.6-0.9-0.9-1.2-0.2-0.4-0.6-0.9-0.8-1.2-0.3-0.3-0.7-0.8-0.9-1.1-0.3-0.3-0.8-0.8-1.2-1.2-0.4-0.4-1-1.1-1.4-1.4-0.4-0.4-1-0.9-1.3-1.3-0.4-0.3-1-0.7-1.2-1-0.3-0.2-0.8-0.6-1.2-0.9-0.3-0.2-0.8-0.6-1.1-0.8-0.3-0.2-0.8-0.6-1.3-0.9-0.4-0.3-1-0.7-1.4-0.9-0.4-0.2-1-0.6-1.2-0.7-0.3-0.2-0.9-0.5-1.4-0.7-0.5-0.3-1.1-0.6-1.5-0.7-0.3-0.2-0.9-0.4-1.3-0.6-0.3-0.1-1-0.4-1.4-0.5-0.4-0.2-1-0.4-1.4-0.5-0.4-0.1-0.9-0.2-1.2-0.3-0.3-0.1-0.9-0.2-1.2-0.3-0.3 0-0.9-0.1-1.3-0.2-0.4-0.1-1-0.2-1.3-0.2-0.3 0-0.7-0.1-1-0.1-0.3 0-1-0.1-1.5-0.1-0.6 0-1.4 0-1.8 0.1-0.5 0-1.2 0-1.5 0.1-0.3 0-0.9 0.1-1.3 0.1-0.4 0.1-1 0.2-1.4 0.3-0.4 0-0.9 0.2-1.2 0.2-0.3 0.1-0.9 0.3-1.3 0.4-0.4 0.1-1.1 0.3-1.5 0.5-0.4 0.1-1 0.3-1.3 0.5-0.4 0.1-1 0.4-1.5 0.6-0.4 0.2-1.1 0.5-1.4 0.7-0.3 0.1-1 0.5-1.4 0.7-0.4 0.2-1 0.6-1.4 0.8-0.4 0.2-1 0.7-1.4 0.9-0.4 0.3-1 0.7-1.3 1-0.4 0.2-1 0.6-1.3 0.9-0.3 0.2-0.9 0.7-1.3 1.1-0.5 0.3-1.1 0.8-1.5 1.2-0.3 0.3-0.8 0.7-1.1 1-0.3 0.3-0.9 0.8-1.4 1.3-0.4 0.4-1.1 1.1-1.5 1.5-0.4 0.4-1.1 1.2-1.5 1.7-0.5 0.4-1 0.9-1.1 1-0.1 0.2-0.4 0.4-0.7 0.5-0.2 0.1-0.6 0.2-0.8 0.3-0.2 0.1-0.4 0.1-0.8 0.1-0.3 0-0.8 0-1 0-0.2 0-0.6 0-0.9 0-0.5 0-0.6 0-0.9-0.1-0.2-0.1-0.5-0.2-0.7-0.3-0.2-0.1-0.5-0.2-0.6-0.4-0.2-0.1-0.6-0.5-1-0.9-0.4-0.4-1.1-1.2-1.6-1.7-0.5-0.6-1.4-1.5-2-2-0.6-0.6-1.2-1.2-1.3-1.3-0.2-0.1-0.6-0.5-0.9-0.8-0.4-0.3-1-0.8-1.3-1.1-0.4-0.3-1-0.8-1.3-1-0.3-0.3-0.9-0.7-1.3-1-0.4-0.2-1-0.7-1.4-1-0.5-0.2-1.1-0.7-1.5-0.9-0.4-0.2-1.1-0.6-1.5-0.9-0.4-0.2-1-0.5-1.4-0.7-0.3-0.2-0.9-0.4-1.3-0.6-0.5-0.2-1.1-0.5-1.4-0.6-0.3-0.2-0.9-0.4-1.3-0.5-0.4-0.1-1-0.3-1.4-0.5-0.4-0.1-1-0.2-1.3-0.3-0.4-0.1-1-0.3-1.4-0.3-0.3-0.1-1-0.2-1.4-0.3-0.3 0-0.9-0.1-1.2-0.1-0.4-0.1-1.1-0.1-1.7-0.1-0.8-0.1-1.3-0.1-2.2 0-0.6 0-1.3 0-1.6 0.1-0.3 0-1 0.1-1.5 0.2-0.5 0-1.2 0.2-1.5 0.2-0.3 0.1-0.8 0.2-1.1 0.3-0.3 0.1-0.9 0.2-1.2 0.3-0.4 0.1-1 0.3-1.4 0.5-0.4 0.1-0.8 0.3-1.1 0.4-0.2 0-0.6 0.2-0.8 0.3-0.2 0.1-0.6 0.2-0.9 0.4-0.3 0.1-0.9 0.4-1.4 0.6-0.5 0.3-1.1 0.6-1.4 0.8-0.3 0.1-0.8 0.4-1.1 0.6-0.4 0.2-0.9 0.5-1.1 0.7-0.3 0.2-0.8 0.5-1.2 0.8-0.4 0.2-0.9 0.7-1.3 0.9-0.4 0.3-0.9 0.7-1.2 0.9-0.2 0.3-0.7 0.6-0.9 0.8-0.2 0.2-0.6 0.5-0.9 0.8-0.2 0.2-0.8 0.7-1.1 1-0.4 0.4-1 1-1.4 1.4-0.4 0.4-0.9 1-1.1 1.2-0.3 0.3-0.5 0.6-0.7 0.8-0.1 0.1-0.4 0.5-0.6 0.8-0.3 0.4-0.7 0.9-0.9 1.2-0.2 0.3-0.5 0.8-0.7 1.1-0.3 0.3-0.5 0.7-0.7 1-0.1 0.2-0.4 0.6-0.5 0.9-0.2 0.2-0.4 0.6-0.4 0.7-0.1 0.1-0.3 0.3-0.5 0.5-0.1 0.1-0.3 0.3-0.5 0.4-0.1 0.1-0.4 0.3-0.5 0.3-0.2 0.1-0.5 0.2-0.7 0.3-0.2 0.1-0.4 0.1-0.9 0.1-0.5 0-0.6 0-0.9-0.1-0.2 0-0.5-0.1-0.7-0.2-0.1 0-0.4-0.2-0.6-0.3-0.2-0.1-0.5-0.4-0.7-0.5-0.1-0.2-0.3-0.4-0.4-0.6-0.1-0.1-0.2-0.4-0.3-0.5-0.1-0.2-0.2-0.5-0.3-0.7 0-0.2-0.1-0.5-0.1-0.8 0-0.3 0-0.5 0.1-0.8 0-0.2 0.1-0.5 0.1-0.6 0.1-0.2 0.2-0.5 0.4-0.7 0.1-0.3 0.4-0.7 0.6-1.1 0.2-0.4 0.4-0.7 0.3-0.7 0 0-0.4-0.1-0.9-0.1-0.6-0.1-1.3-0.2-1.6-0.2-0.4-0.1-1-0.1-1.4-0.1-0.4 0-1.3-0.1-2-0.1-0.7 0-1.6 0.1-2.1 0.1-0.4 0-1.1 0.1-1.4 0.1-0.3 0.1-0.9 0.2-1.2 0.2-0.4 0.1-1 0.2-1.3 0.3-0.4 0.1-0.9 0.3-1.2 0.4-0.3 0.1-0.9 0.3-1.2 0.4-0.3 0.1-0.9 0.4-1.2 0.5-0.4 0.2-0.9 0.5-1.1 0.6-0.3 0.2-0.7 0.4-0.9 0.6-0.3 0.2-0.6 0.4-0.7 0.5-0.2 0.1-0.4 0.3-0.5 0.4-0.2 0.1-0.5 0.4-0.7 0.6-0.3 0.3-0.7 0.7-0.9 0.9-0.2 0.3-0.6 0.7-0.7 0.9-0.2 0.2-0.5 0.5-0.6 0.8-0.2 0.2-0.5 0.6-0.6 0.8-0.2 0.3-0.4 0.6-0.4 0.8-0.1 0.1-0.4 0.6-0.6 1-0.2 0.3-0.4 0.9-0.6 1.3-0.1 0.3-0.3 0.8-0.4 1.2-0.2 0.3-0.3 0.8-0.4 1.1-0.1 0.3-0.3 0.9-0.4 1.4-0.1 0.5-0.3 1.1-0.4 1.5-0.1 0.4-0.2 1-0.2 1.3-0.1 0.4-0.2 0.9-0.2 1.3 0 0.3-0.1 0.9-0.1 1.2-0.1 0.3-0.1 0.9-0.1 1.3-0.1 0.4-0.1 1.4-0.1 2.2 0 0.8 0 1.7 0 2.3l-1.6 2c-0.8 1.1-1.6 2.1-1.6 2.1 0 0-0.2 0.1-0.4 0.1-0.2 0-0.6 0.1-0.7 0.2-0.2 0-0.5 0.1-0.7 0.1-0.1 0.1-0.4 0.2-0.7 0.3-0.2 0.1-0.6 0.2-0.8 0.3-0.2 0.1-0.5 0.3-0.7 0.4-0.3 0.1-0.6 0.3-0.7 0.4-0.1 0.1-0.4 0.3-0.6 0.4-0.2 0.2-0.5 0.4-0.7 0.6-0.2 0.2-0.5 0.6-0.7 0.8-0.3 0.2-0.6 0.6-0.8 0.8-0.1 0.3-0.5 0.7-0.7 1-0.2 0.3-0.4 0.8-0.6 1-0.1 0.3-0.4 0.8-0.6 1.2-0.1 0.3-0.4 0.9-0.5 1.1-0.1 0.3-0.3 0.8-0.4 1.1-0.1 0.4-0.3 0.8-0.3 1-0.1 0.3-0.2 0.7-0.3 1.1-0.1 0.3-0.2 0.9-0.3 1.2 0 0.4-0.1 0.9-0.2 1.1q0 0.5-0.1 0.6c0 0-0.7 0.8-1.4 1.6-0.8 0.9-1.4 1.7-1.4 1.7 0 0-0.4 0.1-0.7 0.2-0.4 0.1-1 0.2-1.3 0.3-0.3 0.1-0.9 0.3-1.4 0.4-0.4 0.2-1 0.4-1.3 0.5-0.3 0.1-0.8 0.3-1.1 0.5-0.4 0.1-1 0.4-1.4 0.6-0.5 0.3-1.1 0.6-1.4 0.7-0.2 0.2-0.7 0.4-1 0.6-0.2 0.2-0.7 0.5-0.9 0.6-0.2 0.2-0.6 0.5-0.9 0.7-0.3 0.2-0.7 0.5-1.1 0.8-0.3 0.3-0.8 0.8-1.2 1.1-0.3 0.3-0.8 0.8-1 1.1-0.3 0.3-0.6 0.7-0.8 0.9-0.2 0.2-0.5 0.6-0.7 0.9-0.2 0.3-0.6 0.8-0.8 1.1-0.2 0.3-0.5 0.8-0.7 1.1-0.2 0.3-0.5 0.9-0.7 1.3-0.2 0.4-0.5 1-0.6 1.3-0.1 0.3-0.3 0.8-0.4 1.1-0.1 0.3-0.3 0.8-0.4 1.1-0.2 0.3-0.3 0.9-0.5 1.3-0.1 0.4-0.2 1.1-0.3 1.4-0.1 0.4-0.3 1-0.3 1.4-0.1 0.4-0.2 1-0.3 1.4 0 0.3-0.1 0.9-0.2 1.3 0 0.3-0.1 1-0.1 1.3 0 0.4-0.1 1.4-0.1 2.2 0 0.8 0 1.5 0 1.5 0 0 0.2 0 0.5 0.1 0.3 0 0.9 0.1 1.4 0.2 0.5 0.1 1.4 0.3 2 0.4 0.6 0.1 1.4 0.3 1.8 0.4 0.4 0.2 1.1 0.4 1.6 0.5 0.5 0.1 1.1 0.3 1.3 0.4 0.2 0.1 0.6 0.3 0.7 0.4 0.2 0.1 0.5 0.3 0.7 0.5q0.4 0.4 0.6 0.8c0.1 0.1 0.3 0.4 0.4 0.6 0 0.2 0.1 0.5 0.1 0.7 0.1 0.2 0.1 0.5 0.1 0.7 0 0.2 0 0.5-0.1 0.7 0 0.2-0.1 0.5-0.1 0.6-0.1 0.2-0.2 0.5-0.3 0.7q-0.2 0.3-0.6 0.7c-0.2 0.2-0.4 0.4-0.5 0.4-0.1 0.1-0.4 0.2-0.5 0.3-0.2 0.1-0.5 0.2-0.6 0.3-0.2 0-0.4 0.1-0.5 0.1-0.2 0-0.5 0-0.7 0-0.2 0-0.5 0-0.7 0-0.1 0-0.6-0.2-1-0.3-0.4-0.2-1.1-0.4-1.6-0.5-0.4-0.1-1.1-0.3-1.5-0.4-0.4-0.1-1-0.2-1.4-0.3-0.4 0-1.1-0.2-1.5-0.2-0.4-0.1-0.9-0.2-1.2-0.2-0.2 0-0.5-0.1-0.5-0.1-0.1 0-0.1 0-0.5 0.6l-0.7 0.2c-0.3 0.1-1.2 0.3-1.8 0.6-0.7 0.2-1.5 0.5-1.8 0.6-0.4 0.1-1 0.4-1.4 0.5-0.4 0.2-1.2 0.6-1.8 0.9-0.5 0.3-1.2 0.6-1.5 0.8-0.3 0.2-0.7 0.4-0.9 0.6-0.3 0.1-0.6 0.4-0.9 0.6-0.2 0.1-0.6 0.5-0.9 0.7-0.3 0.2-0.7 0.6-1.1 0.9-0.3 0.3-0.7 0.8-0.9 1-0.2 0.2-0.5 0.6-0.6 0.8-0.2 0.1-0.4 0.5-0.6 0.8-0.2 0.2-0.4 0.6-0.5 0.8-0.1 0.2-0.3 0.6-0.4 0.8-0.1 0.2-0.3 0.6-0.4 0.8-0.1 0.2-0.2 0.7-0.3 1-0.1 0.3-0.3 0.8-0.3 1.1-0.1 0.3-0.2 0.7-0.2 0.9-0.1 0.2-0.1 0.6-0.1 0.9-0.1 0.3-0.1 0.9-0.1 1.3 0 0.5 0 1.1 0 1.6 0 0.4 0.1 1 0.1 1.3 0 0.3 0.1 0.9 0.2 1.3 0 0.3 0.2 1 0.2 1.3 0.1 0.4 0.3 1 0.4 1.4 0.1 0.4 0.3 1.1 0.4 1.5 0.1 0.3 0.3 0.9 0.4 1.3 0.2 0.3 0.4 0.9 0.5 1.3 0.2 0.4 0.5 1 0.6 1.4 0.2 0.4 0.6 1.2 0.9 1.8 0.3 0.7 0.8 1.6 1 2 0.3 0.5 0.7 1.2 1 1.7 0.3 0.4 0.7 1.2 1.1 1.6 0.3 0.5 0.6 1 0.9 1.4l-0.4 2.7c-0.2 1.5-0.4 2.7-0.4 2.7 0 0-0.3 0.2-0.6 0.5-0.3 0.2-0.8 0.6-1.1 0.9-0.3 0.2-0.7 0.6-0.9 0.8-0.2 0.2-0.7 0.6-1.2 1-0.4 0.4-1 1-1.4 1.4-0.3 0.4-0.8 0.9-1 1.2-0.2 0.2-0.5 0.5-0.6 0.8-0.2 0.2-0.5 0.6-0.7 0.9-0.2 0.2-0.5 0.6-0.7 0.9-0.1 0.2-0.4 0.6-0.6 0.9-0.1 0.3-0.4 0.8-0.5 1.1-0.2 0.3-0.4 0.7-0.5 0.9 0 0.2-0.2 0.5-0.3 0.7-0.1 0.2-0.2 0.7-0.3 1-0.1 0.3-0.3 0.8-0.4 1.1 0 0.3-0.1 0.7-0.2 1-0.1 0.2-0.1 0.7-0.2 1 0 0.4-0.1 0.9-0.1 1.3 0 0.4 0 1 0 1.5 0 0.5 0 1.1 0.1 1.4 0 0.3 0 0.7 0.1 0.9 0 0.2 0.1 0.6 0.1 0.9 0.1 0.2 0.2 0.7 0.3 1 0 0.2 0.2 0.7 0.2 1 0.1 0.3 0.3 0.8 0.4 1.1 0.1 0.3 0.3 0.9 0.5 1.2 0.1 0.4 0.4 0.9 0.6 1.3 0.1 0.3 0.4 0.8 0.6 1.2 0.1 0.3 0.4 0.8 0.6 1.1 0.2 0.3 0.5 0.9 0.8 1.2 0.2 0.4 0.6 0.9 0.8 1.3 0.2 0.3 0.6 0.8 0.9 1.2 0.2 0.3 0.7 0.8 0.9 1.2 0.3 0.3 0.8 0.8 1.1 1.2 0.3 0.4 0.9 0.9 1.2 1.3 0.3 0.4 0.9 1 1.3 1.3 0.4 0.4 1 0.9 1.2 1.1 0.3 0.3 0.5 0.5 0.6 0.5 0 0 0.2 0.5 1.4 4.2l-0.3 0.9c-0.1 0.4-0.3 1.2-0.4 1.7-0.2 0.6-0.3 1.3-0.4 1.7-0.1 0.4-0.2 1-0.3 1.3-0.1 0.4-0.2 0.9-0.2 1.1-0.1 0.3-0.1 0.8-0.2 1.2-0.1 0.4-0.1 1-0.2 1.4 0 0.5-0.1 1-0.1 1.3 0 0.3-0.1 1-0.1 1.5 0 0.6 0 1.5 0 2.1 0 0.6 0.1 1.2 0.1 1.5 0 0.3 0.1 0.7 0.1 1 0 0.3 0.1 0.7 0.2 1.1 0 0.3 0.1 0.8 0.2 1 0 0.3 0.1 0.7 0.2 1 0.1 0.3 0.3 0.9 0.4 1.3 0.1 0.5 0.4 1.1 0.5 1.4 0.1 0.3 0.4 0.8 0.5 1.1 0.2 0.3 0.4 0.7 0.5 0.9 0.1 0.1 0.2 0.3 0.3 0.4 0 0.1 0.2 0.4 0.4 0.7 0.1 0.2 0.4 0.6 0.6 0.8 0.2 0.3 0.5 0.7 0.6 0.9 0.2 0.2 0.5 0.5 0.8 0.8 0.2 0.2 0.6 0.6 0.7 0.7 0.2 0.2 0.5 0.5 0.8 0.7 0.3 0.2 0.6 0.5 0.9 0.7 0.2 0.1 0.6 0.4 0.8 0.6 0.3 0.2 0.8 0.5 1.2 0.7 0.4 0.2 1.1 0.7 1.7 0.9 0.6 0.3 1.4 0.7 1.7 0.8 0.4 0.2 1 0.4 1.3 0.5 0.4 0.2 1 0.4 1.4 0.5 0.4 0.1 1 0.3 1.5 0.4 0.4 0.1 1.1 0.3 1.6 0.4 0.4 0.1 1.2 0.2 1.6 0.3 0.5 0.1 1.2 0.2 1.6 0.2 0.4 0.1 1.1 0.1 2.5 0.2l3.6 2.7 0.1 0.3c0.1 0.2 0.2 0.7 0.4 1.1 0.1 0.4 0.3 1 0.5 1.4 0.1 0.3 0.4 1 0.6 1.4 0.2 0.4 0.4 0.9 0.6 1.2 0.1 0.3 0.4 0.8 0.5 1.1 0.2 0.3 0.5 0.8 0.7 1.1 0.2 0.3 0.4 0.7 0.6 0.9 0.1 0.2 0.4 0.6 0.5 0.8 0.2 0.3 0.5 0.7 0.7 0.9 0.2 0.2 0.5 0.6 0.7 0.8 0.2 0.3 0.7 0.8 1 1.1 0.3 0.3 0.8 0.7 1 1 0.3 0.2 0.7 0.5 1 0.7 0.2 0.2 0.6 0.5 0.9 0.6 0.2 0.2 0.6 0.5 0.8 0.6 0.2 0.1 0.7 0.4 1.1 0.6 0.5 0.2 1 0.5 1.3 0.6 0.2 0.1 0.7 0.3 1 0.4 0.3 0.1 0.8 0.3 1.2 0.4 0.4 0.1 1 0.2 1.3 0.3 0.3 0.1 0.8 0.2 1 0.2 0.3 0.1 0.7 0.1 1.1 0.2 0.3 0 0.9 0.1 1.3 0.1 0.4 0.1 1.2 0.1 1.9 0.1 1 0 1.5 0 2.3 0 0.5-0.1 1.3-0.1 1.7-0.2 0.4 0 1.1-0.1 1.5-0.2 0.4 0 1-0.1 1.3-0.2 0.4 0 1-0.2 1.5-0.3 0.4-0.1 1.1-0.2 1.6-0.3 0.5-0.2 1.3-0.4 1.8-0.5 0.5-0.2 1.3-0.4 1.7-0.6 0.4-0.1 1-0.3 1.3-0.4 0.2-0.1 0.9-0.4 2.5-1l0.7-0.6c0.3-0.3 1-0.8 1.5-1.2 0.4-0.4 1.1-1 1.4-1.3 0.4-0.4 1-1 1.5-1.3 0.4-0.4 1.1-1.2 1.6-1.6 0.5-0.5 1-1.1 1.3-1.4 0.2-0.2 0.5-0.6 0.6-0.8 0.1-0.2 0.3-0.5 0.4-0.6 0.1-0.2 0.2-0.4 0.3-0.6 0.1-0.1 0.3-0.3 0.4-0.5 0.2-0.1 0.4-0.3 0.6-0.4 0.1-0.2 0.4-0.3 0.6-0.4 0.1-0.1 0.4-0.2 0.6-0.2 0.2-0.1 0.5-0.1 0.7-0.1 0.2-0.1 0.4-0.1 0.7 0 0.2 0 0.5 0 0.6 0.1 0.2 0 0.5 0.1 0.6 0.2 0.2 0 0.4 0.2 0.6 0.3 0.2 0.1 0.4 0.4 0.6 0.5 0.2 0.2 0.3 0.4 0.4 0.5 0.1 0.2 0.2 0.4 0.3 0.6 0.1 0.1 0.2 0.4 0.3 0.6 0 0.2 0.1 0.6 0.1 0.8q0 0.3-0.1 0.7c0 0.3-0.1 0.6-0.1 0.7 0 0.1-0.2 0.5-0.3 0.7-0.1 0.2-0.4 0.7-0.5 0.9-0.2 0.3-0.5 0.7-0.7 0.9-0.1 0.3-0.4 0.7-0.6 0.9-0.2 0.2-0.6 0.6-0.8 0.8-0.2 0.3-0.7 0.8-1.2 1.3-0.4 0.5-1.2 1.2-1.6 1.6-0.5 0.4-0.9 0.8-0.9 0.8 0 0 0.3 0.2 0.6 0.4 0.3 0.2 0.8 0.5 1 0.6 0.2 0.1 0.6 0.4 0.9 0.6 0.4 0.2 1 0.5 1.5 0.7 0.5 0.3 1.1 0.6 1.4 0.7 0.3 0.1 0.7 0.3 1 0.4 0.2 0.1 0.7 0.3 1.1 0.4 0.3 0.2 0.9 0.3 1.2 0.4 0.3 0.1 0.7 0.2 0.9 0.3 0.3 0 0.7 0.1 1 0.2 0.4 0.1 0.8 0.2 1.1 0.2 0.3 0 0.8 0.1 1.1 0.1 0.5 0.1 1 0.1 1.7 0.1 0.6 0 1.4 0 1.7 0 0.3-0.1 0.8-0.1 1.1-0.2 0.4 0 0.9-0.1 1.2-0.2 0.2 0 0.7-0.1 1-0.2 0.2-0.1 0.8-0.3 1.1-0.4 0.3-0.1 0.9-0.3 1.2-0.4 0.3-0.1 0.8-0.4 1.1-0.6 0.4-0.1 0.9-0.4 1.1-0.6 0.3-0.1 0.8-0.4 1.1-0.6 0.3-0.2 0.7-0.5 1-0.7 0.2-0.1 0.6-0.4 0.8-0.6 0.3-0.2 0.7-0.6 1-0.8 0.3-0.3 0.9-0.8 1.3-1.2 0.4-0.4 1-1 1.3-1.3 0.2-0.3 0.7-0.8 0.9-1.1 0.3-0.3 0.6-0.8 0.8-1 0.1-0.2 0.4-0.5 0.6-0.7 0.1-0.2 0.4-0.7 0.7-1 0.2-0.4 0.5-0.8 0.6-1 0.1-0.2 0.3-0.6 0.4-0.7 0.1-0.2 0.3-0.5 0.4-0.6 0.1-0.1 0.4-0.3 0.5-0.5 0.2-0.1 0.4-0.2 0.4-0.2 0.1-0.1-0.5-0.7-11.5-11.7h-26.6l-1.4-0.6-6.5-6.5-0.4 0.2c-0.3 0.1-0.6 0.2-0.8 0.3-0.2 0-0.5 0.1-0.7 0.1-0.2 0.1-0.5 0.1-0.7 0.2-0.1 0-0.5 0-0.8 0-0.2 0-0.6 0-0.9-0.1-0.2 0-0.6-0.1-0.8-0.1-0.2-0.1-0.5-0.2-0.7-0.2-0.2-0.1-0.5-0.3-0.7-0.4-0.2-0.1-0.5-0.3-0.7-0.4-0.2-0.1-0.5-0.3-0.6-0.5-0.2-0.2-0.5-0.5-0.7-0.7-0.2-0.2-0.4-0.5-0.5-0.6-0.1-0.1-0.2-0.4-0.4-0.6-0.1-0.2-0.2-0.6-0.3-0.8q-0.1-0.3-0.3-0.9h-6.4l-1.4-0.6-17.6-17.6-0.3 0.1c-0.2 0-0.5 0.1-0.7 0.1-0.3 0-0.6 0.1-0.8 0.1-0.2 0-0.5-0.1-0.8-0.1-0.2 0-0.5-0.1-0.8-0.1-0.2-0.1-0.6-0.2-0.8-0.2-0.1-0.1-0.5-0.3-0.7-0.4-0.2-0.1-0.5-0.3-0.7-0.4-0.2-0.1-0.5-0.3-0.7-0.5-0.2-0.2-0.5-0.4-0.6-0.7-0.2-0.2-0.5-0.5-0.6-0.7-0.1-0.2-0.3-0.5-0.4-0.7-0.1-0.2-0.3-0.6-0.4-0.8 0-0.3-0.1-0.6-0.2-0.8 0-0.2-0.1-0.6-0.1-0.9 0-0.3 0-0.7 0-1 0-0.3 0.1-0.7 0.1-0.9 0.1-0.2 0.2-0.6 0.2-0.8 0.1-0.2 0.3-0.6 0.4-0.8 0.1-0.2 0.3-0.6 0.4-0.8 0.1-0.2 0.4-0.5 0.6-0.7 0.2-0.2 0.5-0.5 0.6-0.7 0.2-0.1 0.6-0.4 0.7-0.5 0.2-0.1 0.6-0.3 0.8-0.4 0.3-0.2 0.7-0.3 0.9-0.4 0.2 0 0.6-0.1 0.8-0.2 0.2 0 0.7-0.1 1-0.1 0.3 0 0.7 0 0.9 0 0.3 0.1 0.6 0.1 0.8 0.2 0.2 0 0.6 0.1 0.8 0.2 0.3 0.1 0.6 0.2 0.8 0.3 0.2 0.1 0.5 0.3 0.7 0.4 0.2 0.1 0.5 0.4 0.7 0.5 0.2 0.2 0.5 0.5 0.6 0.7 0.2 0.2 0.5 0.5 0.6 0.7 0.1 0.2 0.3 0.5 0.4 0.7 0.1 0.2 0.2 0.5 0.3 0.6 0 0.2 0.1 0.5 0.2 0.7 0.1 0.2 0.1 0.6 0.2 0.8 0 0.2 0 0.7 0 1 0 0.3 0 0.7 0 1-0.1 0.2-0.1 0.6-0.2 0.8-0.1 0.2-0.2 0.5-0.2 0.6-0.1 0.2-0.2 0.5-0.3 0.7-0.1 0.2-0.3 0.6-0.5 0.7-0.1 0.2-0.3 0.4-0.4 0.6l16.5 16.4h5.9l0.1-0.1c0-0.1 0.1-0.3 0.2-0.5 0.1-0.2 0.3-0.6 0.4-0.7 0.1-0.2 0.3-0.5 0.5-0.6 0.1-0.2 0.4-0.5 0.6-0.7 0.1-0.1 0.4-0.4 0.6-0.5 0.2-0.1 0.6-0.4 0.9-0.5 0.2-0.1 0.6-0.3 0.8-0.4 0.2 0 0.6-0.1 0.8-0.2 0.3 0 0.7-0.1 1-0.1 0.3-0.1 0.6-0.1 1 0 0.2 0 0.6 0.1 0.9 0.1 0.2 0 0.5 0.1 0.7 0.2 0.2 0.1 0.5 0.2 0.7 0.3 0.2 0.1 0.5 0.2 0.7 0.3 0.1 0.1 0.4 0.3 0.5 0.4 0.1 0.1 0.4 0.3 0.5 0.4 0.2 0.2 0.4 0.4 0.6 0.6 0.1 0.2 0.4 0.5 0.5 0.7 0.1 0.2 0.3 0.5 0.4 0.8 0.2 0.2 0.3 0.6 0.4 0.8 0 0.2 0.1 0.5 0.2 0.7 0 0.2 0.1 0.6 0.1 0.9 0 0.4 0 0.7 0 1.1 0 0.3-0.1 0.7-0.1 0.9-0.1 0.2-0.2 0.5-0.2 0.7-0.1 0.2-0.2 0.5-0.4 1l6 6h21.9l-10.4-10.4-0.5 0.1c-0.2 0-0.6 0.1-0.8 0.1-0.2 0-0.7 0-1.2 0-0.5 0-0.9 0-1.2-0.1-0.2 0-0.5-0.1-0.7-0.1-0.2-0.1-0.6-0.2-0.9-0.3-0.2-0.1-0.6-0.3-0.9-0.4-0.2-0.1-0.6-0.3-0.8-0.5-0.3-0.1-0.6-0.4-0.8-0.6-0.2-0.1-0.6-0.4-0.8-0.7-0.2-0.2-0.5-0.5-0.6-0.7-0.2-0.2-0.4-0.6-0.5-0.8-0.2-0.2-0.3-0.6-0.4-0.8-0.1-0.2-0.3-0.6-0.4-0.9-0.1-0.3-0.2-0.7-0.3-1 0-0.3-0.1-0.8-0.1-1-0.1-0.3-0.1-0.8 0-1.1 0-0.3 0-0.8 0.1-1 0-0.3 0.1-0.7 0.1-0.9 0.1-0.2 0.2-0.6 0.3-0.8 0.1-0.2 0.2-0.5 0.3-0.7 0.1-0.2 0.3-0.6 0.4-0.8 0.1-0.2 0.4-0.5 0.5-0.7 0.2-0.2 0.5-0.6 0.8-0.9 0.3-0.3 0.7-0.6 0.9-0.8 0.2-0.2 0.6-0.4 1.1-0.7v-11.2l-13.7-13.7h-24.1l-2.7-1.1-18.9-19-0.4 0.1c-0.2 0.1-0.7 0.1-1 0.2-0.3 0-0.7 0-0.9 0-0.2 0-0.6 0-0.9 0-0.3-0.1-0.8-0.1-1-0.2-0.3 0-0.6-0.1-0.8-0.2-0.2-0.1-0.6-0.2-0.9-0.3-0.3-0.2-0.6-0.4-0.8-0.5-0.2-0.1-0.6-0.3-0.8-0.5-0.2-0.2-0.6-0.5-0.8-0.7-0.2-0.2-0.5-0.5-0.7-0.7-0.2-0.2-0.4-0.5-0.6-0.8-0.1-0.2-0.3-0.6-0.5-0.8-0.1-0.3-0.3-0.7-0.4-0.9 0-0.2-0.2-0.7-0.2-0.9-0.1-0.3-0.2-0.8-0.2-1.1-0.1-0.2-0.1-0.7-0.1-1.1 0-0.3 0-0.8 0.1-1.1 0-0.2 0.1-0.6 0.1-0.9 0.1-0.2 0.2-0.6 0.3-0.8 0-0.3 0.2-0.7 0.4-1 0.1-0.3 0.4-0.7 0.5-0.9 0.1-0.2 0.4-0.6 0.5-0.8 0.2-0.2 0.5-0.5 0.7-0.7 0.3-0.2 0.6-0.5 0.7-0.6 0.2-0.2 0.5-0.4 0.7-0.5 0.2-0.1 0.6-0.4 0.9-0.5 0.3-0.2 0.8-0.4 1.1-0.5 0.2 0 0.7-0.2 1-0.2 0.3-0.1 0.8-0.1 1-0.2 0.3 0 0.8 0 1.1 0 0.3 0 0.7 0.1 1 0.1 0.2 0.1 0.6 0.1 0.8 0.2 0.2 0 0.5 0.1 0.8 0.2 0.2 0.1 0.6 0.3 0.8 0.4 0.3 0.1 0.7 0.3 0.9 0.5 0.3 0.2 0.6 0.4 0.8 0.6 0.2 0.1 0.6 0.4 0.8 0.7 0.2 0.2 0.5 0.5 0.6 0.7 0.1 0.2 0.3 0.5 0.5 0.6 0.1 0.2 0.3 0.6 0.4 0.9 0.2 0.3 0.4 0.8 0.5 1 0 0.3 0.2 0.7 0.2 0.9 0 0.2 0.1 0.6 0.1 0.8 0.1 0.2 0.1 0.7 0.1 1.1 0 0.4 0 0.8 0 1-0.1 0.2-0.1 0.5-0.2 0.8 0 0.2-0.1 0.6-0.4 1.5l17.5 17.4h24l2.7 1.2 9.2 9.1v-23.2l-14.2-14.2-0.2 0.1c-0.1 0.1-0.3 0.1-0.5 0.2-0.1 0-0.4 0.1-0.6 0.2-0.2 0-0.6 0.1-0.9 0.1-0.4 0-0.7 0-1.1 0-0.2 0-0.7-0.1-0.9-0.1-0.2-0.1-0.6-0.2-0.8-0.3-0.2 0-0.6-0.2-0.8-0.3-0.3-0.2-0.7-0.4-0.9-0.5-0.2-0.2-0.5-0.4-0.6-0.6-0.2-0.1-0.5-0.4-0.6-0.6-0.2-0.2-0.4-0.5-0.5-0.6-0.1-0.2-0.2-0.4-0.3-0.6-0.1-0.1-0.2-0.4-0.3-0.6-0.1-0.3-0.2-0.6-0.3-0.8-0.1-0.3-0.1-0.6-0.2-0.9 0-0.2 0-0.6 0-0.9 0-0.2 0-0.6 0-0.7 0-0.2 0.1-0.5 0.1-0.7 0.1-0.1 0.2-0.5 0.2-0.8 0.1-0.2 0.3-0.6 0.4-0.8 0-0.1 0.2-0.4 0.3-0.5 0.1-0.2 0.3-0.5 0.4-0.6 0.2-0.2 0.4-0.5 0.6-0.7 0.2-0.2 0.5-0.4 0.7-0.6 0.3-0.2 0.7-0.5 1-0.6 0.3-0.2 0.7-0.3 0.9-0.4 0.3-0.1 0.6-0.2 0.8-0.2q0.4-0.1 1.1-0.1c0.5 0 0.8 0 1 0 0.2 0 0.5 0.1 0.7 0.1 0.2 0.1 0.5 0.1 0.7 0.2 0.2 0.1 0.6 0.2 0.9 0.4 0.2 0.1 0.6 0.3 0.8 0.5 0.2 0.1 0.5 0.4 0.7 0.5 0.1 0.1 0.4 0.4 0.5 0.5 0.2 0.2 0.4 0.5 0.5 0.7 0.1 0.1 0.4 0.5 0.5 0.7 0.1 0.3 0.3 0.7 0.4 0.9 0 0.2 0.1 0.6 0.2 0.8 0 0.2 0.1 0.6 0.1 0.8 0 0.3 0 0.7 0 0.9 0 0.3 0 0.6-0.1 0.8 0 0.2-0.1 0.5-0.1 0.7 0 0.2-0.1 0.5-0.4 1l15 14.9 0.6 1.7v27.6l-0.1 0.3c0 0.1-0.1 0.3-0.3 0.7l2.4 2.5 1.2 2.7v12.5l0.4 0.2c0.2 0.1 0.5 0.3 0.7 0.4 0.2 0.2 0.5 0.4 0.8 0.6 0.2 0.2 0.5 0.5 0.7 0.7 0.2 0.2 0.5 0.6 0.7 0.8 0.2 0.2 0.4 0.5 0.5 0.7 0.1 0.2 0.3 0.6 0.5 0.8 0.1 0.3 0.2 0.7 0.3 1 0.1 0.3 0.2 0.7 0.3 1 0.1 0.3 0.1 0.7 0.1 1 0.1 0.3 0.1 0.7 0.1 1.1 0 0.3-0.1 0.7-0.1 0.9-0.1 0.3-0.1 0.6-0.2 0.8 0 0.2-0.1 0.5-0.4 1.3l38.5 38.5 1.1 2.6v76.3l-0.1 0.4c-0.1 0.2-0.2 0.5-0.3 0.7-0.1 0.2-0.3 0.5-0.4 0.6-0.2 0.2-0.4 0.5-0.6 0.6-0.1 0.1-0.4 0.3-0.5 0.4-0.2 0.1-0.5 0.2-0.7 0.3-0.1 0-0.4 0.1-0.6 0.2-0.2 0-0.5 0-0.6 0-0.2 0-0.5 0-0.7 0-0.2-0.1-0.4-0.1-0.5-0.2-0.1 0-0.4-0.1-0.6-0.2-0.2-0.1-0.5-0.3-0.7-0.4-0.1-0.2-0.4-0.4-0.5-0.6-0.2-0.1-0.3-0.4-0.4-0.6-0.1-0.1-0.2-0.3-0.3-0.4 0-0.1-0.1-0.4-0.2-0.8v-74.6l-6.5-6.5-0.2 0.4c-0.2 0.2-0.4 0.6-0.7 1-0.2 0.4-0.6 0.9-0.8 1.2-0.2 0.4-0.6 0.9-0.8 1.2-0.2 0.3-0.7 0.8-1 1.2-0.3 0.4-0.8 1-1.1 1.4-0.3 0.3-1.1 1.1-1.7 1.7-0.5 0.6-1.3 1.3-1.6 1.5-0.3 0.3-0.8 0.8-1.1 1-0.4 0.3-0.9 0.7-1.2 0.9-0.3 0.3-0.9 0.7-1.3 1-0.4 0.2-1.1 0.6-1.4 0.9-0.4 0.2-1.2 0.6-1.8 0.9-0.6 0.3-1.3 0.6-1.6 0.8-0.3 0.1-0.9 0.3-1.2 0.5-0.4 0.1-1 0.3-1.5 0.4-0.4 0.2-0.9 0.3-1.1 0.4-0.3 0-0.7 0.1-1 0.2-0.3 0.1-0.9 0.2-1.3 0.2-0.4 0.1-1.1 0.2-1.5 0.2-0.8 0.1-1 0.1-2.6 0.1-1.6 0-1.9 0-2.7-0.1-0.4 0-1-0.1-1.3-0.1-0.3-0.1-0.9-0.2-1.2-0.2-0.4-0.1-1-0.2-1.4-0.3-0.4-0.1-1-0.3-1.4-0.4-0.3-0.1-0.9-0.3-1.4-0.4-0.4-0.2-0.9-0.4-1.2-0.5-0.3-0.1-0.8-0.2-1.1-0.4-0.3-0.1-0.9-0.4-1.3-0.6-0.5-0.2-1.2-0.5-1.6-0.8-0.5-0.2-1.1-0.5-1.3-0.6-0.2-0.1-0.7-0.4-1.1-0.7-0.4-0.2-0.9-0.6-1.3-0.8-0.3-0.2-0.9-0.6-1.3-0.8-0.4-0.3-0.9-0.6-1.3-1l-0.3 0.1c-0.2 0.1-0.6 0.2-0.9 0.4-0.4 0.1-0.9 0.3-1.2 0.4-0.3 0.1-0.9 0.4-1.4 0.5-0.5 0.2-1.3 0.5-1.8 0.7-0.5 0.1-1.3 0.3-1.7 0.5-0.4 0.1-1 0.2-1.4 0.3-0.4 0.1-1 0.3-1.4 0.4-0.4 0.1-1 0.2-1.4 0.3-0.4 0.1-1 0.2-1.4 0.2-0.4 0.1-1.1 0.2-1.5 0.3-0.4 0-1.1 0.1-1.5 0.1-0.4 0.1-1.2 0.1-1.7 0.2q-1 0.1-2.5 0.1c-0.8 0-1.8-0.1-2.2-0.1-0.4 0-1.1-0.1-1.5-0.1-0.5-0.1-1.1-0.1-1.4-0.2-0.3 0-0.8-0.1-1.1-0.2-0.3 0-0.8-0.1-1.2-0.2-0.3-0.1-1-0.2-1.4-0.3-0.4-0.2-1-0.4-1.5-0.5-0.5-0.2-1.1-0.4-1.4-0.5-0.3-0.1-0.8-0.4-1.1-0.5-0.3-0.1-0.8-0.4-1.1-0.5-0.3-0.2-0.8-0.4-1.1-0.6-0.2-0.1-0.6-0.3-0.8-0.4-0.2-0.2-0.6-0.4-0.9-0.6-0.3-0.2-0.8-0.6-1.1-0.8-0.4-0.3-0.9-0.7-1.2-0.9-0.3-0.2-0.8-0.7-1.2-1-0.3-0.4-0.8-0.8-1-1.1-0.3-0.2-0.6-0.6-0.9-0.9-0.3-0.3-0.6-0.7-0.8-1-0.2-0.2-0.6-0.7-0.9-1-0.2-0.4-0.6-0.9-0.8-1.3-0.2-0.3-0.6-0.8-0.8-1.2-0.3-0.4-0.6-1-0.8-1.4-0.3-0.4-0.6-1-0.8-1.4-0.2-0.4-0.5-1-0.7-1.4-0.1-0.3-0.4-1-0.6-1.4-0.2-0.5-0.4-0.9-0.4-1.1-0.1-0.1-0.1-0.2-0.1-0.2 0 0-0.4-0.1-0.8-0.1-0.4-0.1-1.1-0.2-1.5-0.2-0.4-0.1-1.1-0.2-1.6-0.3-0.5-0.1-1.4-0.3-1.9-0.5-0.5-0.1-1.3-0.3-1.7-0.4-0.4-0.1-1.1-0.4-1.6-0.5-0.4-0.1-1.1-0.4-1.5-0.6-0.5-0.1-1.1-0.4-1.4-0.5-0.3-0.2-0.7-0.3-0.8-0.4-0.2 0-0.6-0.3-1-0.5-0.5-0.2-1-0.5-1.2-0.6-0.3-0.1-0.7-0.4-1-0.5-0.3-0.2-0.7-0.5-1-0.7-0.3-0.2-0.8-0.5-1.1-0.7-0.2-0.2-0.7-0.5-0.9-0.7-0.2-0.2-0.7-0.5-1-0.8-0.4-0.3-1.1-0.9-1.6-1.4-0.5-0.5-1.1-1.2-1.3-1.4-0.2-0.3-0.6-0.7-0.8-1-0.2-0.2-0.5-0.7-0.7-0.9-0.2-0.3-0.5-0.8-0.7-1-0.2-0.3-0.4-0.7-0.6-1-0.1-0.3-0.4-0.7-0.6-1.1-0.1-0.3-0.4-0.8-0.6-1.2-0.1-0.4-0.4-0.8-0.5-1.1-0.1-0.3-0.2-0.7-0.4-1.1-0.1-0.3-0.3-0.9-0.4-1.2-0.1-0.4-0.2-0.9-0.3-1.3-0.1-0.3-0.3-0.9-0.3-1.3-0.1-0.3-0.2-0.9-0.3-1.2 0-0.4-0.1-0.9-0.2-1.3 0-0.3-0.1-0.8-0.1-1 0-0.3 0-0.9-0.1-1.4 0-0.5 0-1.5 0-2.1 0-0.6 0-1.5 0-2 0-0.4 0.1-1.1 0.1-1.5 0-0.4 0.1-1.1 0.1-1.5 0.1-0.4 0.2-1 0.2-1.4 0.1-0.4 0.2-1.1 0.3-1.5 0-0.5 0.2-1.2 0.2-1.6 0.1-0.3 0.2-0.9 0.3-1.2 0.1-0.3 0.2-1 0.6-2.4l-1-0.9c-0.5-0.5-1.2-1.3-1.6-1.7-0.4-0.4-0.9-1-1.3-1.4-0.3-0.4-0.9-1.1-1.3-1.5-0.3-0.5-0.9-1.2-1.2-1.6-0.2-0.4-0.7-1.1-1.1-1.6-0.4-0.6-0.8-1.3-1.1-1.7-0.2-0.4-0.6-1.1-0.8-1.4-0.2-0.4-0.5-1.1-0.8-1.6-0.3-0.5-0.6-1.3-0.8-1.6-0.1-0.4-0.3-0.9-0.4-1.1-0.1-0.2-0.2-0.6-0.3-0.9-0.1-0.2-0.3-0.8-0.4-1.2-0.1-0.3-0.3-1-0.4-1.4-0.1-0.4-0.3-1-0.3-1.4-0.1-0.3-0.2-0.8-0.3-1.2 0-0.3-0.1-0.9-0.1-1.1 0-0.3-0.1-0.8-0.1-1.1 0-0.3-0.1-0.9-0.1-1.3 0-0.5 0-1.2 0-1.7 0.1-0.4 0.1-1.1 0.1-1.4 0.1-0.3 0.1-0.7 0.2-0.9 0-0.3 0.1-0.7 0.1-1 0.1-0.3 0.2-0.8 0.2-1 0.1-0.3 0.2-0.7 0.3-1 0-0.2 0.2-0.8 0.3-1.1 0.1-0.4 0.3-1 0.5-1.4 0.1-0.4 0.4-0.9 0.5-1.2 0.1-0.2 0.3-0.8 0.6-1.2 0.2-0.5 0.5-1.1 0.7-1.4 0.2-0.3 0.5-0.8 0.7-1.1 0.1-0.3 0.5-0.8 0.7-1.2 0.3-0.3 0.7-0.9 0.9-1.2 0.3-0.3 0.7-0.9 1-1.2 0.3-0.3 0.7-0.8 0.9-1 0.2-0.3 0.7-0.8 1-1.1 0.3-0.3 0.9-0.9 1.2-1.2 0.3-0.3 0.8-0.7 1.1-1 0.3-0.2 0.5-0.5 0.6-0.5 0 0-0.1-0.2-0.4-0.8-0.3-0.4-0.6-1-0.8-1.4-0.2-0.3-0.6-1-0.8-1.4-0.2-0.4-0.6-1.2-0.8-1.6-0.3-0.5-0.6-1.3-0.9-1.8-0.2-0.5-0.5-1.2-0.7-1.6-0.1-0.5-0.4-1.2-0.5-1.6-0.2-0.4-0.4-1-0.5-1.4-0.1-0.3-0.3-0.9-0.4-1.2-0.1-0.3-0.3-1-0.4-1.4-0.1-0.5-0.3-1.2-0.3-1.6-0.1-0.4-0.2-1-0.3-1.3 0-0.4-0.1-1-0.2-1.3 0-0.4-0.1-1.1-0.1-1.5 0-0.4-0.1-1.3-0.1-2 0-0.6 0.1-1.5 0.1-1.8 0-0.3 0.1-0.8 0.1-1.1 0-0.3 0.1-0.7 0.1-1 0.1-0.3 0.2-0.8 0.2-1.1 0.1-0.3 0.2-0.8 0.3-1.1 0.1-0.3 0.2-0.8 0.3-1.2 0.1-0.3 0.3-0.8 0.4-1.1 0.1-0.3 0.3-0.8 0.5-1.1 0.1-0.3 0.3-0.7 0.5-1 0.1-0.3 0.4-0.8 0.6-1.1 0.2-0.3 0.4-0.8 0.6-1 0.1-0.2 0.4-0.6 0.5-0.7 0.1-0.2 0.4-0.5 0.6-0.8 0.2-0.3 0.6-0.7 0.8-1 0.3-0.3 0.8-0.8 1.2-1.2 0.4-0.4 1-0.9 1.3-1.2 0.4-0.3 0.9-0.7 1.2-0.9 0.3-0.2 0.8-0.6 1.2-0.9 0.4-0.3 1-0.7 1.4-0.9 0.4-0.2 0.9-0.5 1.2-0.7 0.4-0.1 1-0.5 1.5-0.7 0.5-0.2 1.2-0.6 1.7-0.8 0.5-0.2 1.2-0.5 1.7-0.7 0.5-0.2 1.1-0.4 1.3-0.4 0.3-0.1 0.3-0.2 0.5-0.6v-1.6c0-0.9 0.1-2.1 0.1-2.6 0-0.6 0.1-1.3 0.1-1.7 0.1-0.4 0.1-1 0.2-1.4 0-0.3 0.1-0.9 0.1-1.3 0.1-0.3 0.2-1 0.3-1.4 0.1-0.4 0.2-1.1 0.3-1.5 0.1-0.4 0.3-1.1 0.4-1.5 0.1-0.3 0.2-0.9 0.3-1.2 0.1-0.3 0.3-0.9 0.4-1.3 0.2-0.5 0.4-1.1 0.6-1.5 0.1-0.4 0.4-0.9 0.5-1.3 0.1-0.3 0.4-0.9 0.6-1.3 0.2-0.3 0.5-0.9 0.6-1.2 0.2-0.3 0.5-0.9 0.7-1.2 0.2-0.3 0.6-0.9 0.8-1.3 0.3-0.4 0.7-1 1-1.3 0.3-0.4 0.6-0.9 0.9-1.2 0.2-0.2 0.5-0.7 0.8-0.9 0.2-0.3 0.8-0.9 1.3-1.4 0.6-0.6 1.2-1.2 1.5-1.5 0.3-0.2 0.8-0.6 1.1-0.8 0.3-0.3 0.7-0.6 1-0.8 0.3-0.2 0.8-0.6 1-0.7 0.3-0.2 0.8-0.6 1.2-0.8 0.4-0.2 1-0.6 1.4-0.8 0.3-0.2 1-0.6 1.5-0.8 0.5-0.2 1.2-0.6 1.5-0.7 0.3-0.2 1-0.4 1.5-0.6 0.4-0.2 1.4-0.5 3.3-1.2l0.1-0.3c0-0.2 0.2-0.8 0.3-1.2 0.1-0.4 0.2-1 0.4-1.4 0.1-0.4 0.3-1 0.4-1.4 0.2-0.4 0.4-1 0.5-1.3 0.2-0.3 0.4-0.9 0.6-1.4 0.2-0.4 0.6-1.1 0.8-1.5 0.2-0.3 0.5-0.8 0.6-1 0.2-0.2 0.4-0.6 0.6-0.9 0.2-0.3 0.5-0.7 0.7-0.9 0.2-0.3 0.5-0.7 0.8-1 0.2-0.3 0.7-0.8 1-1.1 0.4-0.4 0.8-0.8 1.1-1 0.2-0.3 0.6-0.6 0.9-0.8 0.3-0.2 0.7-0.5 0.9-0.6 0.2-0.2 0.6-0.4 0.9-0.6 0.3-0.1 0.7-0.4 1-0.6 0.4-0.1 0.9-0.4 1.2-0.5q0.4-0.2 1.3-0.5v-0.4c0-0.2 0.1-0.7 0.1-1.3 0-0.5 0.1-1.2 0.1-1.6 0-0.4 0.1-1 0.1-1.4 0.1-0.4 0.2-1 0.2-1.3 0-0.3 0.1-0.8 0.2-1.2 0.1-0.4 0.2-1 0.2-1.3 0.1-0.3 0.2-0.9 0.3-1.3 0.1-0.4 0.3-1 0.4-1.4 0.1-0.4 0.3-1 0.4-1.4 0.1-0.3 0.4-0.9 0.5-1.3 0.1-0.4 0.4-1.1 0.6-1.5 0.1-0.4 0.5-1 0.7-1.5 0.2-0.5 0.5-1 0.7-1.3 0.1-0.3 0.4-0.7 0.6-1 0.1-0.3 0.4-0.7 0.6-1 0.2-0.2 0.4-0.6 0.6-0.8 0.1-0.2 0.4-0.5 0.6-0.8 0.2-0.2 0.5-0.6 0.7-0.8 0.2-0.3 0.7-0.8 1.1-1.2 0.4-0.3 0.9-0.8 1.2-1.1 0.3-0.3 0.7-0.6 1-0.8 0.2-0.2 0.6-0.5 0.8-0.6 0.2-0.2 0.7-0.5 1-0.7 0.3-0.2 0.8-0.5 1.1-0.6 0.2-0.1 0.7-0.4 1-0.6 0.4-0.1 0.9-0.4 1.2-0.5 0.4-0.2 0.8-0.4 1.1-0.5 0.2-0.1 0.7-0.2 1-0.3 0.4-0.1 0.9-0.3 1.2-0.4 0.3-0.1 0.9-0.2 1.2-0.3 0.3-0.1 1-0.2 1.4-0.3 0.4-0.1 1.1-0.2 1.5-0.2 0.4-0.1 1-0.1 1.4-0.2 0.4 0 1.1-0.1 1.6-0.1 0.7 0 1.5 0 2.3 0 0.7 0 1.6 0 2.1 0.1 0.5 0 1.2 0.1 1.5 0.1 0.4 0 1.1 0.1 1.5 0.2 0.4 0 1.2 0.1 1.6 0.2 0.5 0.1 1.2 0.2 1.6 0.3 0.3 0 1 0.2 2.2 0.4l0.3-0.3c0.1-0.2 0.4-0.4 0.5-0.5 0.2-0.1 0.7-0.5 1.2-1 0.4-0.5 1-1 1.3-1.2 0.2-0.2 0.6-0.6 0.9-0.8 0.3-0.3 0.9-0.7 1.2-1 0.4-0.3 1.1-0.8 1.5-1.2 0.4-0.3 1.1-0.7 1.4-1 0.4-0.2 1-0.6 1.3-0.9 0.4-0.2 1-0.6 1.4-0.8 0.4-0.3 1-0.6 1.4-0.8 0.3-0.2 1.1-0.6 1.7-0.9 0.6-0.3 1.4-0.7 1.8-0.9 0.5-0.2 1.2-0.5 1.6-0.6 0.4-0.2 1.1-0.4 1.5-0.6 0.4-0.1 1-0.3 1.4-0.5 0.3-0.1 0.9-0.2 1.2-0.3 0.3-0.1 0.9-0.3 1.3-0.4 0.4-0.1 1-0.2 1.3-0.2 0.3-0.1 0.9-0.2 1.3-0.3 0.4 0 1-0.1 1.4-0.2 0.3 0 0.9-0.1 1.3-0.1 0.4 0 0.9-0.1 1-0.1 0.2 0 1.2 0 2.2 0zm73.2 20.9c-0.1 0-0.4 0.1-0.6 0.1-0.1 0.1-0.4 0.2-0.5 0.2-0.2 0.1-0.4 0.2-0.6 0.3-0.1 0.1-0.3 0.3-0.5 0.5-0.1 0.1-0.3 0.3-0.4 0.4-0.1 0.2-0.2 0.4-0.3 0.5-0.1 0.2-0.2 0.4-0.3 0.6 0 0.1-0.1 0.4-0.1 0.6-0.1 0.2-0.1 0.5-0.1 0.7 0 0.1 0 0.4 0.1 0.6 0 0.2 0.1 0.4 0.1 0.5 0 0.2 0.1 0.3 0.2 0.4 0 0.2 0.1 0.3 0.3 0.4 0.2 0.1 0.4 0.4 0.5 0.5 0.2 0.1 0.4 0.4 0.5 0.6 0.2 0.3 0.2 0.3 0.4 0.4 0.2 0.1 0.4 0.2 0.6 0.2 0.1 0.1 0.4 0.1 0.5 0.2 0.2 0 0.5 0 0.7 0 0.2 0 0.5 0 0.6 0 0.2-0.1 0.5-0.1 0.7-0.2 0.1 0 0.4-0.1 0.5-0.2 0.2-0.1 0.4-0.3 0.5-0.4 0.2-0.1 0.4-0.2 0.5-0.3 0.1-0.2 0.2-0.3 0.3-0.5 0.1-0.1 0.3-0.3 0.4-0.5 0-0.2 0.1-0.4 0.2-0.5 0-0.2 0.1-0.4 0.1-0.5 0-0.2 0.1-0.5 0-0.8 0-0.4 0-0.6-0.1-0.9 0-0.2-0.1-0.5-0.2-0.7-0.1-0.1-0.2-0.4-0.3-0.5-0.1-0.1-0.3-0.4-0.4-0.5-0.2-0.2-0.4-0.4-0.5-0.5-0.2-0.1-0.5-0.2-0.7-0.3-0.2-0.2-0.5-0.2-0.7-0.3-0.2 0-0.6-0.1-0.7-0.1-0.2 0-0.5 0-0.7 0zm-116.5 19.4c-0.2 0.1-0.4 0.2-0.6 0.2-0.1 0.1-0.4 0.2-0.5 0.2-0.1 0.1-0.4 0.3-0.6 0.4-0.1 0.1-0.4 0.4-0.5 0.5-0.1 0.1-0.2 0.4-0.3 0.5-0.1 0.1-0.2 0.4-0.3 0.6-0.1 0.2-0.2 0.4-0.2 0.5 0 0.1-0.1 0.4-0.1 0.6 0 0.2 0 0.5 0 0.7 0 0.2 0.1 0.5 0.1 0.7 0.1 0.1 0.2 0.4 0.2 0.5 0.1 0.2 0.2 0.4 0.3 0.6 0.1 0.1 0.3 0.4 0.5 0.5 0.1 0.2 0.4 0.4 0.5 0.5 0.2 0.1 0.4 0.2 0.6 0.3 0.2 0.1 0.5 0.2 0.7 0.3 0.2 0 0.5 0.1 0.8 0.1 0.4 0 0.6 0 0.9-0.1 0.2 0 0.5-0.1 0.6-0.1 0.2-0.1 0.5-0.2 0.7-0.3 0.1-0.2 0.4-0.4 0.6-0.6 0.2-0.1 0.5-0.4 0.6-0.6 0.1-0.2 0.3-0.5 0.3-0.6 0.1-0.2 0.2-0.5 0.2-0.6 0.1-0.3 0.1-0.4 0.1-1 0-0.5 0-0.7-0.1-0.9 0-0.2-0.1-0.5-0.2-0.6-0.1-0.2-0.2-0.5-0.3-0.6-0.1-0.2-0.4-0.5-0.5-0.6-0.2-0.2-0.4-0.3-0.5-0.4-0.1-0.1-0.3-0.2-0.5-0.3-0.2-0.1-0.5-0.2-0.7-0.3-0.2-0.1-0.4-0.1-0.9-0.1-0.5 0-0.7 0-0.9 0zm44.6 9.7c-0.2 0.1-0.4 0.2-0.5 0.2-0.2 0.1-0.4 0.2-0.5 0.3-0.2 0.2-0.4 0.4-0.5 0.5-0.1 0.1-0.3 0.4-0.4 0.5 0 0.2-0.1 0.4-0.2 0.6 0 0.2-0.1 0.4-0.1 0.8 0 0.3 0.1 0.5 0.1 0.7 0.1 0.2 0.2 0.5 0.2 0.6 0.1 0.1 0.3 0.3 0.3 0.4 0.1 0.1 0.3 0.3 0.3 0.4 0.1 0.1 0.3 0.2 0.5 0.3 0.1 0.1 0.3 0.2 0.4 0.2 0.1 0.1 0.4 0.2 0.6 0.2 0.2 0.1 0.4 0.1 0.7 0q0.4 0 0.7-0.1c0.2 0 0.4-0.1 0.5-0.2 0.1-0.1 0.3-0.2 0.5-0.3 0.1-0.1 0.3-0.3 0.4-0.5 0.1-0.1 0.3-0.3 0.3-0.5 0.1-0.1 0.2-0.3 0.2-0.5 0.1-0.1 0.1-0.4 0.1-0.5 0-0.1 0-0.4 0-0.6 0-0.2-0.1-0.4-0.1-0.5 0-0.1-0.1-0.3-0.2-0.5-0.1-0.1-0.2-0.3-0.3-0.5-0.1-0.1-0.3-0.3-0.5-0.4-0.1-0.1-0.3-0.3-0.4-0.3-0.1-0.1-0.4-0.2-0.5-0.2-0.2-0.1-0.4-0.1-0.8-0.1-0.4 0-0.6 0-0.8 0zm83.4 1c-0.1 0-0.3 0.1-0.4 0.1-0.1 0-0.3 0.1-0.4 0.2-0.2 0.1-0.4 0.3-0.6 0.4-0.1 0.2-0.3 0.4-0.4 0.6-0.1 0.1-0.3 0.4-0.3 0.6-0.1 0.2-0.2 0.4-0.2 0.7 0 0.3 0 0.6 0.1 0.7 0 0.2 0.1 0.5 0.1 0.6 0.1 0.2 0.2 0.4 0.3 0.5 0 0.1 0.2 0.3 0.3 0.4 0.2 0.2 0.4 0.4 0.6 0.5 0.1 0.1 0.4 0.2 0.6 0.3 0.3 0.1 0.4 0.1 0.8 0.1 0.3 0 0.5 0 0.7 0 0.2-0.1 0.5-0.2 0.7-0.3 0.3-0.1 0.5-0.2 0.7-0.5 0.3-0.2 0.4-0.5 0.5-0.6 0.1-0.2 0.2-0.5 0.3-0.6 0.1-0.3 0.1-0.4 0.1-0.9 0-0.5 0-0.6-0.1-0.8-0.1-0.2-0.2-0.5-0.3-0.6-0.1-0.2-0.2-0.4-0.4-0.6-0.2-0.2-0.4-0.4-0.6-0.5-0.2-0.1-0.4-0.2-0.6-0.2-0.2-0.1-0.4-0.2-0.8-0.2q-0.4 0-0.7 0.1zm-152 38.7c-0.1 0-0.2 0.1-0.4 0.1-0.2 0.1-0.5 0.2-0.6 0.3-0.2 0.1-0.4 0.3-0.6 0.5-0.1 0.1-0.3 0.4-0.3 0.5-0.1 0.1-0.2 0.3-0.3 0.5 0 0.1-0.1 0.4-0.1 0.6q-0.1 0.3 0 0.7c0 0.2 0 0.4 0.1 0.6 0 0.1 0.1 0.3 0.2 0.5q0.2 0.3 0.5 0.6c0.3 0.3 0.5 0.4 0.7 0.5 0.1 0.1 0.4 0.2 0.6 0.3 0.2 0 0.4 0.1 0.7 0.1q0.5 0 0.8-0.1c0.1-0.1 0.4-0.2 0.6-0.3 0.2-0.1 0.4-0.2 0.7-0.5 0.2-0.1 0.4-0.4 0.5-0.5 0-0.2 0.1-0.4 0.2-0.6 0.1-0.1 0.1-0.4 0.1-0.6 0.1-0.2 0.1-0.5 0-0.7 0-0.2-0.1-0.5-0.1-0.6-0.1-0.2-0.2-0.4-0.3-0.6-0.1-0.1-0.2-0.3-0.4-0.5-0.1-0.1-0.3-0.3-0.5-0.4-0.1-0.1-0.4-0.2-0.6-0.3-0.3-0.1-0.4-0.1-0.9-0.1-0.3 0-0.6 0-0.6 0zm188 39.7c-0.1 0-0.3 0.1-0.5 0.1-0.1 0.1-0.4 0.2-0.5 0.2-0.1 0.1-0.4 0.3-0.5 0.5-0.2 0.1-0.4 0.3-0.5 0.5-0.1 0.1-0.2 0.4-0.3 0.5 0 0.1-0.1 0.4-0.1 0.5 0 0.1 0 0.4 0 0.6 0 0.2 0 0.5 0 0.6 0.1 0.2 0.1 0.4 0.2 0.6 0.1 0.1 0.2 0.4 0.3 0.5 0.2 0.2 0.4 0.4 0.5 0.5 0.1 0.1 0.4 0.3 0.5 0.4 0.2 0 0.4 0.1 0.5 0.2 0.2 0 0.3 0 0.9 0 0.6 0 0.6 0 0.9-0.1 0.2 0 0.4-0.1 0.5-0.2 0.1-0.1 0.4-0.3 0.6-0.5q0.3-0.3 0.5-0.6c0.1-0.2 0.2-0.4 0.2-0.6 0.1-0.2 0.1-0.4 0.1-0.8 0-0.4 0-0.6 0-0.8-0.1-0.1-0.2-0.4-0.2-0.5-0.1-0.1-0.2-0.4-0.3-0.5-0.2-0.1-0.4-0.3-0.5-0.5-0.1-0.1-0.4-0.2-0.5-0.3-0.1-0.1-0.4-0.2-0.5-0.2q-0.3-0.1-0.7-0.1c-0.2 0-0.5 0-0.6 0zm44.2 5.9c-0.2 0-0.5 0.1-0.7 0.2-0.2 0.1-0.5 0.2-0.6 0.3-0.2 0.1-0.4 0.3-0.6 0.4-0.1 0.2-0.3 0.4-0.4 0.5-0.1 0.1-0.2 0.4-0.3 0.6-0.1 0.1-0.2 0.4-0.3 0.6 0 0.2-0.1 0.5-0.1 0.7-0.1 0.4-0.1 0.6 0 0.8 0 0.2 0 0.5 0.1 0.6 0 0.2 0.1 0.4 0.1 0.6 0.1 0.1 0.3 0.4 0.4 0.6 0.1 0.2 0.3 0.4 0.4 0.5 0.2 0.2 0.4 0.4 0.5 0.4 0.1 0.1 0.3 0.3 0.5 0.4 0.1 0 0.4 0.1 0.5 0.2 0.2 0.1 0.5 0.1 0.7 0.2 0.1 0 0.4 0 0.6 0 0.2 0 0.5 0 0.7 0 0.1-0.1 0.4-0.1 0.5-0.2 0.2 0 0.4-0.1 0.6-0.2 0.2-0.1 0.5-0.3 0.6-0.4 0.2-0.2 0.5-0.4 0.6-0.6 0.1-0.1 0.3-0.4 0.4-0.6 0.1-0.1 0.2-0.4 0.3-0.6 0-0.2 0.1-0.6 0.1-0.8 0.1-0.2 0.1-0.5 0.1-0.7 0-0.2-0.1-0.5-0.1-0.7-0.1-0.2-0.2-0.4-0.2-0.6-0.1-0.1-0.3-0.4-0.4-0.6-0.1-0.2-0.3-0.5-0.5-0.6-0.2-0.2-0.4-0.4-0.5-0.5-0.2 0-0.4-0.2-0.6-0.3-0.1 0-0.4-0.1-0.6-0.2-0.2 0-0.5-0.1-0.9-0.1-0.5 0-0.7 0-0.9 0.1zm-153.8 11.6c-0.2 0-0.5 0.1-0.6 0.1-0.2 0-0.4 0.2-0.6 0.2-0.2 0.1-0.4 0.3-0.5 0.4-0.1 0.1-0.3 0.2-0.5 0.4-0.1 0.1-0.2 0.3-0.3 0.4-0.1 0.2-0.3 0.4-0.4 0.5 0 0.2-0.1 0.4-0.2 0.6 0 0.1-0.1 0.3-0.1 0.5 0 0.1 0 0.4 0 0.7 0 0.3 0 0.6 0 0.8 0.1 0.1 0.1 0.4 0.2 0.6 0.1 0.1 0.2 0.4 0.3 0.6 0.2 0.2 0.4 0.5 0.6 0.7 0.2 0.2 0.5 0.4 0.6 0.5 0.2 0.1 0.5 0.3 0.6 0.3 0.2 0.1 0.4 0.2 0.5 0.2 0.2 0 0.4 0.1 0.6 0.1q0.4 0.1 0.8 0c0.2 0 0.5-0.1 0.7-0.1 0.2-0.1 0.5-0.2 0.6-0.2 0.1-0.1 0.4-0.2 0.5-0.3 0.1-0.1 0.4-0.4 0.6-0.5 0.2-0.2 0.4-0.5 0.5-0.7 0.1-0.2 0.3-0.5 0.3-0.7 0.1-0.2 0.2-0.5 0.2-0.7 0.1-0.2 0.1-0.5 0.1-0.7 0-0.1-0.1-0.5-0.1-0.7 0-0.2-0.1-0.5-0.2-0.6 0-0.2-0.1-0.4-0.2-0.5-0.1-0.2-0.3-0.4-0.4-0.5-0.1-0.2-0.2-0.4-0.4-0.5-0.1-0.1-0.3-0.2-0.4-0.3-0.1-0.1-0.3-0.2-0.5-0.3-0.1-0.1-0.3-0.1-0.5-0.2-0.1 0-0.4-0.1-0.6-0.1-0.1-0.1-0.4-0.1-0.6-0.1-0.2 0-0.5 0-0.6 0.1zm-48.8 173.2c0 0 0.2 0 0.4 0.1 0.2 0 0.5 0.1 0.7 0.1 0.2 0.1 0.5 0.2 0.6 0.2 0.1 0.1 0.4 0.2 0.5 0.3 0.2 0.1 0.4 0.4 0.6 0.6 0.2 0.2 0.4 0.5 0.5 0.6 0.1 0.2 0.3 0.5 0.3 0.7 0.1 0.1 0.2 0.4 0.2 0.6 0.1 0.2 0.1 0.5 0.1 0.7 0 0.2 0 0.5-0.1 0.7 0 0.2-0.1 0.5-0.1 0.6-0.1 0.2-0.2 0.4-0.3 0.6-0.1 0.1-0.2 0.3-0.3 0.5-0.1 0.1-0.3 0.3-0.4 0.4-0.1 0.1-0.4 0.4-0.6 0.5-0.2 0.1-0.5 0.3-0.6 0.3-0.2 0.1-0.5 0.2-0.7 0.2-0.1 0.1-0.4 0.1-0.6 0.1-0.2 0-0.5 0-0.7 0-0.2 0-0.5-0.1-0.6-0.2-0.2 0-0.5-0.1-0.6-0.2-0.1 0-0.3-0.2-0.5-0.3-0.2-0.1-0.4-0.3-0.6-0.5-0.1-0.1-0.3-0.4-0.4-0.5-0.1-0.2-0.2-0.4-0.3-0.6-0.1-0.1-0.2-0.4-0.2-0.6-0.1-0.2-0.1-0.5-0.1-0.6 0-0.2 0-0.5 0-0.7 0-0.2 0-0.6 0.1-0.8 0.1-0.1 0.2-0.4 0.2-0.6 0.1-0.1 0.2-0.4 0.3-0.5 0.1-0.1 0.3-0.4 0.5-0.5 0.1-0.2 0.4-0.4 0.6-0.5 0.1-0.1 0.4-0.3 0.6-0.3 0.2-0.1 0.4-0.2 0.5-0.2 0.2-0.1 0.4-0.1 0.6-0.1 0.1-0.1 0.3-0.1 0.4-0.1zm16.4 0c0.1 0 0.3 0 0.5 0.1 0.2 0 0.5 0 0.6 0.1 0.2 0 0.4 0.1 0.6 0.2 0.1 0.1 0.4 0.2 0.5 0.3 0.2 0.1 0.4 0.3 0.6 0.4 0.1 0.2 0.3 0.4 0.5 0.6 0.1 0.2 0.2 0.5 0.3 0.6 0.1 0.1 0.2 0.4 0.3 1.1v6.1l-0.1 0.4c0 0.2-0.1 0.6-0.2 0.7-0.1 0.2-0.2 0.4-0.3 0.5-0.1 0.2-0.3 0.4-0.4 0.6-0.2 0.1-0.5 0.3-0.6 0.4-0.2 0.1-0.4 0.3-0.5 0.3-0.2 0.1-0.4 0.2-0.5 0.3-0.1 0-0.4 0.1-0.6 0.1-0.3 0.1-0.5 0.1-0.8 0-0.2 0-0.6 0-0.7-0.1-0.2 0-0.6-0.1-0.8-0.2-0.2-0.1-0.4-0.3-0.6-0.4-0.1-0.1-0.3-0.3-0.5-0.4-0.1-0.1-0.3-0.4-0.4-0.5 0-0.1-0.2-0.3-0.3-0.5 0-0.1-0.1-0.4-0.2-0.5 0-0.1-0.1-0.4-0.1-0.6-0.1-0.3-0.1-0.9-0.1-3.2 0-2.2 0-2.8 0.1-3.1 0-0.2 0.1-0.5 0.1-0.7 0.1-0.1 0.2-0.4 0.3-0.5 0.1-0.2 0.2-0.4 0.3-0.6 0.1-0.1 0.3-0.3 0.4-0.4 0.2-0.1 0.4-0.3 0.5-0.4 0.2-0.1 0.4-0.2 0.6-0.3 0.1-0.1 0.4-0.2 0.5-0.2 0.2-0.1 0.5-0.1 0.6-0.1 0.2-0.1 0.4-0.1 0.4-0.1zm17.5 0c0 0 0.2 0 0.4 0.1 0.2 0 0.5 0 0.7 0.1 0.1 0 0.4 0.1 0.6 0.2 0.2 0.1 0.5 0.3 0.7 0.5 0.2 0.1 0.5 0.4 0.6 0.5 0.1 0.2 0.3 0.4 0.4 0.6 0.1 0.1 0.2 0.4 0.2 0.6 0.1 0.1 0.2 0.4 0.2 0.6 0.1 0.3 0.1 0.8 0.1 6.9 0 6.2 0 6.6-0.1 6.9 0 0.2-0.1 0.5-0.2 0.6-0.1 0.2-0.2 0.5-0.3 0.6 0 0.1-0.2 0.3-0.3 0.5-0.1 0.1-0.4 0.4-0.5 0.5-0.1 0.1-0.4 0.2-0.5 0.3-0.1 0.1-0.3 0.2-0.5 0.3-0.1 0-0.3 0.1-0.5 0.1-0.1 0.1-0.4 0.1-0.6 0.2-0.3 0-0.5 0-0.8 0-0.2-0.1-0.5-0.1-0.7-0.2-0.2 0-0.4-0.1-0.6-0.2-0.1-0.1-0.3-0.2-0.5-0.3-0.1-0.1-0.3-0.3-0.5-0.4-0.1-0.2-0.3-0.4-0.4-0.5-0.1-0.2-0.3-0.5-0.4-0.7-0.1-0.2-0.2-0.5-0.3-1v-13.5-0.3c0.1-0.2 0.2-0.5 0.3-0.6 0-0.2 0.2-0.4 0.3-0.6 0.1-0.2 0.3-0.4 0.4-0.5 0.1-0.2 0.3-0.4 0.5-0.5 0.1-0.1 0.4-0.2 0.5-0.3 0.2-0.1 0.5-0.2 0.7-0.3 0.2-0.1 0.5-0.1 0.7-0.1 0.1-0.1 0.3-0.1 0.4-0.1zm73.6 0c0 0 0.2 0 0.4 0.1 0.2 0 0.5 0 0.6 0.1 0.2 0 0.5 0.1 0.6 0.2 0.2 0.1 0.4 0.2 0.6 0.3 0.1 0.1 0.4 0.3 0.5 0.4 0.2 0.2 0.4 0.4 0.5 0.6 0.1 0.2 0.3 0.4 0.3 0.5 0.1 0.1 0.1 0.3 0.2 0.5 0 0.1 0.1 0.4 0.1 0.6 0.1 0.4 0.1 1.4 0.1 6.7 0 4.4 0 6.4 0 6.7-0.1 0.2-0.1 0.5-0.2 0.7 0 0.1-0.1 0.4-0.2 0.5 0 0.1-0.2 0.3-0.3 0.4 0 0.2-0.2 0.4-0.4 0.6-0.2 0.2-0.4 0.4-0.6 0.5-0.2 0.1-0.4 0.3-0.5 0.3-0.1 0.1-0.4 0.2-0.6 0.2-0.2 0.1-0.5 0.1-0.7 0.2-0.3 0-0.5 0-0.7 0-0.2-0.1-0.6-0.1-0.8-0.2-0.2 0-0.4-0.1-0.5-0.2-0.1 0-0.4-0.2-0.5-0.3-0.2-0.1-0.4-0.3-0.5-0.4-0.2-0.1-0.3-0.3-0.4-0.4-0.1-0.1-0.3-0.4-0.4-0.5-0.1-0.2-0.2-0.5-0.2-0.6-0.1-0.2-0.2-0.5-0.2-0.7-0.1-0.3-0.1-1.4-0.1-6.8 0-5.4 0-6.4 0.1-6.7 0-0.2 0.1-0.5 0.2-0.7 0-0.1 0.1-0.4 0.2-0.5 0.1-0.2 0.3-0.4 0.4-0.6 0.1-0.1 0.2-0.3 0.4-0.4 0.1-0.1 0.3-0.3 0.5-0.4 0.1-0.1 0.3-0.2 0.5-0.3 0.2-0.1 0.4-0.2 0.6-0.2 0.1-0.1 0.4-0.1 0.6-0.1 0.1-0.1 0.3-0.1 0.4-0.1zm17.6 0c0.2 0.1 0.5 0.1 0.7 0.1 0.1 0.1 0.4 0.1 0.6 0.2 0.1 0.1 0.4 0.2 0.5 0.3 0.2 0.1 0.4 0.3 0.6 0.4 0.2 0.1 0.4 0.4 0.5 0.6 0.2 0.2 0.4 0.5 0.4 0.6 0.1 0.2 0.2 0.5 0.3 0.7 0 0.1 0.1 0.4 0.1 0.6 0 0.2 0 1.5 0 2.9 0 1.4 0 2.7 0 2.9 0 0.2-0.1 0.6-0.1 0.7-0.1 0.2-0.2 0.4-0.2 0.6-0.1 0.2-0.2 0.4-0.3 0.5-0.1 0.2-0.3 0.4-0.4 0.5-0.2 0.2-0.4 0.4-0.5 0.5-0.1 0.1-0.4 0.2-0.6 0.3-0.1 0.1-0.4 0.2-0.6 0.3-0.2 0-0.5 0.1-0.7 0.1-0.2 0.1-0.4 0.1-0.7 0-0.2 0-0.5 0-0.7-0.1-0.1 0-0.5-0.1-0.7-0.2-0.2-0.1-0.5-0.3-0.6-0.4-0.1-0.1-0.4-0.3-0.5-0.4-0.1-0.1-0.3-0.4-0.5-0.6-0.1-0.2-0.2-0.4-0.3-0.6-0.1-0.1-0.2-0.4-0.2-0.6-0.1-0.4-0.1-0.4-0.1-6.5l0.1-0.4c0-0.2 0.1-0.5 0.2-0.6 0-0.1 0.2-0.4 0.3-0.5 0.1-0.2 0.3-0.5 0.4-0.6 0.2-0.2 0.4-0.4 0.5-0.5 0.2-0.1 0.4-0.2 0.6-0.3 0.2-0.1 0.5-0.2 0.7-0.3 0.2-0.1 0.4-0.1 0.6-0.1 0.2-0.1 0.4-0.1 0.6-0.1zm16.5 0c0.2 0.1 0.5 0.1 0.7 0.1 0.2 0.1 0.5 0.2 0.7 0.3 0.2 0.1 0.5 0.3 0.7 0.4 0.1 0.1 0.3 0.2 0.5 0.4 0.1 0.1 0.3 0.4 0.4 0.5 0.1 0.2 0.3 0.5 0.3 0.6 0.1 0.2 0.2 0.5 0.3 0.6 0 0.3 0.1 0.5 0.1 1 0 0.5-0.1 0.7-0.1 0.9-0.1 0.2-0.1 0.4-0.2 0.5 0 0.1-0.1 0.3-0.2 0.5-0.1 0.1-0.2 0.4-0.4 0.6-0.1 0.1-0.4 0.4-0.5 0.5-0.2 0.1-0.4 0.3-0.6 0.4-0.2 0.1-0.5 0.2-0.6 0.3-0.2 0.1-0.5 0.1-0.7 0.2-0.2 0-0.5 0-0.6 0-0.1 0-0.4 0-0.6 0-0.2-0.1-0.5-0.1-0.6-0.2-0.2-0.1-0.5-0.2-0.6-0.2-0.1-0.1-0.4-0.3-0.5-0.4-0.2-0.1-0.5-0.4-0.6-0.6-0.2-0.1-0.4-0.4-0.5-0.7-0.1-0.2-0.2-0.5-0.3-0.7-0.1-0.3-0.1-0.4-0.1-1.1 0-0.7 0-0.7 0.1-1.1 0.1-0.2 0.2-0.5 0.3-0.7 0.1-0.2 0.3-0.5 0.4-0.6 0.2-0.2 0.4-0.4 0.5-0.5 0.2-0.2 0.4-0.3 0.5-0.4 0.1-0.1 0.4-0.2 0.5-0.3 0.2 0 0.4-0.1 0.6-0.1 0.1-0.1 0.4-0.1 0.5-0.1 0.1-0.1 0.4-0.1 0.6-0.1z"/></svg>